<?xml version="1.0" encoding="UTF-8" standalone="no"?>
<svg
   xmlns:dc="http://purl.org/dc/elements/1.1/"
   xmlns:cc="http://creativecommons.org/ns#"
   xmlns:rdf="http://www.w3.org/1999/02/22-rdf-syntax-ns#"
   xmlns:svg="http://www.w3.org/2000/svg"
   xmlns="http://www.w3.org/2000/svg"
   xmlns:sodipodi="http://sodipodi.sourceforge.net/DTD/sodipodi-0.dtd"
   xmlns:inkscape="http://www.inkscape.org/namespaces/inkscape"
   sodipodi:docname="prev.svg"
   inkscape:version="1.0beta1 (32d4812, 2019-09-19)"
   id="svg7853"
   version="1.1"
   viewBox="0 0 9.5729361 12.839435"
   height="12.839435mm"
   width="9.5729361mm">
  <defs
     id="defs7847" />
  <sodipodi:namedview
     inkscape:window-maximized="0"
     inkscape:window-y="23"
     inkscape:window-x="0"
     inkscape:window-height="770"
     inkscape:window-width="1440"
     showgrid="false"
     inkscape:document-rotation="0"
     inkscape:current-layer="layer1"
     inkscape:document-units="mm"
     inkscape:cy="-170.0219"
     inkscape:cx="-421.90953"
     inkscape:zoom="0.35"
     inkscape:pageshadow="2"
     inkscape:pageopacity="0.0"
     borderopacity="1.0"
     bordercolor="#666666"
     pagecolor="#ffffff"
     id="base" />
  <metadata
     id="metadata7850">
    <rdf:RDF>
      <cc:Work
         rdf:about="">
        <dc:format>image/svg+xml</dc:format>
        <dc:type
           rdf:resource="http://purl.org/dc/dcmitype/StillImage" />
        <dc:title></dc:title>
      </cc:Work>
    </rdf:RDF>
  </metadata>
  <g
     transform="translate(-217.46356,-193.15163)"
     id="layer1"
     inkscape:groupmode="layer"
     inkscape:label="Layer 1">
    <path
       d="m 226.62698,193.65845 c 3.5e-4,0.0442 0.004,0.10227 -0.0201,0.11744 v 0 c -0.0507,-0.13208 -0.19879,-0.19808 -0.33087,-0.14743 v 0 c -0.13205,0.0507 -0.19805,0.19879 -0.1474,0.33087 v 0 c 0.0507,0.13208 0.1988,0.19809 0.33088,0.14743 v 0 c 0.13204,-0.0507 0.19804,-0.19879 0.14739,-0.33087 0.0162,-0.003 0.0408,-0.0377 0.0611,-0.10753 v 0 c -0.005,-0.17797 -0.15247,-0.31855 -0.33041,-0.314 v 0 c -0.17794,0.005 -0.31852,0.15247 -0.31401,0.33041 v 0 c 0.005,0.17794 0.15247,0.31852 0.33041,0.31401 v 0 c 0.17795,-0.005 0.31853,-0.15248 0.31401,-0.33042 -0.01,-0.13465 -0.0341,-0.24733 -0.0761,-0.34018 v 0 c -0.11247,-0.16235 -0.33521,-0.20281 -0.49756,-0.0904 v 0 c -0.16235,0.11243 -0.20278,0.33518 -0.0904,0.49753 v 0 c 0.11247,0.16234 0.33521,0.20277 0.49756,0.0903 v 0 c 0.16235,-0.11243 0.20278,-0.33521 0.0904,-0.49752 -0.18098,-0.14757 -0.32713,-0.17819 -0.40478,-0.17639 -0.0725,0.0125 -0.17801,0.0632 -0.22525,0.0923 -0.077,0.0563 -0.15981,0.164 -0.20376,0.23287 -0.0405,0.21904 -0.0376,0.40319 -0.0348,0.56021 -0.008,0.11631 -0.0125,0.27823 -0.0116,0.48916 0.005,0.27697 0.014,0.62473 0.0136,0.99494 0.0122,0.41102 0.003,0.84173 -0.0235,1.23324 -0.0548,0.49008 -0.11112,0.93038 -0.11977,1.34394 -0.001,0.29383 0.017,0.55848 0.0357,0.83404 0.0352,0.33189 0.0642,0.69236 0.0783,1.02538 0.0346,0.95289 0.0166,1.70967 0.074,2.45534 0.0252,0.3769 0.0579,0.69973 0.0678,0.98837 7.1e-4,0.12087 -7.2e-4,0.26081 0.007,0.3955 0.0468,0.28988 0.14347,0.48479 0.19413,0.59863 0.0482,0.10996 0.057,0.23492 0.0358,0.43208 -0.004,0.015 -0.0195,0.0805 -0.0345,0.16337 7.1e-4,0.13187 0.0101,0.22427 0.0227,0.30332 3.2e-4,0.11176 0.004,0.26677 0.0262,0.37243 v 0 c 0.0411,0.21629 0.24977,0.35828 0.46606,0.31715 v 0 c 0.21629,-0.0411 0.35828,-0.2498 0.31715,-0.46606 v 0 c -0.0411,-0.21628 -0.24977,-0.35828 -0.46606,-0.31714 v 0 c -0.21628,0.0411 -0.35828,0.24976 -0.31714,0.46605 0.63549,0.23806 0.71554,0.15134 0.73399,0.11769 0.0119,-0.0265 0.0262,-0.0628 0.0323,-0.085 v 0 c 0.0798,-0.19445 -0.0131,-0.41681 -0.2075,-0.49664 v 0 c -0.19445,-0.0798 -0.41681,0.0131 -0.49664,0.2075 v 0 c -0.0798,0.19445 0.0131,0.41681 0.2075,0.49664 v 0 c 0.19445,0.0798 0.41681,-0.013 0.49664,-0.2075 0.009,-0.039 0.0212,-0.0931 0.0315,-0.14937 v 0 c 0.0566,-0.19205 -0.0532,-0.39366 -0.24525,-0.45028 v 0 c -0.19206,-0.0566 -0.39367,0.0532 -0.45029,0.24521 v 0 c -0.0566,0.19209 0.0532,0.3937 0.24525,0.45032 v 0 c 0.19205,0.0566 0.39367,-0.0532 0.45029,-0.24525 0.004,-0.0352 0.015,-0.097 0.0211,-0.14397 v 0 c 0.0565,-0.17751 -0.0417,-0.3672 -0.21922,-0.42368 v 0 c -0.17751,-0.0564 -0.3672,0.0417 -0.42368,0.21921 v 0 c -0.0565,0.17752 0.0417,0.36721 0.21921,0.42369 v 0 c 0.17752,0.0565 0.36721,-0.0417 0.42369,-0.21922 -0.0236,-0.0319 -0.0485,-0.0596 -0.0744,-0.0833 v 0 c 0.0428,-0.1259 -0.0245,-0.26271 -0.15042,-0.30557 v 0 c -0.12594,-0.0429 -0.26275,0.0245 -0.30561,0.15042 -0.0367,0.008 -0.0746,0.021 -0.11247,0.034 -0.0225,0.0429 -0.0455,0.0882 -0.0672,0.12347 -0.0249,0.0614 -0.0367,0.0774 -0.0467,0.0852 -0.004,0.001 0.002,-0.0175 0.007,-0.0316 0.011,-0.0214 0.0845,-0.10114 0.17282,-0.15568 0.546,0.30837 0.55485,0.2116 0.56727,0.0913 0.0129,-0.0841 0.0276,-0.14407 0.045,-0.21099 0.005,-0.0136 0.0212,-0.0873 0.0349,-0.17315 0.0165,-0.32282 -0.0319,-0.64943 -0.13547,-0.88561 -0.0625,-0.14594 -0.10837,-0.21939 -0.1179,-0.33144 0.002,-0.0564 0.008,-0.17293 0.0117,-0.31746 -0.005,-0.3356 -0.0315,-0.67212 -0.0492,-1.03576 -0.0264,-0.69836 0.0211,-1.44201 0.0157,-2.42679 -0.006,-0.35779 -0.0271,-0.74958 -0.0543,-1.09873 -0.0359,-0.27957 -0.068,-0.50504 -0.0816,-0.73854 0.006,-0.33613 0.0577,-0.73438 0.11366,-1.23684 0.0562,-0.41952 0.0948,-0.89732 0.10993,-1.34673 -0.0156,-0.39708 -0.0411,-0.75794 -0.061,-1.02884 -0.0151,-0.19702 -0.0245,-0.33888 -0.0322,-0.47029 -0.0124,-0.17892 -0.0236,-0.28772 -0.0192,-0.32053 -0.0376,0.066 -0.0914,0.12185 -0.13744,0.1481 -0.0318,0.0141 -0.12146,0.0553 -0.17819,0.0641 -0.0619,-0.002 -0.19258,-0.0303 -0.24084,-0.0619 -0.12231,-0.14615 -0.11271,-0.14929 -0.0926,-0.10505 0.0179,0.0124 0.0448,0.12492 0.0993,0.22136 -0.0111,0.0485 0.009,0.13455 0.0315,0.19943 v 0 c 0.13815,0.12891 0.35465,0.12143 0.48355,-0.0167 v 0 c 0.12894,-0.13815 0.12146,-0.35468 -0.0167,-0.48359"
       style="opacity:1;fill:#000000;fill-opacity:1;fill-rule:nonzero;stroke:none;stroke-width:0.352777;stop-opacity:1"
       id="path7583"
       inkscape:connector-curvature="0" />
    <path
       d="m 217.75939,198.93322 c -0.0131,0 -0.005,-0.006 0.013,-0.0146 v 0 c -0.1929,0.0333 -0.32229,0.2166 -0.28903,0.4095 v 0 c 0.0333,0.1929 0.21661,0.3223 0.40951,0.28903 v 0 c 0.1929,-0.0333 0.32233,-0.2166 0.28903,-0.4095 v 0 c -0.0333,-0.1929 -0.21661,-0.32233 -0.40951,-0.28903 0.0207,-0.005 0.15875,0.006 0.35292,0.14513 v 0 c -0.11271,-0.16418 -0.33715,-0.20591 -0.50133,-0.0932 v 0 c -0.16422,0.11271 -0.20595,0.33715 -0.0932,0.50133 v 0 c 0.11268,0.16422 0.33715,0.20596 0.50133,0.0932 v 0 c 0.16419,-0.11267 0.20592,-0.33715 0.0932,-0.50133 0.0509,0.30357 -0.0487,0.4698 -0.0685,0.48952 v 0 c 0.15928,-0.12513 0.18697,-0.35567 0.0619,-0.51492 v 0 c -0.12513,-0.15928 -0.35567,-0.18697 -0.51495,-0.0619 v 0 c -0.15928,0.1251 -0.18697,0.35564 -0.0618,0.51492 v 0 c 0.12509,0.15928 0.35563,0.18697 0.51491,0.0619 -0.0273,0.0279 -0.0154,0.0312 0.0206,0.0215 0.11465,-0.0564 0.27058,-0.14859 0.42358,-0.23495 0.24419,-0.13758 0.49904,-0.28056 0.86508,-0.46288 0.19784,-0.0938 0.44313,-0.20182 0.74771,-0.34727 0.29888,-0.14411 0.67649,-0.33677 1.1217,-0.60773 0.27763,-0.16786 0.5897,-0.36845 0.90798,-0.58872 0.3417,-0.24987 0.67895,-0.511 0.99906,-0.75516 0.50119,-0.36861 0.96598,-0.69934 1.35742,-0.93729 0.47089,-0.31299 0.82924,-0.47731 1.15305,-0.68224 0.30943,-0.19738 0.55101,-0.40393 0.72916,-0.58974 0.0901,-0.0927 0.1754,-0.19025 0.24522,-0.27732 v 0 c 0.13963,-0.16248 0.12107,-0.40738 -0.0414,-0.54698 v 0 c -0.16249,-0.13959 -0.40739,-0.12103 -0.54699,0.0414 v 0 c -0.13959,0.16249 -0.12103,0.40739 0.0414,0.54699 v 0 c 0.16249,0.13959 0.40739,0.12103 0.54699,-0.0414 0.0486,-0.0566 0.096,-0.11497 0.13712,-0.16754 v 0 c 0.13198,-0.16873 0.10217,-0.41254 -0.0666,-0.54448 v 0 c -0.16874,-0.13197 -0.41254,-0.10216 -0.54448,0.0666 v 0 c -0.13197,0.16877 -0.10216,0.41254 0.0666,0.54452 v 0 c 0.16874,0.13197 0.41251,0.10212 0.54448,-0.0666 0.0292,-0.0619 0.0562,-0.12333 0.0788,-0.17946 v 0 c 0.11218,-0.15219 0.0798,-0.3665 -0.0724,-0.47868 v 0 c -0.15219,-0.11222 -0.3665,-0.0798 -0.47868,0.0724 v 0 c -0.11219,0.15219 -0.0798,0.3665 0.0724,0.47868 v 0 c 0.15219,0.11222 0.36653,0.0798 0.47872,-0.0724 -0.01,-0.0436 -0.0204,-0.0866 -0.0318,-0.12848 v 0 c 0.0783,-0.10749 0.0546,-0.25816 -0.0529,-0.33648 v 0 c -0.1075,-0.0783 -0.25817,-0.0546 -0.33648,0.0529 -0.0431,0.002 -0.0863,0.004 -0.13,0.006 -0.0451,0.0356 -0.0901,0.0704 -0.13875,0.10788 -0.0367,0.0469 -0.0727,0.0913 -0.11448,0.13988 -0.0657,0.0707 -0.13148,0.1362 -0.21202,0.20852 -0.16323,0.14422 -0.34159,0.27552 -0.59012,0.41169 -0.27111,0.0961 -0.70263,0.21185 -1.29399,0.50553 -0.4378,0.28261 -0.92851,0.6476 -1.43771,1.03848 -0.32428,0.26366 -0.64562,0.52867 -0.95412,0.76986 -0.28752,0.20468 -0.57158,0.39303 -0.83591,0.55856 -0.41462,0.26126 -0.74524,0.43681 -1.03731,0.58568 -0.2927,0.16023 -0.53248,0.28624 -0.74171,0.40686 -0.37758,0.21971 -0.64658,0.40283 -0.87775,0.56437 -0.15036,0.1041 -0.28984,0.20528 -0.35881,0.25411 -0.0182,0.0186 -0.0538,0.0475 -0.096,0.0871 -0.0231,0.0224 -0.12436,0.19057 -0.0719,0.49639 0.19402,0.13871 0.33507,0.14986 0.36156,0.14404 0.029,-0.0101 0.058,-0.0225 0.0778,-0.0332 v 0 c 0.17971,-0.0584 0.27803,-0.25146 0.21957,-0.43116 v 0 c -0.0584,-0.17971 -0.25146,-0.27799 -0.43116,-0.21957"
       style="opacity:1;fill:#000000;fill-opacity:1;fill-rule:nonzero;stroke:none;stroke-width:0.352777;stop-opacity:1"
       id="path7585"
       inkscape:connector-curvature="0" />
    <path
       d="m 218.26435,199.44866 c -0.0165,-1.4e-4 -0.0346,-3.1e-4 -0.0576,7.2e-4 v 0 c -0.18859,0.0115 -0.33217,0.17367 -0.32071,0.3623 v 0 c 0.0115,0.18859 0.17368,0.33221 0.36231,0.32071 v 0 c 0.18859,-0.0115 0.33221,-0.17367 0.32071,-0.36227 v 0 c -0.0115,-0.18863 -0.17368,-0.33221 -0.36231,-0.32074 0.27252,0.1138 0.27499,0.121 0.2764,0.12717 v 0 c -0.10978,-0.1483 -0.31898,-0.17956 -0.46729,-0.0698 v 0 c -0.1483,0.10975 -0.17956,0.31899 -0.0698,0.46729 v 0 c 0.10974,0.14831 0.31898,0.17953 0.46728,0.0698 v 0 c 0.14831,-0.10978 0.17953,-0.31898 0.0698,-0.46729 0.004,0.0109 0.0357,0.0784 0.0533,0.205 v 0 c 0.007,-0.17991 -0.13272,-0.33164 -0.31263,-0.33888 v 0 c -0.17992,-0.007 -0.33165,0.13272 -0.33888,0.31264 v 0 c -0.007,0.17991 0.13271,0.33161 0.31263,0.33887 v 0 c 0.17992,0.007 0.33165,-0.13271 0.33888,-0.31263 -0.56325,0.2232 -0.5231,0.27524 -0.48384,0.32498 -0.001,0.0138 0.0637,0.0978 0.14799,0.17925 0.11427,0.10562 0.263,0.22197 0.46927,0.37585 0.12806,0.10008 0.29252,0.22398 0.46884,0.3496 0.16401,0.11871 0.35669,0.2509 0.55806,0.37412 0.29175,0.16073 0.5981,0.30515 0.89613,0.43215 0.38107,0.12697 0.75074,0.22843 1.11255,0.3476 0.30889,0.10269 0.6096,0.22334 0.91486,0.41659 0.0504,0.034 0.10936,0.078 0.17455,0.13092 0.0948,0.0728 0.17989,0.14001 0.27313,0.21639 0.21339,0.18796 0.44097,0.40781 0.69472,0.63447 0.10354,0.0909 0.20747,0.17787 0.31549,0.263 v 0 c 0.12947,0.1016 0.31679,0.0791 0.41843,-0.0504 v 0 c 0.10163,-0.12947 0.0791,-0.3168 -0.0504,-0.41843 v 0 c -0.12944,-0.10164 -0.3168,-0.0791 -0.41843,0.0504 v 0 c -0.1016,0.12943 -0.0791,0.31679 0.0504,0.41843 0.16891,0.14002 0.35341,0.28434 0.53234,0.41042 v 0 c 0.12866,0.0935 0.30879,0.0651 0.40234,-0.0636 v 0 c 0.0935,-0.12866 0.0651,-0.30879 -0.0636,-0.40231 v 0 c -0.12866,-0.0935 -0.30879,-0.0651 -0.40231,0.0636 v 0 c -0.0936,0.12866 -0.0651,0.30875 0.0636,0.40231 0.37176,0.26405 0.7571,0.49339 1.1134,0.65737 v 0 c 0.14133,0.0657 0.30914,0.004 0.37483,-0.13699 v 0 c 0.0657,-0.14132 0.004,-0.30914 -0.13698,-0.37482 v 0 c -0.14133,-0.0657 -0.30914,-0.004 -0.37483,0.13698 v 0 c -0.0657,0.14132 -0.004,0.30914 0.13698,0.37483 0.36199,0.14389 0.69819,0.23868 0.9923,0.32667 v 0 c 0.12559,0.0438 0.26292,-0.0225 0.30674,-0.14806 v 0 c 0.0438,-0.12563 -0.0225,-0.26293 -0.1481,-0.30674 -0.29065,-0.11596 -0.59672,-0.2292 -0.91839,-0.38608 -0.32074,-0.15078 -0.65927,-0.3568 -1.00869,-0.61013 -0.16168,-0.12153 -0.32445,-0.25707 -0.49213,-0.40457 -0.11091,-0.0871 -0.20323,-0.16386 -0.29361,-0.24243 -0.22388,-0.22366 -0.43868,-0.45649 -0.6579,-0.67486 -0.0995,-0.0928 -0.18796,-0.17336 -0.27093,-0.24642 -0.0559,-0.0565 -0.12873,-0.12326 -0.19812,-0.18256 -0.34887,-0.26564 -0.71269,-0.459 -1.03481,-0.60642 -0.3702,-0.16447 -0.72612,-0.30297 -1.06531,-0.45625 -0.27997,-0.10742 -0.54977,-0.22271 -0.80624,-0.35229 -0.17293,-0.0933 -0.34463,-0.19812 -0.51273,-0.30547 -0.18172,-0.11042 -0.3441,-0.21389 -0.48697,-0.30515 -0.22815,-0.13702 -0.3731,-0.21879 -0.4656,-0.27439 -0.0459,-0.0308 -0.0618,-0.0419 -0.0851,-0.0633 -0.0782,-0.0741 -0.11137,-0.0982 -0.10505,-0.0806 -0.57076,0.30864 -0.53693,0.38057 -0.52709,0.39902 0.007,0.0134 0.0177,0.0309 0.0249,0.0431 0.2654,0.11536 0.26861,0.11554 0.28706,0.11571 v 0 c 0.18895,0.002 0.34353,-0.15007 0.34526,-0.33901 v 0 c 0.002,-0.18895 -0.15007,-0.34354 -0.33902,-0.34527 z"
       style="opacity:1;fill:#000000;fill-opacity:1;fill-rule:nonzero;stroke:none;stroke-width:0.352777;stop-opacity:1"
       id="path7587"
       inkscape:connector-curvature="0" />
  </g>
</svg>
