<?xml version="1.0" encoding="UTF-8" standalone="no"?>
<svg
   xmlns:dc="http://purl.org/dc/elements/1.1/"
   xmlns:cc="http://creativecommons.org/ns#"
   xmlns:rdf="http://www.w3.org/1999/02/22-rdf-syntax-ns#"
   xmlns:svg="http://www.w3.org/2000/svg"
   xmlns="http://www.w3.org/2000/svg"
   xmlns:sodipodi="http://sodipodi.sourceforge.net/DTD/sodipodi-0.dtd"
   xmlns:inkscape="http://www.inkscape.org/namespaces/inkscape"
   sodipodi:docname="title.svg"
   inkscape:version="1.0beta1 (32d4812, 2019-09-19)"
   id="svg489"
   version="1.1"
   viewBox="0 0 121.49876 26.530882"
   height="26.530882mm"
   width="121.49876mm">
  <defs
     id="defs483" />
  <sodipodi:namedview
     inkscape:window-maximized="0"
     inkscape:window-y="23"
     inkscape:window-x="0"
     inkscape:window-height="771"
     inkscape:window-width="1440"
     showgrid="false"
     inkscape:document-rotation="0"
     inkscape:current-layer="layer1"
     inkscape:document-units="mm"
     inkscape:cy="-1.2916525"
     inkscape:cx="292.46108"
     inkscape:zoom="0.35"
     inkscape:pageshadow="2"
     inkscape:pageopacity="0.0"
     borderopacity="1.0"
     bordercolor="#666666"
     pagecolor="#ffffff"
     id="base" />
  <metadata
     id="metadata486">
    <rdf:RDF>
      <cc:Work
         rdf:about="">
        <dc:format>image/svg+xml</dc:format>
        <dc:type
           rdf:resource="http://purl.org/dc/dcmitype/StillImage" />
        <dc:title></dc:title>
      </cc:Work>
    </rdf:RDF>
  </metadata>
  <g
     transform="translate(-34.500626,-134.14532)"
     id="layer1"
     inkscape:groupmode="layer"
     inkscape:label="Layer 1">
    <path
       d="m 35.461385,135.33785 c -0.0121,-0.0356 -0.07324,-0.15388 -0.170251,-0.25368 v 0 c -0.157304,-0.12382 -0.385198,-0.0967 -0.509023,0.0606 v 0 c -0.12386,0.15727 -0.09673,0.3852 0.06054,0.50903 v 0 c 0.157304,0.12382 0.385198,0.0967 0.509023,-0.0606 v 0 c 0.12386,-0.15726 0.09673,-0.38516 -0.06054,-0.50902 -0.279647,-0.0944 -0.44129,-0.0626 -0.520524,-0.0306 v 0 c -0.182386,0.13737 -0.218898,0.39656 -0.08156,0.57894 v 0 c 0.137337,0.18239 0.396558,0.2189 0.578944,0.0815 v 0 c 0.182386,-0.13734 0.218899,-0.39652 0.08153,-0.57891 v 0 c -0.137336,-0.18238 -0.396522,-0.2189 -0.578908,-0.0816 -0.07041,0.0369 -0.161678,0.12524 -0.210326,0.18193 v 0 c -0.110631,0.23135 -0.01277,0.50856 0.218581,0.61923 v 0 c 0.231351,0.11063 0.508564,0.0128 0.619195,-0.21858 v 0 c 0.110667,-0.23135 0.01281,-0.50857 -0.218546,-0.61923 v 0 c -0.231351,-0.11063 -0.508564,-0.0128 -0.61923,0.21858 -0.07772,0.23601 -0.07278,0.48595 -0.02371,0.70273 0.07631,0.25139 0.19819,0.54127 0.341242,0.91966 0.121214,0.30988 0.266911,0.70005 0.435292,1.15422 0.23615,0.6496 0.521653,1.44899 0.855768,2.21615 0.24952,0.55678 0.528285,1.09752 0.790893,1.55151 0.299932,0.54166 0.586775,0.97949 0.80645,1.30083 0.201083,0.31317 0.346463,0.52885 0.450144,0.69491 0.119451,0.16037 0.201965,0.27107 0.258128,0.35962 0.0067,0.009 0.02946,0.0563 0.06209,0.11462 -0.02385,-0.0533 -0.0038,0.004 0.01842,0.0541 0.02681,0.0569 0.134584,0.20902 0.308962,0.32702 v 0 c 0.267935,0.1222 0.584165,0.004 0.706367,-0.26381 v 0 c 0.122238,-0.2679 0.0041,-0.58417 -0.263807,-0.70637 v 0 c -0.267899,-0.1222 -0.584165,-0.004 -0.706367,0.26381 v 0 c -0.122202,0.2679 -0.0041,0.58416 0.263807,0.70637 0.758896,-0.42873 0.773642,-0.49114 0.78546,-0.54674 0.01221,-0.0351 0.02695,-0.15236 0.03718,-0.24779 0.02057,-0.14795 0.0363,-0.33112 0.05842,-0.62286 0.0092,-0.12866 0.01902,-0.26561 0.03454,-0.44267 0.02339,-0.24349 0.05567,-0.5498 0.10414,-0.93285 0.07426,-0.60018 0.183692,-1.35918 0.320781,-2.15272 0.08132,-0.52151 0.174696,-1.0529 0.278377,-1.57265 0.137054,-0.64615 0.289984,-1.26128 0.421217,-1.7635 0.05059,-0.18101 0.09807,-0.34763 0.140617,-0.49904 0.07278,-0.30674 0.128023,-0.56201 0.152929,-0.77103 v 0 c 0.05045,-0.2443 -0.10675,-0.48323 -0.351049,-0.53368 v 0 c -0.244299,-0.0505 -0.483235,0.10671 -0.533682,0.35105 v 0 c -0.05045,0.2443 0.106715,0.48323 0.351049,0.53368 v 0 c 0.244299,0.0505 0.483235,-0.10672 0.533682,-0.35105 0.01083,-0.16111 0.0065,-0.33429 -0.02498,-0.4687 v 0 c -0.01916,-0.2129 -0.207221,-0.36996 -0.420122,-0.3508 v 0 c -0.212867,0.0191 -0.369923,0.20725 -0.350768,0.42012 v 0 c 0.01912,0.2129 0.207222,0.36992 0.420124,0.3508 v 0 c 0.212866,-0.0191 0.369922,-0.20725 0.350766,-0.42012 -0.02656,-0.0906 -0.07602,-0.20712 -0.130739,-0.28131 v 0 c -0.084,-0.16524 -0.286067,-0.23114 -0.451344,-0.1471 v 0 c -0.165276,0.084 -0.23114,0.28606 -0.147143,0.45131 v 0 c 0.084,0.16527 0.286067,0.23114 0.451344,0.14714 v 0 c 0.165276,-0.084 0.23114,-0.28607 0.147143,-0.45135 -0.04808,-0.0239 -0.105622,-0.0545 -0.155822,-0.067 v 0 c -0.0834,-0.10365 -0.234985,-0.12005 -0.338631,-0.0367 v 0 c -0.103646,0.0834 -0.12005,0.23499 -0.03665,0.3386 -0.01559,0.0305 -0.04375,0.0451 -0.06738,0.0693 -0.0058,0.022 -0.02625,0.0131 -0.04166,0.0465 -0.01471,0.0515 -0.04258,0.10117 -0.08886,0.21671 -0.05126,0.15984 -0.131939,0.36911 -0.239078,0.66258 -0.04745,0.14867 -0.100929,0.31609 -0.159032,0.50335 -0.156951,0.50959 -0.338631,1.1448 -0.50359,1.81017 -0.126118,0.53488 -0.242394,1.08557 -0.344523,1.61689 -0.13596,0.81202 -0.24518,1.59819 -0.317253,2.21389 -0.04293,0.3973 -0.0701,0.72478 -0.08724,0.97878 -0.01281,0.18874 -0.01979,0.33842 -0.0248,0.45755 -0.02141,0.27732 -0.03422,0.42662 -0.05472,0.57479 -0.0083,0.11493 -0.01094,0.16834 -0.01386,0.18344 -0.0097,0.10061 -0.0075,0.1227 -0.0066,0.14439 0.894503,-0.27457 0.979805,-0.15945 0.984744,-0.15462 7.14e-4,-0.001 -7.14e-4,-0.0113 -0.009,-0.0443 -0.04329,-0.10824 -0.06205,-0.16024 -0.09596,-0.23457 -0.09119,-0.16485 -0.19244,-0.31806 -0.312808,-0.49381 -0.137724,-0.16309 -0.296298,-0.34735 -0.516466,-0.63687 -0.233151,-0.30385 -0.507401,-0.68446 -0.805639,-1.18199 -0.239995,-0.43416 -0.487574,-0.93542 -0.713987,-1.46575 -0.302013,-0.73583 -0.559329,-1.5101 -0.78172,-2.17449 -0.1663,-0.46358 -0.30988,-0.86289 -0.434129,-1.19454 -0.176741,-0.40047 -0.313972,-0.66823 -0.382975,-0.83365 -0.04554,-0.10178 -0.05863,-0.10012 -0.07225,-0.0525 -0.05069,0.0717 -0.114088,0.12474 -0.154376,0.13903 -0.04858,0.009 -0.177341,0.0303 -0.241864,0.0149 -0.204964,-0.11589 -0.188489,-0.0914 -0.162102,-0.058 v 0 c 0.092,0.16503 0.300426,0.22423 0.465455,0.13219 v 0 c 0.16503,-0.092 0.224226,-0.30043 0.132186,-0.46546 z"
       style="opacity:1;fill:#000000;fill-opacity:1;fill-rule:nonzero;stroke:none;stroke-width:0.352777;stop-opacity:1"
       id="path160"
       inkscape:connector-curvature="0" />
    <path
       d="m 39.49434,144.15973 c -0.01115,0.005 -0.0052,-0.0568 -0.0037,-0.15843 v 0 c 0.01041,-0.18136 -0.128129,-0.33683 -0.309492,-0.34724 v 0 c -0.181363,-0.0104 -0.336797,0.12816 -0.347204,0.30949 v 0 c -0.01044,0.18137 0.128129,0.3368 0.309492,0.34724 v 0 c 0.181328,0.0104 0.336797,-0.12816 0.347204,-0.30949 0.02004,-0.11843 0.02967,-0.25725 -0.02822,-0.43236 v 0 c -0.121709,-0.17604 -0.363079,-0.22007 -0.539115,-0.0983 v 0 c -0.176072,0.1217 -0.220098,0.36307 -0.09835,0.53915 v 0 c 0.121708,0.17603 0.363078,0.22006 0.53915,0.0983 v 0 c 0.176036,-0.12171 0.220063,-0.36308 0.09832,-0.53915 -0.224684,-0.17248 -0.37211,-0.20084 -0.457553,-0.20056 v 0 c -0.230787,0.0578 -0.371016,0.29175 -0.313196,0.52254 v 0 c 0.05779,0.23078 0.291747,0.37101 0.522535,0.31319 v 0 c 0.230751,-0.0578 0.370981,-0.29175 0.313196,-0.52253 v 0 c -0.05782,-0.23075 -0.291783,-0.37098 -0.522535,-0.3132 -0.08026,0.0107 -0.208139,0.0706 -0.271568,0.11056 -0.158715,0.30829 -0.187713,0.53449 -0.206693,0.87475 -0.0049,0.19699 -0.0084,0.46133 -0.0093,0.79029 -0.0043,0.3671 -0.0061,0.79827 -0.0084,1.25226 -0.01076,0.76277 -0.02187,1.57586 -0.0447,2.14206 -0.01866,1.02585 -0.03986,1.84983 -0.07708,2.43883 0.0037,0.21343 0.0051,0.37571 0.0014,0.51756 -0.0095,0.15959 -0.0188,0.26613 -0.02889,0.32879 0.0049,0.0175 0.04611,-0.0325 0.172615,-0.14246 0.07765,-0.0312 0.328012,-0.0471 0.456317,0.005 v 0 c -0.219213,-0.12122 -0.495191,-0.0417 -0.616406,0.17748 v 0 c -0.121179,0.21925 -0.0417,0.49523 0.177518,0.61641 v 0 c 0.219251,0.12121 0.495229,0.0417 0.616409,-0.17748 v 0 c 0.121214,-0.21926 0.04173,-0.49523 -0.177518,-0.61641 0.08654,0.0717 0.17085,0.19706 0.181892,0.23777 v 0 c -0.08075,-0.22652 -0.329882,-0.34467 -0.556401,-0.26388 v 0 c -0.226519,0.0807 -0.344664,0.32988 -0.263913,0.5564 v 0 c 0.08079,0.22652 0.329882,0.34467 0.556401,0.26388 v 0 c 0.226554,-0.0807 0.344699,-0.32985 0.263913,-0.5564 1.06e-4,0.0495 -0.0067,0.0924 -0.0182,0.0763 v 0 c 0.0018,-0.22049 -0.175719,-0.40051 -0.39617,-0.40217 v 0 c -0.220451,-0.002 -0.400508,0.17572 -0.402166,0.39617 v 0 c -0.0018,0.22045 0.175718,0.40051 0.396169,0.40217 v 0 c 0.220451,0.002 0.400509,-0.17572 0.402167,-0.39617 -0.05302,-0.0508 -0.09571,-0.15106 -0.119169,-0.33013 v 0 c 0.02194,-0.1312 -0.06664,-0.25534 -0.197802,-0.27728 v 0 c -0.131198,-0.0219 -0.255341,0.0666 -0.277283,0.1978 -0.0829,0.17614 -0.150002,0.31224 -0.204082,0.40361 -0.01203,0.0551 -0.01355,0.14552 -0.0038,0.22194 0.01598,0.0545 0.106221,0.18834 0.201224,0.26475 0.133562,0.0552 0.391689,0.0384 0.478331,0.002 0.15995,-0.1307 0.246804,-0.27093 0.289419,-0.36191 0.04974,-0.14803 0.08805,-0.32516 0.117264,-0.5092 0.03023,-0.16605 0.05535,-0.36477 0.07602,-0.58656 0.01803,-0.60671 0.01972,-1.44907 0.01852,-2.47149 1.05e-4,-0.57299 -0.0115,-1.3951 -0.02353,-2.1583 -0.0032,-0.45469 -0.0071,-0.88353 -0.0083,-1.24312 0.0071,-0.31933 0.01658,-0.56966 0.02769,-0.76316 0.0011,-0.3284 3.44e-4,-0.44372 -0.01302,-0.40241 -0.138713,0.16694 -0.242782,0.21273 -0.300109,0.2177 -0.06128,-0.006 -0.18542,-0.0318 -0.229199,-0.0617 -0.187855,-0.26536 -0.170392,-0.24402 -0.150989,-0.16041 -0.0084,0.0632 -0.02537,0.20352 -0.0032,0.34265 v 0 c 0.04561,0.18338 0.231245,0.29507 0.414619,0.24949 v 0 c 0.183374,-0.0456 0.295064,-0.23121 0.24945,-0.41462"
       style="opacity:1;fill:#000000;fill-opacity:1;fill-rule:nonzero;stroke:none;stroke-width:0.352777;stop-opacity:1"
       id="path162"
       inkscape:connector-curvature="0" />
    <path
       d="m 43.260666,148.47936 c -0.04738,-0.13424 -0.02395,-0.12768 0.0351,-0.36957 v 0 c 0.02399,-0.23968 -0.150918,-0.45343 -0.390596,-0.47742 v 0 c -0.239712,-0.024 -0.45346,0.15092 -0.477414,0.3906 v 0 c -0.02399,0.23971 0.150918,0.45346 0.390596,0.47741 v 0 c 0.239712,0.024 0.45346,-0.15088 0.477414,-0.39059 0.01686,-0.12884 0.0375,-0.22148 0.08897,-0.36407 v 0 c 0.06795,-0.25069 -0.08022,-0.50895 -0.330906,-0.5769 v 0 c -0.250648,-0.0679 -0.508952,0.0802 -0.576862,0.33091 v 0 c -0.06791,0.25068 0.08022,0.50895 0.330906,0.57686 v 0 c 0.250684,0.0679 0.508952,-0.0802 0.576862,-0.33087 0.107491,-0.27393 0.298274,-0.6344 0.548993,-0.96136 v 0 c 0.166476,-0.24564 0.102305,-0.57972 -0.143299,-0.74623 v 0 c -0.245639,-0.16647 -0.579755,-0.1023 -0.74623,0.14334 v 0 c -0.166476,0.24564 -0.102341,0.57972 0.143298,0.74619 v 0 c 0.245639,0.16651 0.579755,0.10234 0.746231,-0.1433 0.135431,-0.1906 0.259291,-0.33016 0.398533,-0.4392 0.143051,-0.14457 0.138148,-0.16373 0.268675,-0.15237 0.155928,-0.0151 0.355248,0.0508 0.710953,0.26843 0.228636,0.14185 0.496994,0.33775 0.779533,0.55689 0.304871,0.2218 0.586529,0.43653 0.840705,0.66153 0.251495,0.22024 0.454801,0.42535 0.612105,0.65063 0.124883,0.20355 0.193322,0.39479 0.220909,0.63546 0.03429,0.27326 0.01654,0.53403 -0.05676,0.81605 -0.22225,0.50531 -0.63821,0.95708 -1.1291,1.30351 -0.242006,0.16087 -0.472052,0.271 -0.709295,0.35027 -0.283034,0.12601 -0.422028,0.14708 -0.565785,0.0999 -0.09835,7.2e-4 -0.0949,0.007 -0.183092,-0.079 -0.104704,-0.0797 -0.195051,-0.20062 -0.305752,-0.43303 -0.13141,-0.25055 -0.239642,-0.53922 -0.327449,-0.87496 v 0 c -0.05062,-0.26843 -0.309247,-0.44499 -0.577675,-0.39437 v 0 c -0.268394,0.0506 -0.444959,0.30925 -0.394371,0.57764 v 0 c 0.05062,0.26843 0.309245,0.44499 0.577674,0.39437 v 0 c 0.268429,-0.0506 0.444994,-0.30924 0.39437,-0.57764 -0.114899,-0.45208 -0.174484,-0.91535 -0.159984,-1.35597 v 0 c 0.02173,-0.22264 -0.141147,-0.42072 -0.363785,-0.44245 v 0 c -0.222638,-0.0217 -0.420723,0.14118 -0.442454,0.36382 v 0 c -0.0217,0.22264 0.141182,0.42072 0.36382,0.44242 v 0 c 0.222638,0.0217 0.420723,-0.14115 0.442419,-0.36379 -0.0025,-0.22116 0.0071,-0.38714 0.04628,-0.5594 v 0 c 0.05927,-0.18948 -0.04625,-0.39116 -0.235726,-0.45043 v 0 c -0.189478,-0.0593 -0.391125,0.0462 -0.450427,0.2357 v 0 c -0.0593,0.18947 0.04625,0.39116 0.235726,0.45042 v 0 c 0.189477,0.0593 0.391125,-0.0462 0.450427,-0.23569 -0.0068,-0.0982 -7.15e-4,-0.20532 0.02953,-0.33468 v 0 c 0.0672,-0.11479 0.02865,-0.26232 -0.08615,-0.32953 v 0 c -0.114794,-0.0672 -0.262326,-0.0286 -0.32953,0.0862 -0.110878,0.11169 -0.212161,0.23594 -0.29524,0.34915 -0.08784,0.23248 -0.143016,0.48605 -0.172367,0.72584 -0.07673,0.49166 -0.0701,1.07872 -0.0049,1.60006 0.04964,0.39313 0.140264,0.79766 0.25079,1.13167 0.12453,0.3254 0.313019,0.64904 0.510293,0.87076 0.24264,0.22243 0.600921,0.3919 0.892527,0.43607 0.385904,0.01 0.842293,-0.1264 1.204101,-0.33105 0.257952,-0.16407 0.55305,-0.39401 0.803734,-0.64452 0.491243,-0.49241 0.936166,-1.16307 1.112908,-1.83194 0.102694,-0.34939 0.14291,-0.7226 0.11811,-1.05544 -0.02156,-0.3096 -0.117863,-0.64266 -0.268887,-0.93119 -0.180093,-0.30667 -0.420723,-0.59563 -0.673771,-0.85482 -0.25788,-0.26359 -0.55319,-0.52366 -0.834001,-0.75889 -0.248815,-0.24152 -0.522394,-0.49118 -0.770291,-0.69452 -0.427002,-0.29898 -0.855168,-0.48789 -1.208158,-0.53368 -0.386785,-0.008 -0.795302,0.16739 -1.050007,0.37945 -0.191664,0.17339 -0.398745,0.42591 -0.55813,0.66862 -0.259115,0.42524 -0.468171,0.92749 -0.562928,1.30235 -0.04865,0.2257 -0.06142,0.42647 -0.05591,0.56631 0.0014,0.32597 0.10975,0.61017 0.249555,0.78472 v 0 c 0.09793,0.16161 0.308328,0.21318 0.469936,0.11525 v 0 c 0.161607,-0.0979 0.213183,-0.30833 0.115252,-0.46993"
       style="opacity:1;fill:#000000;fill-opacity:1;fill-rule:nonzero;stroke:none;stroke-width:0.352777;stop-opacity:1"
       id="path164"
       inkscape:connector-curvature="0" />
    <path
       d="m 51.027527,147.57441 c -3.44e-4,-0.18454 -0.06787,-0.39857 -0.1385,-0.53936 v 0 c -0.07952,-0.16507 -0.277813,-0.23439 -0.442842,-0.15484 v 0 c -0.165065,0.0795 -0.23435,0.27782 -0.154834,0.44285 v 0 c 0.07955,0.16506 0.277812,0.23435 0.442842,0.15483 v 0 c 0.165064,-0.0795 0.234385,-0.27781 0.154834,-0.44284 -0.03655,-0.12739 -0.06188,-0.21664 -0.06685,-0.28357 v 0 c -0.13462,-0.19713 -0.403577,-0.24775 -0.600674,-0.11313 v 0 c -0.197097,0.13465 -0.247756,0.40358 -0.113101,0.60067 v 0 c 0.13462,0.19714 0.403543,0.24776 0.600675,0.11314 v 0 c 0.197097,-0.13462 0.247756,-0.40358 0.1131,-0.60068 0.03196,0.0234 0.0321,-0.0152 0.02812,-0.0645 v 0 c -0.08517,-0.24493 -0.352748,-0.37447 -0.597681,-0.28927 v 0 c -0.244934,0.0852 -0.374439,0.35274 -0.289278,0.59768 v 0 c 0.08516,0.24493 0.352742,0.37443 0.597676,0.28927 v 0 c 0.244934,-0.0852 0.374438,-0.35274 0.289278,-0.59767 0.0071,-0.0203 -0.0035,-0.10234 -0.02858,-0.18948 -0.01937,-0.0513 -0.100612,-0.1706 -0.188207,-0.25015 -0.119063,-0.0691 -0.413879,-0.0987 -0.542114,-0.0627 -0.231598,0.14774 -0.409116,0.37031 -0.510399,0.58843 -0.07751,0.20895 -0.139876,0.50267 -0.162277,0.83023 -0.03383,0.38675 -0.02138,0.97987 0.131903,1.6741 0.07334,0.3047 0.174131,0.63885 0.297709,0.96781 0.184785,0.54423 0.410951,1.0721 0.581943,1.36857 0.180375,0.31178 0.411515,0.57633 0.625475,0.72277 0.243275,0.1446 0.629426,0.19325 0.883179,0.12054 0.330059,-0.12541 0.654402,-0.47194 0.852875,-0.84991 0.308892,-0.71264 0.545606,-1.78022 0.757802,-2.68788 0.07811,-0.30261 0.154975,-0.59323 0.225496,-0.84826 0.113277,-0.37909 0.20574,-0.64897 0.284021,-0.85164 0.05221,-0.12615 0.08763,-0.19448 0.1264,-0.25259 0.05246,-0.10742 0.05641,-0.11426 0.03528,-0.0755 0.0018,-0.01 -0.166335,0.0495 -0.302754,0.0523 -0.06699,-0.0194 -0.201683,-0.0922 -0.243452,-0.12897 -0.02593,-0.034 -0.06569,-0.10079 -0.06929,-0.10968 -0.02247,0.0573 -0.07059,0.57231 -0.07913,1.23825 0.0099,0.58667 0.05461,1.26224 0.146261,1.8656 0.124778,0.61464 0.300708,1.17012 0.467396,1.53027 0.04717,0.0854 0.09557,0.16232 0.135713,0.21823 0.04216,0.0574 0.102764,0.12951 0.14986,0.1772 0.107562,0.0955 0.296298,0.20828 0.431871,0.24977 0.07193,0.0196 0.191911,0.0367 0.263172,0.037 0.07144,-0.0107 0.179211,-0.0359 0.237913,-0.061 0.05771,-0.0226 0.139065,-0.0622 0.184927,-0.0918 v 0 c 0.276824,-0.1542 0.376237,-0.50359 0.222038,-0.78042 v 0 c -0.154189,-0.27683 -0.503581,-0.37625 -0.780405,-0.22208 v 0 c -0.276825,0.1542 -0.376238,0.50362 -0.222038,0.78045 v 0 c 0.154163,0.27682 0.50359,0.37623 0.780415,0.22204 0.04455,-0.029 0.103434,-0.0727 0.139065,-0.10439 v 0 c 0.24451,-0.19354 0.285855,-0.54861 0.09232,-0.79312 v 0 c -0.193498,-0.24451 -0.548604,-0.28585 -0.793115,-0.0923 v 0 c -0.24451,0.1935 -0.28582,0.54861 -0.09232,0.79312 v 0 c 0.193498,0.24451 0.548604,0.28582 0.793115,0.0923 0.03457,-0.0316 0.07772,-0.0746 0.10615,-0.10693 v 0 c 0.217558,-0.21622 0.218652,-0.56786 0.0025,-0.78546 v 0 c -0.216218,-0.21759 -0.567902,-0.21868 -0.78546,-0.002 v 0 c -0.217593,0.21622 -0.218687,0.5679 -0.0025,0.7855 v 0 c 0.216217,0.21756 0.567901,0.21868 0.785495,0.002 -0.04537,-0.10294 -0.09126,-0.20789 -0.146968,-0.30385 v 0 c 0.08678,-0.10082 0.07539,-0.25291 -0.02543,-0.33965 v 0 c -0.100824,-0.0868 -0.252907,-0.0754 -0.339655,0.0254 -0.09599,-0.0491 -0.183268,-0.10905 -0.271145,-0.16969 -0.01376,0.01 -0.014,0.006 -0.0235,0.009 -0.0089,0.004 0.0047,-0.009 0.0035,-0.0126 -7.14e-4,-0.004 0.03373,-0.0229 0.0436,-0.0315 0.01076,-0.0111 0.06978,-0.0287 0.09169,-0.0394 0.02173,3.4e-4 0.0914,0.01 0.112536,0.0132 0.03327,0.009 0.116946,0.054 0.11691,0.0376 -0.0066,-0.008 -3.44e-4,-0.003 -0.01319,-0.0248 -0.01482,-0.0233 -0.02198,-0.0379 -0.0406,-0.0762 -0.127706,-0.23717 -0.27298,-0.65102 -0.393453,-1.17845 -0.109503,-0.52049 -0.177695,-1.11683 -0.216747,-1.65877 -0.0315,-0.61485 -0.02395,-1.15488 -0.08414,-1.46783 -0.05856,-0.18641 -0.124918,-0.29598 -0.179987,-0.3597 -0.07098,-0.0665 -0.237419,-0.15575 -0.338455,-0.18051 -0.202812,-0.008 -0.444606,0.0857 -0.536222,0.15349 -0.127035,0.11921 -0.247967,0.31852 -0.315031,0.476 -0.03658,0.10295 -0.07437,0.23372 -0.108514,0.36887 -0.0701,0.21177 -0.162242,0.51601 -0.269628,0.91338 -0.07426,0.262 -0.15494,0.56007 -0.236432,0.86875 -0.247156,0.91129 -0.49537,1.89843 -0.78112,2.46531 -0.12513,0.26515 -0.168205,0.33228 -0.225496,0.32957 -0.04251,0.0309 0.04967,0.0465 -0.0083,0 -0.08721,-0.0447 -0.164465,-0.12929 -0.298803,-0.35878 -0.12185,-0.22846 -0.304271,-0.68347 -0.470676,-1.21263 -0.112642,-0.31578 -0.189089,-0.58876 -0.247086,-0.8551 -0.120403,-0.59412 -0.110666,-1.00919 -0.0648,-1.34684 0.01986,-0.28063 0.05041,-0.41056 0.09416,-0.51414 0.02988,-0.0987 0.0164,-0.0888 -0.02057,-0.0569 -0.172014,0.0616 -0.445346,0.0341 -0.546205,-0.0226 -0.06826,-0.0664 -0.133421,-0.16242 -0.138148,-0.18249 0.0043,-0.0246 0.01736,-0.0128 0.04367,0.0405 0.03665,0.0706 0.07225,0.13402 0.114441,0.20091 0.11243,0.11892 0.179352,0.15081 0.23749,0.18344 0.02928,0.0699 0.05112,0.13924 0.03817,0.18712 v 0 c -0.01023,0.18866 0.134409,0.34992 0.323109,0.36015 v 0 c 0.188666,0.0102 0.349921,-0.13441 0.360186,-0.32311"
       style="opacity:1;fill:#000000;fill-opacity:1;fill-rule:nonzero;stroke:none;stroke-width:0.352777;stop-opacity:1"
       id="path166"
       inkscape:connector-curvature="0" />
    <path
       d="m 57.669557,148.10933 c -0.03108,-0.0408 -0.02025,-0.0641 -0.01693,-0.17907 v 0 c -0.01164,-0.20313 -0.185702,-0.35839 -0.388867,-0.34678 v 0 c -0.203129,0.0116 -0.358387,0.1857 -0.34678,0.38883 v 0 c 0.01164,0.20313 0.185702,0.35838 0.388867,0.34678 v 0 c 0.203129,-0.0116 0.358387,-0.1857 0.34678,-0.38883 0.0018,-0.0854 0.01016,-0.14154 0.02685,-0.19625 v 0 c 0.02455,-0.21795 -0.132222,-0.41455 -0.350203,-0.43914 v 0 c -0.217946,-0.0246 -0.414549,0.13222 -0.439138,0.3502 v 0 c -0.02455,0.21798 0.132222,0.41459 0.350203,0.43914 v 0 c 0.217946,0.0246 0.414584,-0.13222 0.439138,-0.3502 0.0182,-0.0346 0.03147,-0.0403 0.03835,-0.0157 v 0 c 0.110631,-0.21389 0.02692,-0.47692 -0.186973,-0.58756 v 0 c -0.213853,-0.11059 -0.476885,-0.0269 -0.587516,0.18698 v 0 c -0.110596,0.21385 -0.02692,0.47692 0.186973,0.58751 v 0 c 0.213853,0.11063 0.47692,0.0269 0.587516,-0.18693 -0.008,0.0242 -0.116946,0.14157 -0.252519,0.20955 -0.08555,0.0135 -0.263701,-0.0156 -0.330552,-0.0452 -0.04805,-0.0314 -0.113136,-0.0937 -0.130952,-0.11208 -0.02367,-0.0421 -0.01796,0.005 -0.009,0.20246 0.0926,0.34036 0.183374,0.64329 0.287408,1.00831 0.119733,0.37758 0.246027,0.79375 0.355106,1.24121 0.07306,0.34047 0.138289,0.70905 0.191664,1.06154 0.0787,0.4456 0.132292,0.84328 0.170392,1.15966 0.01,0.18884 0.01418,0.35221 0.01813,0.47374 0.0021,0.061 0.004,0.11525 0.0068,0.15688 0.0032,0.0455 0.01919,0.14065 0.114052,0.31849 -0.0212,-0.0218 0.175331,0.13321 0.362444,0.16573 0.163866,-0.0369 0.327766,-0.15871 0.363855,-0.20376 0.03919,-0.059 0.07048,-0.12559 0.08544,-0.15886 0.02582,-0.0557 0.05387,-0.13973 0.08244,-0.24158 0.06216,-0.33256 0.144922,-0.828 0.259222,-1.36945 0.118568,-0.53601 0.26363,-1.10317 0.432893,-1.58298 0.07172,-0.17904 0.146226,-0.332 0.233186,-0.48013 0.04653,-0.0712 0.08703,-0.12503 0.134867,-0.18429 0.04561,-0.0598 0.08297,-0.10185 0.129752,-0.15099 0.04547,-0.0491 0.08043,-0.0809 0.12707,-0.12072 0.0442,-0.0412 0.07606,-0.0665 0.12192,-0.0999 0.04918,-0.0281 0.08417,-0.0418 0.134691,-0.0629 0.04801,-0.0237 0.08132,-0.0354 0.131586,-0.0534 0.05027,-0.0176 0.08597,-0.0255 0.139065,-0.0382 0.09384,-0.0595 0.171732,-0.10315 0.286951,-0.14835 0.0599,-0.0144 0.112183,-0.0253 0.176635,-0.0364 0.0647,-0.009 0.123897,-0.0161 0.193006,-0.0225 v 0 c 0.356833,-0.0334 0.619019,-0.34981 0.585576,-0.70664 v 0 c -0.03333,-0.35684 -0.349696,-0.61899 -0.706532,-0.58558 v 0 c -0.356836,0.0334 -0.61902,0.34982 -0.585577,0.70665 v 0 c 0.03341,0.35684 0.34978,0.61899 0.706616,0.58558 0.134549,-0.0659 0.270827,-0.1258 0.425061,-0.18355 v 0 c 0.270616,-0.008 0.483095,-0.23481 0.474557,-0.50546 v 0 c -0.0085,-0.27062 -0.23481,-0.4831 -0.505426,-0.47456 v 0 c -0.270616,0.008 -0.483092,0.23481 -0.474591,0.50543 v 0 c 0.0085,0.27061 0.23481,0.48309 0.50546,0.47459 0.07797,-0.0132 0.155998,-0.0256 0.23763,-0.0376 v 0 c 0.252979,-0.004 0.45466,-0.21273 0.450427,-0.46574 v 0 c -0.0042,-0.25298 -0.212725,-0.45462 -0.465701,-0.45043 v 0 c -0.252976,0.004 -0.45466,0.21276 -0.450427,0.46574 v 0 c 0.0042,0.25298 0.212725,0.45463 0.465701,0.45043 0.08072,-0.0738 0.162915,-0.14718 0.247193,-0.22056 v 0 c 0.133032,-0.001 0.239641,-0.11056 0.238125,-0.24356 v 0 c -0.0013,-0.13299 -0.110562,-0.2396 -0.243557,-0.23812 -0.08597,-0.0714 -0.171874,-0.14288 -0.257035,-0.21393 -0.08428,-0.009 -0.169863,-0.0181 -0.253294,-0.0262 -0.168452,-0.0476 -0.345723,-0.0912 -0.515091,-0.12865 -0.08297,0.008 -0.173355,0.0183 -0.255658,0.03 -0.08287,0.01 -0.175295,0.0239 -0.25767,0.0388 -0.169087,0.0135 -0.365549,0.0466 -0.535517,0.0879 -0.07895,0.0378 -0.172579,0.0863 -0.249097,0.132 -0.07627,0.0452 -0.166969,0.10347 -0.2401,0.15717 -0.07084,0.0565 -0.154376,0.12781 -0.220945,0.19297 -0.06988,0.0598 -0.151024,0.13603 -0.216958,0.20538 -0.06346,0.0707 -0.135784,0.1584 -0.194698,0.23855 -0.05761,0.0802 -0.121779,0.17717 -0.174731,0.26691 -0.05069,0.0902 -0.105798,0.19654 -0.151871,0.29658 -0.09821,0.19446 -0.196885,0.42902 -0.278835,0.66802 -0.167288,0.55641 -0.303037,1.18947 -0.402343,1.75507 -0.09461,0.57323 -0.155999,1.09386 -0.190571,1.4121 -0.0039,0.0803 -0.0032,0.12824 0.0011,0.14976 0.0042,0.005 0.02614,-0.0363 0.05764,-0.0835 0.03157,-0.0381 0.191735,-0.15674 0.356694,-0.19371 0.179035,0.0329 0.372357,0.1851 0.403049,0.23897 0.03214,0.0873 0.04293,0.14199 0.0423,0.11924 -0.0011,-0.0265 -0.0018,-0.0683 -0.0025,-0.12781 -0.0018,-0.11942 -0.0044,-0.29486 -0.01337,-0.50543 -0.0087,-0.34156 -0.03464,-0.77424 -0.08523,-1.24485 -0.04914,-0.36688 -0.113171,-0.76581 -0.18736,-1.1424 -0.117616,-0.49067 -0.251495,-0.94011 -0.368864,-1.31632 -0.110208,-0.36106 -0.211491,-0.67419 -0.290407,-0.90653 -0.0059,-0.14503 -0.06791,-0.36939 -0.144004,-0.50676 -0.04865,-0.067 -0.126224,-0.14231 -0.187466,-0.18183 -0.07803,-0.0366 -0.268041,-0.0678 -0.36636,-0.0513 -0.157268,0.073 -0.287655,0.21478 -0.315242,0.2769 -0.03224,0.10022 -0.05055,0.22391 -0.05122,0.31245 -0.0037,0.12319 0.0072,0.25316 0.02582,0.35462 0.01863,0.15727 0.08573,0.3829 0.210679,0.54352 v 0 c 0.115711,0.1494 0.330588,0.17667 0.479989,0.061 v 0 c 0.149402,-0.11571 0.176671,-0.33062 0.06096,-0.47999"
       style="opacity:1;fill:#000000;fill-opacity:1;fill-rule:nonzero;stroke:none;stroke-width:0.352777;stop-opacity:1"
       id="path168"
       inkscape:connector-curvature="0" />
    <path
       d="m 70.993938,151.99782 c 0.04819,-0.24451 -0.143722,-0.52589 -0.160621,-0.5637 v 0 c -0.166933,-0.13791 -0.41402,-0.11434 -0.55192,0.0526 v 0 c -0.137864,0.16693 -0.114335,0.41402 0.0526,0.55192 v 0 c 0.166936,0.1379 0.414057,0.11433 0.551921,-0.0526 v 0 c 0.1379,-0.16694 0.114337,-0.41402 -0.0526,-0.55192 0.0079,-0.011 0.01066,-0.019 0.01482,-0.0393 v 0 c -0.11384,-0.20476 -0.372073,-0.27849 -0.57686,-0.16468 v 0 c -0.204753,0.1138 -0.278485,0.37207 -0.164677,0.57683 v 0 c 0.113805,0.20478 0.372073,0.27851 0.576826,0.16467 v 0 c 0.204788,-0.1138 0.278519,-0.37204 0.164711,-0.57682 0.02625,0.0449 0.02681,-0.0539 0.02709,-0.19096 v 0 c -0.006,-0.24028 -0.205703,-0.43018 -0.445981,-0.42415 v 0 c -0.240276,0.006 -0.430213,0.20567 -0.42418,0.44595 v 0 c 0.006,0.24028 0.205705,0.43021 0.445981,0.42418 v 0 c 0.240279,-0.006 0.430179,-0.20567 0.42418,-0.44598 -0.01982,-0.19879 -0.03154,-0.37148 -0.04028,-0.62823 0.004,-0.43095 0.02389,-1.15577 0.0333,-2.01316 0.01651,-0.33507 0.03196,-0.68697 0.04752,-1.0274 0.01355,-0.52574 0.02252,-1.0191 0.05172,-1.6209 0.0032,-0.38192 0.01749,-0.79337 0.05553,-1.26909 0.04321,-0.38932 0.100893,-0.81858 0.159631,-1.24135 0.07853,-0.53411 0.154763,-1.02341 0.239678,-1.39305 0.06872,-0.30903 0.121814,-0.44679 0.211667,-0.57824 0.06593,-0.13218 0.09881,-0.17635 0.20475,-0.2637 0.173638,-0.16097 0.431977,-0.303 0.76708,-0.43494 0.350025,-0.14517 0.65673,-0.2382 0.940612,-0.25266 0.183973,-0.0186 0.237631,-0.0223 0.310902,0.007 0.0876,0.0386 0.186338,0.16556 0.304837,0.43593 0.101494,0.2256 0.161041,0.46228 0.185594,0.74676 0.05468,0.34473 0.04375,0.6145 -0.09264,0.95102 -0.08936,0.16351 -0.243875,0.37239 -0.436563,0.61217 -0.320675,0.43166 -0.682942,0.85545 -1.024818,1.2519 -0.460624,0.56018 -0.859227,1.04588 -1.108253,1.41302 -0.152434,0.21699 -0.280035,0.44672 -0.331856,0.64262 -0.01093,0.0923 0.0019,0.25174 0.03644,0.35264 0.05069,0.10015 0.184256,0.24355 0.269841,0.29421 0.151939,0.063 0.349213,0.0829 0.488349,0.0707 0.264123,-0.04 0.541478,-0.10904 0.826945,-0.15543 0.330483,-0.0551 0.628369,-0.0798 0.946716,0.009 0.372851,0.13677 0.750253,0.4234 1.049689,0.78973 0.208458,0.24042 0.32198,0.42982 0.362056,0.66403 0.04403,0.21054 0.01802,0.36693 -0.139771,0.65088 -0.178927,0.27432 -0.497486,0.60416 -0.922795,1.00136 -0.332,0.30532 -0.704956,0.6266 -1.090261,0.9568 -0.376449,0.35077 -0.751522,0.69913 -1.1019,1.02612 -0.135609,0.12792 -0.26744,0.25284 -0.399838,0.37868 -0.08661,0.075 -0.170463,0.14534 -0.246732,0.20464 v 0 c -0.254177,0.21163 -0.288679,0.58925 -0.07705,0.84342 v 0 c 0.21163,0.25418 0.589243,0.28868 0.843421,0.077 v 0 c 0.254174,-0.21163 0.288676,-0.58921 0.07705,-0.84342 v 0 c -0.211632,-0.25417 -0.589245,-0.28868 -0.84342,-0.0771 -0.12365,0.14676 -0.118464,0.19131 0.02413,0.1802 v 0 c -0.275873,0.004 -0.49643,0.23047 -0.492654,0.50634 v 0 c 0.0038,0.27588 0.230468,0.49643 0.506341,0.49266 v 0 c 0.275836,-0.004 0.496427,-0.23047 0.492654,-0.50634 v 0 c -0.0038,-0.27588 -0.23047,-0.49643 -0.506341,-0.49266 -0.171098,0.0402 -0.101743,0.0356 -0.07546,0.0388 v 0 c -0.265925,-0.0302 -0.505989,0.16083 -0.536258,0.42676 v 0 c -0.03023,0.26592 0.16083,0.50602 0.426755,0.53625 v 0 c 0.265925,0.0302 0.505989,-0.16083 0.536257,-0.42675 v 0 c 0.03023,-0.26592 -0.160832,-0.50599 -0.426754,-0.53626 0.0084,0.0872 0.03573,0.1862 -0.01654,0.24515 v 0 c -0.103646,-0.0834 -0.255233,-0.067 -0.33863,0.0367 v 0 c -0.0834,0.10364 -0.06696,0.25523 0.03669,0.33863 0.01672,0.11447 0.118322,0.24603 0.209198,0.34258 0.108373,0.0126 0.26811,-0.006 0.363715,-0.0334 0.107632,0.0177 0.358703,-0.1016 0.563314,-0.22818 0.08781,-0.0773 0.188666,-0.17106 0.290618,-0.26902 0.141076,-0.14034 0.26811,-0.26695 0.394195,-0.39205 0.340534,-0.32427 0.711904,-0.67588 1.078828,-1.02446 0.359341,-0.34784 0.72644,-0.70549 1.05075,-1.04592 0.425625,-0.43773 0.801053,-0.87771 1.032333,-1.28534 0.21844,-0.45269 0.280106,-0.93885 0.202636,-1.31925 -0.100155,-0.38859 -0.336092,-0.77086 -0.594995,-1.05544 -0.368477,-0.43208 -0.92329,-0.84304 -1.457396,-1.04468 -0.488985,-0.13847 -0.975395,-0.12743 -1.35904,-0.0776 -0.326356,0.0495 -0.608965,0.11553 -0.785321,0.13896 -0.0351,-0.003 0.01196,7.1e-4 0.0725,0.0136 0.04004,0.0256 0.142663,0.13536 0.176567,0.19272 0.01765,0.0579 0.02766,0.1651 0.02942,0.18401 -0.01225,-0.006 0.03147,-0.0898 0.152223,-0.27415 0.224612,-0.31542 0.609459,-0.76679 1.073573,-1.31445 0.338066,-0.39285 0.722135,-0.84405 1.050819,-1.28728 0.194548,-0.23782 0.401876,-0.51707 0.553466,-0.78988 0.222567,-0.52045 0.281517,-1.05741 0.237313,-1.50502 -0.04297,-0.35521 -0.152858,-0.74926 -0.296474,-1.05773 -0.18334,-0.38358 -0.503274,-0.75773 -0.846032,-0.944 -0.288395,-0.0993 -0.559117,-0.11416 -0.765704,-0.0965 -0.371758,-0.007 -0.85277,0.0955 -1.262345,0.23036 -0.401143,0.12746 -0.834247,0.3283 -1.148361,0.55521 -0.202776,0.17099 -0.389503,0.4005 -0.506095,0.61094 -0.122343,0.2413 -0.220699,0.57386 -0.284056,0.94939 -0.05895,0.41843 -0.106117,0.94421 -0.150495,1.47659 -0.05256,0.41695 -0.106612,0.86095 -0.146685,1.27268 -0.04657,0.50549 -0.06869,0.95366 -0.07825,1.34807 0.0052,0.6175 0.03083,1.12582 0.05175,1.64373 0.01611,0.33754 0.03235,0.68817 0.04752,1.02048 2.65e-4,0.85009 -0.0097,1.57523 -0.0039,2.01955 -0.0057,0.2655 -0.0077,0.465 -0.0024,0.66379 0.0066,0.12985 0.02085,0.31393 0.0611,0.46538 0.105904,0.19029 0.188806,0.26825 0.233645,0.29958 0.129717,0.0867 0.03186,-0.14831 0.02695,-0.16514 v 0 c -0.04293,0.18401 0.07147,0.36799 0.255482,0.41088 v 0 c 0.184044,0.0429 0.368017,-0.0715 0.410914,-0.25551"
       style="opacity:1;fill:#000000;fill-opacity:1;fill-rule:nonzero;stroke:none;stroke-width:0.352777;stop-opacity:1"
       id="path170"
       inkscape:connector-curvature="0" />
    <path
       d="m 77.841601,150.0531 c -0.02519,0.0172 -0.06974,0.0533 -0.104915,0.091 v 0 c -0.12178,0.14449 -0.103365,0.36032 0.0411,0.48214 v 0 c 0.144497,0.12178 0.360328,0.10336 0.482106,-0.0411 v 0 c 0.121814,-0.1445 0.103399,-0.36033 -0.04106,-0.48214 v 0 c -0.144497,-0.12178 -0.360325,-0.10337 -0.482139,0.0411 -0.02082,0.0266 -0.06015,0.0981 -0.07641,0.14859 v 0 c -0.04558,0.18337 0.06611,0.369 0.249483,0.41458 v 0 c 0.183375,0.0456 0.369007,-0.0661 0.414584,-0.24948 v 0 c 0.04558,-0.18338 -0.06611,-0.36901 -0.249484,-0.41459 v 0 c -0.183374,-0.0456 -0.369006,0.0661 -0.414583,0.24949 -0.0099,0.0592 7.94e-4,0.17691 0.01873,0.22778 v 0 c 0.07486,0.1735 0.276188,0.25347 0.449686,0.17862 v 0 c 0.17353,-0.0749 0.253505,-0.27619 0.178647,-0.44969 v 0 c -0.07486,-0.1735 -0.276191,-0.25347 -0.449686,-0.17861 v 0 c -0.173532,0.0749 -0.253471,0.27619 -0.178647,0.44968 0.01484,-0.30028 -0.02572,-0.21163 -0.03916,-0.14728 0.310232,0.43582 0.33655,0.45184 0.323355,0.48687 -0.06541,-0.0417 -0.07514,-0.0622 -0.09267,0.0585 0.103153,0.3961 0.184891,0.8007 0.275555,1.13795 0.08742,0.23337 0.170709,0.41547 0.238371,0.52599 0.02082,0.045 0.05662,0.11438 0.0992,0.17068 0.01587,0.0186 0.05941,0.0608 0.09691,0.0868 0.05041,0.0258 0.200765,0.0504 0.286067,0.0319 0.0738,-0.0371 0.157446,-0.11829 0.179107,-0.15448 0.01408,-0.03 0.02886,-0.0731 0.03323,-0.0935 0.02297,-0.13928 0.03006,-0.25238 0.0424,-0.3924 0.0114,-0.21047 0.03179,-0.46849 0.1427,-0.85485 0.0859,-0.31838 0.216464,-0.67769 0.451766,-1.12688 0.12633,-0.24423 0.271957,-0.49502 0.451273,-0.7633 0.07098,-0.10305 0.142769,-0.19858 0.226838,-0.3006 0.09359,-0.11395 0.191521,-0.2255 0.298307,-0.33955 0.106929,-0.11392 0.212974,-0.21971 0.327062,-0.32629 0.113665,-0.10675 0.224541,-0.2039 0.3429,-0.30039 v 0 c 0.191453,-0.15935 0.217451,-0.44376 0.05807,-0.63521 v 0 c -0.159348,-0.19145 -0.44376,-0.21745 -0.635212,-0.0581 v 0 c -0.191453,0.15935 -0.217451,0.44376 -0.05807,0.63521 v 0 c 0.159348,0.19145 0.44376,0.21745 0.635212,0.0581 0.119026,-0.0953 0.232656,-0.17939 0.353552,-0.26148 v 0 c 0.207116,-0.147 0.255836,-0.43409 0.108797,-0.64121 v 0 c -0.147009,-0.20712 -0.434097,-0.25584 -0.641213,-0.10883 v 0 c -0.207116,0.14703 -0.255836,0.43412 -0.108797,0.64124 v 0 c 0.147003,0.20712 0.434091,0.2558 0.641207,0.1088 0.119735,-0.0831 0.230894,-0.15336 0.349711,-0.22049 v 0 c 0.221789,-0.12908 0.296968,-0.41353 0.167886,-0.63532 v 0 c -0.129083,-0.22179 -0.413526,-0.29697 -0.635318,-0.16788 v 0 c -0.221792,0.12908 -0.296968,0.41349 -0.167886,0.63531 v 0 c 0.12908,0.22179 0.413491,0.29697 0.635318,0.16789 0.08163,-0.13398 0.157903,-0.25725 0.245461,-0.3774 v 0 c 0.121637,-0.0538 0.176636,-0.196 0.122839,-0.31768 v 0 c -0.0538,-0.12164 -0.196041,-0.17663 -0.317678,-0.12283 -0.165346,-0.008 -0.34431,7e-5 -0.518054,0.0147 -0.136596,0.0815 -0.280953,0.17691 -0.414689,0.27364 -0.132541,0.0979 -0.270264,0.20793 -0.398288,0.31825 -0.128693,0.10918 -0.260562,0.22916 -0.383045,0.34833 -0.122132,0.11938 -0.24578,0.24825 -0.359762,0.37497 -0.114089,0.12657 -0.228283,0.26162 -0.332248,0.39306 -0.09468,0.12605 -0.182986,0.25548 -0.259361,0.37793 -0.186372,0.29715 -0.347276,0.59394 -0.474874,0.86124 -0.238268,0.50211 -0.3816,0.95476 -0.457835,1.31184 -0.09867,0.45071 -0.103576,0.81128 -0.09031,1.03607 0.0097,0.14834 0.02458,0.25996 0.0333,0.30448 0.01029,-0.0707 0.02151,-0.10396 0.03161,-0.12682 0.01767,-0.0291 0.09694,-0.10598 0.163759,-0.14062 0.08276,-0.0177 0.22793,0.006 0.274248,0.0291 0.03045,0.0215 0.06802,0.0575 0.07744,0.0675 0.01707,0.022 0.02074,0.0176 0.0081,-0.0295 -0.02564,-0.11243 -0.0587,-0.2704 -0.09733,-0.47621 -0.05186,-0.29531 -0.107772,-0.71522 -0.178964,-1.05163 -0.0061,-0.16461 -0.131093,-0.42916 -0.243557,-0.55023 -0.266382,-0.15088 -0.432189,-0.15081 -0.426262,-0.12739 0.212619,0.41018 0.19163,0.46069 0.192794,0.46708 0.05969,-0.3017 0.06981,-0.19032 0.06156,-0.1378 -0.01461,0.0438 -0.05002,0.10838 -0.06435,0.12722 -0.02244,0.0227 -0.04431,0.041 -0.03552,0.0352 v 0 c 0.156597,-0.10573 0.197872,-0.31839 0.09214,-0.47502 v 0 c -0.105727,-0.1566 -0.318381,-0.19787 -0.475014,-0.0922"
       style="opacity:1;fill:#000000;fill-opacity:1;fill-rule:nonzero;stroke:none;stroke-width:0.352777;stop-opacity:1"
       id="path172"
       inkscape:connector-curvature="0" />
    <path
       d="m 82.856196,150.93631 c -0.02474,-0.0114 -0.03574,-0.0102 -0.05627,-0.0519 v 0 c -0.04089,-0.16566 -0.20828,-0.26684 -0.373944,-0.22599 v 0 c -0.165663,0.0409 -0.26684,0.20828 -0.225988,0.37395 v 0 c 0.04085,0.16566 0.20828,0.26684 0.373943,0.22599 v 0 c 0.165664,-0.0409 0.266841,-0.20828 0.225989,-0.37395 -0.01622,-0.0295 -0.02773,-0.0515 -0.03796,-0.0925 v 0 c -0.0084,-0.15663 -0.142134,-0.27686 -0.298805,-0.26846 v 0 c -0.156668,0.008 -0.27686,0.14213 -0.268499,0.2988 v 0 c 0.0084,0.15667 0.142171,0.27686 0.298839,0.2685 v 0 c 0.156633,-0.008 0.27686,-0.14217 0.268465,-0.29884 0.02553,-0.17 0.102904,-0.35045 0.254386,-0.57182 v 0 c 0.09553,-0.19829 0.0122,-0.43645 -0.186089,-0.53195 v 0 c -0.198298,-0.0955 -0.436457,-0.0122 -0.531953,0.18609 v 0 c -0.0955,0.1983 -0.0122,0.43646 0.186089,0.53195 v 0 c 0.198298,0.0955 0.436457,0.0122 0.531953,-0.18609 0.08823,-0.15942 0.166264,-0.26179 0.308398,-0.37136 0.0713,-0.0614 0.150321,-0.11229 0.275027,-0.17244 0.220133,-0.12175 0.472194,-0.20832 0.752758,-0.24511 0.191945,-0.0405 0.320638,-0.0577 0.44831,-0.0431 0.15776,0.0236 0.249661,0.0817 0.30688,0.23392 0.04681,0.0982 0.05803,0.15632 0.02812,0.27909 -0.03934,0.11585 -0.118287,0.23826 -0.264689,0.39204 -0.09289,0.0959 -0.21195,0.196 -0.357471,0.30155 -0.3151,0.1753 -0.661104,0.31503 -0.994516,0.40796 -0.09479,0.031 -0.162629,0.0477 -0.234209,0.0626 -0.06953,0.018 -0.121989,0.0271 -0.180832,0.0345 -0.05715,0.008 -0.08813,0.007 -0.130069,0.005 -0.03926,7.1e-4 -0.03867,-0.003 -0.05764,-0.0102 -0.01638,-0.004 0.02246,0.004 0.02727,-3.5e-4 0.0058,2.1e-4 0.06516,0.0375 0.07888,0.0407 -0.0044,0.015 0.0159,0.069 0.0051,0.0636 v 0 c -0.108407,-0.28963 -0.431128,-0.43656 -0.720759,-0.32812 v 0 c -0.289666,0.10841 -0.436563,0.43113 -0.328155,0.72076 v 0 c 0.108445,0.28967 0.431131,0.43657 0.720797,0.32816 v 0 c 0.289631,-0.10845 0.436562,-0.43113 0.328117,-0.7208 -0.0095,-0.0123 -0.0099,-7.1e-4 -0.01513,-0.0418 v 0 c -0.02447,-0.30349 -0.290407,-0.52966 -0.593937,-0.50514 v 0 c -0.303493,0.0245 -0.529658,0.29041 -0.505176,0.59394 v 0 c 0.02453,0.30349 0.290441,0.52966 0.593971,0.50517 v 0 c 0.303495,-0.0245 0.529661,-0.29044 0.505142,-0.59397 -0.0042,-0.0452 -0.0032,-0.0791 0.0051,-0.15265 v 0 c 0.03175,-0.30324 -0.188315,-0.57481 -0.491562,-0.60656 v 0 c -0.303212,-0.0317 -0.574781,0.18835 -0.606531,0.49159 v 0 c -0.03175,0.30322 0.188349,0.57479 0.491562,0.60654 v 0 c 0.303247,0.0318 0.574781,-0.18835 0.606531,-0.49157 -0.09508,-0.0907 -0.183058,-0.1906 -0.258623,-0.32317 v 0 c 0.03013,-0.12954 -0.05052,-0.25901 -0.180057,-0.28911 v 0 c -0.129577,-0.0301 -0.259011,0.0505 -0.289136,0.18006 -0.130493,0.10386 -0.255202,0.21685 -0.370277,0.31725 -0.01161,0.11744 -0.01394,0.25277 -0.0061,0.35642 0.0069,0.10784 0.03376,0.24803 0.06537,0.34565 0.03034,0.10456 0.105621,0.24969 0.168661,0.33895 0.08096,0.0771 0.219993,0.17138 0.316301,0.213 0.09557,0.0375 0.235974,0.0707 0.330729,0.0791 0.09186,0.005 0.212937,-0.001 0.30212,-0.0145 0.0865,-0.0169 0.192016,-0.0442 0.277987,-0.0733 0.08407,-0.0299 0.181153,-0.0689 0.266277,-0.10823 0.08304,-0.0423 0.17498,-0.092 0.259151,-0.14185 0.330907,-0.17981 0.718114,-0.43328 1.02997,-0.70273 0.167958,-0.11684 0.33581,-0.25203 0.471065,-0.38365 0.195016,-0.22186 0.344876,-0.47583 0.416419,-0.69839 0.06689,-0.25055 0.05528,-0.52977 -0.0093,-0.73301 -0.120121,-0.34078 -0.460481,-0.66332 -0.818161,-0.79495 -0.269489,-0.0558 -0.535165,-0.0548 -0.760344,-0.0297 -0.351718,0.0377 -0.755613,0.15939 -1.059989,0.30752 -0.174239,0.097 -0.34671,0.22281 -0.471877,0.34195 -0.199461,0.22747 -0.336126,0.49001 -0.406505,0.69836 -0.106575,0.31351 -0.145204,0.67073 -0.09659,0.93256 -0.0044,0.067 -0.0013,0.14634 0.0053,0.21012 0.014,0.0983 0.05669,0.22126 0.104388,0.30861 v 0 c 0.111723,0.1524 0.325824,0.18535 0.478224,0.0736 v 0 c 0.1524,-0.11172 0.185351,-0.32583 0.07363,-0.47823"
       style="opacity:1;fill:#000000;fill-opacity:1;fill-rule:nonzero;stroke:none;stroke-width:0.352777;stop-opacity:1"
       id="path174"
       inkscape:connector-curvature="0" />
    <path
       d="m 87.097221,149.86016 c -0.0049,-0.10745 -0.0123,-0.13225 -0.03105,-0.0926 v 0 c 0.06019,-0.16217 -0.02252,-0.3424 -0.184679,-0.40255 v 0 c -0.162171,-0.0602 -0.342405,0.0225 -0.40259,0.18468 v 0 c -0.06015,0.16217 0.02254,0.3424 0.184716,0.40259 v 0 c 0.162171,0.0601 0.342406,-0.0225 0.402553,-0.18472 2.65e-4,0.0175 -0.01918,0.0684 -0.03926,0.10654 v 0 c 0.121428,-0.1392 0.107035,-0.35048 -0.03214,-0.47194 v 0 c -0.139208,-0.12143 -0.350486,-0.10704 -0.471911,0.0322 v 0 c -0.121462,0.13917 -0.107069,0.35044 0.03214,0.47191 v 0 c 0.139208,0.12142 0.350486,0.10703 0.471911,-0.0321 -0.02141,0.0272 -0.07959,0.0747 -0.117581,0.0975 v 0 c 0.17579,-0.0736 0.258657,-0.27577 0.185068,-0.45159 v 0 c -0.07359,-0.17583 -0.275801,-0.2587 -0.45159,-0.18507 v 0 c -0.175824,0.0736 -0.258691,0.27576 -0.185103,0.45159 v 0 c 0.07363,0.17579 0.275802,0.25866 0.451625,0.18507 -0.06184,0.0229 -0.180869,0.0304 -0.242215,0.0199 -0.08587,-0.0332 -0.182986,-0.11367 -0.209693,-0.14016 -0.01852,-0.0187 -0.04046,-0.05 -0.05112,-0.0582 -0.04007,-0.0446 -0.07165,-0.0687 -0.09807,-0.0556 -0.0083,0.0415 -0.01439,0.15988 -0.01058,0.30787 0.03591,0.23886 0.09147,0.51523 0.170037,0.87954 0.07257,0.31764 0.164994,0.71244 0.265467,1.0818 0.13617,0.44538 0.297532,0.88829 0.474168,1.17753 0.122414,0.18154 0.355917,0.37003 0.57164,0.42189 0.133138,0.0238 0.346075,-0.004 0.472477,-0.0551 0.115639,-0.0534 0.252587,-0.14905 0.3556,-0.24204 0.181292,-0.20899 0.328824,-0.41773 0.472474,-0.60953 0.136102,-0.15953 0.281906,-0.32357 0.428519,-0.46045 0.169686,-0.13758 0.298345,-0.20567 0.427355,-0.23195 0.05154,-0.0119 0.04808,-0.005 0.08445,0.0147 -0.113381,-0.0803 -0.07299,0.0876 0.248743,0.32117 0.29055,0.0685 0.553334,0.0213 0.686224,-0.0433 0.111797,-0.0641 0.249486,-0.18164 0.342619,-0.28458 0.157692,-0.23453 0.288959,-0.47096 0.410139,-0.69635 0.175014,-0.33902 0.352708,-0.69776 0.479636,-0.9403 0.0051,-0.004 0.02167,-0.0272 0.04018,-0.0516 0.02487,-0.0555 0.03895,-0.0919 0.06004,-0.13578 0.01283,-0.0197 0.0249,-0.0379 0.03919,-0.0587 0.01426,-0.0209 0.03023,-0.0437 0.04667,-0.0675 0.02278,-0.0561 0.05475,-0.12562 0.0853,-0.19942 v 0 c 0.155435,-0.21647 0.105977,-0.51795 -0.11049,-0.67342 v 0 c -0.216463,-0.15544 -0.517982,-0.10598 -0.673417,0.11049 v 0 c -0.155469,0.21646 -0.106008,0.51798 0.11049,0.67345 v 0 c 0.216466,0.15543 0.517948,0.10598 0.673417,-0.11052 0.01863,-0.0334 0.04106,-0.0736 0.06191,-0.11321 v 0 c 0.142205,-0.21689 0.08167,-0.508 -0.135255,-0.65024 v 0 c -0.216887,-0.14221 -0.508,-0.0817 -0.65024,0.13525 v 0 c -0.142203,0.21689 -0.08163,0.50804 0.135255,0.65024 v 0 c 0.216889,0.14221 0.508037,0.0817 0.65024,-0.13525 0.01386,-0.0435 0.03111,-0.0938 0.04763,-0.14482 v 0 c 0.123544,-0.20471 0.05772,-0.47085 -0.147003,-0.59439 v 0 c -0.204716,-0.12351 -0.470852,-0.0577 -0.59436,0.147 v 0 c -0.123542,0.20472 -0.05775,0.47085 0.146968,0.5944 v 0 c 0.204754,0.1235 0.470853,0.0577 0.594395,-0.14701 -0.0284,-0.0769 -0.0544,-0.15952 -0.08022,-0.24422 v 0 c 0.06523,-0.11593 0.0241,-0.26279 -0.09183,-0.32798 v 0 c -0.115925,-0.0652 -0.262784,-0.0241 -0.327978,0.0918 -0.08368,0.0182 -0.16316,0.0274 -0.241337,0.033 -0.03334,0.0316 -0.06226,0.0546 -0.09176,0.0772 -0.02246,0.0265 -0.04053,0.0451 -0.06039,0.0653 -0.04625,0.0332 -0.08294,0.0493 -0.126931,0.0734 -0.01672,0.0159 -0.03358,0.0316 -0.05246,0.0497 -0.01884,0.0181 -0.04015,0.0393 -0.06167,0.0612 -0.04805,0.0401 -0.10728,0.097 -0.16623,0.15981 -0.0235,0.0349 -0.05147,0.0776 -0.07779,0.11973 -0.175154,0.27954 -0.376026,0.63355 -0.572204,0.96435 -0.119629,0.23301 -0.222533,0.42905 -0.309951,0.56822 0.0061,-7.1e-4 0.02981,-0.0135 0.03838,-0.0157 0.02942,-0.002 0.199424,-0.0308 0.278516,-0.0215 0.230788,0.1736 0.112961,-0.0651 -0.246766,-0.27439 -0.293548,-0.0695 -0.56106,-0.0562 -0.765847,0.004 -0.274283,0.11455 -0.5558,0.31161 -0.782638,0.53471 -0.184467,0.19226 -0.355245,0.4034 -0.503695,0.59834 -0.158962,0.22486 -0.285679,0.41759 -0.393348,0.55274 -0.02053,0.019 -0.03496,0.0334 -0.06085,0.045 -0.01495,0.0136 0.06657,0.006 0.08918,0.005 0.02805,0.0156 0.107209,0.0649 0.07405,-0.0165 -0.08714,-0.18906 -0.179282,-0.54388 -0.273405,-0.97441 -0.0889,-0.35193 -0.169545,-0.7269 -0.236924,-1.05301 -0.0967,-0.36847 -0.164184,-0.62138 -0.205565,-0.79209 -0.01884,-0.0763 -0.03524,-0.17261 -0.05292,-0.23816 -0.02956,-0.0226 -0.0642,-0.0705 -0.110101,-0.13099 -0.01003,-0.006 -0.03351,-0.0414 -0.05489,-0.0647 -0.02706,-0.0271 -0.125764,-0.10915 -0.220943,-0.14524 -0.0544,-0.008 -0.174201,-7.1e-4 -0.223909,0.0173 -0.05172,0.0283 -0.110667,0.0764 -0.129963,0.10115 -0.02453,0.0432 -0.04579,0.097 -0.04688,0.11878 -0.03101,0.0728 -0.05013,0.16002 -0.06523,0.27954 v 0 c -0.0085,0.18877 0.137583,0.34872 0.326353,0.35722 v 0 c 0.188772,0.008 0.348721,-0.13762 0.357225,-0.32639 z"
       style="opacity:1;fill:#000000;fill-opacity:1;fill-rule:nonzero;stroke:none;stroke-width:0.352777;stop-opacity:1"
       id="path176"
       inkscape:connector-curvature="0" />
    <path
       d="m 96.885111,148.58713 c 0.0231,0.11155 0.0024,0.23788 0.0047,0.24811 v 0 c 0.10079,-0.17036 0.04442,-0.39014 -0.125905,-0.49093 v 0 c -0.170357,-0.10082 -0.390139,-0.0445 -0.490961,0.12591 v 0 c -0.10079,0.17035 -0.04441,0.39014 0.125942,0.49092 v 0 c 0.170354,0.10079 0.390136,0.0444 0.490924,-0.1259 0.0024,0.004 0.01217,0.002 0.03672,-0.0194 v 0 c 0.130953,-0.16016 0.10728,-0.39617 -0.05288,-0.52716 v 0 c -0.160163,-0.13095 -0.396171,-0.10728 -0.527121,0.0529 v 0 c -0.130988,0.16016 -0.107315,0.39617 0.05284,0.52712 v 0 c 0.160163,0.13099 0.396171,0.10732 0.527156,-0.0529 0.08463,-0.11327 0.149262,-0.24931 0.168206,-0.39479 v 0 c -0.01347,-0.22694 -0.208351,-0.39998 -0.435258,-0.3865 v 0 c -0.226941,0.0134 -0.399979,0.20831 -0.386503,0.43525 v 0 c 0.01344,0.22695 0.208314,0.39998 0.435258,0.38651 v 0 c 0.226941,-0.0135 0.399978,-0.20835 0.386503,-0.43526 0.01736,-0.0637 -0.0054,-0.2068 -0.03482,-0.29725 -0.4493,-0.21654 -0.720196,-0.16979 -0.913061,-0.0946 -0.185066,0.0752 -0.420757,0.20736 -0.59997,0.35267 -0.361701,0.34438 -0.587586,0.87461 -0.591888,1.29596 -0.0032,0.14747 0.04985,0.42718 0.185843,0.62851 0.09839,0.11469 0.243099,0.22592 0.374295,0.29362 0.205283,0.0848 0.402627,0.13776 0.607627,0.20532 0.179316,0.0543 0.341275,0.10774 0.498721,0.18563 0.135043,0.0683 0.256611,0.14887 0.373557,0.26356 0.156139,0.17667 0.259784,0.4142 0.320709,0.67709 0.06964,0.38481 0.01278,0.5945 -0.155646,0.72044 -0.07828,0.0329 -0.17607,0.0248 -0.37465,0.0233 -0.09652,-0.004 -0.241512,-0.0118 -0.408411,-0.0131 -0.229235,0.0439 -0.399732,0.0871 -0.555588,0.12658 -0.206904,0.0565 -0.385199,0.10611 -0.532447,0.13271 -0.07218,0.0116 -0.108763,0.0159 -0.14845,0.0147 -0.03542,7.1e-4 0.0032,0.01 0.02114,0.0125 0.02138,0.0174 0.127635,0.11942 0.158115,0.16323 0.008,0.0209 0.02437,0.0798 0.02737,0.0887 -0.02212,0.006 -0.04244,0.0238 -0.04036,-0.042 v 0 c 0.07602,-0.25121 -0.06601,-0.51654 -0.317254,-0.59256 v 0 c -0.251211,-0.076 -0.516535,0.066 -0.592561,0.31722 v 0 c -0.07606,0.25125 0.06601,0.51653 0.31722,0.59259 v 0 c 0.251248,0.076 0.516535,-0.066 0.592595,-0.31725 0.0065,-0.035 0.01363,-0.0648 0.0303,-0.11307 v 0 c 0.100189,-0.23611 -0.01,-0.5087 -0.246063,-0.60889 v 0 c -0.236114,-0.10019 -0.508704,0.01 -0.608893,0.2461 v 0 c -0.10019,0.23608 0.01,0.5087 0.246097,0.60889 v 0 c 0.236079,0.10016 0.508706,-0.01 0.608859,-0.2461 0.01701,-0.0496 0.03563,-0.0975 0.06364,-0.15959 v 0 c 0.114829,-0.22257 0.02752,-0.49608 -0.195051,-0.61094 v 0 c -0.222509,-0.11482 -0.496054,-0.0275 -0.610883,0.19506 v 0 c -0.114829,0.22257 -0.02752,0.49611 0.195051,0.61094 v 0 c 0.222568,0.11487 0.496075,0.0275 0.610942,-0.19505 0.0011,-0.15695 0.02254,-0.3338 0.07489,-0.54592 v 0 c 0.072,-0.11183 0.03972,-0.26088 -0.07214,-0.33288 v 0 c -0.111831,-0.072 -0.260879,-0.0397 -0.332883,0.0721 -0.177974,0.14559 -0.338312,0.27919 -0.475826,0.39074 -0.04134,0.0724 -0.08121,0.14827 -0.112676,0.21279 -0.03168,0.0657 -0.06287,0.14019 -0.08513,0.20048 -0.05556,0.12464 -0.09571,0.2968 -0.105127,0.42584 0.0093,0.0704 0.04018,0.18324 0.07003,0.2509 0.07433,0.13755 0.254211,0.30504 0.373766,0.36526 0.115924,0.0457 0.277177,0.0746 0.383471,0.0782 0.101986,0.002 0.226235,-0.008 0.328681,-0.023 0.202002,-0.0258 0.428062,-0.0756 0.637929,-0.12213 0.156739,-0.0377 0.305753,-0.0738 0.448488,-0.1017 0.08318,-0.0188 0.245427,-0.0428 0.404741,-0.0779 0.285961,-0.0882 0.583848,-0.23855 0.775546,-0.44478 0.307481,-0.35751 0.420616,-0.92213 0.310092,-1.44205 -0.0556,-0.33641 -0.205774,-0.7407 -0.431059,-1.05336 -0.179917,-0.20158 -0.385551,-0.3658 -0.576403,-0.48479 -0.225708,-0.11522 -0.449051,-0.19593 -0.630872,-0.25513 -0.215866,-0.0754 -0.391055,-0.12552 -0.502322,-0.17579 -0.03178,-0.0208 -0.0309,-0.0237 -0.04209,-0.0484 -0.01288,-0.004 0.0078,0.0221 0.01969,-0.0677 -0.0011,-0.2395 0.08692,-0.42556 0.308081,-0.59203 0.09493,-0.08 0.209161,-0.14147 0.332951,-0.18877 0.115994,-0.0474 0.112888,-0.052 -0.01135,-0.0625 -0.220626,-0.23054 -0.23703,-0.35331 -0.218263,-0.39367 0.02307,-0.0755 0.04674,-0.11483 0.0394,-0.0789 0.01736,-0.0203 -0.01421,0.0284 -0.03944,0.0793 -0.02537,0.0569 -0.05983,0.22568 -0.02318,0.37113 v 0 c 0.0702,0.17543 0.269309,0.26073 0.444746,0.19057 v 0 c 0.175472,-0.0702 0.260774,-0.26935 0.190572,-0.44479"
       style="opacity:1;fill:#000000;fill-opacity:1;fill-rule:nonzero;stroke:none;stroke-width:0.352777;stop-opacity:1"
       id="path178"
       inkscape:connector-curvature="0" />
    <path
       d="m 100.47205,151.93273 c 0.0281,-0.0145 0.0586,-0.029 0.0877,-0.0441 v 0 c 0.16129,0.009 0.29905,-0.11511 0.30769,-0.2764 v 0 c 0.009,-0.16129 -0.11511,-0.29901 -0.2764,-0.30766 v 0 c -0.16129,-0.009 -0.29905,0.11512 -0.3077,0.27637 v 0 c -0.009,0.16129 0.11512,0.29905 0.27641,0.30769 0.13871,0.0386 0.31534,0.0682 0.47088,0.0738 v 0 c 0.20998,-0.0373 0.34999,-0.23766 0.31274,-0.44764 v 0 c -0.0372,-0.20997 -0.23767,-0.34995 -0.44764,-0.3127 v 0 c -0.20994,0.0373 -0.34995,0.23767 -0.3127,0.4476 v 0 c 0.0373,0.20998 0.23767,0.35 0.4476,0.31274 0.14873,-0.0174 0.32816,-0.092 0.45512,-0.17547 v 0 c 0.18278,-0.14474 0.21361,-0.41028 0.0689,-0.59305 v 0 c -0.14478,-0.18278 -0.41028,-0.21361 -0.59305,-0.0688 v 0 c -0.18281,0.14474 -0.21361,0.41028 -0.0689,0.59305 v 0 c 0.14474,0.18277 0.41028,0.21361 0.59305,0.0688 0.30014,-0.22694 0.65945,-0.67878 0.98841,-1.12264 0.31683,-0.39889 0.67314,-0.90548 0.79185,-1.34606 0.0117,-0.19897 -0.0373,-0.45357 -0.12697,-0.61489 -0.10936,-0.15184 -0.34646,-0.31874 -0.5249,-0.36753 -0.155,-0.038 -0.45557,-0.0466 -0.69655,0.0249 -0.43381,0.19128 -0.87715,0.62435 -1.20382,1.16614 -0.17092,0.24945 -0.35243,0.58879 -0.46839,0.94718 -0.10699,0.37641 -0.15829,0.80638 -0.13673,1.20703 0.0109,0.32427 0.0659,0.67874 0.15787,0.96992 0.10675,0.29521 0.29255,0.58678 0.50104,0.77354 0.1686,0.16351 0.47238,0.30875 0.73886,0.34724 0.26423,0.024 0.61927,-0.0461 0.9167,-0.176 0.15546,-0.0937 0.28398,-0.182 0.4016,-0.26995 0.11296,-0.0925 0.2359,-0.20094 0.35235,-0.30991 0.116,-0.10873 0.23933,-0.23047 0.35864,-0.35335 0.12195,-0.11994 0.24945,-0.25061 0.37405,-0.38241 v 0 c 0.2401,-0.26363 0.22101,-0.67197 -0.0426,-0.91203 v 0 c -0.26363,-0.24007 -0.67198,-0.22098 -0.91204,0.0426 v 0 c -0.2401,0.26359 -0.22101,0.67193 0.0426,0.91203 v 0 c 0.26363,0.24007 0.67197,0.22098 0.91203,-0.0427 0.12521,-0.13123 0.25443,-0.27107 0.38122,-0.41165 v 0 c 0.23742,-0.27535 0.20665,-0.69102 -0.0687,-0.92841 v 0 c -0.27534,-0.23742 -0.69099,-0.20666 -0.92841,0.0686 v 0 c -0.23742,0.27534 -0.20666,0.69102 0.0687,0.92844 v 0 c 0.27535,0.23739 0.69099,0.20666 0.92841,-0.0687 0.20602,-0.32113 0.4168,-0.66156 0.62071,-1.00259 v 0 c 0.17149,-0.21456 0.13652,-0.52751 -0.078,-0.699 v 0 c -0.21456,-0.17148 -0.52751,-0.13656 -0.699,0.078 v 0 c -0.17148,0.2146 -0.13656,0.52755 0.078,0.69903 v 0 c 0.2146,0.17149 0.52755,0.13653 0.69903,-0.078 0.0558,-0.20672 0.1112,-0.41532 0.16426,-0.62261 v 0 c 0.0817,-0.10499 0.0628,-0.2563 -0.0421,-0.338 v 0 c -0.10495,-0.0817 -0.25629,-0.0629 -0.338,0.0421 -0.18683,0.10082 -0.37366,0.19988 -0.56116,0.29753 -0.28272,0.26787 -0.56261,0.52349 -0.84078,0.76384 -0.11528,0.14019 -0.22652,0.27245 -0.3388,0.40202 -0.11282,0.12894 -0.21982,0.24769 -0.32802,0.36308 -0.11091,0.1125 -0.21339,0.21202 -0.31761,0.3078 -0.10375,0.0955 -0.19536,0.1748 -0.28998,0.25044 -0.0899,0.0802 -0.16196,0.14065 -0.23985,0.19829 -0.11758,0.0973 -0.16613,0.13812 -0.25742,0.15699 -0.089,0.0333 -0.0927,0.0572 -0.18144,0.0131 -0.12368,-0.0715 -0.19935,-0.16147 -0.28734,-0.34953 -0.0845,-0.20091 -0.13892,-0.44373 -0.16598,-0.71734 -0.0209,-0.32925 0.0153,-0.6313 0.10199,-0.92985 0.0938,-0.27369 0.22871,-0.50603 0.38979,-0.72496 0.31764,-0.44729 0.59605,-0.66851 0.82405,-0.7093 0.0542,-0.009 0.06,0.008 0.10968,0.0427 0.0423,0.0122 -0.064,-0.0575 -0.0948,-0.0739 -0.0111,-0.0261 -0.0337,-0.10727 -0.0487,-0.0724 0.0172,0.15851 -0.20521,0.5351 -0.47075,0.95339 -0.29563,0.45656 -0.56727,0.85418 -0.73995,1.00809 -0.0545,0.0603 -0.0197,0.0586 -0.0622,0.0746 -0.0806,0.0476 -0.18256,0.0782 -0.30547,0.10266 -0.0234,-0.0178 -0.0446,-0.0358 -0.067,-0.0542 v 0 c -0.18842,-0.0144 -0.35285,0.12669 -0.36724,0.3151 v 0 c -0.0144,0.18839 0.12668,0.35282 0.3151,0.36721 z"
       style="opacity:1;fill:#000000;fill-opacity:1;fill-rule:nonzero;stroke:none;stroke-width:0.352777;stop-opacity:1"
       id="path180"
       inkscape:connector-curvature="0" />
    <path
       d="m 106.07621,150.17562 c -0.0364,-0.13872 -0.0641,-0.3658 -0.0687,-0.59013 v 0 c -0.004,-0.18792 -0.15914,-0.33722 -0.34707,-0.33348 v 0 c -0.18792,0.004 -0.33725,0.15914 -0.33351,0.34706 v 0 c 0.004,0.18793 0.15913,0.33726 0.34709,0.33348 v 0 c 0.18793,-0.004 0.33722,-0.15914 0.33349,-0.34706 0.0139,-0.1222 0.0323,-0.20324 0.0636,-0.26846 v 0 c 0.0346,-0.21721 -0.11349,-0.42129 -0.3307,-0.45586 v 0 c -0.21717,-0.0346 -0.42129,0.11349 -0.45582,0.33069 v 0 c -0.0346,0.21717 0.11348,0.42129 0.33065,0.45582 v 0 c 0.21721,0.0346 0.42129,-0.11348 0.45587,-0.33065 0.0341,-0.0572 0.0455,-0.0365 -0.0132,0.0762 v 0 c 0.20478,-0.15703 0.24352,-0.45036 0.0865,-0.65518 v 0 c -0.15703,-0.20479 -0.45036,-0.24353 -0.65515,-0.0865 v 0 c -0.20482,0.15705 -0.24356,0.45039 -0.0865,0.65518 v 0 c 0.15702,0.20482 0.45036,0.24352 0.65518,0.0865 -0.0511,0.0373 -0.24592,0.0953 -0.36544,0.09 -0.10277,-0.0336 -0.24106,-0.13445 -0.27595,-0.17061 -0.0331,-0.0463 -0.0577,-0.0909 -0.0598,-0.0461 0.0263,0.16789 0.0451,0.55471 0.0594,1.01452 0.0153,0.38993 0.0284,0.82226 0.0471,1.18794 0.0305,0.49054 0.0787,0.84452 0.14327,1.04853 0.002,0.0386 0.0182,0.1113 0.0366,0.16641 0.0274,0.0639 0.12241,0.17938 0.19738,0.23357 -0.17675,-0.13226 -0.0385,0.0612 0.13426,0.1567 0.17357,0.0382 0.41491,-0.0133 0.52487,-0.0619 0.13374,-0.0841 0.30335,-0.23099 0.47505,-0.4125 0.16982,-0.21195 0.34681,-0.4529 0.55213,-0.72983 0.22031,-0.31721 0.46492,-0.66463 0.71977,-0.99673 0.31214,-0.40499 0.63158,-0.77163 0.92682,-1.04049 v 0 c 0.23495,-0.20249 0.26127,-0.55714 0.0588,-0.79212 v 0 c -0.20253,-0.23495 -0.55718,-0.26127 -0.79216,-0.0588 v 0 c -0.23495,0.20253 -0.26127,0.55717 -0.0587,0.79216 v 0 c 0.20249,0.23495 0.55714,0.26127 0.79213,0.0587 0.0612,-0.0807 0.11119,-0.14746 0.16643,-0.21312 v 0 c 0.22317,-0.16129 0.27337,-0.47297 0.11208,-0.69613 v 0 c -0.16125,-0.2232 -0.47293,-0.27341 -0.69613,-0.11212 v 0 c -0.2232,0.16129 -0.27337,0.47297 -0.11212,0.69614 v 0 c 0.16129,0.2232 0.47297,0.2734 0.69617,0.11211 0.0894,-0.078 0.15357,-0.12696 0.23471,-0.16425 v 0 c 0.23851,-0.0631 0.38068,-0.30773 0.31753,-0.54624 v 0 c -0.0632,-0.23851 -0.30772,-0.38065 -0.54624,-0.3175 v 0 c -0.23851,0.0631 -0.38068,0.30773 -0.3175,0.54624 v 0 c 0.0632,0.23851 0.30769,0.38065 0.54621,0.3175 0.11116,-0.10583 0.14806,-0.17036 0.26211,-0.17586 v 0 c 0.11532,0.0663 0.26254,0.0266 0.32886,-0.0888 v 0 c 0.0663,-0.11529 0.0266,-0.26254 -0.0888,-0.32882 -0.16612,-0.16662 -0.46147,-0.26533 -0.73099,-0.27027 -0.17254,0.0299 -0.38357,0.1082 -0.56702,0.20405 -0.1235,0.0626 -0.23481,0.12446 -0.3387,0.18613 -0.36541,0.30053 -0.76895,0.72164 -1.13266,1.15139 -0.27919,0.36396 -0.53996,0.73396 -0.75981,1.05054 -0.1923,0.2854 -0.34883,0.52444 -0.47082,0.69977 -0.10068,0.13839 -0.16429,0.21869 -0.205,0.2625 0.0219,0.0144 0.19805,-0.0166 0.32371,0.0101 0.12488,0.084 0.23258,0.23396 0.22031,0.25326 -0.14073,-0.17364 -0.0678,-0.0836 -0.0591,-0.0598 -2.7e-4,0.0149 -1.1e-4,0.0328 -0.009,0.0106 -0.0173,-0.15222 -0.0217,-0.44002 -0.0137,-0.90512 0.0128,-0.35236 0.0311,-0.7808 0.0472,-1.17542 0.0108,-0.46814 0.0162,-0.88897 0.006,-1.14734 -0.0326,-0.14288 -0.0876,-0.27901 -0.15346,-0.3738 -0.0512,-0.0602 -0.20655,-0.17445 -0.32664,-0.21202 -0.13684,-0.009 -0.34932,0.0543 -0.41892,0.10579 -0.13226,0.16906 -0.19269,0.37497 -0.20059,0.52279 -0.004,0.15141 0.0147,0.30416 0.0396,0.43229 0.005,0.251 0.0392,0.54405 0.0852,0.73445 v 0 c 0.0459,0.1833 0.2317,0.29467 0.41501,0.24878 v 0 c 0.1833,-0.0459 0.29467,-0.23174 0.24878,-0.41501"
       style="opacity:1;fill:#000000;fill-opacity:1;fill-rule:nonzero;stroke:none;stroke-width:0.352777;stop-opacity:1"
       id="path182"
       inkscape:connector-curvature="0" />
    <path
       d="m 120.26538,150.36622 c 0.006,0.0302 0.0159,0.006 0.0104,-0.13243 v 0 c -0.0138,-0.19495 -0.18295,-0.34181 -0.37789,-0.32805 v 0 c -0.19495,0.0138 -0.34181,0.18299 -0.32802,0.37793 v 0 c 0.0138,0.19491 0.18295,0.34181 0.3779,0.32802 v 0 c 0.19494,-0.0138 0.3418,-0.18296 0.32801,-0.3779 0.005,-0.0816 0.0147,-0.144 0.0258,-0.22483 v 0 c -0.01,-0.21946 -0.19561,-0.38943 -0.41508,-0.37966 v 0 c -0.21946,0.01 -0.38943,0.19562 -0.37962,0.41508 v 0 c 0.01,0.21947 0.19562,0.38943 0.41508,0.37966 v 0 c 0.21946,-0.01 0.38943,-0.19565 0.37962,-0.41508 0.009,-0.13712 0.0224,-0.26603 0.0495,-0.37927 v 0 c 0.0206,-0.2468 -0.16266,-0.46362 -0.40947,-0.48429 v 0 c -0.2468,-0.0206 -0.46362,0.16267 -0.48429,0.40947 v 0 c -0.0206,0.2468 0.16267,0.46365 0.40947,0.48429 v 0 c 0.2468,0.0207 0.46362,-0.16266 0.48429,-0.40947 0.0274,-0.0912 0.0533,-0.13543 0.0757,-0.12887 -0.12848,0.17996 -0.27601,0.26667 -0.36463,0.29182 -0.0932,0.004 -0.25361,-0.0324 -0.30406,-0.0545 -0.0628,-0.0444 -0.12234,-0.10527 -0.12181,-0.0891 -0.0164,-0.0295 0.0123,0.0913 0.0543,0.23784 0.12033,0.27859 0.23064,0.47964 0.31694,0.667 0.0822,0.2261 0.12791,0.4633 0.14185,0.67046 -0.003,0.0666 -0.01,0.14689 -0.0154,0.22736 0.002,-0.0871 -0.0186,-0.0282 -0.0367,0.0423 -0.0172,0.0797 -0.007,0.31002 0.0756,0.49646 0.58092,0.25746 0.80532,0.19361 0.95539,0.11709 0.21872,-0.16362 0.38731,-0.32734 0.56716,-0.51417 0.24433,-0.25199 0.54536,-0.58336 0.85037,-0.92135 0.31821,-0.36121 0.62798,-0.71487 0.89024,-0.97568 0.22253,-0.1905 0.34268,-0.26222 0.39976,-0.2552 -0.007,7e-5 -0.19452,0.001 -0.29312,-0.02 -0.0847,-0.0564 -0.21237,-0.2008 -0.22557,-0.20697 -0.0163,-0.0218 -0.0212,0.11028 -0.0289,0.32219 0.004,0.2201 -2.6e-4,0.43381 -0.007,0.68181 -0.005,0.0639 -0.0117,0.15364 -0.0184,0.24691 -0.006,0.0933 -0.0129,0.18884 -0.0192,0.28512 -0.007,0.0962 -0.0129,0.1954 -0.0184,0.29245 -0.003,0.19463 -0.004,0.39952 0.004,0.58632 8e-4,0.0939 0.004,0.19639 0.009,0.28666 0.01,0.0905 0.0241,0.19463 0.0406,0.28103 0.0172,0.0876 0.0447,0.19752 0.0729,0.28197 0.0272,0.0875 0.0794,0.2122 0.12739,0.29898 0.0537,0.0892 0.16845,0.22715 0.26077,0.30646 0.10457,0.0688 0.30611,0.15399 0.4366,0.17692 0.1245,0.0143 0.31976,0.002 0.43473,-0.0266 0.1046,-0.0321 0.24648,-0.0948 0.34258,-0.15184 v 0 c 0.33073,-0.18771 0.44669,-0.60798 0.25901,-0.9387 v 0 c -0.18771,-0.33073 -0.60798,-0.44669 -0.9387,-0.25898 v 0 c -0.33073,0.18768 -0.44669,0.60798 -0.25898,0.93871 v 0 c 0.18768,0.33073 0.60794,0.44665 0.93867,0.25897 0.0925,-0.0527 0.20818,-0.13187 0.30321,-0.20711 v 0 c 0.29697,-0.23919 0.34379,-0.67385 0.10457,-0.97081 v 0 c -0.23919,-0.29697 -0.67384,-0.34379 -0.97081,-0.1046 v 0 c -0.29697,0.23922 -0.34378,0.67387 -0.1046,0.97084 v 0 c 0.23922,0.29697 0.67388,0.34378 0.97084,0.10457 0.0665,-0.10429 0.14679,-0.22945 0.21841,-0.35536 v 0 c 0.22472,-0.22267 0.22641,-0.5854 0.004,-0.81015 v 0 c -0.22267,-0.22472 -0.58536,-0.22638 -0.81012,-0.004 v 0 c -0.22475,0.22267 -0.22641,0.5854 -0.004,0.81012 v 0 c 0.22271,0.22475 0.5854,0.22641 0.81015,0.004 0.018,-0.17375 0.0433,-0.36255 0.0675,-0.55778 v 0 c 0.0878,-0.0999 0.078,-0.25209 -0.022,-0.3399 v 0 c -0.0999,-0.0878 -0.25209,-0.0779 -0.3399,0.022 -0.18341,0.0412 -0.35098,0.0582 -0.51202,0.0618 -0.10742,0.0515 -0.19237,0.0753 -0.27834,0.0939 -0.0573,0.0474 -0.0812,0.0648 -0.1167,0.0848 -0.0316,0.0154 -0.006,10e-4 -0.006,-0.004 0.01,-0.002 0.11046,-0.009 0.15018,-0.01 0.0457,0.008 0.17226,0.059 0.21043,0.076 0.0261,0.0275 0.0833,0.0963 0.0872,0.10114 -0.002,0.002 0.008,0.0271 -7e-5,0.002 -0.007,-0.0283 -0.009,-0.0443 -0.0144,-0.0934 -0.007,-0.0502 -0.009,-0.0936 -0.0125,-0.15921 -0.007,-0.066 -0.012,-0.12834 -0.0158,-0.20574 -0.001,-0.15593 0.004,-0.31954 0.0134,-0.50189 7.9e-4,-0.0913 0.002,-0.1826 0.004,-0.27676 0.002,-0.0942 0.004,-0.18888 0.006,-0.2836 0.002,-0.0947 0.004,-0.19071 0.004,-0.28384 -0.005,-0.27863 -0.0124,-0.52539 -0.0282,-0.74341 -0.008,-0.20426 -0.0281,-0.46701 -0.08,-0.67628 -0.0981,-0.24602 -0.30402,-0.4882 -0.49057,-0.59263 -0.2007,-0.0696 -0.51432,-0.0665 -0.67423,-0.0151 -0.25806,0.11155 -0.56159,0.3428 -0.83513,0.61775 -0.30307,0.31588 -0.62784,0.70027 -0.93123,1.05841 -0.29436,0.33083 -0.58057,0.65084 -0.8153,0.89743 -0.1693,0.18923 -0.28318,0.31203 -0.35832,0.37849 0.008,-0.007 0.10195,-0.0294 0.24835,-0.0277 0.42016,0.38584 0.43113,0.55337 0.42884,0.55457 -0.003,-0.008 0.004,-0.0431 0.0177,-0.10862 0.0126,-0.20003 0.01,-0.3011 0.002,-0.41554 -0.0222,-0.3007 -0.0952,-0.67038 -0.21346,-1.00323 -0.10633,-0.25657 -0.20888,-0.46196 -0.27898,-0.6356 -0.007,-0.0519 -0.0356,-0.19014 -0.072,-0.31101 -0.0926,-0.17324 -0.20535,-0.3 -0.31852,-0.37521 -0.0748,-0.0371 -0.2593,-0.0803 -0.37455,-0.073 -0.11218,0.0283 -0.28123,0.12739 -0.34205,0.19174 -0.1191,0.27093 -0.13307,0.44308 -0.1282,0.58197 0.003,0.17011 0.0237,0.35564 0.0493,0.50165 0.0186,0.0876 0.0407,0.17636 0.0644,0.25079 0.0146,0.15201 0.0688,0.38054 0.20542,0.54437 v 0 c 0.13236,0.13487 0.34897,0.13692 0.48384,0.005 v 0 c 0.13486,-0.13236 0.13691,-0.34896 0.005,-0.48383"
       style="opacity:1;fill:#000000;fill-opacity:1;fill-rule:nonzero;stroke:none;stroke-width:0.352777;stop-opacity:1"
       id="path184"
       inkscape:connector-curvature="0" />
    <path
       d="m 130.0066,152.88414 c -0.0104,0.0305 0.002,0.0263 0.009,0.0266 v 0 c -0.15088,0.14065 -0.15917,0.37694 -0.0186,0.52782 v 0 c 0.14062,0.15085 0.37694,0.15918 0.52779,0.0185 v 0 c 0.15088,-0.14061 0.15918,-0.3769 0.0186,-0.52779 v 0 c -0.14062,-0.15088 -0.37694,-0.15917 -0.52779,-0.0186 0.004,-0.0164 0.0844,-0.0722 0.14563,-0.10071 v 0 c -0.22296,0.0312 -0.37843,0.2372 -0.34724,0.46016 v 0 c 0.0312,0.22295 0.23717,0.37842 0.46016,0.34724 v 0 c 0.22296,-0.0311 0.37843,-0.23717 0.34724,-0.46013 v 0 c -0.0312,-0.22296 -0.23721,-0.37846 -0.46016,-0.34727 0.0831,-0.0109 0.26193,0.0404 0.32194,0.0718 v 0 c -0.1748,-0.17026 -0.45452,-0.16655 -0.62477,0.008 v 0 c -0.17025,0.1748 -0.16658,0.45455 0.008,0.6248 v 0 c 0.17481,0.17025 0.45452,0.16658 0.62477,-0.008 v 0 c 0.17029,-0.1748 0.16659,-0.45452 -0.008,-0.6248 0.07,0.0617 0.12185,0.12626 0.13978,0.0841 0.001,-0.0633 0.0102,-0.13526 0.0292,-0.24275 0.0214,-0.13921 0.0855,-0.35105 0.15176,-0.66312 0.12633,-0.51735 0.23982,-1.25574 0.32988,-1.95506 0.0244,-0.44598 0.0347,-0.85647 0.0511,-1.24541 0.0204,-0.78997 0.10097,-1.73065 0.22568,-2.606 0.0528,-0.38562 0.0945,-0.70492 0.17399,-1.02239 0.1433,-0.49886 0.41465,-0.94026 0.72199,-1.2041 0.15607,-0.13169 0.22225,-0.15706 0.34766,-0.17515 0.0279,-0.005 0.0486,-0.002 0.13145,0.001 0.22867,-0.0227 0.29005,-0.0309 0.38978,-0.008 0.22257,0.0445 0.60149,0.37426 0.89468,0.83859 0.14097,0.2244 0.2297,0.42467 0.2848,0.62935 0.0612,0.20447 0.0684,0.23978 0.0344,0.34964 -0.0128,0.0941 -0.0148,0.10587 -0.07,0.19554 -0.22014,0.42302 -0.87877,1.05005 -1.50397,1.6129 -0.37704,0.32117 -0.73377,0.60452 -0.97338,0.8284 -0.12982,0.10241 -0.24857,0.21674 -0.32985,0.31665 -0.0904,0.14503 -0.14636,0.28314 -0.17621,0.36174 -0.0275,-0.007 -0.12478,0.14615 -0.18782,0.30914 0.0257,-0.14182 -0.11081,0.18506 -0.0885,0.46803 0.25375,0.36847 0.36519,0.45282 0.44655,0.537 0.028,0.0419 0.0698,0.0994 0.14171,0.21187 0.0441,0.085 0.13501,0.25644 0.2546,0.47371 0.16344,0.30036 0.38978,0.70429 0.6574,1.08628 0.16778,0.21586 0.33426,0.40516 0.49332,0.56751 0.16468,0.15706 0.35461,0.31859 0.53121,0.45085 0.0871,0.0683 0.18631,0.14065 0.27563,0.20158 0.1845,0.11458 0.401,0.22849 0.59122,0.30751 0.0956,0.0399 0.21113,0.082 0.30818,0.11127 0.0973,0.0316 0.21957,0.0632 0.3186,0.0822 0.10234,0.005 0.23434,0.006 0.33588,-0.004 0.10156,-0.006 0.23844,-0.0231 0.33891,-0.0473 0.10075,-0.0241 0.23865,-0.0709 0.33482,-0.1167 v 0 c 0.34798,-0.15691 0.50288,-0.56624 0.34593,-0.91422 v 0 c -0.15691,-0.34798 -0.56621,-0.50285 -0.91422,-0.34593 v 0 c -0.34798,0.15691 -0.50285,0.56624 -0.34593,0.91422 v 0 c 0.15695,0.34798 0.56624,0.50285 0.91422,0.34593 0.0944,-0.0479 0.22109,-0.12922 0.30491,-0.199 v 0 c 0.29361,-0.23456 0.34145,-0.66273 0.10689,-0.95631 v 0 c -0.23457,-0.29362 -0.6627,-0.34145 -0.95631,-0.10689 v 0 c -0.29358,0.23456 -0.34142,0.66269 -0.10686,0.95631 v 0 c 0.23456,0.29358 0.6627,0.34145 0.95628,0.10689 0.0535,-0.10111 0.12153,-0.23396 0.15187,-0.3447 v 0 c 0.18404,-0.23971 0.13892,-0.58325 -0.10083,-0.76729 v 0 c -0.23971,-0.18404 -0.58324,-0.13892 -0.76729,0.10082 v 0 c -0.18404,0.23972 -0.13889,0.58325 0.10083,0.7673 v 0 c 0.23971,0.18404 0.58324,0.13888 0.76729,-0.10083 -0.013,-0.13215 -0.0278,-0.28095 -0.0661,-0.40929 v 0 c 0.0656,-0.13818 0.007,-0.30335 -0.13137,-0.36897 v 0 c -0.13819,-0.0656 -0.30339,-0.007 -0.36901,0.13141 -0.10791,0.0183 -0.20154,-7.2e-4 -0.30162,-0.0196 -0.0568,0.003 -0.0841,-0.0329 -0.13321,-0.052 -0.0188,0.0122 -0.002,-0.002 -0.0236,0.002 -0.0202,0.007 -0.005,-0.002 -0.032,-0.001 -0.0274,3.4e-4 -0.0238,-0.006 -0.0597,-0.0128 -0.0364,-0.0115 -0.0465,-0.0245 -0.0898,-0.0446 -0.0463,-0.006 -0.073,-0.0118 -0.12728,-0.0279 -0.0544,-0.0185 -0.0929,-0.0348 -0.15272,-0.0629 -0.12097,-0.0573 -0.22172,-0.11875 -0.35299,-0.21128 -0.0686,-0.0426 -0.12693,-0.0817 -0.19597,-0.1319 -0.13588,-0.10473 -0.253,-0.20824 -0.3824,-0.33697 -0.13504,-0.12343 -0.24969,-0.24066 -0.36964,-0.38015 -0.20479,-0.27612 -0.39694,-0.60396 -0.57379,-0.9071 -0.13656,-0.21794 -0.25344,-0.40488 -0.3622,-0.56028 -0.16097,-0.19657 -0.29612,-0.32618 -0.39395,-0.40584 -0.18743,-0.14707 -0.27915,-0.19124 -0.24419,-0.15321 0.12139,0.42616 0.019,0.68788 0.007,0.66827 0.0801,-0.21392 0.10241,-0.27471 0.15561,-0.40023 0.0561,-0.17635 0.0477,-0.18577 0.0628,-0.22175 -0.005,-0.0159 0.01,-0.0481 0.0854,-0.13187 0.21534,-0.17004 0.58046,-0.42746 0.99004,-0.74186 0.69437,-0.51682 1.50865,-1.18276 1.9335,-1.74233 0.12312,-0.2038 0.21629,-0.44475 0.25382,-0.6301 0.0547,-0.28201 0.0221,-0.66103 -0.0629,-0.95356 -0.0708,-0.28444 -0.22317,-0.65637 -0.40943,-0.97853 -0.40972,-0.64449 -1.09301,-1.24926 -1.70413,-1.4659 -0.33856,-0.0595 -0.61387,-0.0452 -0.78891,-0.0211 -0.0205,-0.005 -0.18652,0.006 -0.3301,0.0344 -0.30261,0.0785 -0.65885,0.26293 -0.93849,0.5026 -0.46617,0.43805 -0.90174,1.15983 -1.10801,1.85018 -0.10414,0.41042 -0.16005,0.7988 -0.2135,1.17045 -0.15815,0.8975 -0.27587,1.90616 -0.32872,2.73614 -0.02,0.40048 -0.0331,0.80155 -0.0592,1.22234 -2.5e-4,0.68139 -0.0208,1.37824 -0.0511,1.8493 -0.0403,0.26751 -0.0944,0.51703 -0.11299,0.76888 0.001,0.18196 0.0205,0.36082 0.052,0.48958 0.0418,0.10884 0.13098,0.27827 0.25174,0.38929 0.085,0.0558 0.29238,0.11773 0.40725,0.10238 0.0931,-0.0329 0.20842,-0.10823 0.25085,-0.16048 0.0507,-0.0403 0.11057,-0.1064 0.15223,-0.16058 v 0 c 0.11384,-0.18511 0.0561,-0.42743 -0.12901,-0.54127 v 0 c -0.18509,-0.11381 -0.42742,-0.0561 -0.54126,0.12901"
       style="opacity:1;fill:#000000;fill-opacity:1;fill-rule:nonzero;stroke:none;stroke-width:0.352777;stop-opacity:1"
       id="path186"
       inkscape:connector-curvature="0" />
    <path
       d="m 138.49554,150.74507 c 0.0216,-0.2432 -0.0188,-0.47392 0.004,-0.69804 v 0 c 0.0181,-0.21809 -0.14394,-0.40954 -0.36203,-0.42771 v 0 c -0.21808,-0.0181 -0.40954,0.14397 -0.4277,0.36206 v 0 c -0.0181,0.21805 0.14397,0.40954 0.36205,0.42767 v 0 c 0.21805,0.0181 0.40954,-0.14393 0.42768,-0.36202 0.0236,-0.0773 0.0642,-0.19484 0.10523,-0.31408 v 0 c 0.0593,-0.22726 -0.0769,-0.45949 -0.3042,-0.51876 v 0 c -0.22722,-0.0592 -0.45949,0.077 -0.51873,0.3042 v 0 c -0.0593,0.22726 0.0769,0.45953 0.30421,0.51876 v 0 c 0.22722,0.0593 0.45949,-0.0769 0.51872,-0.3042 0.0636,-0.18471 0.12065,-0.35789 0.14436,-0.49816 v 0 c -0.0202,-0.26984 -0.25527,-0.47222 -0.52512,-0.45205 v 0 c -0.26983,0.0202 -0.47222,0.25527 -0.45204,0.52511 v 0 c 0.0202,0.26984 0.25527,0.47223 0.52511,0.45205 v 0 c 0.26983,-0.0202 0.47223,-0.25527 0.45205,-0.52511 -0.39279,-0.45131 -0.59923,-0.45783 -0.68838,-0.43751 -0.0737,0.0271 -0.17635,0.0919 -0.22084,0.12714 -0.069,0.0617 -0.14908,0.1735 -0.19117,0.2474 -0.0616,0.31941 -0.0752,0.61676 -0.0877,0.92738 -0.0286,0.3187 -0.061,0.76091 -0.036,1.17729 0.0305,0.36576 0.12792,0.77633 0.28268,1.08906 0.43378,0.64643 1.22598,0.95215 1.82245,0.9555 0.28385,-0.007 0.68563,-0.099 0.99004,-0.26144 0.51417,-0.35885 0.9538,-0.95504 1.19888,-1.48019 0.11737,-0.2499 0.21142,-0.52535 0.26409,-0.73892 0.0492,-0.22014 0.0676,-0.44242 0.0672,-0.59496 0.01,-0.0537 0.0142,-0.16884 0.0147,-0.26649 -0.0209,-0.15247 -0.0391,-0.24522 -0.0502,-0.329 -0.007,-0.0425 -0.006,-0.16732 -0.008,-0.27513 0.005,-0.0377 0.0132,-0.0973 0.018,-0.14923 0.002,-0.0307 0.004,-0.10738 -0.004,-0.19343 -0.0142,-0.0707 -0.1572,-0.34276 -0.41889,-0.52535 -0.34653,-0.0356 -0.68509,0.1289 -0.74577,0.19226 -0.16965,0.24934 -0.27813,0.49738 -0.35101,0.70898 -0.0358,0.16203 -0.0508,0.37024 -0.0404,0.53657 0.0188,0.16567 0.0572,0.36488 0.10597,0.57662 0.0473,0.27294 0.12302,0.65398 0.21156,1.00418 0.0619,0.32237 0.21135,0.79689 0.49347,1.13983 0.23915,0.19773 0.61457,0.34215 0.8794,0.35538 0.24603,-0.009 0.58392,-0.10893 0.81654,-0.23618 0.1415,-0.0928 0.24317,-0.16923 0.32918,-0.23925 0.0795,-0.0757 0.16891,-0.16567 0.24874,-0.25139 0.0817,-0.0829 0.17022,-0.17692 0.25266,-0.26829 0.0823,-0.0913 0.16937,-0.19131 0.25213,-0.28939 0.0654,-0.11281 0.13381,-0.23198 0.19869,-0.34928 v 0 c 0.24656,-0.29471 0.2075,-0.73346 -0.0872,-0.98002 v 0 c -0.29471,-0.24652 -0.73346,-0.20747 -0.97998,0.0872 v 0 c -0.24652,0.29471 -0.20747,0.73346 0.0872,0.97998 v 0 c 0.29471,0.24653 0.73346,0.20747 0.97998,-0.0872 0.0742,-0.10907 0.15028,-0.22263 0.22355,-0.33461 v 0 c 0.22723,-0.28257 0.18235,-0.69581 -0.10022,-0.92304 v 0 c -0.28258,-0.22719 -0.69582,-0.18231 -0.92304,0.10023 v 0 c -0.22719,0.28257 -0.18232,0.69585 0.10022,0.92304 v 0 c 0.28258,0.22722 0.69586,0.18235 0.92304,-0.10023 0.077,-0.10879 0.15477,-0.22045 0.22994,-0.33016 v 0 c 0.21463,-0.27517 0.1656,-0.67225 -0.10957,-0.88688 v 0 c -0.27516,-0.21467 -0.67225,-0.1656 -0.88688,0.10957 v 0 c -0.21467,0.27517 -0.1656,0.67222 0.10957,0.88688 v 0 c 0.27513,0.21463 0.67222,0.1656 0.88688,-0.10957 -0.0119,-0.17709 -0.0246,-0.35451 -0.0401,-0.52934 v 0 c 0.0928,-0.12161 0.0694,-0.29538 -0.0522,-0.38816 v 0 c -0.12161,-0.0928 -0.29542,-0.0694 -0.3882,0.0522 -0.17159,0.0299 -0.34329,0.059 -0.51597,0.0879 -0.0856,0.0964 -0.17039,0.19042 -0.25672,0.28469 -0.0901,0.0912 -0.17801,0.17804 -0.26751,0.26465 -0.0988,0.0784 -0.19378,0.15011 -0.29037,0.22112 -0.0793,0.0859 -0.15282,0.16277 -0.22878,0.23922 -0.0757,0.0763 -0.14291,0.14083 -0.2135,0.20511 -0.0724,0.0615 -0.1318,0.10731 -0.19646,0.15377 -0.0582,0.0522 -0.0962,0.0845 -0.14337,0.11917 -0.0295,0.0217 0.0279,0.007 0.0294,-3.4e-4 0.0204,0.0151 0.1874,0.0784 0.20722,0.0839 0.0126,0.0658 -0.0168,-0.0542 -0.0925,-0.35578 -0.0999,-0.34184 -0.17773,-0.67091 -0.23947,-0.94679 -0.0462,-0.20873 -0.0676,-0.32441 -0.0756,-0.41864 -0.0128,-0.0667 -0.0184,-0.0341 -0.0119,-0.0801 0.005,-0.12894 0.0296,-0.27188 0.0142,-0.28307 -0.13829,0.18003 -0.47361,0.34269 -0.80966,0.31105 -0.26727,-0.18472 -0.40859,-0.45297 -0.42168,-0.51622 -0.006,-0.0745 -0.006,-0.1281 -0.006,-0.12721 -0.001,0.0119 -0.008,0.0507 -0.0167,0.11253 -0.027,0.124 -0.0582,0.29217 -0.0786,0.46204 0.006,0.20884 0.017,0.32924 0.022,0.42058 0.005,0.0227 0.0106,0.0623 0.0119,0.12816 0.004,0.1403 0.004,0.18948 -0.0215,0.30709 -0.0306,0.13854 -0.0769,0.28311 -0.15798,0.4565 -0.19163,0.38601 -0.42597,0.69455 -0.6991,0.84257 -0.0795,0.0584 -0.13165,0.0694 -0.2928,0.0737 -0.35867,0.0531 -0.52426,0.0555 -0.6652,-0.193 -0.0747,-0.10922 -0.12492,-0.28346 -0.15963,-0.54829 -0.0369,-0.31464 -0.0237,-0.67363 -0.0115,-1.02196 -0.007,-0.33987 -0.0143,-0.59711 -0.0111,-0.70926 -0.0459,0.13444 -0.0933,0.19188 -0.13123,0.22126 -0.0287,0.0187 -0.11603,0.0728 -0.17526,0.0944 -0.0751,0.015 -0.26829,0.008 -0.36361,-0.0282 -0.2576,-0.48884 -0.26313,-0.35666 -0.2795,-0.18436 -0.0192,0.11091 -0.0492,0.26755 -0.0645,0.41621 -0.0268,0.35158 0.0162,0.59528 -2.7e-4,0.7131 v 0 c -0.0228,0.21608 0.13381,0.40979 0.34989,0.43265 v 0 c 0.21611,0.0229 0.40979,-0.13381 0.43265,-0.34988"
       style="opacity:1;fill:#000000;fill-opacity:1;fill-rule:nonzero;stroke:none;stroke-width:0.352777;stop-opacity:1"
       id="path188"
       inkscape:connector-curvature="0" />
    <path
       d="m 147.63654,142.08141 c 0.0252,-0.4688 -0.18027,-0.87908 -0.39233,-1.05618 v 0 c -0.15081,-0.12774 -0.37662,-0.10908 -0.50436,0.0417 v 0 c -0.12778,0.15081 -0.10908,0.37662 0.0417,0.50436 v 0 c 0.15081,0.12774 0.37663,0.10908 0.50437,-0.0417 v 0 c 0.12774,-0.15081 0.10904,-0.37663 -0.0417,-0.50437 -0.12671,-0.1095 -0.31549,-0.17977 -0.43113,-0.20024 v 0 c -0.21188,-0.018 -0.39818,0.13932 -0.4161,0.35119 v 0 c -0.0179,0.21188 0.13931,0.39819 0.35119,0.41611 v 0 c 0.21188,0.0179 0.39818,-0.13932 0.41614,-0.35119 v 0 c 0.0179,-0.21188 -0.13931,-0.39818 -0.35123,-0.41611 -0.0673,-0.0256 -0.20877,-0.0456 -0.32106,-0.0461 v 0 c -0.23146,0.0294 -0.39522,0.24091 -0.3658,0.47234 v 0 c 0.0295,0.23145 0.24092,0.39521 0.47238,0.36576 v 0 c 0.23142,-0.0294 0.39521,-0.24088 0.36576,-0.47234 v 0 c -0.0294,-0.23146 -0.24092,-0.39522 -0.47234,-0.36576 -1.8e-4,-0.0157 -0.18496,0.0148 -0.3084,0.0799 -0.10223,0.0815 -0.2045,0.24377 -0.24031,0.33458 -0.0546,0.15021 -0.0854,0.3605 -0.10827,0.64868 -0.0248,0.36047 -0.0416,0.91225 -0.0622,1.71059 0.0135,0.88099 0.0226,1.99506 -0.009,3.11033 -0.007,0.18952 -0.0163,0.37063 -0.0279,0.54187 0.004,0.42577 0.004,0.83097 0.007,1.20534 -0.0276,0.50411 -0.0533,0.94752 -0.0683,1.35226 -0.0281,0.42969 -0.0431,0.8248 -0.0367,1.1787 0.0132,0.61687 0.1066,1.19105 0.28409,1.64049 0.28624,0.56632 0.76059,1.01441 1.20442,1.20728 0.31369,0.10717 0.72277,0.12509 1.02915,0.0346 0.39864,-0.17611 0.73721,-0.51118 0.93384,-0.82995 0.26152,-0.34491 0.42062,-0.77646 0.50793,-1.1286 0.054,-0.22839 0.0903,-0.47572 0.11748,-0.68397 0.0407,-0.18408 0.0804,-0.517 0.0331,-0.83016 -0.11708,-0.29185 -0.35941,-0.59143 -0.58907,-0.74411 -0.23163,-0.11755 -0.56705,-0.22595 -0.86733,-0.25816 -0.24984,-0.0293 -0.5242,-0.0301 -0.75244,0.001 -0.28004,0.0548 -0.52194,0.14576 -0.68926,0.23484 -0.11614,0.0583 -0.24472,0.1415 -0.32971,0.21357 -0.0454,0.0405 -0.11073,0.11268 -0.15074,0.17025 -0.0428,0.0689 -0.0993,0.24423 -0.10241,0.37606 v 0 c 0.0251,0.28187 0.27386,0.49005 0.55573,0.465 v 0 c 0.28187,-0.025 0.49008,-0.27386 0.465,-0.55573 v 0 c -0.0251,-0.28187 -0.27387,-0.49008 -0.55573,-0.46503 v 0 c -0.28187,0.0251 -0.49008,0.27389 -0.465,0.55576 0.0346,0.13956 0.18634,0.35599 0.28765,0.42013 v 0 c 0.23453,0.13881 0.53714,0.0613 0.67596,-0.17322 v 0 c 0.13882,-0.23452 0.0613,-0.53714 -0.17321,-0.67595 v 0 c -0.23453,-0.13882 -0.53714,-0.0613 -0.67596,0.17321 v 0 c -0.13882,0.23453 -0.0613,0.53714 0.17321,0.67596 0.0852,0.0423 0.21432,0.077 0.28854,0.0837 v 0 c 0.26899,0.0242 0.50666,-0.17431 0.53083,-0.44334 v 0 c 0.0241,-0.26899 -0.17435,-0.50662 -0.44334,-0.53079 v 0 c -0.26899,-0.0242 -0.50666,0.17431 -0.53083,0.4433 v 0 c -0.0241,0.26903 0.17435,0.50666 0.44334,0.53083 0.0674,-0.0657 0.14806,-0.13766 0.21033,-0.21477 v 0 c 0.15215,-0.0154 0.26303,-0.15128 0.24761,-0.30346 v 0 c -0.0154,-0.15219 -0.15127,-0.26304 -0.30346,-0.24762 -0.0506,-0.0657 -0.0618,-0.1361 -0.0667,-0.20828 0.001,1.4e-4 0.0772,0.0202 0.12654,0.0412 0.0653,0.0428 0.19851,0.23142 0.23029,0.33849 -0.006,0.0988 -0.0499,0.23647 -0.0662,0.26437 -0.0136,0.0166 -0.0387,0.0445 -0.0319,0.0389 0.0192,-0.0197 0.0425,-0.0352 0.11134,-0.0693 0.11035,-0.0496 0.22042,-0.0832 0.3688,-0.10149 0.10459,0.008 0.24309,0.0316 0.39754,0.076 0.15064,0.0682 0.23216,0.14429 0.30342,0.24581 0.062,0.0539 -2.1e-4,-0.004 -0.015,0.0337 0.0317,0.0124 0.0319,0.11938 0.0246,0.35546 0.0164,0.24744 0.0314,0.42432 0.0289,0.61257 0.006,0.29742 -0.004,0.52729 -0.11808,0.77134 -0.14707,0.21252 -0.28324,0.33603 -0.46132,0.38044 -0.0868,0.0229 -0.15361,0.008 -0.3084,-0.0695 -0.25213,-0.0848 -0.46006,-0.26935 -0.64926,-0.65765 -0.15254,-0.29616 -0.24056,-0.68485 -0.28063,-1.23056 -0.0153,-0.31831 -0.0109,-0.67359 0.007,-1.08659 0.0362,-0.3895 0.0835,-0.82599 0.13324,-1.32983 0.0612,-0.36929 0.1246,-0.77717 0.18422,-1.19881 0.0148,-0.17582 0.0279,-0.37465 0.0386,-0.57739 0.0485,-1.14254 0.0558,-2.28145 0.0584,-3.16251 -0.0209,-0.79806 -0.0456,-1.34599 -0.0622,-1.69965 -0.0222,-0.28134 -0.0421,-0.39638 -0.0533,-0.42901 -0.0141,-7.2e-4 -0.0864,0.10572 -0.14778,0.15497 -0.0826,0.0329 -0.21559,0.0547 -0.223,0.045 0.0985,-0.0209 0.12761,-0.0309 0.18722,-0.0323 0.0839,-0.002 0.0503,-0.0293 0.0689,-0.016 0.0794,0.0698 0.12386,0.14629 0.0718,0.42922 v 0 c -0.0222,0.21618 0.13497,0.4094 0.35112,0.43163 v 0 c 0.21614,0.0223 0.4094,-0.13498 0.43162,-0.35112 z"
       style="opacity:1;fill:#000000;fill-opacity:1;fill-rule:nonzero;stroke:none;stroke-width:0.352777;stop-opacity:1"
       id="path190"
       inkscape:connector-curvature="0" />
    <path
       d="m 151.13779,150.33655 c -0.0169,0.004 0.0863,-0.01 0.15557,-0.003 v 0 c -0.21301,-0.074 -0.4457,0.0387 -0.51971,0.25168 v 0 c -0.074,0.21304 0.0387,0.44569 0.25167,0.51974 v 0 c 0.21301,0.074 0.4457,-0.0387 0.51971,-0.2517 v 0 c 0.074,-0.21301 -0.0387,-0.4457 -0.25167,-0.51972 0.0814,0.0416 0.18154,0.13946 0.18909,0.14009 v 0 c -0.10238,-0.21015 -0.35567,-0.2975 -0.56582,-0.19515 v 0 c -0.21011,0.10237 -0.29746,0.3557 -0.19512,0.56582 v 0 c 0.10238,0.21011 0.35567,0.29746 0.56582,0.19512 v 0 c 0.21011,-0.10234 0.29746,-0.35567 0.19512,-0.56579 -0.0368,-0.0796 -0.0541,-0.15229 -0.0902,-0.23802 v 0 c -0.13229,-0.21685 -0.41533,-0.28536 -0.63218,-0.15307 v 0 c -0.21685,0.13229 -0.2854,0.41536 -0.1531,0.63222 v 0 c 0.13229,0.21685 0.41536,0.28539 0.63221,0.15307 v 0 c 0.21685,-0.1323 0.2854,-0.41533 0.15307,-0.63222 0.007,-0.0365 -0.009,-0.10064 -0.0254,-0.15624 0.14651,0.34667 0.14651,0.34833 0.14655,0.34138 3e-5,-0.003 1e-4,-0.009 2.1e-4,-0.0174 0,-0.004 -1.4e-4,-0.0214 -7.9e-4,-0.04 -0.002,-0.0261 -0.10213,-0.28614 -0.82889,-0.41518 v 0 c -0.24515,0.16344 -0.3114,0.49466 -0.14796,0.73981 v 0 c 0.16341,0.24514 0.49463,0.31139 0.73978,0.14795 v 0 c 0.24514,-0.16344 0.31139,-0.49463 0.14795,-0.73977 v 0 c -0.1634,-0.24518 -0.49463,-0.3114 -0.73977,-0.14799 -0.26392,0.36325 -0.34135,0.65856 -0.38481,0.99977 -0.0515,0.33958 -0.0839,0.81026 -0.0635,1.27092 0.0368,0.47476 0.14376,0.99546 0.30749,1.40211 0.20785,0.41977 0.55809,0.81097 0.91097,1.00334 0.24741,0.1047 0.60343,0.15501 0.86833,0.11465 0.45283,-0.13289 0.86575,-0.47438 1.1671,-0.86526 0.3128,-0.41419 0.64177,-0.95945 0.9145,-1.47186 0.16538,-0.29944 0.32766,-0.61835 0.45653,-0.89958 0.2727,-0.64195 0.38051,-1.12173 0.44394,-1.35841 0.0292,-0.10932 0.0161,-0.0716 -0.0276,0.0321 -0.0266,0.0229 -0.26832,0.18091 -0.47674,0.22977 -0.10379,-0.008 -0.31405,-0.0736 -0.3828,-0.11233 -0.0448,-0.0377 -0.11864,-0.11684 -0.12697,-0.12657 0.0352,0.0437 0.12446,0.4179 0.18391,1.10976 0.0701,0.6186 0.11013,1.37732 0.0833,2.21072 -0.009,0.83615 -0.0833,1.67326 -0.27196,2.46151 -0.12157,0.43476 -0.27676,0.83869 -0.47452,1.24248 -0.21167,0.40891 -0.45392,0.7911 -0.70672,1.14237 -0.43462,0.55111 -0.78437,0.88233 -1.10314,1.00393 -0.21276,0.1233 -0.17445,0.12788 -0.28423,0.0272 -0.0806,-0.0373 -0.08,-0.038 -0.11945,-0.0731 -0.0414,-0.0375 -0.0588,-0.0614 -0.10439,-0.12703 -0.0589,-0.0594 -0.10396,-0.11236 -0.16573,-0.2085 -0.059,-0.10089 -0.10898,-0.20179 -0.16673,-0.34226 v 0 c -0.13119,-0.33458 -0.50877,-0.49946 -0.84335,-0.36827 v 0 c -0.33457,0.13117 -0.49946,0.50874 -0.36826,0.84335 v 0 c 0.13116,0.33458 0.50874,0.49943 0.84335,0.36827 v 0 c 0.33457,-0.1312 0.49943,-0.50878 0.36826,-0.84335 -0.059,-0.14217 -0.11144,-0.28995 -0.16665,-0.47463 v 0 c -0.097,-0.34124 -0.45222,-0.53929 -0.7935,-0.44231 v 0 c -0.34124,0.097 -0.53929,0.45222 -0.44231,0.79347 v 0 c 0.097,0.34127 0.45222,0.53929 0.79346,0.44234 v 0 c 0.34128,-0.097 0.53933,-0.45222 0.44235,-0.7935 -0.0513,-0.18715 -0.0972,-0.38435 -0.14284,-0.61651 v 0 c -0.072,-0.35066 -0.41462,-0.57655 -0.76528,-0.50455 v 0 c -0.35066,0.072 -0.57655,0.41462 -0.50454,0.76528 v 0 c 0.072,0.35063 0.41465,0.57655 0.76528,0.50455 v 0 c 0.35066,-0.072 0.57654,-0.41466 0.50454,-0.76528 -0.1694,-0.20966 -0.33517,-0.44038 -0.4989,-0.70669 v 0 c -0.022,-0.15137 -0.16252,-0.25626 -0.3139,-0.23424 v 0 c -0.15137,0.022 -0.25626,0.16252 -0.23424,0.3139 -0.0795,0.3126 -0.15297,0.61221 -0.22278,0.88776 0.054,0.25298 0.11497,0.4958 0.17685,0.70694 0.058,0.2136 0.12499,0.42241 0.19085,0.59855 0.067,0.1778 0.14721,0.35698 0.22274,0.50127 0.0728,0.14912 0.16669,0.30656 0.25019,0.42622 0.0969,0.11335 0.22522,0.23725 0.33225,0.31951 0.10872,0.0846 0.26006,0.17576 0.37719,0.22797 0.43335,0.19265 1.08183,0.12502 1.49761,-0.10919 0.45942,-0.31037 0.92357,-0.86649 1.32352,-1.49814 0.28127,-0.34674 0.58822,-0.78048 0.85217,-1.22932 0.24955,-0.44831 0.4694,-0.9398 0.63877,-1.43658 0.27683,-0.88078 0.43385,-1.84807 0.50966,-2.73269 0.0628,-0.88621 0.0549,-1.74212 0.0159,-2.40764 -0.0639,-0.7796 -0.20648,-1.40776 -0.3773,-1.75909 -0.0961,-0.14852 -0.21978,-0.28018 -0.31348,-0.35151 -0.11705,-0.0719 -0.37471,-0.15152 -0.52422,-0.15822 -0.29898,0.0516 -0.62357,0.27439 -0.7256,0.40488 -0.11123,0.19671 -0.16834,0.41424 -0.19402,0.55969 -0.034,0.27382 -0.0666,0.59605 -0.25873,1.12112 -0.0965,0.23587 -0.22581,0.51347 -0.37454,0.80596 -0.24529,0.49385 -0.511,0.9634 -0.76299,1.31731 -0.21671,0.29541 -0.29623,0.37828 -0.38594,0.38082 -0.006,0.005 0.0312,0.005 -0.0314,-0.0341 -0.11148,-0.0356 -0.18221,-0.11476 -0.30269,-0.36565 -0.12781,-0.2491 -0.21399,-0.58004 -0.26405,-0.96499 -0.0494,-0.37786 -0.0528,-0.74493 -0.0383,-1.04655 0.018,-0.28674 0.0417,-0.42944 0.0372,-0.42157 -0.90379,0.0683 -1.00366,-0.19107 -1.0057,-0.2159 -8e-4,-0.0172 -8e-4,-0.0321 -8e-4,-0.034 0,-0.004 -1.4e-4,-0.001 -2.6e-4,0.006 -2.7e-4,0.0123 -8e-4,0.042 -2.5e-4,0.07 0.14312,0.30875 0.14069,0.26352 0.16122,0.24998 0.0203,0.007 0.072,0.0927 0.14524,0.18252 0.005,0.006 0.13808,0.14761 0.27315,0.20783 0.12298,0.0252 0.30064,0.005 0.3954,-0.034 v 0 c 0.20274,-0.0781 0.30378,-0.30583 0.22567,-0.5086 v 0 c -0.0781,-0.20278 -0.30586,-0.30381 -0.5086,-0.22567"
       style="opacity:1;fill:#000000;fill-opacity:1;fill-rule:nonzero;stroke:none;stroke-width:0.352777;stop-opacity:1"
       id="path192"
       inkscape:connector-curvature="0" />
    <path
       d="m 115.4844,150.98418 c 0.001,0.0176 0.0623,-0.0255 0.0811,-0.0327 v 0 c -0.1742,0.0467 -0.2776,0.22571 -0.23096,0.39991 v 0 c 0.0466,0.1742 0.22567,0.27764 0.39987,0.231 v 0 c 0.17424,-0.0466 0.27764,-0.22567 0.231,-0.39991 v 0 c -0.0466,-0.1742 -0.22567,-0.27763 -0.39991,-0.231 0.0262,0.007 0.10185,0.0237 0.1064,0.0267 v 0 c -0.147,-0.0888 -0.33814,-0.0416 -0.42697,0.10538 v 0 c -0.0888,0.147 -0.0416,0.33817 0.10541,0.42697 v 0 c 0.14697,0.0888 0.33814,0.0416 0.42693,-0.10538 v 0 c 0.0888,-0.147 0.0416,-0.33814 -0.10537,-0.42697 0.0892,0.0677 0.0909,0.0335 0.0702,-0.0354 v 0 c -0.0866,-0.17159 -0.29588,-0.24052 -0.4675,-0.15395 v 0 c -0.17159,0.0866 -0.24053,0.29588 -0.15395,0.4675 v 0 c 0.0866,0.17159 0.29587,0.24053 0.4675,0.15395 v 0 c 0.17159,-0.0866 0.24052,-0.29587 0.15395,-0.4675 -0.20987,-0.21865 -0.25143,-0.24828 -0.25492,-0.28864 -0.039,-0.0481 -0.0174,0.0158 0.0274,-0.096 0.0293,-0.133 0.11345,-0.33217 0.263,-0.55601 0.12601,-0.18158 0.25241,-0.32233 0.41564,-0.43794 0.12827,-0.0926 0.24702,-0.13794 0.45216,-0.1741 0.55015,-0.13292 1.22255,-0.11945 1.62345,0.1269 0.14781,0.0584 0.19607,0.0772 0.25385,0.17092 0.1021,0.15692 0.13808,0.34794 0.0848,0.64826 -0.0907,0.3065 -0.2916,0.67928 -0.5328,1.03174 -0.4058,0.5528 -0.88318,0.95402 -1.30887,1.14847 -0.17329,0.0821 -0.27161,0.10555 -0.37225,0.0905 -0.11624,0.004 -0.12598,0.003 -0.18059,-0.0693 -0.0482,-0.0687 -0.0948,-0.21086 -0.12799,-0.4287 -0.0257,-0.14612 -0.036,-0.29005 -0.0323,-0.45628 v 0 c 0.005,-0.20595 -0.15832,-0.3768 -0.36431,-0.38157 v 0 c -0.20595,-0.005 -0.37677,0.15833 -0.38156,0.36428 v 0 c -0.005,0.20595 0.15832,0.3768 0.36431,0.38157 v 0 c 0.20595,0.005 0.37677,-0.15833 0.38156,-0.36428 0.004,-0.16662 0.0216,-0.32015 0.0569,-0.4838 v 0 c 0.0423,-0.20267 -0.0877,-0.40129 -0.29034,-0.44362 v 0 c -0.20267,-0.0423 -0.40128,0.0877 -0.44358,0.29034 v 0 c -0.0423,0.20267 0.0877,0.40128 0.29034,0.44361 v 0 c 0.20263,0.0423 0.40125,-0.0877 0.44358,-0.29033 0.0267,-0.1656 0.0628,-0.30579 0.12058,-0.44842 v 0 c 0.0808,-0.17748 0.002,-0.38685 -0.17505,-0.46767 v 0 c -0.17748,-0.0808 -0.38685,-0.002 -0.46767,0.17504 v 0 c -0.0808,0.17749 -0.002,0.38686 0.17504,0.46768 v 0 c 0.17749,0.0808 0.38686,0.002 0.46768,-0.17505 -0.002,-0.0865 -0.004,-0.16235 0.005,-0.24479 v 0 c 0.0716,-0.11204 0.0389,-0.26098 -0.0732,-0.33263 v 0 c -0.11208,-0.0717 -0.26102,-0.0389 -0.33267,0.0732 -0.0828,0.0604 -0.16672,0.13758 -0.24172,0.21163 -0.0885,0.17857 -0.16267,0.39024 -0.21177,0.58776 -0.0406,0.19946 -0.0645,0.42026 -0.0688,0.6198 -0.005,0.19995 0.009,0.41402 0.0394,0.59831 0.0505,0.27781 0.15804,0.56917 0.29929,0.76965 0.20694,0.21216 0.49664,0.32773 0.7306,0.33528 0.21319,-0.004 0.47841,-0.0833 0.70016,-0.20066 0.49947,-0.26257 1.07643,-0.77914 1.51148,-1.40165 0.27831,-0.36838 0.54303,-0.81263 0.69028,-1.21321 0.11359,-0.433 0.0907,-0.87185 -0.0338,-1.19108 -0.11388,-0.24289 -0.33034,-0.46595 -0.53696,-0.5975 -0.61528,-0.3496 -1.57544,-0.40541 -2.25482,-0.27132 -0.28081,0.0606 -0.5861,0.19004 -0.81728,0.35567 -0.24218,0.19974 -0.45512,0.45815 -0.60311,0.69384 -0.18863,0.2914 -0.3314,0.62802 -0.39028,0.87997 -0.0281,0.35588 0.12531,0.68823 0.27228,0.8206 0.12312,0.0986 0.25347,0.14446 0.31404,0.1688 -0.0751,-0.0896 -0.0271,-0.013 0.042,0.0588 0.17036,0.1245 0.34368,0.15992 0.4645,0.1415 0.11328,-0.0325 0.2655,-0.14496 0.34015,-0.2522 v 0 c 0.0956,-0.16302 0.0408,-0.37264 -0.12217,-0.46817 v 0 c -0.16301,-0.0956 -0.37264,-0.0409 -0.46817,0.12217"
       style="opacity:1;fill:#000000;fill-opacity:1;fill-rule:nonzero;stroke:none;stroke-width:0.352777;stop-opacity:1"
       id="path194"
       inkscape:connector-curvature="0" />
  </g>
</svg>
