<?xml version="1.0" encoding="UTF-8" standalone="no"?>
<svg
   xmlns:dc="http://purl.org/dc/elements/1.1/"
   xmlns:cc="http://creativecommons.org/ns#"
   xmlns:rdf="http://www.w3.org/1999/02/22-rdf-syntax-ns#"
   xmlns:svg="http://www.w3.org/2000/svg"
   xmlns="http://www.w3.org/2000/svg"
   xmlns:sodipodi="http://sodipodi.sourceforge.net/DTD/sodipodi-0.dtd"
   xmlns:inkscape="http://www.inkscape.org/namespaces/inkscape"
   sodipodi:docname="todo-trash.svg"
   inkscape:version="1.0beta1 (32d4812, 2019-09-19)"
   id="svg444"
   version="1.1"
   viewBox="0 0 8.4473753 9.3837786"
   height="9.3837786mm"
   width="8.4473753mm">
  <defs
     id="defs438" />
  <sodipodi:namedview
     inkscape:window-maximized="0"
     inkscape:window-y="23"
     inkscape:window-x="0"
     inkscape:window-height="770"
     inkscape:window-width="1440"
     showgrid="false"
     inkscape:document-rotation="0"
     inkscape:current-layer="layer1"
     inkscape:document-units="mm"
     inkscape:cy="-327.98134"
     inkscape:cx="-1058.3221"
     inkscape:zoom="0.35"
     inkscape:pageshadow="2"
     inkscape:pageopacity="0.0"
     borderopacity="1.0"
     bordercolor="#666666"
     pagecolor="#ffffff"
     id="base" />
  <metadata
     id="metadata441">
    <rdf:RDF>
      <cc:Work
         rdf:about="">
        <dc:format>image/svg+xml</dc:format>
        <dc:type
           rdf:resource="http://purl.org/dc/dcmitype/StillImage" />
        <dc:title></dc:title>
      </cc:Work>
    </rdf:RDF>
  </metadata>
  <g
     transform="translate(-385.84773,-234.94506)"
     id="layer1"
     inkscape:groupmode="layer"
     inkscape:label="Layer 1">
    <path
       d="m 387.68443,242.70614 c 0.14298,-0.84462 0.20454,-1.63615 0.3351,-2.51961 v 0 c 0.029,-0.29224 -0.18446,-0.55262 -0.4767,-0.58155 v 0 c -0.29224,-0.029 -0.55263,0.1845 -0.58159,0.47674 v 0 c -0.0289,0.29224 0.1845,0.55259 0.47674,0.58156 v 0 c 0.29224,0.0289 0.55263,-0.18451 0.58155,-0.47675 0.0592,-0.45716 0.0924,-0.96626 0.17431,-1.37428 v 0 c 0.054,-0.30088 -0.14605,-0.58857 -0.4469,-0.64262 v 0 c -0.30088,-0.054 -0.58857,0.14605 -0.64262,0.4469 v 0 c -0.054,0.30085 0.14605,0.58854 0.4469,0.64259 v 0 c 0.30085,0.054 0.58858,-0.14602 0.64262,-0.44687 0.061,-0.29256 0.1396,-0.63687 0.2038,-0.96128 v 0 c 0.0545,-0.31376 -0.15571,-0.61221 -0.46947,-0.66668 v 0 c -0.31373,-0.0545 -0.61222,0.15571 -0.66665,0.46944 v 0 c -0.0545,0.31373 0.15572,0.61221 0.46944,0.66668 v 0 c 0.31373,0.0545 0.61221,-0.15572 0.66668,-0.46944 0.0364,-0.21805 0.0681,-0.44182 0.0822,-0.63042 0.0166,-0.0952 0.0293,-0.20468 0.0353,-0.29379 v 0 c -0.0133,-0.33091 -0.29234,-0.5884 -0.62325,-0.57506 v 0 c -0.33091,0.0133 -0.58836,0.29234 -0.57506,0.62325 v 0 c 0.0133,0.33091 0.29234,0.58836 0.62325,0.57506 v 0 c 0.3309,-0.0133 0.58836,-0.29234 0.57506,-0.62325 7.2e-4,-0.0935 -0.0156,-0.23206 -0.0428,-0.33658 v 0 c -0.11052,-0.32093 -0.4603,-0.49149 -0.78123,-0.38093 v 0 c -0.32092,0.11052 -0.49145,0.46026 -0.38093,0.78119 v 0 c 0.11053,0.32092 0.46027,0.49149 0.7812,0.38096 v 0 c 0.32092,-0.11052 0.49149,-0.4603 0.38096,-0.78122 -0.0493,-0.11589 -0.22641,-0.33613 -0.39885,-0.43459 v 0 c -0.30533,-0.1355 -0.66269,0.002 -0.79823,0.30748 v 0 c -0.13554,0.30533 0.002,0.66269 0.30745,0.79823 v 0 c 0.30532,0.13554 0.66272,-0.002 0.79826,-0.30745 v 0 c 0.1355,-0.30533 -0.002,-0.66272 -0.30748,-0.79826 -0.20182,0.0475 -0.42344,0.1693 -0.4765,0.30815 v 0 c -0.14174,0.0677 -0.20175,0.23752 -0.13405,0.37924 v 0 c 0.0677,0.14174 0.23749,0.20175 0.37923,0.13405 0.036,0.0963 -0.11405,0.21174 -0.25946,0.28427 -0.11596,-0.0734 -0.25175,-0.2371 -0.27207,-0.26949 7.1e-4,-0.0231 3.6e-4,-0.0527 0.006,-0.0167 0.0112,0.0407 0.0187,0.0822 0.0219,0.15412 -0.0127,0.14595 -0.0403,0.32015 -0.0772,0.52462 -0.0457,0.30889 -0.10838,0.65158 -0.15695,0.96157 -0.0785,0.48464 -0.1003,1.02729 -0.14246,1.45852 -0.0495,0.93363 -0.0255,1.72297 -0.0801,2.53668 v 0 c -0.0264,0.22158 0.13187,0.4226 0.35345,0.44899 v 0 c 0.22158,0.0264 0.42259,-0.13184 0.44898,-0.35342"
       style="opacity:1;fill:#000000;fill-opacity:1;fill-rule:nonzero;stroke:none;stroke-width:0.352777;stop-opacity:1"
       id="path122"
       inkscape:connector-curvature="0" />
    <path
       d="m 386.87368,242.29315 c -0.0145,0.0224 -0.11988,0.43081 -0.14422,0.85269 v 0 c 0.0148,0.29366 0.2649,0.51972 0.55855,0.5049 v 0 c 0.29369,-0.0149 0.51975,-0.26494 0.50494,-0.55859 v 0 c -0.0149,-0.29369 -0.26494,-0.51971 -0.55859,-0.50489 v 0 c -0.29369,0.0148 -0.51975,0.2649 -0.5049,0.55858 -3.2e-4,0.22554 0.0414,0.5231 0.14464,0.75749 v 0 c 0.15431,0.27707 0.50401,0.37659 0.78112,0.22225 v 0 c 0.27707,-0.15431 0.37659,-0.50401 0.22229,-0.78112 v 0 c -0.15434,-0.27707 -0.50405,-0.37659 -0.78116,-0.22225 v 0 c -0.27707,0.1543 -0.37659,0.50401 -0.22225,0.78112 0.3398,0.31947 0.66732,0.41529 0.89168,0.4252 v 0 c 0.31676,0.01 0.58131,-0.23936 0.59094,-0.55612 v 0 c 0.01,-0.31676 -0.2394,-0.58134 -0.55615,-0.59093 v 0 c -0.31676,-0.01 -0.58131,0.23935 -0.59094,0.55611 v 0 c -0.01,0.31676 0.23939,0.58135 0.55615,0.59094 0.21664,0.004 0.46719,-0.0311 0.67017,-0.0749 0.56515,-0.0347 1.09781,-0.0744 1.57999,-0.0788 0.081,0.008 0.24617,0.0136 0.40248,0.006 0.33895,-0.0687 0.47357,-0.1112 0.56632,-0.10362 -0.29528,-0.0444 -0.1875,0.0222 -0.004,0.10026 0.42817,0.11123 0.78398,0.13974 1.08275,0.11067 0.53876,-0.17265 0.95751,-0.59059 1.14815,-0.95525 0.17508,-0.361 0.28346,-0.79756 0.36269,-1.17941 0.0847,-0.33119 0.15099,-0.74023 0.19572,-1.10536 0.0337,-0.11811 0.0787,-0.3314 0.0973,-0.53788 -0.0275,-0.38336 -0.10569,-0.67948 -0.17103,-0.87087 -0.18196,-0.30564 -0.17212,-0.27756 -0.12569,-0.21068 0.0283,0.22793 0.091,0.0255 0.15144,-0.24906 0.0793,-0.47304 0.064,-0.81886 0.0543,-1.17729 -0.007,-0.13462 -0.0128,-0.29407 -0.0155,-0.45469 v 0 c 0.007,-0.41021 -0.32047,-0.74821 -0.73071,-0.75488 v 0 c -0.41025,-0.007 -0.74821,0.32043 -0.75491,0.73068 v 0 c -0.007,0.41024 0.32046,0.7482 0.73071,0.75491 v 0 c 0.41024,0.007 0.7482,-0.32047 0.75491,-0.73071 10e-4,-0.10735 0.004,-0.205 0.01,-0.30269 v 0 c 0.0229,-0.40936 -0.29031,-0.75984 -0.69971,-0.78277 v 0 c -0.40936,-0.023 -0.75984,0.2903 -0.78277,0.6997 v 0 c -0.0229,0.40936 0.29033,0.75984 0.69969,0.78277 v 0 c 0.40937,0.0229 0.75985,-0.29033 0.78278,-0.6997 0.004,-0.0974 0.009,-0.17314 0.0177,-0.24705 v 0 c 0.0529,-0.40446 -0.23213,-0.77522 -0.63659,-0.82811 v 0 c -0.4045,-0.0529 -0.77526,0.23213 -0.82815,0.63659 v 0 c -0.0529,0.4045 0.23213,0.77527 0.63663,0.82815 v 0 c 0.40446,0.0529 0.77523,-0.23213 0.82811,-0.63663 -0.13138,-0.1707 -0.27584,-0.23833 -0.40358,-0.29241 v 0 c 0.107,-0.11501 0.10051,-0.295 -0.0145,-0.40199 v 0 c -0.11501,-0.10697 -0.29496,-0.10047 -0.40195,0.0145 -0.24536,0.0724 -0.46539,0.2914 -0.64474,0.4886 -0.0154,0.10943 -0.0275,0.23819 -0.0354,0.35525 -0.007,0.11673 -0.0108,0.24341 -0.0129,0.36156 -0.008,0.17677 -0.0126,0.35588 -0.0164,0.51043 0.0139,0.39659 0.0336,0.57637 -0.0117,0.83376 -0.0513,0.14873 -0.16659,0.47424 -0.19971,0.80306 0.15085,0.5207 0.26906,0.65715 0.28984,0.68397 -0.0408,-0.0472 -0.004,0.0535 0.01,0.19494 0.004,0.004 -0.007,0.10957 -0.0294,0.27192 -0.0475,0.38866 -0.0967,0.70799 -0.17367,1.01385 -0.0733,0.40174 -0.1245,0.66964 -0.2225,0.87101 -0.0824,0.19759 -0.0503,0.19978 -0.18051,0.21879 -0.0718,0.0345 -0.2189,0.049 -0.39335,0.0416 0.10012,0.0114 -0.006,-0.0753 -0.1783,-0.16408 -0.59827,-3.4e-4 -0.81809,0.0939 -0.96213,0.14711 0.0269,-0.0126 -0.0696,-0.0126 -0.1893,-0.0158 -0.57414,0.0381 -1.13404,0.11204 -1.75835,0.18817 -0.23195,0.0464 -0.34921,0.0652 -0.45797,0.0589 -0.10305,0 -0.0606,0.0212 -0.0478,0.0101 0.0809,0.12509 0.0614,0.059 0.039,-0.10298 -0.0612,-0.30935 -0.0403,-0.74411 -0.14404,-1.02411 v 0 c -0.0631,-0.21404 -0.28783,-0.33634 -0.50182,-0.2732 v 0 c -0.21403,0.0632 -0.33634,0.28784 -0.27319,0.50187 z"
       style="opacity:1;fill:#000000;fill-opacity:1;fill-rule:nonzero;stroke:none;stroke-width:0.352777;stop-opacity:1"
       id="path124"
       inkscape:connector-curvature="0" />
    <path
       d="m 386.22922,236.73252 c 0.27139,0.0251 0.42334,0.0164 0.5316,-0.011 v 0 c 0.21668,-0.1034 0.30854,-0.3629 0.20514,-0.57961 v 0 c -0.1034,-0.21672 -0.3629,-0.30854 -0.57961,-0.20515 v 0 c -0.21671,0.1034 -0.30857,0.36291 -0.20514,0.57962 v 0 c 0.1034,0.21671 0.3629,0.30857 0.57961,0.20514 -0.44778,-0.0472 -0.38565,0.0706 -0.15342,0.19018 v 0 c 0.25897,0.0811 0.53471,-0.063 0.61584,-0.32201 v 0 c 0.0811,-0.25901 -0.0631,-0.53471 -0.32205,-0.61585 v 0 c -0.25901,-0.0811 -0.5347,0.063 -0.61584,0.32202 v 0 c -0.0811,0.25901 0.063,0.53474 0.32205,0.61584 0.53492,0.0572 1.20248,-0.0662 1.72551,-0.23195 v 0 c 0.29467,-0.10989 0.44446,-0.43787 0.33457,-0.73254 v 0 c -0.10985,-0.29468 -0.43783,-0.44447 -0.73251,-0.33458 v 0 c -0.29467,0.10986 -0.4445,0.43784 -0.33461,0.73251 v 0 c 0.10989,0.29468 0.43787,0.4445 0.73255,0.33461 0.27217,-0.10343 0.54973,-0.23096 0.77145,-0.35183 0.27252,-0.29001 0.26141,-0.30151 0.24014,-0.26592 -0.0177,0.065 0.27033,0.11074 0.56663,0.19431 0.37659,0.085 0.67402,0.39494 1.30126,0.63645 0.60395,0.14319 1.16547,0.0654 1.42666,0.1452 -0.0647,-0.0106 -0.0431,0.0304 0.0375,0.13638 0.20359,0.1778 0.21065,0.17668 0.15001,0.10587 0.01,-0.35553 0.10632,-0.50468 0.14679,-0.51505 0.042,0.006 0.11126,-0.007 0.1071,0.0254 0.12217,-0.0503 0.0441,-0.0745 -0.0918,-0.0939 -0.33239,0.0666 -0.41391,0.092 -0.45653,0.0969 -0.0194,-0.004 0.0269,-0.0222 0.0775,-0.0368 0.0538,0.035 0.26998,0.1355 0.39042,0.26755 v 0 c -0.21385,-0.23107 -0.57453,-0.24504 -0.8056,-0.0312 v 0 c -0.23107,0.21386 -0.24504,0.57454 -0.0312,0.80561 v 0 c 0.21386,0.23107 0.57454,0.24504 0.80561,0.0312 v 0 c 0.23107,-0.21385 0.24504,-0.57453 0.0312,-0.8056 0.0441,0.0834 0.0985,0.24871 0.0952,0.31976 v 0 c -0.0291,-0.28709 -0.28533,-0.49629 -0.57242,-0.46722 v 0 c -0.28709,0.029 -0.49625,0.28532 -0.46722,0.57241 v 0 c 0.0291,0.28706 0.28533,0.49626 0.57242,0.46719 v 0 c 0.28709,-0.029 0.49625,-0.28533 0.46722,-0.57238 -0.0139,0.0575 -0.0398,0.14224 -0.0611,0.1634 v 0 c 0.0734,-0.25177 -0.0712,-0.51541 -0.32293,-0.58882 v 0 c -0.25175,-0.0735 -0.51538,0.0711 -0.58882,0.3229 v 0 c -0.0734,0.25178 0.0711,0.51537 0.32293,0.58882 v 0 c 0.25174,0.0735 0.51537,-0.0711 0.58882,-0.3229 -0.0804,0.0218 -0.13328,-0.0112 -0.12058,-0.12435 v 0 c 0.10114,-0.12016 0.0857,-0.29958 -0.0345,-0.40072 v 0 c -0.12015,-0.10114 -0.29957,-0.0857 -0.40072,0.0345 -0.1295,0.0558 -0.25527,0.13417 -0.35549,0.22307 -0.0269,0.0403 -0.0545,0.13959 -0.0674,0.20778 -0.002,0.0848 0.0567,0.26 0.10732,0.35049 0.13497,0.14771 0.37613,0.25456 0.46679,0.28899 0.0931,-0.0151 0.20059,-0.046 0.25556,-0.0717 0.0993,-0.0359 0.2056,-0.0833 0.29111,-0.12029 -0.12079,0.0236 0.0463,0.0197 0.21576,-0.0146 0.28056,-0.0699 0.46076,-0.15977 0.58138,-0.24359 0.12181,-0.10404 0.26733,-0.3592 0.32173,-0.54833 -0.17498,-0.58744 -0.43131,-0.85075 -0.61923,-0.99275 -0.064,-0.0666 -0.31101,-0.26165 -0.56032,-0.37666 -0.69642,-0.17529 -1.24682,-0.10273 -1.4931,-0.19173 -0.35969,-0.0845 -0.74859,-0.39635 -1.44875,-0.54836 -0.40947,-0.0517 -0.9289,-0.0538 -1.31131,0.0577 -0.3804,0.2461 -0.47445,0.40418 -0.51008,0.4505 0.007,-0.0621 -0.19904,0.0376 -0.42513,0.12827 -0.42235,0.18672 -0.91991,0.32727 -1.15281,0.33616 0.16185,0.0799 0.18263,0.0835 -0.0334,-0.0238 -0.26596,-0.009 -0.228,0.001 -0.46659,-0.002 v 0 c -0.22281,-0.0125 -0.41352,0.15801 -0.42601,0.38079 v 0 c -0.0125,0.22282 0.15804,0.41353 0.38082,0.42602 z"
       style="opacity:1;fill:#000000;fill-opacity:1;fill-rule:nonzero;stroke:none;stroke-width:0.352777;stop-opacity:1"
       id="path126"
       inkscape:connector-curvature="0" />
    <path
       d="m 386.02793,236.68274 c -0.0532,0.0843 -0.0887,0.29718 -0.0658,0.41395 v 0 c 0.0813,0.21915 0.32494,0.33087 0.54409,0.24952 v 0 c 0.21918,-0.0814 0.33087,-0.32494 0.24955,-0.54412 v 0 c -0.0813,-0.21915 -0.32497,-0.33087 -0.54412,-0.24952 v 0 c -0.21915,0.0813 -0.33087,0.32494 -0.24952,0.54412 0.0416,0.10111 0.13952,0.21866 0.18867,0.26141 v 0 c 0.20351,0.13529 0.47815,0.08 0.61344,-0.12354 v 0 c 0.13529,-0.20352 0.08,-0.47819 -0.12354,-0.61348 v 0 c -0.20352,-0.13529 -0.47819,-0.08 -0.61348,0.12354 v 0 c -0.13526,0.20355 -0.08,0.47819 0.12358,0.61348 0.0904,0.0693 0.2142,0.1276 0.30716,0.16422 v 0 c 0.25784,0.0638 0.51862,-0.0935 0.58244,-0.3513 v 0 c 0.0639,-0.25784 -0.0934,-0.51861 -0.35127,-0.58243 v 0 c -0.25784,-0.0639 -0.51861,0.0934 -0.58247,0.35126 v 0 c -0.0638,0.25784 0.0935,0.51862 0.3513,0.58247 0.1784,0.0702 0.4101,0.1288 0.60321,0.18464 0.14821,0.05 0.25937,0.10869 0.4396,0.22053 0.10403,0.0858 0.33644,0.24369 0.58124,0.34642 0.36198,0.0813 0.6393,0.0864 0.8376,0.0854 0.13289,0.007 0.28335,0.007 0.41271,0.007 0.13201,0.004 0.38481,0.0125 0.6434,-0.0257 0.36474,-0.0717 0.66721,-0.11137 1.00601,-0.1525 0.15156,-0.008 0.30858,-0.0165 0.47329,-0.0267 0.12453,-0.009 0.25629,-0.0193 0.39204,-0.0319 0.0889,-0.0109 0.18433,-0.0238 0.27912,-0.0371 v 0 c 0.33292,-0.0457 0.56575,-0.3526 0.52003,-0.68552 v 0 c -0.0457,-0.33292 -0.3526,-0.56575 -0.68552,-0.52006 v 0 c -0.33288,0.0457 -0.56571,0.35263 -0.52003,0.68551 v 0 c 0.0457,0.33292 0.3526,0.56575 0.68552,0.52007 0.0975,-0.0138 0.19893,-0.0288 0.30173,-0.045 v 0 c 0.3319,-0.0521 0.55866,-0.36347 0.50652,-0.69533 v 0 c -0.0521,-0.33189 -0.36343,-0.55865 -0.69532,-0.50651 v 0 c -0.33186,0.0521 -0.55863,0.36343 -0.50652,0.69532 v 0 c 0.0521,0.33186 0.36346,0.55862 0.69532,0.50652 0.0509,-0.008 0.10516,-0.0168 0.15953,-0.0259 v 0 c 0.33122,-0.0557 0.5546,-0.36939 0.4989,-0.70065 v 0 c -0.0557,-0.33123 -0.36943,-0.5546 -0.70066,-0.4989 v 0 c -0.33125,0.0557 -0.55463,0.36943 -0.49889,0.70065 v 0 c 0.0557,0.33126 0.36939,0.55464 0.70065,0.4989 0.0885,-0.12432 0.18136,-0.25051 0.27534,-0.37786 v 0 c 0.15441,-0.0289 0.25619,-0.17745 0.22733,-0.33182 v 0 c -0.0289,-0.15441 -0.17741,-0.25619 -0.33182,-0.22733 -0.13049,-0.0854 -0.25326,-0.17315 -0.37264,-0.26254 -0.0496,0.008 -0.0973,0.016 -0.14654,0.0236 -0.0975,0.0153 -0.18909,0.0288 -0.28025,0.0415 -0.0901,0.0121 -0.17526,0.023 -0.25915,0.0328 -0.12997,0.0204 -0.24963,0.038 -0.36904,0.0548 -0.15893,0.0236 -0.31189,0.0455 -0.46369,0.0676 -0.34534,0.0277 -0.69579,0.0591 -1.07446,0.11899 -0.11423,0.0108 -0.24176,-0.009 -0.42651,-0.0283 -0.18044,0.002 -0.30653,0.006 -0.46464,0.005 -0.22546,0.0195 -0.37338,0.0351 -0.50758,0.0178 -0.0162,-0.0102 -0.12259,-0.0824 -0.26232,-0.1819 -0.28089,-0.16206 -0.54109,-0.27583 -0.83305,-0.35471 -0.27605,-0.021 -0.47699,-0.0224 -0.60766,-0.0299 -0.064,-0.002 -0.0652,0.0129 -0.0501,0.0321 0.0114,0.0177 0.084,0.10904 0.1161,0.18383 0.0113,0.0854 -0.02,0.26737 -0.052,0.31905 v 0 c 0.12185,-0.18693 0.0691,-0.43723 -0.11786,-0.55908 v 0 c -0.18694,-0.12185 -0.43723,-0.0691 -0.55908,0.11786 z"
       style="opacity:1;fill:#000000;fill-opacity:1;fill-rule:nonzero;stroke:none;stroke-width:0.352777;stop-opacity:1"
       id="path128"
       inkscape:connector-curvature="0" />
    <path
       d="m 389.54029,240.40473 c 0.0471,-0.17713 0.0526,-0.44951 0.0361,-0.66326 v 0 c -0.004,-0.20271 -0.17208,-0.3635 -0.37475,-0.3592 v 0 c -0.20271,0.004 -0.36354,0.17209 -0.35924,0.37476 v 0 c 0.004,0.2027 0.17212,0.3635 0.3748,0.35923 v 0 c 0.20267,-0.004 0.3635,-0.17212 0.35919,-0.37479 0.002,-0.15392 -0.0124,-0.29376 -0.0321,-0.39024 v 0 c -0.0835,-0.21178 -0.32294,-0.31578 -0.53474,-0.23224 v 0 c -0.21181,0.0835 -0.31578,0.32294 -0.23227,0.53471 v 0 c 0.0835,0.21181 0.32293,0.3158 0.53474,0.23227 v 0 c 0.2118,-0.0835 0.31577,-0.32294 0.23227,-0.53474 -0.0154,-0.0566 -0.0686,-0.15755 -0.12919,-0.23065 v 0 c -0.1802,-0.15875 -0.45494,-0.14136 -0.61369,0.0388 v 0 c -0.15875,0.18019 -0.14136,0.45497 0.0388,0.61372 v 0 c 0.1802,0.15872 0.45494,0.14136 0.61369,-0.0388 v 0 c 0.15875,-0.1802 0.14136,-0.45498 -0.0388,-0.61369 -0.0545,-0.0464 -0.18652,-0.10894 -0.2806,-0.12682 -0.12316,0.006 -0.29157,0.0741 -0.35546,0.12188 -0.19106,0.36167 -0.24814,0.65952 -0.28564,0.97621 -0.0212,0.15811 -0.0385,0.33655 -0.0501,0.50736 -0.008,0.17128 -0.009,0.35617 -0.003,0.51922 0.0158,0.16376 0.0449,0.34583 0.083,0.48846 0.0524,0.084 0.127,0.1978 0.20034,0.27135 v 0 c 0.15099,0.24914 0.47537,0.32869 0.72447,0.1777 v 0 c 0.24912,-0.15103 0.32867,-0.47537 0.17769,-0.7245 v 0 c -0.15103,-0.24913 -0.47537,-0.32865 -0.7245,-0.17766 v 0 c -0.24914,0.15099 -0.32865,0.47537 -0.17766,0.72446 0.0797,0.0739 0.24631,0.19361 0.38611,0.22903 v 0 c 0.23178,0.0841 0.48786,-0.0356 0.57196,-0.26737 v 0 c 0.0841,-0.23178 -0.0356,-0.48786 -0.26737,-0.57196 v 0 c -0.23177,-0.0841 -0.48786,0.0356 -0.57196,0.26733 v 0 c -0.0841,0.23178 0.0356,0.48786 0.26737,0.572 0.14164,0.009 0.35945,-0.0448 0.45008,-0.12288 v 0 c 0.17342,-0.10322 0.23032,-0.32751 0.12707,-0.50094 v 0 c -0.10323,-0.17339 -0.32752,-0.23029 -0.50095,-0.12704 v 0 c -0.17339,0.10323 -0.23029,0.32752 -0.12703,0.50091 v 0 c 0.10322,0.17343 0.32752,0.23033 0.50091,0.12707 0.0642,-0.0728 0.13575,-0.17949 0.17716,-0.27862 v 0 c 0.0942,-0.12569 0.0687,-0.30395 -0.057,-0.39814 v 0 c -0.1257,-0.0942 -0.30396,-0.0687 -0.39815,0.057 -0.0586,0.0344 -0.0779,0.0162 -0.0942,-0.009 0.007,-0.0282 0.15092,-0.0731 0.2267,-0.0875 0.074,0.0115 0.18259,0.0742 0.21226,0.0648 0.0217,-0.0116 0.0526,-0.009 0.0678,-0.0569 -0.0219,-0.0688 -0.036,-0.15131 -0.0499,-0.28 -0.0241,-0.1295 -0.0416,-0.26508 -0.0549,-0.4167 -0.0173,-0.15191 -0.0296,-0.29863 -0.0382,-0.44298 -0.0122,-0.28752 -0.0131,-0.50306 -0.0174,-0.56103 -0.17667,0.24021 -0.33425,0.30406 -0.42284,0.31024 -0.10664,-0.0179 -0.22747,-0.0752 -0.26066,-0.10372 -0.0481,-0.0618 -0.0788,-0.12492 -0.0729,-0.12781 0.0225,0.0106 0.0445,0.0415 0.0663,0.12675 -0.009,0.15833 -0.0302,0.32533 -0.0533,0.32301 v 0 c -0.0831,0.20708 0.0173,0.44234 0.22437,0.52549 v 0 c 0.20708,0.0832 0.44235,-0.0173 0.5255,-0.22436 z"
       style="opacity:1;fill:#000000;fill-opacity:1;fill-rule:nonzero;stroke:none;stroke-width:0.352777;stop-opacity:1"
       id="path130"
       inkscape:connector-curvature="0" />
    <path
       d="m 390.33323,239.40792 c -0.15216,0.121 -0.27355,0.22458 -0.33863,0.2922 v 0 c -0.15262,0.16277 -0.1444,0.41847 0.0184,0.57112 v 0 c 0.16277,0.15264 0.41846,0.14442 0.57107,-0.0184 v 0 c 0.15265,-0.16277 0.14443,-0.41846 -0.0183,-0.57107 v 0 c -0.16277,-0.15265 -0.41846,-0.14443 -0.57111,0.0183 -0.0326,0.0447 -0.0814,0.14288 -0.10125,0.24388 v 0 c -0.0217,0.21653 0.13631,0.40961 0.35285,0.43127 v 0 c 0.21653,0.0217 0.40961,-0.13635 0.43127,-0.35285 v 0 c 0.0217,-0.21654 -0.13635,-0.40961 -0.35285,-0.43127 v 0 c -0.21653,-0.0217 -0.40961,0.13631 -0.43127,0.35285 0.0311,0.19046 0.31828,0.42132 0.3949,0.42524 v 0 c 0.21206,0 0.38396,-0.17191 0.38396,-0.384 v 0 c 0,-0.21206 -0.1719,-0.384 -0.38396,-0.384 v 0 c -0.21209,0 -0.384,0.17194 -0.384,0.384 v 0 c 0,0.21209 0.17191,0.384 0.384,0.384 0.0675,-0.0118 0.12615,-0.0334 0.14213,-0.046 0.0188,-0.0201 0.0331,-0.0403 0.0474,-0.0568 0.0275,0.021 0.0374,0.0447 0.0466,0.0728 -0.002,0.0237 -0.10975,0.013 -0.19106,-0.006 -0.16814,-0.32882 -0.27891,-0.0865 -0.39868,0.18447 -0.11349,0.33926 -0.21953,0.66213 -0.24451,0.88007 0.005,0.0416 0.0139,0.11511 0.0286,0.1681 0.0206,0.062 0.0934,0.20616 0.17589,0.28878 v 0 c 0.17953,0.16754 0.46084,0.15784 0.62837,-0.0217 v 0 c 0.16753,-0.17949 0.15783,-0.46083 -0.0217,-0.62837 v 0 c -0.1795,-0.16753 -0.46084,-0.15783 -0.62837,0.0217 v 0 c -0.16753,0.17949 -0.15783,0.4608 0.0217,0.62833 0.11307,0.0698 0.33694,0.10926 0.42228,0.0879 v 0 c 0.22514,-0.0506 0.3666,-0.27424 0.31594,-0.49939 v 0 c -0.0506,-0.22517 -0.27425,-0.36664 -0.49942,-0.31598 v 0 c -0.22515,0.0507 -0.36661,0.27428 -0.31595,0.49943 v 0 c 0.0507,0.22518 0.27425,0.3666 0.49943,0.31595 0.0656,-0.0282 0.14453,-0.0772 0.17773,-0.11067 v 0 c 0.17624,-0.12495 0.21784,-0.36911 0.0929,-0.54536 v 0 c -0.12496,-0.17628 -0.36911,-0.21788 -0.54536,-0.0929 v 0 c -0.17628,0.12492 -0.21788,0.36911 -0.0929,0.54536 v 0 c 0.12492,0.17625 0.36911,0.21784 0.54536,0.0929 0.0889,-0.11141 0.20725,-0.29482 0.36456,-0.55951 v 0 c 0.0953,-0.12488 0.0713,-0.30335 -0.0536,-0.3986 v 0 c -0.12488,-0.0953 -0.30338,-0.0713 -0.39863,0.0536 -0.20183,0.20613 -0.31556,0.27968 -0.36474,0.26617 -0.001,-0.009 0.0489,-0.0435 0.0912,-0.0664 0.0621,-0.0161 0.26801,0.0199 0.36795,0.0774 0.0694,0.0704 0.13391,0.19417 0.15042,0.22772 0.011,0.0261 0.02,0.0641 0.0294,0.0638 0.003,-0.0618 0.0934,-0.31355 0.20225,-0.6241 0.0929,-0.24927 0.21724,-0.58208 0.24797,-0.83319 -0.29376,-0.49029 -0.48345,-0.52257 -0.57302,-0.50278 -0.0831,0.0245 -0.16968,0.0616 -0.21886,0.098 -0.0697,0.003 -0.1228,0.008 -0.13935,-10e-4 -0.0142,-0.002 0.0285,-0.0192 0.11617,-0.0305 0.0445,0.003 0.32974,0.23255 0.36135,0.41769 -0.0198,0.1005 -0.066,0.19402 -0.0829,0.22094 0.01,-0.0119 0.098,-0.0866 0.24127,-0.20045 v 0 c 0.17469,-0.13888 0.20373,-0.39302 0.0648,-0.56772 v 0 c -0.13885,-0.17466 -0.39303,-0.20369 -0.56769,-0.0648 z"
       style="opacity:1;fill:#000000;fill-opacity:1;fill-rule:nonzero;stroke:none;stroke-width:0.352777;stop-opacity:1"
       id="path132"
       inkscape:connector-curvature="0" />
    <path
       d="m 391.4908,239.31778 c -0.0156,0.14369 -0.0431,0.3011 -0.0775,0.47837 v 0 c -0.0121,0.26649 0.19417,0.49227 0.46065,0.50433 v 0 c 0.26646,0.0121 0.49227,-0.19413 0.50434,-0.46062 v 0 c 0.0121,-0.26645 -0.19417,-0.49227 -0.46063,-0.50433 v 0 c -0.26648,-0.0121 -0.4923,0.19417 -0.50436,0.46062 -0.0242,0.17688 -0.0553,0.35394 -0.0891,0.5267 v 0 c -0.0295,0.2922 0.18352,0.55301 0.47572,0.5825 v 0 c 0.29224,0.0295 0.55305,-0.18351 0.58254,-0.47572 v 0 c 0.0295,-0.29224 -0.18351,-0.55301 -0.47575,-0.5825 v 0 c -0.29221,-0.0295 -0.55302,0.18348 -0.58251,0.47572 -0.0186,0.11518 -0.0378,0.22256 -0.057,0.32229 v 0 c -0.0368,0.30297 0.17886,0.57842 0.48182,0.61525 v 0 c 0.30293,0.0369 0.57838,-0.17886 0.61525,-0.48183 v 0 c 0.0368,-0.30293 -0.1789,-0.57837 -0.48183,-0.6152 v 0 c -0.30293,-0.0369 -0.57838,0.17885 -0.61524,0.48178 0.0548,0.26265 0.11183,0.46585 0.19505,0.5502 v 0 c 7.1e-4,0.16284 0.13303,0.29439 0.29587,0.29386 v 0 c 0.16284,-7.1e-4 0.2944,-0.13303 0.29383,-0.29587 0.083,0.01 0.1953,-0.16345 0.31235,-0.41498 0.006,-0.10512 0.0126,-0.225 0.0181,-0.34865 0.002,-0.18566 0.003,-0.3926 -0.004,-0.58981 -0.0175,-0.19741 -0.0428,-0.40477 -0.0815,-0.58039 v 0 c -0.0161,-0.22256 -0.20955,-0.38996 -0.43211,-0.37387 v 0 c -0.22257,0.0161 -0.38996,0.20959 -0.37384,0.43215"
       style="opacity:1;fill:#000000;fill-opacity:1;fill-rule:nonzero;stroke:none;stroke-width:0.352777;stop-opacity:1"
       id="path134"
       inkscape:connector-curvature="0" />
  </g>
</svg>
