<?xml version="1.0" encoding="UTF-8" standalone="no"?>
<svg
   xmlns:dc="http://purl.org/dc/elements/1.1/"
   xmlns:cc="http://creativecommons.org/ns#"
   xmlns:rdf="http://www.w3.org/1999/02/22-rdf-syntax-ns#"
   xmlns:svg="http://www.w3.org/2000/svg"
   xmlns="http://www.w3.org/2000/svg"
   xmlns:sodipodi="http://sodipodi.sourceforge.net/DTD/sodipodi-0.dtd"
   xmlns:inkscape="http://www.inkscape.org/namespaces/inkscape"
   inkscape:version="1.0beta1 (32d4812, 2019-09-19)"
   sodipodi:docname="hello-raygun.svg"
   id="svg970"
   version="1.1"
   viewBox="0 0 118.88746 23.385652"
   height="23.385651mm"
   width="118.88745mm">
  <defs
     id="defs964">
    <clipPath
       clipPathUnits="userSpaceOnUse"
       id="clipPath1944">
      <path
         d="m 59.14286,72 h 493.7143 V 720 H 59.14286 Z"
         id="path1942"
         inkscape:connector-curvature="0" />
    </clipPath>
    <clipPath
       clipPathUnits="userSpaceOnUse"
       id="clipPath2392">
      <path
         d="m 59.14286,72 h 493.7143 V 720 H 59.14286 Z"
         id="path2390"
         inkscape:connector-curvature="0" />
    </clipPath>
    <clipPath
       clipPathUnits="userSpaceOnUse"
       id="clipPath2781">
      <path
         d="m 59.14286,72 h 493.7143 V 720 H 59.14286 Z"
         id="path2779"
         inkscape:connector-curvature="0" />
    </clipPath>
    <clipPath
       clipPathUnits="userSpaceOnUse"
       id="clipPath3020">
      <path
         d="m 59.14286,72 h 493.7143 V 720 H 59.14286 Z"
         id="path3018"
         inkscape:connector-curvature="0" />
    </clipPath>
    <clipPath
       clipPathUnits="userSpaceOnUse"
       id="clipPath3439">
      <path
         d="m 59.14286,72 h 493.7143 V 720 H 59.14286 Z"
         id="path3437"
         inkscape:connector-curvature="0" />
    </clipPath>
    <clipPath
       clipPathUnits="userSpaceOnUse"
       id="clipPath3439-6">
      <path
         d="m 59.14286,72 h 493.7143 V 720 H 59.14286 Z"
         id="path3437-0"
         inkscape:connector-curvature="0" />
    </clipPath>
    <clipPath
       clipPathUnits="userSpaceOnUse"
       id="clipPath3020-6">
      <path
         d="m 59.14286,72 h 493.7143 V 720 H 59.14286 Z"
         id="path3018-8"
         inkscape:connector-curvature="0" />
    </clipPath>
    <clipPath
       clipPathUnits="userSpaceOnUse"
       id="clipPath3439-1">
      <path
         d="m 59.14286,72 h 493.7143 V 720 H 59.14286 Z"
         id="path3437-8"
         inkscape:connector-curvature="0" />
    </clipPath>
  </defs>
  <sodipodi:namedview
     inkscape:window-maximized="0"
     inkscape:window-y="0"
     inkscape:window-x="0"
     inkscape:window-height="900"
     inkscape:window-width="687"
     showgrid="false"
     inkscape:document-rotation="0"
     inkscape:current-layer="layer1"
     inkscape:document-units="mm"
     inkscape:cy="209.45327"
     inkscape:cx="114.94847"
     inkscape:zoom="1.8319237"
     inkscape:pageshadow="2"
     inkscape:pageopacity="0.0"
     borderopacity="1.0"
     bordercolor="#666666"
     pagecolor="#ffffff"
     id="base" />
  <metadata
     id="metadata967">
    <rdf:RDF>
      <cc:Work
         rdf:about="">
        <dc:format>image/svg+xml</dc:format>
        <dc:type
           rdf:resource="http://purl.org/dc/dcmitype/StillImage" />
        <dc:title></dc:title>
      </cc:Work>
    </rdf:RDF>
  </metadata>
  <g
     transform="translate(-29.139446,32.967101)"
     id="layer1"
     inkscape:groupmode="layer"
     inkscape:label="Layer 1">
    <g
       transform="matrix(0.35277777,0,0,-0.35277777,-22.952848,187.14397)"
       id="g3419">
      <g
         id="g3421"
         transform="matrix(0.8456908,0,0,0.8456908,72,720)">
        <text
           transform="matrix(1,0,0,-1,86.65494,-168.2421)"
           style="font-variant:normal;font-weight:normal;font-size:49px;writing-mode:lr-tb;fill:#000000;fill-opacity:0;fill-rule:nonzero;stroke:none"
           id="text3425"><tspan
             x="0 26.7491 52.175201 62.5093 72.843399"
             y="0"
             sodipodi:role="line"
             id="tspan3423">hello</tspan></text>
      </g>
      <g
         id="g3427"
         transform="matrix(0.8456908,0,0,0.8456908,72,720)">
        <text
           transform="matrix(1,0,0,-1,254.8864,-182.6825)"
           style="font-variant:normal;font-weight:normal;font-size:45px;writing-mode:lr-tb;fill:#000000;fill-opacity:0;fill-rule:nonzero;stroke:none"
           id="text3431"><tspan
             x="0 13.779 36.737999 58.301998 83.375999 107.46 131.54401 141.993 164.907 189.12601"
             y="0"
             sodipodi:role="line"
             id="tspan3429">raygun.com</tspan></text>
      </g>
    </g>
    <g
       transform="matrix(0.35277777,0,0,-0.35277777,-22.952848,187.14397)"
       id="g3433">
      <g
         id="g3435"
         clip-path="url(#clipPath3439-1)">
        <path
           d="m 150.0051,622.0061 c 0.0317,0.3152 0.0712,0.4784 0.1192,0.4952 v 0 c -0.0255,0.6155 -0.545,1.0938 -1.1605,1.0683 v 0 c -0.6154,-0.0254 -1.0937,-0.545 -1.0683,-1.1604 v 0 c 0.0255,-0.6155 0.545,-1.0938 1.1605,-1.0683 v 0 c 0.6154,0.0255 1.0937,0.545 1.0683,1.1604 -2.2448,-0.1807 -2.2749,-0.1288 -2.2958,-0.1803 v 0 c 0.0422,-0.6548 0.6072,-1.1514 1.262,-1.1091 v 0 c 0.6548,0.0422 1.1513,0.6072 1.1091,1.262 v 0 c -0.0422,0.6548 -0.6073,1.1513 -1.262,1.1091 v 0 c -0.6548,-0.0422 -1.1514,-0.6073 -1.1091,-1.262 -0.0209,-0.0525 -0.0398,-0.1368 -0.0568,-0.2514 v 0 c 0.0446,-0.6949 0.644,-1.222 1.3389,-1.1775 v 0 c 0.6949,0.0446 1.222,0.6441 1.1775,1.3389 v 0 c -0.0446,0.6949 -0.6441,1.222 -1.3389,1.1775 v 0 c -0.6949,-0.0446 -1.2221,-0.6441 -1.1775,-1.3389 -0.0677,-0.4579 -0.1038,-1.3949 -0.1085,-2.6768 0.107,-1.1805 0.2269,-2.6513 0.3032,-4.2634 0.0324,-0.969 0.0508,-2.001 0.0616,-3.0144 0.003,-1.8872 -0.0215,-3.6176 -0.0426,-5.429 0.002,-1.5375 0.005,-3.1572 0.007,-4.8647 0.0196,-1.7517 0.0388,-3.5838 0.0626,-5.2751 -0.003,-1.3227 -0.004,-2.6276 0.0689,-3.7302 0.3068,-2.4505 1.1084,-3.8105 1.5554,-4.6692 0.3177,-0.8777 0.3769,-2.1329 0.2998,-3.063 -0.0527,-0.2409 -0.1413,-0.4755 -0.2085,-0.7623 -0.0336,-0.2265 -0.049,-0.4224 -0.0488,-0.5823 0.006,-0.097 0.0515,-0.3286 0.1096,-0.5025 0.112,-0.2273 0.6663,-0.7552 1.1603,-0.9286 1.1854,0.3291 1.5138,0.6946 1.6338,0.9252 0.0934,0.2061 0.2101,0.5212 0.2698,0.7895 0.3447,1.5457 0.34,3.7238 1.3816,6.0379 0.9712,2.3167 2.8488,5.1741 4.5415,7.626 1.0371,1.5164 1.7625,2.5637 2.3015,2.983 0.1397,0.1181 -0.007,0.0471 0.1613,0.0336 0.525,0.0776 0.7706,0.0565 1.2727,-0.3379 0.9457,-0.7083 1.9025,-2.9578 2.487,-6.0223 0.2007,-1.0984 0.3426,-2.2202 0.4312,-3.4324 0.0712,-0.929 0.1129,-1.8834 0.1354,-2.8267 0.0311,-0.9426 0.0418,-1.8358 0.0423,-2.6486 0.0233,-0.812 0.0367,-1.5192 0.05,-2.0815 0.002,-0.3737 0.005,-0.675 0.0104,-0.8946 0.0193,-0.2193 0.0413,-0.3652 0.0694,-0.468 0.0206,-0.0698 2.7389,-0.8125 2.9417,-0.2932 v 0 c 0.1724,0.7878 -0.3265,1.566 -1.1143,1.7384 v 0 c -0.7877,0.1723 -1.566,-0.3266 -1.7383,-1.1144 v 0 c -0.1723,-0.7877 0.3266,-1.566 1.1143,-1.7383 v 0 c 0.7877,-0.1723 1.566,0.3266 1.7383,1.1143 4e-4,0.1022 -0.01,0.1645 -0.0257,0.1897 v 0 c 0.0782,0.7722 -0.4844,1.4616 -1.2566,1.5398 v 0 c -0.7723,0.0782 -1.4617,-0.4845 -1.5399,-1.2567 v 0 c -0.0782,-0.7722 0.4845,-1.4616 1.2567,-1.5398 v 0 c 0.7722,-0.0782 1.4617,0.4844 1.5398,1.2567 -0.0329,0.037 -0.0651,0.0872 -0.0968,0.1456 v 0 c 0.0585,0.7134 -0.4724,1.3392 -1.1858,1.3978 v 0 c -0.7134,0.0585 -1.3393,-0.4724 -1.3978,-1.1858 v 0 c -0.0586,-0.7134 0.4723,-1.3393 1.1857,-1.3978 v 0 c 0.7135,-0.0586 1.3393,0.4723 1.3979,1.1858 -0.0637,0.115 -0.1227,0.2944 -0.1757,0.5467 v 0 c 0.0474,0.5932 -0.3951,1.1125 -0.9883,1.1599 v 0 c -0.5933,0.0474 -1.1126,-0.3951 -1.16,-0.9883 v 0 c -0.0473,-0.5933 0.3952,-1.1126 0.9884,-1.16 v 0 c 0.5932,-0.0474 1.1126,0.3952 1.1599,0.9884 -0.118,0.1752 -0.2334,0.383 -0.3456,0.6263 v 0 c 0.0307,0.3758 -0.249,0.7053 -0.6248,0.736 v 0 c -0.3758,0.0307 -0.7054,-0.2491 -0.7361,-0.6249 -0.1502,-0.2229 -0.2974,-0.4112 -0.4418,-0.5659 -0.0924,-0.2419 -0.1785,-0.4086 -0.2596,-0.5063 -0.0405,-0.0476 -0.079,-0.0701 -0.1161,-0.0744 -0.0178,0.005 -0.0297,0.0544 -0.0353,0.1282 0.2066,0.5374 2.9243,-0.2029 2.9448,-0.2623 0.0273,-0.0495 0.0611,0.0693 0.0986,0.2901 0.0238,0.221 0.051,0.5358 0.0782,0.919 0.0507,0.573 0.1018,1.3168 0.1425,2.1528 0.0179,0.8352 0.0255,1.787 0.0121,2.767 -0.0219,0.979 -0.0662,2.0248 -0.1414,3.033 -0.1334,1.3218 -0.3351,2.6248 -0.5895,3.8261 -0.7528,3.4004 -2.2136,6.4988 -3.9829,7.9326 -1.203,0.7406 -2.5898,0.9494 -3.4983,0.8126 -0.491,-0.0608 -1.2658,-0.3879 -1.7475,-0.7784 -0.8859,-0.794 -1.7887,-2.1107 -2.7993,-3.6281 -1.7368,-2.4386 -3.792,-5.4998 -4.953,-8.1062 -1.0911,-2.9223 -1.0097,-5.5548 -1.1382,-6.5822 -0.0139,0.0817 -0.0372,0.102 -0.0801,0.0937 -0.0161,0.0164 0.1798,0.2477 0.4398,0.4367 1.2955,-0.073 1.8333,-0.5839 1.9295,-0.7752 0.0486,-0.1517 0.0858,-0.3421 0.086,-0.3879 -0.0106,-0.0553 -0.0227,-0.1043 -0.0304,-0.0529 -0.0222,-0.013 0.0475,0.3227 0.0961,0.8168 0.0733,1.2332 -0.0563,2.99 -0.5625,4.402 -0.5285,1.1408 -1.0355,1.9061 -1.2034,3.8287 -0.0183,0.9137 0.0274,2.1314 0.0754,3.4834 0.0183,1.7182 0.0408,3.5467 0.0629,5.2998 0.002,1.7086 0.005,3.3283 0.007,4.8599 -0.007,1.8025 -0.0114,3.5535 -0.0427,5.4566 2e-4,1.0188 -0.007,2.0849 -0.0303,3.1035 -0.0694,1.687 -0.1838,3.2237 -0.2801,4.398 -0.1864,1.2375 -0.343,2.1492 -0.4687,2.5929 -0.0314,0.1108 -0.0608,0.1925 -0.0884,0.2433 -0.0276,0.0512 -0.0604,0.1428 -2.304,-0.0656 0.0501,-0.0377 0.1075,-0.1974 0.1725,-0.5062 v 0 c 0.0286,-0.5349 0.4854,-0.9453 1.0203,-0.9167 v 0 c 0.5349,0.0286 0.9453,0.4853 0.9167,1.0202"
           style="fill:#000000;fill-opacity:1;fill-rule:nonzero;stroke:none"
           id="path3441"
           inkscape:connector-curvature="0" />
        <path
           d="m 178.6333,592.7255 c -0.2111,-0.1891 -0.3393,-0.3099 -0.3761,-0.3496 v 0 c -0.3968,-0.3452 -0.4387,-0.9467 -0.0936,-1.3436 v 0 c 0.3452,-0.3968 0.9468,-0.4387 1.3436,-0.0936 v 0 c 0.3969,0.3452 0.4388,0.9468 0.0936,1.3436 v 0 c -0.3452,0.3969 -0.9467,0.4388 -1.3436,0.0936 0.0851,0.074 1.5205,-1.0698 1.4012,-1.3018 v 0 c 0.3214,0.431 0.2326,1.0409 -0.1984,1.3623 v 0 c -0.4309,0.3214 -1.0408,0.2326 -1.3622,-0.1984 v 0 c -0.3214,-0.4309 -0.2326,-1.0408 0.1983,-1.3622 v 0 c 0.431,-0.3214 1.0408,-0.2326 1.3623,0.1983 -0.0432,-0.064 -0.0598,-0.0926 -0.0475,-0.0899 v 0 c 0.3815,0.3951 0.3704,1.0247 -0.0248,1.4061 v 0 c -0.3951,0.3815 -1.0247,0.3704 -1.4061,-0.0248 v 0 c -0.3815,-0.3951 -0.3704,-1.0246 0.0248,-1.4061 v 0 c 0.3951,-0.3814 1.0247,-0.3703 1.4061,0.0248 0.0202,8e-4 0.0544,0.0151 0.1045,0.0449 0.1017,0.0609 0.2475,0.1642 0.417,0.2915 0.3977,0.3437 1.0532,0.946 1.6354,1.5416 0.7393,0.653 1.5444,1.5078 2.262,2.7286 0.6517,1.2525 1.2521,2.9313 1.5616,4.3927 0.1184,0.7504 0.176,1.6259 0.0862,2.3273 -0.2333,0.8113 -0.732,1.556 -1.2307,1.9336 -0.5256,0.3279 -1.3623,0.5412 -1.9769,0.5104 -1.2493,-0.1908 -2.6245,-0.9516 -3.6916,-1.9556 -1.0356,-0.9976 -2.0734,-2.4506 -2.7191,-4.0234 -0.5042,-1.2669 -0.8496,-2.7624 -0.9214,-4.2429 0.006,-1.956 0.443,-4.0836 1.162,-5.8759 0.6569,-1.475 1.526,-2.826 2.3681,-3.8359 0.8283,-0.9517 1.7772,-1.7067 2.6159,-2.1717 0.3998,-0.324 1.1661,-0.7582 1.8988,-0.9501 0.5042,-0.1065 1.2316,-0.1 1.7831,0.0429 0.5306,0.1548 1.1874,0.5131 1.6838,0.9213 0.4686,0.4063 0.9936,1.0024 1.4607,1.6655 0.2298,0.3282 0.4787,0.7168 0.7158,1.1182 v 0 c 0.4343,0.7483 0.1798,1.7069 -0.5684,2.1412 v 0 c -0.7483,0.4343 -1.7069,0.1799 -2.1412,-0.5684 v 0 c -0.4343,-0.7482 -0.1799,-1.7069 0.5684,-2.1412 v 0 c 0.7482,-0.4343 1.7069,-0.1798 2.1412,0.5684 0.2066,0.4162 0.4279,0.8886 0.6442,1.3827 v 0 c 0.3677,0.7281 0.0756,1.6164 -0.6524,1.9842 v 0 c -0.7281,0.3677 -1.6165,0.0756 -1.9842,-0.6525 v 0 c -0.3678,-0.728 -0.0757,-1.6164 0.6524,-1.9841 v 0 c 0.7281,-0.3678 1.6164,-0.0757 1.9842,0.6524 0.2289,0.4848 0.4708,1.0259 0.7128,1.5967 v 0 c 0.3257,0.722 0.005,1.5713 -0.7175,1.8971 v 0 c -0.722,0.3257 -1.5714,0.005 -1.8971,-0.7175 v 0 c -0.3257,-0.722 -0.005,-1.5713 0.7175,-1.8971 v 0 c 0.722,-0.3257 1.5713,-0.005 1.8971,0.7175 0.0252,0.6653 0.0591,1.3788 0.096,2.128 v 0 c 0.1432,0.3488 -0.0235,0.7476 -0.3722,0.8909 v 0 c -0.3488,0.1432 -0.7477,-0.0235 -0.8909,-0.3723 -0.4947,-0.5454 -0.9747,-1.0281 -1.4476,-1.4672 -0.2559,-0.5328 -0.496,-1.0038 -0.7346,-1.4441 -0.2515,-0.432 -0.4835,-0.7986 -0.7175,-1.1422 -0.2033,-0.3573 -0.3822,-0.6471 -0.5693,-0.9236 -0.3661,-0.5454 -0.6301,-0.8602 -0.919,-1.1146 -0.2613,-0.2525 -0.3306,-0.305 -0.5078,-0.358 -0.1563,-0.0648 -0.1183,-0.0633 -0.2977,-0.0191 -0.2936,0.0341 -0.5411,0.1751 -1.0047,0.5029 -0.805,0.4169 -1.3618,0.8238 -2.0338,1.5688 -0.7498,0.822 -1.4515,1.8301 -2.0351,3.0502 -0.639,1.4984 -1.004,3.1459 -1.022,4.7633 0.038,1.1876 0.2797,2.2672 0.6925,3.3177 0.5532,1.2446 1.3193,2.2164 2.2038,2.9745 0.8529,0.7519 1.514,1.078 2.0422,1.0653 0.0892,-0.0116 -0.0681,0.01 -0.0656,-0.0593 0.0282,-0.0188 -0.095,0.1251 -0.0941,-0.057 -0.005,-0.1242 -0.067,-0.5386 -0.2021,-1.1645 -0.1538,-1.2566 -0.5294,-2.5901 -0.9835,-3.6631 -0.4042,-1.0531 -0.7918,-1.6674 -1.3408,-2.3991 -0.4992,-0.5981 -1.0616,-1.1946 -1.4142,-1.5812 -0.1323,-0.1694 -0.2395,-0.3134 -0.306,-0.4185 -0.0339,-0.0532 -0.0626,-0.1017 -0.079,-0.1387 -0.006,-0.0165 -0.0345,-0.0575 -0.0823,-0.1277 -0.124,-0.2381 1.314,-1.3811 1.3593,-1.3399 0.1016,0.0777 0.2287,0.182 0.4405,0.3563 v 0 c 0.4062,0.3491 0.4525,0.9615 0.1034,1.3677 v 0 c -0.3491,0.4062 -0.9615,0.4525 -1.3677,0.1034 z"
           style="fill:#000000;fill-opacity:1;fill-rule:nonzero;stroke:none"
           id="path3443"
           inkscape:connector-curvature="0" />
        <path
           d="m 196.437,618.1311 c -0.39,0.4083 -0.6841,1.2346 -0.8779,2.1086 v 0 c -0.1282,0.539 -0.6691,0.8721 -1.2081,0.7439 v 0 c -0.539,-0.1282 -0.8721,-0.6691 -0.7439,-1.2081 v 0 c 0.1282,-0.539 0.669,-0.8721 1.2081,-0.7439 v 0 c 0.539,0.1281 0.8721,0.669 0.7439,1.2081 -0.0674,0.4098 -0.0991,0.7627 -0.0945,1.0262 v 0 c -0.0632,0.6023 -0.6027,1.0393 -1.205,0.9761 v 0 c -0.6023,-0.0633 -1.0393,-0.6028 -0.9761,-1.2051 v 0 c 0.0632,-0.6022 0.6027,-1.0393 1.205,-0.976 v 0 c 0.6023,0.0632 1.0393,0.6027 0.9761,1.205 0.0104,0.2491 0.046,0.331 0.0942,0.2793 v 0 c 0.0707,0.6753 -0.4195,1.28 -1.0948,1.3507 v 0 c -0.6753,0.0707 -1.2801,-0.4195 -1.3507,-1.0948 v 0 c -0.0707,-0.6753 0.4195,-1.28 1.0948,-1.3507 v 0 c 0.6753,-0.0707 1.28,0.4195 1.3507,1.0948 0.006,-0.0383 -0.0247,-0.2122 -0.0709,-0.3607 -0.0992,-0.1863 -0.7232,-0.6561 -1.1977,-0.7297 -0.3782,0.0732 -0.7828,0.3096 -0.8758,0.3864 -0.0541,0.0492 -0.1253,0.1323 -0.1412,0.1361 0.0678,-0.2285 0.2303,-0.764 0.4513,-1.6655 0.3713,-1.554 0.8362,-3.9232 1.1478,-7.0285 0.1629,-1.817 0.2688,-3.8641 0.3262,-6.0941 0.1313,-3.9739 0.1114,-8.3204 0.0879,-11.817 -0.005,-2.5128 -0.0141,-4.5176 0.0495,-6.0242 0.2004,-1.4151 0.5174,-2.5 0.9046,-3.1695 0.2212,-0.361 0.6294,-0.8142 1.0005,-1.0334 v 0 c 0.6313,-0.4154 1.4798,-0.2403 1.8952,0.391 v 0 c 0.4154,0.6313 0.2403,1.4799 -0.391,1.8952 v 0 c -0.6313,0.4154 -1.4799,0.2404 -1.8952,-0.391 v 0 c -0.4154,-0.6313 -0.2404,-1.4798 0.391,-1.8952 0.4307,-0.1885 1.1847,-0.2331 1.574,-0.0866 v 0 c 0.6478,0.2066 1.0054,0.8993 0.7988,1.5472 v 0 c -0.2067,0.6478 -0.8994,1.0054 -1.5472,0.7987 v 0 c -0.6479,-0.2067 -1.0055,-0.8994 -0.7988,-1.5472 v 0 c 0.2067,-0.6478 0.8994,-1.0054 1.5472,-0.7987 0.5978,0.3414 1.1246,1.0025 1.4597,1.6816 v 0 c 0.2874,0.4435 0.1608,1.0361 -0.2827,1.3235 v 0 c -0.4436,0.2874 -1.0361,0.1608 -1.3235,-0.2828 v 0 c -0.2874,-0.4435 -0.1608,-1.0361 0.2827,-1.3235 v 0 c 0.4436,-0.2873 1.0361,-0.1608 1.3235,0.2828 0.3144,0.6564 0.6393,1.5121 0.9303,2.4409 v 0 c 0.1459,0.3476 -0.0177,0.7478 -0.3654,0.8936 v 0 c -0.3477,0.1459 -0.7478,-0.0177 -0.8937,-0.3654 -0.4406,-0.8146 -0.8658,-1.4644 -1.2774,-1.9283 -0.3907,-0.4413 -0.5655,-0.5152 -0.6027,-0.3767 0.073,0.0455 0.5267,0.0323 0.6806,0.0263 0.0918,-0.0354 0.2443,-0.1542 0.2374,-0.0109 -0.0693,0.3392 -0.0982,0.9424 -0.0945,2.1208 -0.0251,1.3362 0.0166,3.2815 0.0538,5.8029 0.0288,3.503 0.0536,7.9189 -0.0744,11.9743 -0.1126,2.2849 -0.2789,4.4452 -0.5057,6.369 -0.4966,3.2708 -1.1712,5.8584 -1.7311,7.4947 -0.3586,0.9915 -0.7124,1.7291 -0.9771,2.119 -0.0694,0.0981 -0.1723,0.2274 -0.2598,0.3138 -0.1147,0.1012 -0.5427,0.3529 -0.9403,0.4273 -0.494,-0.0724 -1.1336,-0.555 -1.2487,-0.775 -0.0544,-0.1656 -0.0931,-0.3779 -0.0926,-0.4642 0.0274,-0.2506 0.0947,-0.5465 0.1745,-0.8017 0.0641,-0.3092 0.1797,-0.778 0.32,-1.2284 0.2517,-0.9999 0.738,-2.2101 1.3974,-2.9498 v 0 c 0.3614,-0.3953 0.9749,-0.4228 1.3702,-0.0614 v 0 c 0.3954,0.3614 0.4229,0.9748 0.0615,1.3702 z"
           style="fill:#000000;fill-opacity:1;fill-rule:nonzero;stroke:none"
           id="path3445"
           inkscape:connector-curvature="0" />
        <path
           d="m 204.5777,622.1352 c -0.0142,0.1257 -0.005,0.0613 0.0244,0.0538 v 0 c 0.256,0.4979 0.06,1.1091 -0.4379,1.3651 v 0 c -0.4979,0.2561 -1.1091,0.06 -1.3651,-0.4378 v 0 c -0.2561,-0.4979 -0.06,-1.1091 0.4379,-1.3652 v 0 c 0.4979,-0.256 1.1091,-0.06 1.3651,0.4379 -0.006,-0.0151 -0.11,-0.1491 -0.1676,-0.211 v 0 c 0.4723,0.3225 0.5938,0.967 0.2712,1.4393 v 0 c -0.3225,0.4724 -0.9669,0.5938 -1.4393,0.2713 v 0 c -0.4724,-0.3226 -0.5938,-0.967 -0.2713,-1.4393 v 0 c 0.3226,-0.4724 0.967,-0.5939 1.4394,-0.2713 -0.0885,-0.052 -0.4092,-0.1377 -0.5614,-0.1438 v 0 c 0.5771,-0.0901 1.1179,0.3047 1.208,0.8819 v 0 c 0.0901,0.5771 -0.3048,1.1179 -0.8819,1.208 v 0 c -0.5771,0.0901 -1.118,-0.3048 -1.208,-0.8819 v 0 c -0.0901,-0.5771 0.3047,-1.118 0.8819,-1.208 -0.5357,0.2424 -0.6929,0.4144 -0.7023,0.3722 0.007,-0.0622 0.007,-0.1361 0.0245,-0.3229 0.0423,-0.3904 0.0707,-0.9534 0.0837,-1.791 -0.0184,-1.0489 -0.0644,-2.4533 -0.1147,-4.1347 -0.0998,-2.213 -0.2095,-4.9119 -0.2353,-7.8723 0.1666,-3.9009 0.4595,-8.1398 0.6959,-11.686 0.1152,-1.9443 0.2099,-3.6919 0.2929,-5.2074 0.2962,-3.5316 0.5308,-5.8241 0.8455,-6.687 0.0739,-0.1417 0.1889,-0.3583 0.3207,-0.5195 v 0 c 0.3,-0.5076 0.9547,-0.676 1.4624,-0.376 v 0 c 0.5077,0.3 0.676,0.9548 0.376,1.4624 v 0 c -0.3,0.5077 -0.9547,0.676 -1.4624,0.376 v 0 c -0.5076,-0.3 -0.676,-0.9547 -0.376,-1.4624 0.093,-0.1033 0.3706,-0.3395 0.6148,-0.4381 v 0 c 0.521,-0.1891 1.0966,0.08 1.2857,0.601 v 0 c 0.189,0.521 -0.08,1.0966 -0.601,1.2857 v 0 c -0.521,0.1891 -1.0966,-0.08 -1.2857,-0.601 v 0 c -0.1891,-0.521 0.08,-1.0966 0.601,-1.2857 0.3021,-0.0421 0.8199,0.0935 0.9737,0.2229 v 0 c 0.4034,0.3262 0.4659,0.9177 0.1396,1.3211 v 0 c -0.3262,0.4034 -0.9177,0.4659 -1.3211,0.1396 v 0 c -0.4034,-0.3262 -0.4659,-0.9177 -0.1396,-1.3211 v 0 c 0.3262,-0.4034 0.9177,-0.4659 1.3211,-0.1396 0.2145,0.366 0.2679,0.7376 0.2683,1.0982 v 0 c 0.0892,0.3664 -0.1355,0.7357 -0.5019,0.8249 v 0 c -0.3663,0.0892 -0.7356,-0.1355 -0.8248,-0.5019 -0.1501,-0.2579 -0.2253,-0.2357 -0.1232,0.0395 0.1259,0.1066 0.6166,0.2357 0.8929,0.203 0.2177,-0.089 0.4701,-0.3 0.5385,-0.3619 0.0832,-0.0788 0.1526,-0.1492 0.1835,-0.0828 0.014,0.5924 0.0731,2.7942 0.0641,6.3428 -0.0477,1.5187 -0.1077,3.2803 -0.1895,5.2604 -0.2255,3.5766 -0.5034,7.7781 -0.6538,11.5931 -0.1296,2.8725 -0.1771,5.5261 -0.2342,7.7602 -0.0552,1.702 -0.1153,3.1448 -0.2055,4.2754 -0.1025,0.9371 -0.2341,1.6592 -0.3799,2.1535 -0.0761,0.2557 -0.1772,0.5237 -0.2762,0.7096 -0.1153,0.206 -0.383,0.5316 -0.6632,0.7091 -0.6503,0.1447 -1.0979,0.0255 -1.3012,-0.1049 -0.1725,-0.1404 -0.3797,-0.3978 -0.4676,-0.5728 -0.134,-0.3254 -0.2042,-0.8523 -0.1404,-1.2609 v 0 c 0.0774,-0.53 0.5698,-0.897 1.0998,-0.8195 v 0 c 0.53,0.0774 0.897,0.5698 0.8195,1.0998"
           style="fill:#000000;fill-opacity:1;fill-rule:nonzero;stroke:none"
           id="path3447"
           inkscape:connector-curvature="0" />
        <path
           d="m 215.6997,591.007 c -0.2497,-0.1153 -0.4151,-0.1796 -0.612,-0.2066 v 0 c -0.4945,-0.0167 -0.8818,-0.4311 -0.8651,-0.9256 v 0 c 0.0167,-0.4945 0.4311,-0.8819 0.9256,-0.8651 v 0 c 0.4945,0.0167 0.8819,0.4311 0.8651,0.9256 v 0 c -0.0167,0.4945 -0.4311,0.8818 -0.9256,0.8651 -0.2939,0.1499 -0.1205,0.233 -0.0267,0.4856 v 0 c -0.4713,0.6308 -1.3648,0.76 -1.9956,0.2887 v 0 c -0.6308,-0.4713 -0.76,-1.3648 -0.2887,-1.9956 v 0 c 0.4713,-0.6308 1.3648,-0.76 1.9956,-0.2887 v 0 c 0.6308,0.4713 0.76,1.3648 0.2887,1.9956 -0.003,0.0757 0.0392,0.1955 0.0434,0.7706 v 0 c -0.104,0.8921 -0.9114,1.5309 -1.8035,1.427 v 0 c -0.8921,-0.104 -1.5309,-0.9115 -1.427,-1.8035 v 0 c 0.104,-0.8921 0.9115,-1.531 1.8035,-1.427 v 0 c 0.8921,0.104 1.531,0.9114 1.427,1.8035 -0.0768,1.1099 -0.0576,2.6538 0.1487,4.2642 0.1252,1.0879 0.3258,2.0739 0.6054,2.8764 0.2472,0.8351 0.1888,0.7984 0.3954,0.793 0.1295,0.1169 0.2427,0.1218 0.9446,-0.003 1.1466,-0.1139 2.3284,-0.4395 3.5531,-1.2257 1.0031,-0.652 1.8383,-1.4398 2.456,-2.5023 0.4025,-0.6441 0.6511,-1.3567 0.7566,-2.3248 0.0819,-1.0568 -0.0126,-2.0541 -0.3135,-3.1441 -0.416,-1.0368 -1.0172,-2.07 -1.7245,-3.0167 -1.063,-1.348 -2.126,-2.1014 -3.1635,-2.444 -0.7128,-0.2928 -0.8761,-0.2656 -1.2658,-0.0378 v 0 c -0.9823,0.3214 -2.0392,-0.2145 -2.3606,-1.1968 v 0 c -0.3213,-0.9824 0.2145,-2.0392 1.1969,-2.3606 v 0 c 0.9823,-0.3213 2.0392,0.2145 2.3605,1.1969 v 0 c 0.3214,0.9823 -0.2144,2.0392 -1.1968,2.3605 -0.1122,0.0259 -0.2545,0.1046 -0.5296,0.3287 v 0 c -0.7597,0.6617 -1.9121,0.5823 -2.5738,-0.1775 v 0 c -0.6617,-0.7598 -0.5823,-1.9121 0.1775,-2.5738 v 0 c 0.7598,-0.6618 1.9121,-0.5823 2.5739,0.1775 v 0 c 0.6617,0.7597 0.5822,1.9121 -0.1776,2.5738 -0.2623,0.2474 -0.4516,0.4876 -0.69,0.842 v 0 c -0.6186,0.8328 -1.7952,1.0064 -2.628,0.3878 v 0 c -0.8328,-0.6186 -1.0064,-1.7952 -0.3878,-2.628 v 0 c 0.6186,-0.8328 1.7952,-1.0064 2.628,-0.3878 v 0 c 0.8328,0.6186 1.0064,1.7952 0.3878,2.628 -1.2682,1.0103 -2.2188,2.4496 -2.6521,3.4933 v 0 c -0.0191,0.3766 -0.3398,0.6664 -0.7164,0.6473 v 0 c -0.3766,-0.0191 -0.6664,-0.3398 -0.6473,-0.7164 -0.3052,-1.4822 0.134,-3.8027 1.0002,-5.6647 0.3712,-0.4661 0.8525,-0.9742 1.3098,-1.3532 0.4437,-0.4019 1.0693,-0.8274 1.6282,-1.085 1.3116,-0.3344 2.8336,-0.1322 3.9662,0.4312 1.372,0.7098 2.9558,2.1086 4.1333,3.8573 0.7665,1.1278 1.4918,2.4987 1.9695,3.8336 0.448,1.387 0.6635,2.8451 0.6443,4.1347 0.0415,1.2513 -0.1914,2.6426 -0.6286,3.795 -0.8639,1.6089 -2.1726,3.0175 -3.4484,3.9776 -1.6748,1.1278 -3.6039,1.7928 -5.0291,2.0324 -1.015,0.1839 -2.3164,0.11 -3.2455,-0.2613 -1.1519,-0.6578 -2.0533,-2.0113 -2.4242,-3.2751 -0.2835,-1.0537 -0.4899,-2.4127 -0.5731,-3.6787 -0.0685,-1.8412 0.071,-3.7209 0.3135,-4.9799 0.1583,-0.7493 0.4711,-1.5417 0.8791,-2.0444 0.7062,-0.5677 1.7288,-0.779 2.3914,-0.5968 0.3772,-0.008 0.8245,0.0652 1.1938,0.167 v 0 c 0.5054,0.1774 0.7714,0.7308 0.5941,1.2363 v 0 c -0.1773,0.5054 -0.7308,0.7714 -1.2363,0.594"
           style="fill:#000000;fill-opacity:1;fill-rule:nonzero;stroke:none"
           id="path3449"
           inkscape:connector-curvature="0" />
        <path
           d="m 252.0706,596.3759 c -0.0655,0.2104 -0.1343,0.4213 -0.2047,0.6243 v 0 c -0.049,0.4532 -0.4561,0.7808 -0.9092,0.7318 v 0 c -0.4532,-0.049 -0.7808,-0.4561 -0.7318,-0.9092 v 0 c 0.049,-0.4532 0.456,-0.7808 0.9092,-0.7318 v 0 c 0.4531,0.049 0.7808,0.4561 0.7318,0.9092 0.0429,0.6375 0.0656,1.269 0.0859,1.9774 v 0 c -0.0825,0.635 -0.6643,1.0829 -1.2993,1.0004 v 0 c -0.635,-0.0825 -1.0829,-0.6643 -1.0004,-1.2993 v 0 c 0.0825,-0.6351 0.6643,-1.0829 1.2993,-1.0004 v 0 c 0.6351,0.0825 1.0829,0.6643 1.0004,1.2993 0.0411,0.6506 0.0501,1.6872 -0.2229,2.689 v 0 c -0.2639,0.7172 -1.0593,1.0846 -1.7765,0.8207 v 0 c -0.7172,-0.264 -1.0846,-1.0594 -0.8207,-1.7766 v 0 c 0.264,-0.7172 1.0594,-1.0846 1.7766,-0.8206 v 0 c 0.7172,0.264 1.0846,1.0594 0.8206,1.7765 -0.4284,1.0655 -1.4266,2.2182 -2.6627,2.7388 -0.836,0.3027 -2.0839,0.4417 -3.1659,0.1942 -2.1317,-0.8525 -4.1644,-3.0805 -5.1802,-5.6359 -0.3678,-0.9708 -0.6358,-2.1276 -0.7265,-3.2315 -0.1107,-1.4348 0.0564,-3.1257 0.5314,-4.7087 0.7936,-2.1091 2.0773,-4.2731 3.3393,-5.771 1.253,-1.3717 2.8511,-2.2867 4.2542,-2.4826 0.7106,-0.1311 1.8078,-0.0449 2.652,0.3006 1.4633,0.904 2.6832,2.3686 3.5896,3.8213 0.7126,1.1586 1.3241,2.4173 1.7927,3.4937 1.1748,2.3995 1.6641,4.1914 1.7717,5.6135 0.0332,0.6839 -0.034,1.5802 -0.2495,2.3258 -0.2655,0.6838 -0.698,1.4258 -1.1496,1.901 -0.6123,0.4777 -1.2714,0.7202 -1.7334,0.7613 -0.4915,-0.007 -1.2814,-0.2943 -1.6988,-0.6493 -0.5699,-0.8802 -0.7513,-1.6186 -0.7884,-2.1381 0.1984,-0.9117 0.5446,-1.4514 0.743,-1.7599 -0.005,-0.0885 0.1847,-0.6001 0.4685,-1.2447 0.3472,-0.862 0.9773,-2.1895 1.8664,-3.3297 0.78,-0.8955 1.8976,-1.7969 3.0921,-2.3223 1.3416,-0.4765 2.952,-0.6541 4.395,-0.4818 1.8875,0.3498 3.8485,1.2618 5.3124,2.3749 2.4487,1.9288 4.0392,4.8706 4.145,8.0235 0.0301,1.3694 -0.2175,2.9925 -0.7266,4.5815 -0.7367,2.0152 -1.9602,4.3455 -3.602,6.2742 -2.0361,2.2796 -4.8856,4.1292 -8.0469,4.8624 -2.6944,0.5585 -5.7281,0.4132 -8.6746,-0.2985 -1.862,-0.4646 -3.7476,-1.1435 -5.4919,-1.901 -2.1868,-0.876 -4.2998,-1.9798 -6.219,-3.2538 -2.9733,-2.0053 -5.7805,-4.6582 -7.6095,-7.6971 -0.8655,-1.5015 -1.5312,-3.2122 -1.9051,-4.9448 -0.3907,-1.76 -0.5476,-3.8204 -0.3659,-5.833 0.3827,-2.7981 1.3649,-5.8015 2.7625,-8.4942 1.8696,-3.2814 4.461,-6.3225 7.0642,-8.6126 2.9649,-2.6702 6.4379,-4.5845 9.9046,-5.0511 1.7005,-0.2682 3.6936,-0.1957 5.5038,0.3389 1.8267,0.6368 3.661,1.776 5.3046,3.2664 1.1028,1.019 2.2351,2.2874 3.2698,3.6658 1.0304,1.376 2.0471,2.9674 2.9626,4.6508 0.459,0.8397 0.9129,1.739 1.3346,2.6473 0.4262,0.9057 0.8424,1.868 1.2254,2.8365 0.376,0.9708 0.7373,1.9954 1.0638,3.0226 v 0 c 0.2748,0.865 -0.2037,1.7891 -1.0688,2.0639 v 0 c -0.865,0.2748 -1.7891,-0.2037 -2.0639,-1.0687 v 0 c -0.2748,-0.8651 0.2037,-1.7892 1.0688,-2.064 v 0 c 0.865,-0.2748 1.7891,0.2037 2.0639,1.0688 0.3341,1.0244 0.649,2.1007 0.9276,3.1763 v 0 c 0.2241,0.894 -0.3189,1.8003 -1.2128,2.0245 v 0 c -0.8939,0.2241 -1.8003,-0.3188 -2.0245,-1.2128 v 0 c -0.2241,-0.8939 0.3189,-1.8003 1.2128,-2.0244 v 0 c 0.8939,-0.2242 1.8003,0.3188 2.0245,1.2127 0.2781,1.0756 0.5325,2.2009 0.7489,3.3216 v 0 c 0.1704,0.9198 -0.4372,1.8037 -1.3571,1.974 v 0 c -0.9199,0.1704 -1.8037,-0.4371 -1.9741,-1.357 v 0 c -0.1703,-0.9199 0.4372,-1.8037 1.3571,-1.9741 v 0 c 0.9199,-0.1704 1.8037,0.4372 1.9741,1.3571 -0.1247,1.1782 -0.2812,2.3828 -0.478,3.5726 v 0 c 0.0449,0.3744 -0.2222,0.7143 -0.5966,0.7591 v 0 c -0.3744,0.0449 -0.7142,-0.2222 -0.7591,-0.5966 -0.4684,-1.0767 -0.9668,-2.1045 -1.4975,-3.1181 -0.1896,-1.0712 -0.4052,-2.0973 -0.6549,-3.1269 -0.2493,-1.0294 -0.5201,-2.0117 -0.8231,-2.9928 -0.3106,-0.9786 -0.638,-1.9071 -0.9959,-2.8304 -0.3508,-0.9256 -0.7137,-1.7984 -1.1056,-2.663 -0.3963,-0.862 -0.7994,-1.6677 -1.23,-2.4614 -0.8638,-1.5842 -1.757,-2.9755 -2.7169,-4.2472 -0.9557,-1.2694 -1.8941,-2.3142 -2.8865,-3.2193 -1.4143,-1.3442 -2.6759,-2.1677 -4.0682,-2.6687 -1.343,-0.4013 -2.6108,-0.4217 -4.0523,-0.1635 -2.8785,0.3812 -5.4478,1.8848 -8.1226,4.3921 -2.4319,2.1476 -4.6616,4.7768 -6.3166,7.7417 -1.2784,2.3854 -2.1075,4.8386 -2.4485,7.2415 -0.1618,1.6603 -0.0436,3.199 0.3078,4.7592 0.271,1.529 0.7078,2.7695 1.4089,4.0641 1.4704,2.7194 3.741,4.9936 6.4682,6.9626 1.7245,1.329 3.5274,2.4344 5.5666,3.4112 1.6576,0.8352 3.338,1.5496 5.0378,2.0768 2.7287,0.6947 5.3266,0.8497 7.7181,0.3647 2.7135,-0.7744 4.8935,-2.4005 6.54,-4.5338 1.2668,-1.7837 2.0661,-3.7599 2.5223,-5.6478 0.4426,-1.38 0.6013,-2.4695 0.5575,-3.5443 -0.0399,-2.4205 -0.9625,-4.025 -2.9596,-5.479 -1.1623,-0.8938 -2.4364,-1.4816 -3.7913,-1.6961 -0.9635,-0.1136 -1.7895,-0.004 -2.6233,0.3318 -0.6588,0.2945 -1.1323,0.7305 -1.648,1.3863 -0.6326,0.7686 -1.0393,1.6569 -1.3805,2.4846 -0.2854,0.6169 -0.4447,1.0191 -0.5988,1.3991 -0.3846,0.6881 -0.4234,0.6864 -0.353,0.598 -0.0426,-0.0692 -0.1084,-0.1127 -0.134,-0.1093 -0.4321,-0.4705 -0.8563,-0.6272 -0.9456,-0.6459 -0.0631,0.0291 -0.2869,0.1168 -0.2681,0.0898 -0.0948,0.0405 -0.0105,-0.19 0.0843,-0.582 0.0967,-0.3139 0.1023,-0.637 0.0598,-1.1791 0.0358,-1.1195 -0.1689,-2.2611 -1.1646,-4.5299 -0.4562,-1.0526 -0.9723,-2.1257 -1.5983,-3.14 -0.8051,-1.2682 -1.6088,-2.2423 -2.424,-2.6884 -0.181,-0.0718 -0.3241,-0.0616 -0.7491,0.0523 -0.8462,0.0976 -1.43,0.4705 -2.3049,1.5258 -1.0323,1.2463 -2.0299,2.9726 -2.652,4.7337 -0.4042,1.1958 -0.5351,2.2687 -0.467,3.4109 0.042,0.8713 0.1898,1.5868 0.462,2.3467 0.721,2.0454 1.9391,3.4356 3.1526,3.8644 0.3701,0.1237 0.7292,0.0727 1.2352,-0.1128 0.6183,-0.1338 0.8356,-0.3867 1.0888,-0.9555 0.2826,-0.5113 0.3742,-1.1566 0.4907,-1.8925 0.21,-0.7754 0.4057,-1.3579 0.5806,-1.9399 -0.0265,-0.2036 -0.0559,-0.3999 -0.0876,-0.604 v 0 c 0.0434,-0.5339 0.5113,-0.9315 1.0452,-0.8881 v 0 c 0.5339,0.0434 0.9315,0.5114 0.8881,1.0453 z"
           style="fill:#000000;fill-opacity:1;fill-rule:nonzero;stroke:none"
           id="path3451"
           inkscape:connector-curvature="0" />
        <path
           d="m 283.5072,599.1981 c -0.0355,0.1359 -0.0608,0.1548 -0.0893,0.0774 v 0 c 0.0718,0.4902 -0.2673,0.9458 -0.7574,1.0176 v 0 c -0.4902,0.0719 -0.9458,-0.2672 -1.0176,-0.7574 v 0 c -0.0718,-0.4901 0.2672,-0.9457 0.7574,-1.0175 v 0 c 0.4901,-0.0719 0.9457,0.2672 1.0176,0.7573 -0.009,-0.1305 -1.2535,-0.715 -1.6781,-0.3914 v 0 c 0.2943,-0.4426 0.8917,-0.5629 1.3343,-0.2686 v 0 c 0.4427,0.2944 0.5629,0.8918 0.2686,1.3344 v 0 c -0.2943,0.4426 -0.8918,0.5629 -1.3344,0.2685 v 0 c -0.4426,-0.2943 -0.5628,-0.8917 -0.2685,-1.3343 -0.0993,0.1399 -0.1565,0.2362 -0.1782,0.2311 v 0 c 0.1359,-0.5512 0.6929,-0.8879 1.2441,-0.752 v 0 c 0.5512,0.1359 0.8879,0.6929 0.752,1.2441 v 0 c -0.1359,0.5512 -0.6928,0.8879 -1.2441,0.752 v 0 c -0.5512,-0.1359 -0.8879,-0.6929 -0.752,-1.2441 -0.0371,-0.0287 -0.0695,-0.0944 -0.0937,-0.2304 -0.0468,-0.2798 -0.0848,-0.7087 -0.1228,-1.3095 -0.0325,-0.6031 -0.0628,-1.4796 -0.045,-2.6087 0.0794,-1.2007 0.2036,-2.6403 0.3757,-4.2256 0.2277,-1.6863 0.5037,-3.5209 0.7625,-5.1485 0.3596,-1.8814 0.6928,-3.4758 0.9745,-4.4896 0.1139,-0.5184 0.2407,-0.9675 0.3759,-1.2655 0.0467,-0.0952 0.1621,-0.2849 0.2718,-0.4185 0.1779,-0.1697 0.8897,-0.4587 1.4098,-0.3996 0.3961,0.1991 0.7557,0.5996 0.8334,0.7586 0.0498,0.1278 0.0975,0.2991 0.1158,0.3991 0.1198,0.94 0.1065,2.7162 0.236,4.8371 0.2055,2.3629 0.6395,5.1887 1.4237,7.6319 1.1714,3.2434 2.92,5.654 5.0908,7.1326 0.5444,0.3702 1.0804,0.6217 1.7434,0.854 0.4397,0.1533 0.8347,0.2565 1.2931,0.3535 0.6756,0.1956 1.3267,0.3295 2.0279,0.456 0.6989,0.1532 1.4066,0.2901 2.0936,0.4519 0.4574,0.1091 0.9424,0.2369 1.3808,0.3848 v 0 c 0.7948,0.1883 1.2864,0.9852 1.0982,1.78 v 0 c -0.1883,0.7948 -0.9852,1.2864 -1.78,1.0982 v 0 c -0.7948,-0.1883 -1.2864,-0.9852 -1.0982,-1.78 v 0 c 0.1883,-0.7947 0.9852,-1.2864 1.78,-1.0982 0.4391,0.1382 0.9269,0.325 1.3352,0.5361 v 0 c 0.6992,0.3047 1.0189,1.1185 0.7143,1.8176 v 0 c -0.3047,0.6992 -1.1185,1.019 -1.8176,0.7143 v 0 c -0.6992,-0.3046 -1.019,-1.1184 -0.7143,-1.8176 v 0 c 0.3046,-0.6991 1.1184,-1.0189 1.8176,-0.7143 0.2042,0.1046 0.4416,0.2405 0.6342,0.3704 v 0 c 0.6354,0.3791 0.8432,1.2015 0.4641,1.837 v 0 c -0.3791,0.6354 -1.2015,0.8432 -1.8369,0.4641 v 0 c -0.6354,-0.3791 -0.8432,-1.2015 -0.4642,-1.8369 v 0 c 0.3791,-0.6354 1.2015,-0.8432 1.837,-0.4642 0.0795,0.3033 0.1667,0.6306 0.1984,0.9387 v 0 c 0.2917,0.2389 0.3345,0.669 0.0956,0.9608 v 0 c -0.2389,0.2917 -0.6691,0.3345 -0.9608,0.0956 -0.2532,0.0748 -0.4679,0.1923 -0.7061,0.3059 -0.1251,-0.0595 -0.221,-0.0925 -0.3646,-0.1395 -0.2873,-0.092 -0.5526,-0.1389 -0.913,-0.1896 -0.3625,-0.0418 -0.7246,-0.0586 -1.151,-0.0746 -0.6382,-0.0256 -1.3379,-0.032 -2.0931,-0.0622 -0.7519,-0.0564 -1.6006,-0.1455 -2.4354,-0.2967 -0.5486,-0.1343 -1.1652,-0.3173 -1.7308,-0.5297 -0.8461,-0.317 -1.8054,-0.7944 -2.6398,-1.3682 -2.5917,-2.1085 -4.7504,-5.4595 -5.9224,-9.2307 -0.7497,-2.7701 -1.1162,-5.9207 -1.2164,-8.4362 -0.0464,-2.2447 0.0538,-4.0482 0.0499,-4.6329 0.0184,0.1514 0.0424,0.2409 0.0648,0.3077 0.0537,0.1056 0.3856,0.4734 0.7521,0.6634 0.4909,0.0501 1.1715,-0.224 1.3116,-0.3512 0.0815,-0.1014 0.1622,-0.2312 0.173,-0.2453 -0.0106,0.031 -0.0552,0.2586 -0.1338,0.7158 -0.0985,0.9759 -0.2514,2.5421 -0.4391,4.4468 -0.2348,1.6293 -0.4821,3.4319 -0.6809,5.0807 -0.2001,1.5354 -0.3516,2.9103 -0.4603,4.056 -0.1274,1.0516 -0.2094,1.8781 -0.2954,2.5534 -0.143,0.6805 -0.2874,1.1687 -0.4198,1.4695 -0.067,0.1544 -0.137,0.2947 -0.2029,0.3835 -0.0365,0.0549 -0.1062,0.1888 -0.216,0.3446 -0.4338,0.3375 -1.6859,-0.2545 -1.699,-0.4146 -0.0388,-0.1473 -0.059,-0.3167 -0.0692,-0.4942 v 0 c 0.0431,-0.5339 0.5108,-0.9318 1.0447,-0.8887 v 0 c 0.5339,0.0431 0.9318,0.5108 0.8887,1.0447"
           style="fill:#000000;fill-opacity:1;fill-rule:nonzero;stroke:none"
           id="path3453"
           inkscape:connector-curvature="0" />
        <path
           d="m 311.5999,598.283 c -0.1512,-0.1146 -0.2663,0.2105 -0.7523,0.7018 v 0 c -0.2971,0.3368 -0.811,0.369 -1.1479,0.0719 v 0 c -0.3368,-0.2971 -0.369,-0.811 -0.0719,-1.1479 v 0 c 0.2971,-0.3368 0.811,-0.369 1.1478,-0.0719 v 0 c 0.3369,0.2971 0.3691,0.811 0.072,1.1479 -0.7779,0.5487 -1.494,0.7273 -2.0278,0.8865 v 0 c -0.5313,0.102 -1.0447,-0.246 -1.1468,-0.7773 v 0 c -0.102,-0.5313 0.246,-1.0447 0.7773,-1.1467 v 0 c 0.5313,-0.102 1.0447,0.246 1.1467,0.7773 v 0 c 0.1021,0.5313 -0.2459,1.0447 -0.7772,1.1467 -0.3444,0.1023 -0.5536,0.1897 -0.7277,0.3247 v 0 c -0.5449,0.2645 -1.2011,0.0373 -1.4657,-0.5077 v 0 c -0.2645,-0.5449 -0.0373,-1.2011 0.5077,-1.4657 v 0 c 0.5449,-0.2646 1.2011,-0.0373 1.4657,0.5076 v 0 c 0.2646,0.545 0.0373,1.2012 -0.5077,1.4658 0.1061,-0.0264 -0.0668,0.2516 -0.3965,0.5734 -0.4988,0.3334 -1.2537,0.6113 -1.9449,0.5694 -1.1165,-0.3016 -2.1482,-1.119 -2.909,-2.0837 -0.7435,-0.9622 -1.4387,-2.3032 -1.7916,-3.6386 -0.5003,-2.5578 0.1311,-5.7995 1.3997,-7.6321 0.4922,-0.6922 1.323,-1.353 2.1342,-1.6142 1.4848,-0.1432 3.0735,0.4867 4.2138,1.3732 0.7629,0.7468 1.4045,1.5829 1.8973,2.2961 1.1958,1.5927 1.9665,3.1142 2.3586,4.4002 0.1698,0.5006 0.3041,1.0282 0.3881,1.4987 0.0786,0.4401 0.1354,0.8667 0.1709,1.1668 0.0353,0.1847 0.0616,0.3512 0.0813,0.4538 0.004,0.0348 0.005,0.1065 0.005,0.1621 -0.008,0.0927 -0.1936,0.5976 -1.4324,1.2975 -1.1784,-0.5907 -1.4211,-1.0894 -1.4463,-1.1758 -0.016,-0.0572 -0.0317,-0.1306 -0.0409,-0.1658 -0.0837,-0.159 -0.1867,-0.9261 -0.138,-1.8478 0.1087,-1.5579 0.7116,-4.2256 2.1421,-6.0566 0.6082,-0.6879 1.5787,-1.3856 2.5029,-1.7124 0.8543,-0.169 1.7025,-0.1598 2.3722,-0.0387 0.65,0.1608 1.4196,0.4672 2.0475,0.8235 v 0 c 0.8725,0.4563 1.2099,1.5334 0.7536,2.4058 v 0 c -0.4562,0.8725 -1.5334,1.2099 -2.4058,0.7536 v 0 c -0.8725,-0.4562 -1.2099,-1.5334 -0.7536,-2.4058 v 0 c 0.4562,-0.8724 1.5334,-1.2098 2.4058,-0.7536 0.6161,0.3535 1.3041,0.8546 1.8826,1.3851 v 0 c 0.7132,0.6185 0.7899,1.6981 0.1714,2.4113 v 0 c -0.6185,0.7132 -1.6981,0.79 -2.4113,0.1714 v 0 c -0.7132,-0.6185 -0.79,-1.6981 -0.1715,-2.4113 v 0 c 0.6186,-0.7132 1.6981,-0.7899 2.4114,-0.1714 0.773,0.8666 1.5534,1.9931 2.1452,3.1983 v 0 c 0.3754,0.5973 0.1955,1.3858 -0.4018,1.7612 v 0 c -0.5972,0.3754 -1.3858,0.1955 -1.7612,-0.4018 v 0 c -0.3754,-0.5973 -0.1955,-1.3858 0.4018,-1.7612 v 0 c 0.5973,-0.3754 1.3858,-0.1955 1.7612,0.4018 0.2944,0.8428 0.5548,1.786 0.7253,2.7457 v 0 c 0.1398,0.3502 -0.0309,0.7474 -0.3811,0.8871 v 0 c -0.3502,0.1398 -0.7473,-0.0309 -0.8871,-0.3811 -0.5071,-0.7387 -1.0399,-1.3439 -1.62,-1.8922 -0.7199,-0.8818 -1.434,-1.4885 -2.2218,-1.9747 -0.4629,-0.3726 -0.8454,-0.6049 -1.2953,-0.8088 -0.4381,-0.2011 -0.7298,-0.2759 -1.103,-0.3126 -0.3521,-0.0757 -0.4874,-0.0801 -0.7458,-0.0197 -0.1742,0.0313 -0.3304,0.1454 -0.6649,0.5266 -1.0085,0.946 -1.4558,2.7005 -1.6651,3.9873 -0.1235,0.6594 -0.1335,0.9688 -0.1625,1.0239 0.0188,0.15 0.006,0.0973 -0.007,0.0537 -0.0224,-0.0727 -0.2626,-0.5648 -1.4387,-1.1556 -1.2366,0.7 -1.42,1.1979 -1.4259,1.2722 6e-4,0.0471 0.003,0.0989 0.008,0.1069 0.0222,-0.002 0.0427,-0.0414 0.0546,-0.1614 -0.0121,-0.252 -0.0397,-0.5915 -0.0871,-0.9515 -0.0596,-0.3501 -0.1406,-0.6756 -0.28,-1.0855 -0.3831,-1.0294 -0.9905,-2.0801 -2.1618,-3.4939 -0.5206,-0.6801 -1.0219,-1.2835 -1.5796,-1.7732 -0.699,-0.6218 -1.2508,-0.9086 -1.7109,-0.8178 -0.0885,-0.0356 -0.1669,10e-4 -0.4861,0.3883 -0.9808,1.1855 -1.4953,3.5374 -1.1165,5.4944 0.2177,1.0178 0.6685,1.9496 1.2496,2.7469 0.5636,0.7948 1.0349,1.2229 1.4118,1.3094 -0.0546,-0.004 -0.0673,-0.0482 0.1217,-0.2097 0.0821,-0.0351 0.2881,-0.2816 0.6408,-0.5612 0.6498,-0.303 1.1428,-0.3902 1.5541,-0.4262 0.5824,-0.0552 1.0505,-0.0567 1.3656,-0.1993 0.0349,-0.1598 0.3678,-0.9157 1.2343,-1.3261 v 0 c 0.5144,-0.1494 1.0525,0.1464 1.2019,0.6608 v 0 c 0.1495,0.5144 -0.1464,1.0525 -0.6607,1.2019 z"
           style="fill:#000000;fill-opacity:1;fill-rule:nonzero;stroke:none"
           id="path3455"
           inkscape:connector-curvature="0" />
        <path
           d="m 329.4359,599.4289 c -0.0751,0.2803 -0.1564,0.549 -0.2413,0.7805 v 0 c -0.0694,0.4496 -0.4902,0.7579 -0.9399,0.6884 v 0 c -0.4496,-0.0694 -0.7579,-0.4902 -0.6884,-0.9398 v 0 c 0.0694,-0.4497 0.4902,-0.7579 0.9398,-0.6885 v 0 c 0.4497,0.0694 0.7579,0.4902 0.6885,0.9399 -0.0365,0.8692 -0.2277,1.6571 -0.5617,2.1865 v 0 c -0.4337,0.4426 -1.1442,0.4498 -1.5868,0.0161 v 0 c -0.4426,-0.4338 -0.4498,-1.1442 -0.0161,-1.5869 v 0 c 0.4337,-0.4426 1.1442,-0.4498 1.5868,-0.0161 v 0 c 0.4427,0.4338 0.4499,1.1442 0.0161,1.5869 0.0421,0.0661 -0.168,0.3679 -0.382,0.5815 v 0 c -0.6228,0.3636 -1.4224,0.1535 -1.786,-0.4692 v 0 c -0.3636,-0.6228 -0.1535,-1.4224 0.4692,-1.786 v 0 c 0.6228,-0.3636 1.4224,-0.1535 1.786,0.4692 v 0 c 0.3636,0.6228 0.1536,1.4224 -0.4692,1.786 -0.2804,0.208 -1.0613,0.3435 -1.5508,0.2412 -0.9711,-0.7654 -1.5406,-1.9059 -1.7894,-3.1402 -0.1477,-0.7851 -0.215,-1.9117 -0.0881,-3.0042 0.2136,-1.2013 0.653,-2.5115 1.2101,-3.5643 0.7292,-1.1715 1.7914,-2.182 2.8007,-2.7422 1.0419,-0.5353 2.4704,-0.8028 3.6253,-0.6523 2.5832,0.8035 4.789,3.3093 5.9286,5.6276 0.5415,1.2219 0.8933,2.4341 1.0619,3.3038 0.1208,0.8447 0.1215,1.3167 0.1627,1.348 -0.0836,-0.3158 -0.5352,-0.9136 -0.9706,-1.1891 -0.4601,-0.0905 -1.0996,-0.003 -1.1589,10e-4 0.3987,-0.1121 0.4355,-0.1032 0.8132,-0.5929 1.472,-2.0462 3.2465,-7.7162 3.5934,-13.0028 0.2107,-2.829 0.0516,-5.5238 -0.5824,-7.6109 -0.7566,-1.9208 -1.5678,-2.7934 -2.7264,-2.928 -0.6787,-0.1224 -1.1818,-0.02 -2.0194,0.4637 -0.6029,0.3431 -1.2342,0.8726 -1.9778,1.6821 -0.8652,0.8568 -1.6904,1.8574 -2.4422,2.9579 -1.1145,1.6653 -1.9074,3.4221 -2.4217,4.9602 v 0 c -0.1976,0.7154 -0.9378,1.1352 -1.6532,0.9375 v 0 c -0.7154,-0.1976 -1.1352,-0.9377 -0.9376,-1.6532 v 0 c 0.1976,-0.7154 0.9378,-1.1352 1.6532,-0.9375 v 0 c 0.7155,0.1976 1.1352,0.9377 0.9376,1.6532 -0.1782,0.5211 -0.2928,0.9342 -0.383,1.3863 v 0 c -0.1005,0.6933 -0.744,1.1739 -1.4374,1.0734 v 0 c -0.6933,-0.1006 -1.1738,-0.7441 -1.0733,-1.4374 v 0 c 0.1005,-0.6933 0.744,-1.1739 1.4373,-1.0734 v 0 c 0.6934,0.1005 1.1739,0.7441 1.0734,1.4374 -0.1286,0.4484 -0.2201,0.8627 -0.2931,1.3536 v 0 c -0.0137,0.5975 -0.5091,1.0708 -1.1066,1.0572 v 0 c -0.5974,-0.0137 -1.0707,-0.5091 -1.0571,-1.1066 v 0 c 0.0136,-0.5974 0.509,-1.0708 1.1065,-1.0571 v 0 c 0.5975,0.0136 1.0708,0.509 1.0572,1.1065 -0.1389,0.2456 -0.272,0.4956 -0.4012,0.7698 v 0 c 0.005,0.377 -0.2957,0.6871 -0.6727,0.6926 v 0 c -0.377,0.005 -0.6871,-0.2957 -0.6926,-0.6727 -0.1372,-0.2821 -0.2702,-0.5657 -0.3972,-0.8391 -0.0493,-0.548 -0.0704,-1.1165 -0.0539,-1.6683 0.0548,-0.548 0.1596,-1.152 0.3077,-1.7549 0.3899,-1.7355 1.1701,-3.9206 2.2813,-5.9413 0.8171,-1.3019 1.7812,-2.5712 2.7203,-3.5949 0.9278,-0.9298 1.985,-1.7394 2.9464,-2.2419 1.4164,-0.5966 2.977,-0.7151 4.1458,-0.4133 1.9988,0.568 3.7051,2.4736 4.5911,4.8718 0.9423,2.4188 1.366,5.6034 1.3591,8.6799 -0.27,5.7527 -2.1217,12.1454 -3.9097,15.0156 -0.789,0.9857 -1.7509,1.6408 -2.4332,1.869 0.0237,0.008 -0.828,0.137 -1.4521,-0.014 -0.5919,-0.3328 -1.1518,-1.0895 -1.2601,-1.4399 -0.096,-0.7175 -0.0538,-1.1374 -0.0935,-1.6125 -0.1172,-0.564 -0.3625,-1.4057 -0.7994,-2.3592 -0.8911,-1.8386 -2.2166,-3.4184 -3.5021,-3.6413 -0.3561,-0.0739 -0.6722,-0.0123 -1.2306,0.3055 -0.591,0.293 -0.9849,0.6596 -1.4183,1.3908 -0.3997,0.6911 -0.686,1.491 -0.8515,2.3471 -0.121,0.7065 -0.1029,1.32 -0.0127,1.938 0.0598,0.9234 0.1332,1.2294 0.0765,1.1667 -0.6386,-0.2277 -1.2441,-0.1174 -1.3564,-0.008 -0.0455,0.1153 -0.0945,0.2457 -0.0174,0.2384 0.2776,-0.1145 0.4443,-0.3057 0.6497,-1.0028 -0.0158,-0.216 -0.0376,-0.4429 -0.0618,-0.7085 v 0 c 0.0495,-0.5333 0.5221,-0.9255 1.0554,-0.8759 v 0 c 0.5334,0.0495 0.9255,0.5221 0.876,1.0554"
           style="fill:#000000;fill-opacity:1;fill-rule:nonzero;stroke:none"
           id="path3457"
           inkscape:connector-curvature="0" />
        <path
           d="m 353.365,601.129 c 0.1825,0.0336 0.6566,-0.0676 0.8552,-0.1893 v 0 c -0.4139,0.3734 -1.0521,0.3405 -1.4255,-0.0734 v 0 c -0.3734,-0.4139 -0.3406,-1.0522 0.0733,-1.4256 v 0 c 0.414,-0.3734 1.0522,-0.3405 1.4256,0.0734 v 0 c 0.3734,0.4139 0.3406,1.0522 -0.0734,1.4256 0.1406,-0.1383 0.2857,-0.3848 0.322,-0.4569 v 0 c -0.1405,0.562 -0.7099,0.9037 -1.2719,0.7632 v 0 c -0.562,-0.1405 -0.9037,-0.71 -0.7632,-1.272 v 0 c 0.1405,-0.562 0.71,-0.9037 1.272,-0.7632 v 0 c 0.5619,0.1405 0.9036,0.71 0.7631,1.272 0.0426,-0.1025 0.074,-0.1931 0.1028,-0.1626 v 0 c 0.0361,0.6219 -0.4387,1.1554 -1.0606,1.1916 v 0 c -0.6219,0.0361 -1.1553,-0.4387 -1.1915,-1.0606 v 0 c -0.0362,-0.6219 0.4387,-1.1553 1.0605,-1.1915 v 0 c 0.6219,-0.0362 1.1554,0.4387 1.1916,1.0605 0.0558,0.0762 0.1336,0.2469 0.2116,0.482 0.1637,0.6096 0.1951,1.8296 -0.3727,2.8459 -1.2655,0.9068 -2.6306,1.1956 -3.7323,1.2045 -2.3538,-0.3487 -4.8499,-2.2492 -5.7326,-4.7982 -0.3796,-1.1524 -0.5291,-2.5696 -0.3839,-3.8879 0.167,-1.409 0.6762,-3.0435 1.3972,-4.2762 1.2493,-1.6902 3.3939,-2.8026 5.292,-2.6771 0.7359,0.1026 1.708,0.4674 2.4325,0.9568 1.2599,1.0739 2.3352,2.5571 3.103,3.8805 0.9799,1.7303 1.5901,3.4873 1.83,4.6577 0.1979,1.0275 0.2091,1.6617 0.2833,1.5714 -0.0798,-0.3362 -0.3795,-0.8562 -0.7212,-1.1821 -0.4764,-0.2347 -1.4581,-0.2823 -1.7455,-0.2 -0.284,0.1624 -0.4393,0.2782 -0.3084,0.0979 0.2947,-0.3578 0.6047,-0.7915 0.9682,-1.3719 0.3382,-0.5138 0.6281,-1.0256 0.9697,-1.7509 0.3446,-0.725 0.6899,-1.5606 1.0644,-2.6186 0.5577,-1.5421 1.1132,-3.3529 1.5904,-5.23 0.7537,-2.6687 1.2705,-5.2376 1.3833,-7.6302 0.0963,-2.7064 -0.2902,-4.8223 -1.2839,-6.4538 -0.9358,-1.2779 -2.0393,-2.0039 -3.4336,-2.3601 v 0 c -0.9626,-0.3078 -1.4934,-1.3376 -1.1856,-2.3002 v 0 c 0.3078,-0.9626 1.3377,-1.4934 2.3003,-1.1856 v 0 c 0.9626,0.3078 1.4934,1.3376 1.1856,2.3002 v 0 c -0.3078,0.9626 -1.3377,1.4934 -2.3003,1.1856 -0.9409,-0.3421 -1.5797,-0.4199 -2.4147,-0.2258 v 0 c -0.9991,0.1993 -1.9707,-0.449 -2.17,-1.4482 v 0 c -0.1993,-0.9991 0.4491,-1.9706 1.4482,-2.1699 v 0 c 0.9991,-0.1993 1.9707,0.4491 2.17,1.4482 v 0 c 0.1993,0.9991 -0.4491,1.9706 -1.4482,2.1699 -1.0302,0.1737 -2.0644,0.7723 -3.1059,1.7908 v 0 c -0.6055,0.6494 -1.6229,0.685 -2.2723,0.0795 v 0 c -0.6495,-0.6055 -0.6851,-1.6229 -0.0795,-2.2723 v 0 c 0.6055,-0.6494 1.6228,-0.685 2.2723,-0.0795 v 0 c 0.6494,0.6055 0.685,1.6228 0.0795,2.2723 -2.0969,1.7574 -3.4265,4.2706 -2.8555,6.7283 v 0 c 0.1198,0.3575 -0.0728,0.7444 -0.4303,0.8643 v 0 c -0.3575,0.1198 -0.7445,-0.0728 -0.8643,-0.4303 -1.256,-2.9918 -0.166,-6.7573 1.7983,-9.3552 1.2146,-1.4012 2.9433,-2.6286 4.6166,-3.1881 1.522,-0.2802 3.1464,-0.1003 4.4282,0.3497 1.8448,0.6786 3.7736,2.1655 4.9996,3.9953 1.4564,2.1783 2.2262,5.2083 2.3031,8.3283 0.0119,2.7342 -0.4308,5.7589 -1.0803,8.6129 -0.4904,1.973 -1.0914,3.9744 -1.6784,5.6376 -0.4344,1.1606 -0.8842,2.1923 -1.3033,3.0278 -0.4455,0.8562 -0.9172,1.6122 -1.3373,2.1914 -0.4371,0.6287 -0.9322,1.2516 -1.3213,1.6699 -0.2322,0.2576 -0.6738,0.6439 -1.1603,0.8938 -0.3886,0.1261 -1.4508,0.0765 -1.991,-0.2024 -0.4045,-0.3693 -0.7504,-0.9756 -0.8193,-1.2221 -0.0363,-0.7593 0.0753,-1.1732 0.052,-1.7347 -0.1924,-0.7653 -0.6537,-2.0116 -1.5324,-3.4539 -0.6797,-1.172 -1.4166,-2.2069 -2.178,-2.8225 -0.2213,-0.1451 -0.3568,-0.1808 -0.6885,-0.1948 -0.7834,-0.2175 -1.2771,0.0319 -1.9764,1.0225 -0.5204,0.7098 -0.8877,1.6801 -1.0784,2.747 -0.1545,0.9495 -0.1048,1.6718 0.1392,2.4647 0.5276,1.573 1.6873,2.2785 3.0136,2.2512 0.6655,0.0929 1.153,0.0816 1.3834,-0.0591 -0.1728,0.4129 -0.1406,0.2578 -0.0776,-0.2095 0.0329,-0.1903 0.0557,-0.409 0.0956,-0.6057 0.0208,-0.1062 0.0541,-0.3041 0.114,-0.4766 0.0452,-0.1079 0.2031,-0.3804 0.3722,-0.5438 0.2049,-0.1275 0.7011,-0.2341 0.9112,-0.1944 v 0 c 0.5226,0.1175 0.8511,0.6363 0.7336,1.1589 v 0 c -0.1174,0.5226 -0.6363,0.8511 -1.1589,0.7336 z"
           style="fill:#000000;fill-opacity:1;fill-rule:nonzero;stroke:none"
           id="path3459"
           inkscape:connector-curvature="0" />
        <path
           d="m 368.3229,601.2517 c -0.1169,0.1622 -0.2205,0.312 -0.3269,0.463 v 0 c -0.1529,0.4274 -0.6235,0.65 -1.0509,0.497 v 0 c -0.4275,-0.153 -0.65,-0.6235 -0.4971,-1.051 v 0 c 0.153,-0.4275 0.6236,-0.65 1.051,-0.497 v 0 c 0.4275,0.153 0.65,0.6235 0.497,1.051 0.0118,0.1941 0.0106,0.4127 -0.002,0.6159 v 0 c -0.2543,0.5221 -0.8838,0.7391 -1.4058,0.4847 v 0 c -0.5221,-0.2543 -0.7391,-0.8838 -0.4848,-1.4058 v 0 c 0.2544,-0.5221 0.8838,-0.7391 1.4059,-0.4848 v 0 c 0.522,0.2544 0.7391,0.8838 0.4847,1.4059 -0.0301,0.1723 -0.1477,0.4591 -0.283,0.6831 v 0 c -0.4446,0.4787 -1.1931,0.5065 -1.6719,0.0619 v 0 c -0.4788,-0.4446 -0.5065,-1.1932 -0.062,-1.672 v 0 c 0.4446,-0.4788 1.1932,-0.5065 1.672,-0.0619 v 0 c 0.4788,0.4446 0.5065,1.1932 0.0619,1.672 -0.1817,0.2388 -0.7399,0.5589 -1.1565,0.6329 0.3811,0.0876 -0.2076,0.3576 -0.7556,0.436 -1.5995,-1.3786 -1.8396,-2.3707 -1.9579,-3.3363 -0.1875,-1.1302 -0.2954,-2.8049 -0.1979,-4.361 0.0811,-0.9901 0.2615,-2.0374 0.5137,-2.8849 0.3886,-1.0121 1.0574,-1.9692 1.7172,-2.5178 0.7223,-0.5276 1.8497,-0.8841 2.6859,-0.9034 1.5986,0.0669 3.4469,0.9526 4.8974,2.1086 1.1374,1.0468 2.3609,2.3601 3.3203,3.6074 1.1591,1.418 2.0133,2.8683 2.4382,3.8838 0.2822,0.7685 0.3638,1.0929 0.4272,1.0404 -0.2034,-0.3858 -0.4714,-0.6276 -0.6055,-0.7287 -0.169,-0.0424 -0.7592,-0.0439 -0.914,-0.0298 -0.2032,0.1852 0.3516,-1.4519 1.0897,-3.3187 0.7464,-1.6987 1.7345,-3.4272 2.8016,-4.4936 0.3883,-0.2904 0.8121,-0.5375 1.1393,-0.6732 0.1659,-0.068 0.3926,-0.1507 0.5598,-0.197 0.1628,-0.0479 0.3883,-0.1035 0.5527,-0.1322 v 0 c 1.0845,-0.2412 2.1591,0.4425 2.4003,1.527 v 0 c 0.2411,1.0845 -0.4426,2.1592 -1.5271,2.4003 v 0 c -1.0845,0.2411 -2.1592,-0.4426 -2.4003,-1.5271 v 0 c -0.2411,-1.0845 0.4426,-2.1591 1.5271,-2.4002 0.5062,0.0872 1.0729,0.2421 1.5007,0.4445 v 0 c 0.7974,0.0274 1.4216,0.696 1.3942,1.4933 v 0 c -0.0274,0.7974 -0.696,1.4216 -1.4933,1.3942 v 0 c -0.7974,-0.0274 -1.4216,-0.696 -1.3942,-1.4933 v 0 c 0.0274,-0.7974 0.696,-1.4216 1.4933,-1.3942 0.1398,0.0323 0.2936,0.069 0.4323,0.107 v 0 c 0.7502,0.057 1.3122,0.7115 1.2551,1.4618 v 0 c -0.057,0.7502 -0.7115,1.3122 -1.4618,1.2551 v 0 c -0.7502,-0.057 -1.3122,-0.7115 -1.2551,-1.4618 v 0 c 0.057,-0.7502 0.7115,-1.3122 1.4618,-1.2551 0.124,0.2369 0.2501,0.4762 0.3704,0.7162 v 0 c 0.3751,0.0383 0.6481,0.3735 0.6098,0.7486 v 0 c -0.0383,0.3751 -0.3734,0.6481 -0.7485,0.6098 -0.1588,0.2115 -0.3018,0.4256 -0.4405,0.6422 -0.1198,0.0183 -0.218,0.0397 -0.3218,0.0638 -0.3064,0.1771 -0.4058,0.3672 -0.5268,0.5946 -0.0479,0.0185 -0.0283,0.0215 -0.0651,0.0448 -0.039,0.0266 -0.0123,0.0294 -0.0461,0.0625 -0.068,0.0646 -0.0336,0.0785 -0.1165,0.1946 -0.5008,0.418 -1.1142,1.502 -1.7769,2.9757 -0.7994,1.7395 -1.7368,3.9011 -3.0224,4.9991 -1.0165,0.4519 -2.0144,0.443 -2.5429,0.2549 -0.4936,-0.2469 -1.0729,-0.7729 -1.3257,-1.1494 -0.316,-0.9227 -0.2956,-1.297 -0.3392,-1.6271 -0.2357,-0.5654 -0.8334,-1.5961 -1.8157,-2.7881 -0.9465,-0.9905 -2.0623,-1.9731 -3.1668,-2.7795 -1.0988,-0.9389 -1.8098,-1.3441 -2.4137,-1.3044 -0.2661,-0.0333 -0.1512,-0.0876 -0.3072,0.0596 -0.2185,0.1261 -0.2939,0.2166 -0.4966,0.7567 -0.1997,0.5082 -0.3525,1.1672 -0.461,1.9673 -0.1597,1.2822 -0.1408,2.5985 -0.0411,3.645 0.04,0.8953 0.0645,1.2729 0.0674,1.2485 -1.3235,-0.5944 -1.4552,-0.4776 -1.3148,-0.4566 0.4402,-0.08 0.0507,0.1502 0.0192,0.2271 0.015,0.0621 0.0293,0.1156 0.1129,0.0345 0.1228,-0.0757 0.2298,-0.1461 0.3579,-0.2774 0.0102,-0.1744 0.0314,-0.3864 0.07,-0.6193 v 0 c 0.1961,-0.4985 0.7592,-0.7435 1.2576,-0.5473 v 0 c 0.4985,0.1961 0.7435,0.7592 0.5473,1.2576 z"
           style="fill:#000000;fill-opacity:1;fill-rule:nonzero;stroke:none"
           id="path3461"
           inkscape:connector-curvature="0" />
        <path
           d="m 390.2229,602.0697 c -0.1584,-0.0161 -0.0609,-0.0176 -0.0885,0.0359 v 0 c -0.4771,0.2947 -1.1027,0.1469 -1.3974,-0.3302 v 0 c -0.2948,-0.4771 -0.1469,-1.1028 0.3301,-1.3975 v 0 c 0.4771,-0.2947 1.1028,-0.1469 1.3975,0.3302 v 0 c 0.2947,0.4771 0.1469,1.1028 -0.3302,1.3975 -0.0359,0.0197 0.0228,-0.0168 -0.0178,0.1214 v 0 c -0.2463,0.5316 -0.8769,0.7629 -1.4085,0.5166 v 0 c -0.5316,-0.2463 -0.7629,-0.8769 -0.5166,-1.4085 v 0 c 0.2463,-0.5316 0.8769,-0.7629 1.4085,-0.5166 v 0 c 0.5316,0.2463 0.7629,0.8769 0.5166,1.4085 -0.119,0.284 -0.1206,0.7178 -0.095,1.2933 v 0 c -0.006,0.6361 -0.5274,1.1465 -1.1636,1.14 v 0 c -0.6361,-0.006 -1.1465,-0.5274 -1.14,-1.1635 v 0 c 0.006,-0.6361 0.5274,-1.1465 1.1635,-1.14 v 0 c 0.6361,0.006 1.1465,0.5274 1.1401,1.1635 0.044,0.5753 0.1215,1.0377 0.2371,1.3264 0.0224,-0.0128 0.0225,-0.0846 0.0217,-0.1528 -0.0172,-0.0514 -0.1454,-0.2431 -0.249,-0.3639 -0.1563,-0.1269 -0.6934,-0.3375 -1.0149,-0.3634 -0.4311,-0.0199 -1.048,0.2378 -1.2657,0.298 -0.071,0.107 -0.1581,0.2701 -0.1594,0.2664 0.152,-0.5473 0.4273,-2.3719 0.6691,-4.5057 0.2155,-1.226 0.3915,-2.5011 0.5209,-3.636 0.0501,-0.7358 0.0773,-1.4666 0.1337,-2.0664 0.0112,-0.3448 0.0399,-0.8042 0.1134,-1.1758 0.0472,-0.2087 0.1864,-0.5956 0.3578,-0.8761 0.2569,-0.3103 1.1029,-0.7595 1.6183,-0.7799 1.3826,0.7274 1.9344,1.3786 2.4469,2.042 0.7196,0.9582 1.6218,2.3091 2.5037,3.5765 2.2607,2.95 4.0867,5.0632 5.1182,5.4102 0.3099,0.0768 -0.1467,0.0175 -0.4401,-0.0527 -0.1772,0.3286 -0.1543,-0.9993 -0.0801,-3.0938 0.0277,-0.9924 0.0381,-1.9979 0.0435,-2.9043 -0.0134,-0.1008 -0.0209,-0.3536 -0.0257,-0.5946 0.0106,-0.2411 0.0256,-0.5069 0.0455,-0.7417 0.0143,-0.238 0.0422,-0.5324 0.0766,-0.7708 0.0383,-0.2466 0.1253,-0.622 0.2177,-0.8981 0.1436,-0.2879 0.4992,-0.8373 0.8327,-1.1645 v 0 c 0.9739,-0.9602 2.5418,-0.9492 3.502,0.0247 v 0 c 0.9603,0.9739 0.9492,2.5419 -0.0247,3.5021 v 0 c -0.9739,0.9602 -2.5418,0.9491 -3.502,-0.0248 v 0 c -0.9603,-0.9739 -0.9492,-2.5418 0.0247,-3.502 0.4015,-0.3238 1.3857,-0.7307 1.9593,-0.7666 v 0 c 1.3432,-0.006 2.437,1.0778 2.4431,2.4211 v 0 c 0.006,1.3432 -1.0778,2.437 -2.421,2.4431 v 0 c -1.3432,0.006 -2.4371,-1.0778 -2.4432,-2.4211 v 0 c -0.006,-1.3432 1.0779,-2.437 2.4211,-2.4431 0.8535,0.3319 1.6506,1.0173 1.9537,1.616 v 0 c 0.6922,0.6648 0.7145,1.7649 0.0497,2.4571 v 0 c -0.6648,0.6922 -1.7649,0.7145 -2.4571,0.0497 v 0 c -0.6922,-0.6648 -0.7145,-1.7649 -0.0497,-2.4571 v 0 c 0.6648,-0.6922 1.7649,-0.7145 2.4571,-0.0497 -0.0498,0.4408 -0.0843,0.9245 -0.1408,1.4086 v 0 c 0.2397,0.291 0.1981,0.7213 -0.0929,0.961 v 0 c -0.291,0.2397 -0.7213,0.1982 -0.961,-0.0929 -0.4556,-3e-4 -0.8457,0.0936 -1.2122,0.2305 -0.3316,-0.0107 -0.0145,0.4071 0.478,0.741 0.3889,-0.0351 1.2202,-0.3738 1.4932,-0.5708 0.2049,-0.2005 0.4562,-0.5649 0.5144,-0.6169 0.008,-0.0433 0.03,-0.1351 0.0179,-0.0584 -0.0162,0.0862 -0.0241,0.1565 -0.0356,0.3141 -0.006,0.1608 -0.007,0.3224 -0.006,0.5302 -0.0154,0.2086 -0.0282,0.4273 -0.041,0.6682 -0.1201,1.0384 -0.2427,2.0766 -0.3816,3.084 -0.2435,2.1632 -0.6783,4.572 -1.9851,6.0226 -1.4256,0.7341 -3.0056,0.5687 -3.8448,0.0937 -1.8138,-1.035 -3.9572,-3.6879 -6.182,-6.8165 -0.9417,-1.3041 -1.8368,-2.5972 -2.5445,-3.4934 -0.4626,-0.6941 -0.7459,-1.114 -0.8423,-1.2044 1.2745,0.3163 2.0203,-0.075 2.199,-0.2685 0.0925,-0.1628 0.1749,-0.373 0.1811,-0.3534 -0.008,0.0852 0.003,0.2881 0.0171,0.669 0.005,0.5864 0.0371,1.305 0.0424,2.1633 -0.0304,1.2657 -0.1113,2.6636 -0.2275,3.957 -0.2944,2.1846 -0.6562,4.2395 -0.984,5.2435 -0.1105,0.2904 -0.2656,0.5835 -0.4057,0.7802 -0.2815,0.1436 -0.9634,0.4451 -1.4569,0.4301 -0.3682,-0.0222 -0.9506,-0.2505 -1.1503,-0.415 -0.1469,-0.1584 -0.3167,-0.4075 -0.3732,-0.5343 -0.0789,-0.2183 -0.1477,-0.5114 -0.1669,-0.7167 -0.007,-0.5784 0.0541,-1.2503 0.1545,-1.8518 0.037,-0.6315 0.1622,-1.4754 0.4721,-2.1175 0.1739,-0.3248 0.5226,-0.7367 0.8757,-0.9573 0.3615,-0.1869 0.947,-0.2937 1.3992,-0.2325 v 0 c 0.5314,0.0672 0.9077,0.5524 0.8405,1.0838 v 0 c -0.0672,0.5314 -0.5524,0.9077 -1.0839,0.8405"
           style="fill:#000000;fill-opacity:1;fill-rule:nonzero;stroke:none"
           id="path3463"
           inkscape:connector-curvature="0" />
        <path
           d="m 411.5506,590.4912 c 0.1752,0.0349 0.3555,0.0765 0.5261,0.1145 v 0 c 0.5206,0.4044 0.6148,1.1543 0.2104,1.6749 v 0 c -0.4045,0.5206 -1.1544,0.6148 -1.675,0.2103 v 0 c -0.5206,-0.4044 -0.6147,-1.1543 -0.2103,-1.6749 v 0 c 0.4045,-0.5206 1.1544,-0.6148 1.6749,-0.2103 0.1605,0.0526 0.33,0.1169 0.4838,0.1732 v 0 c 0.5734,0.4887 0.6421,1.3496 0.1534,1.923 v 0 c -0.4886,0.5733 -1.3495,0.642 -1.9229,0.1534 v 0 c -0.5734,-0.4886 -0.6421,-1.3495 -0.1534,-1.9229 v 0 c 0.4886,-0.5734 1.3495,-0.6421 1.9229,-0.1535 0.2767,0.1618 0.5778,0.373 0.8198,0.5634 v 0 c 0.5538,0.6421 0.4823,1.6115 -0.1598,2.1653 v 0 c -0.6421,0.5538 -1.6115,0.4823 -2.1653,-0.1598 v 0 c -0.5538,-0.6421 -0.4822,-1.6115 0.1598,-2.1653 v 0 c 0.6421,-0.5538 1.6115,-0.4822 2.1653,0.1598 0.1166,0.1058 0.2579,0.2573 0.3631,0.378 0.1061,0.126 0.2388,0.3237 0.3281,0.473 0.0731,0.1633 0.161,0.4312 0.2024,0.6188 0.0444,0.1919 0.0712,0.5168 0.0665,0.7281 v 0 c -0.1004,0.9353 -0.94,1.6121 -1.8753,1.5117 v 0 c -0.9353,-0.1004 -1.6121,-0.94 -1.5116,-1.8753 v 0 c 0.1004,-0.9353 0.94,-1.6121 1.8753,-1.5117 v 0 c 0.9352,0.1004 1.612,0.94 1.5116,1.8753 -0.137,0.3949 -0.4512,0.9462 -0.7484,1.2188 v 0 c -0.5062,0.6385 -1.4342,0.7458 -2.0728,0.2396 v 0 c -0.6386,-0.5062 -0.7459,-1.4343 -0.2396,-2.0728 v 0 c 0.5062,-0.6386 1.4342,-0.7459 2.0728,-0.2397 v 0 c 0.6386,0.5063 0.7459,1.4343 0.2396,2.0729 -0.1217,0.1383 -0.3086,0.3181 -0.4568,0.4348 v 0 c -0.6162,0.5153 -1.5334,0.4334 -2.0486,-0.1828 v 0 c -0.5152,-0.6161 -0.4334,-1.5333 0.1828,-2.0485 v 0 c 0.6162,-0.5153 1.5333,-0.4334 2.0486,0.1828 v 0 c 0.5152,0.6161 0.4333,1.5333 -0.1828,2.0485 -0.2958,-0.089 -0.6182,-0.175 -0.9038,-0.3013 v 0 c -0.3216,0.1967 -0.7419,0.0953 -0.9386,-0.2263 v 0 c -0.1967,-0.3217 -0.0953,-0.7419 0.2263,-0.9386 -0.0349,-0.2795 -0.1401,-0.52 -0.2513,-0.7638 0.0396,-0.0403 0.008,-0.0178 0.0124,-0.0389 -0.046,-0.0441 -0.225,0.1847 -0.3267,0.2517 0.0129,0.0474 0.0322,0.2071 0.0464,0.2331 0.0109,0.0207 0.0455,0.1205 0.0444,0.1149 0.015,-0.0196 0.0525,0.008 0.0444,-0.0376 -0.009,-0.0505 -3e-4,-0.0715 -0.033,-0.1386 -0.058,-0.1574 -0.1237,-0.2985 -0.2653,-0.4936 -0.0544,-0.1212 -0.1065,-0.2365 -0.1773,-0.3631 -0.0626,-0.1432 -0.1252,-0.283 -0.2016,-0.4305 v 0 c -0.4335,-0.3145 -0.53,-0.921 -0.2155,-1.3545 v 0 c 0.3146,-0.4336 0.921,-0.5301 1.3546,-0.2155 z"
           style="fill:#000000;fill-opacity:1;fill-rule:nonzero;stroke:none"
           id="path3465"
           inkscape:connector-curvature="0" />
        <path
           d="m 425.1019,600.5982 c 0.1092,0.2043 0.2215,0.4099 0.3264,0.6149 v 0 c 0.2966,0.2766 0.3129,0.7413 0.0364,1.0379 v 0 c -0.2766,0.2967 -0.7412,0.313 -1.0379,0.0364 v 0 c -0.2966,-0.2765 -0.3129,-0.7412 -0.0364,-1.0378 v 0 c 0.2766,-0.2967 0.7412,-0.313 1.0379,-0.0365 0.4692,0.2926 0.9711,0.6755 1.3433,1.1207 v 0 c 0.2769,0.5113 0.0869,1.1503 -0.4244,1.4273 v 0 c -0.5113,0.2769 -1.1503,0.0869 -1.4272,-0.4244 v 0 c -0.277,-0.5113 -0.087,-1.1503 0.4243,-1.4272 v 0 c 0.5113,-0.277 1.1503,-0.087 1.4273,0.4243 0.4088,0.7743 0.585,1.7644 0.5099,2.5883 v 0 c -0.1491,0.7031 -0.84,1.1523 -1.5431,1.0032 v 0 c -0.7031,-0.1491 -1.1522,-0.8399 -1.0031,-1.5431 v 0 c 0.1491,-0.7031 0.8399,-1.1522 1.543,-1.0031 v 0 c 0.7031,0.1491 1.1523,0.8399 1.0032,1.543 -0.0375,0.5142 -0.307,1.3036 -0.7196,1.8526 -0.3711,0.4573 -1.3764,1.0088 -2.2908,1.0609 -1.1705,-0.0854 -2.744,-0.6903 -4.0943,-1.79 -0.8887,-0.8313 -1.7591,-1.8548 -2.4525,-2.8933 -0.8978,-1.3454 -1.6186,-2.961 -1.9305,-4.4713 -0.2945,-2.0495 0.1029,-4.2622 0.9624,-5.9299 0.6962,-1.0852 1.6396,-2.0867 2.5482,-2.7678 1.1406,-0.7895 2.7914,-1.294 4.2831,-1.2143 1.4383,0.089 3.2609,0.6923 4.8827,1.7311 1.2592,0.9798 2.4773,2.1818 3.5992,3.4439 0.7161,0.8661 1.4336,1.8012 2.1039,2.7289 v 0 c 0.4941,0.6021 0.4065,1.4907 -0.1956,1.9848 v 0 c -0.6022,0.4941 -1.4908,0.4065 -1.9849,-0.1956 v 0 c -0.494,-0.6022 -0.4065,-1.4908 0.1957,-1.9849 v 0 c 0.6021,-0.494 1.4907,-0.4065 1.9848,0.1957 0.346,0.4541 0.69,0.918 1.0194,1.3735 v 0 c 0.4582,0.5873 0.3535,1.4348 -0.2338,1.893 v 0 c -0.5872,0.4582 -1.4347,0.3535 -1.8929,-0.2337 v 0 c -0.4582,-0.5873 -0.3535,-1.4348 0.2337,-1.893 v 0 c 0.5873,-0.4582 1.4348,-0.3535 1.893,0.2337 0.3358,0.4509 0.6665,0.9056 0.9819,1.3487 v 0 c 0.4333,0.5803 0.3141,1.402 -0.2662,1.8353 v 0 c -0.5803,0.4333 -1.4019,0.3141 -1.8352,-0.2662 v 0 c -0.4333,-0.5802 -0.3142,-1.4019 0.2661,-1.8352 v 0 c 0.5803,-0.4333 1.402,-0.3142 1.8353,0.2661 0.1566,0.5598 0.3035,1.1153 0.4332,1.6544 v 0 c 0.2203,0.3061 0.1507,0.7327 -0.1554,0.9529 v 0 c -0.3061,0.2202 -0.7327,0.1506 -0.9529,-0.1555 -0.4657,-0.2884 -0.9401,-0.5819 -1.4262,-0.8824 -0.3277,-0.4181 -0.6614,-0.8356 -1.0075,-1.2591 -0.3522,-0.418 -0.7071,-0.8299 -1.073,-1.2434 -0.7535,-0.8074 -1.5114,-1.5745 -2.2879,-2.2982 -1.117,-1.1226 -2.1761,-2.0525 -3.2166,-2.7527 -1.1791,-0.7243 -2.1082,-0.9869 -3.0688,-0.9719 -0.8919,-0.0635 -1.244,0.0802 -1.8976,0.6127 -0.6825,0.4473 -1.189,0.9349 -1.6633,1.6309 -0.6994,0.9897 -1.0293,2.1185 -0.9253,3.544 0.1443,1.0688 0.5762,2.1628 1.2738,3.3054 0.5773,0.8749 1.2329,1.6461 1.9243,2.2908 0.9257,0.7748 1.653,1.0247 2.219,1.022 0.1772,0.0557 -0.0508,0.1604 0.0305,0.0432 0.2215,-0.1342 0.2544,-0.1369 0.3415,-0.4361 0.2007,-0.486 0.2522,-0.802 0.1548,-1.2041 -0.002,-0.2366 -0.16,-0.5454 -0.4502,-0.9605 -0.1992,-0.0783 -0.4068,-0.1584 -0.6244,-0.249 v 0 c -0.3977,-0.3588 -0.4293,-0.9721 -0.0705,-1.3698 v 0 c 0.3588,-0.3977 0.972,-0.4293 1.3698,-0.0705 z"
           style="fill:#000000;fill-opacity:1;fill-rule:nonzero;stroke:none"
           id="path3467"
           inkscape:connector-curvature="0" />
        <path
           d="m 445.0051,599.8823 c -0.1824,-0.3006 -0.0879,-0.1967 -0.3408,-0.0926 v 0 c -0.5705,0.1076 -1.1202,-0.2676 -1.2278,-0.8382 v 0 c -0.1076,-0.5705 0.2676,-1.1202 0.8381,-1.2278 v 0 c 0.5705,-0.1076 1.1203,0.2677 1.2279,0.8382 v 0 c 0.1076,0.5705 -0.2677,1.1202 -0.8382,1.2278 -0.2771,0.0559 -0.5297,0.2629 -0.8647,0.6239 v 0 c -0.4545,0.4297 -1.1714,0.4096 -1.6011,-0.0449 v 0 c -0.4297,-0.4545 -0.4096,-1.1713 0.0449,-1.6011 v 0 c 0.4545,-0.4297 1.1714,-0.4096 1.6011,0.045 v 0 c 0.4297,0.4545 0.4096,1.1713 -0.0449,1.601 -0.596,0.6367 -0.8381,1.1842 -0.8183,1.7868 v 0 c -0.1377,0.7731 -0.876,1.2882 -1.649,1.1505 v 0 c -0.7731,-0.1376 -1.2882,-0.8759 -1.1506,-1.649 v 0 c 0.1377,-0.773 0.8759,-1.2881 1.649,-1.1505 v 0 c 0.7731,0.1376 1.2882,0.8759 1.1506,1.649 -0.1044,0.4081 -0.1411,0.3821 0.2315,0.7039 0.7023,0.8335 2.7054,1.6861 4.8838,2.272 1.1161,0.3388 2.0092,0.5376 2.8186,0.4862 0.7559,-0.0607 1.204,-0.2441 1.6175,-0.8045 0.4148,-0.5634 0.6355,-1.3987 0.6289,-2.5673 0.0226,-1.3955 -0.3704,-2.8725 -1.1952,-4.1746 -0.959,-1.2785 -2.0641,-2.1531 -3.0434,-2.1923 -0.5855,-0.0681 -0.8561,0.0365 -1.2303,0.6698 -0.1717,0.285 -0.3425,0.7346 -0.485,1.3792 v 0 c -0.1472,0.6831 -0.8203,1.1175 -1.5034,0.9703 v 0 c -0.6831,-0.1473 -1.1176,-0.8204 -0.9703,-1.5035 v 0 c 0.1472,-0.6831 0.8203,-1.1175 1.5034,-0.9703 v 0 c 0.6831,0.1473 1.1175,0.8204 0.9703,1.5035 -0.1859,0.6466 -0.2964,1.3293 -0.3281,2.1409 v 0 c 0.008,0.6271 -0.4944,1.1416 -1.1214,1.1493 v 0 c -0.627,0.008 -1.1415,-0.4944 -1.1492,-1.1214 v 0 c -0.008,-0.6271 0.4944,-1.1416 1.1214,-1.1493 v 0 c 0.627,-0.008 1.1415,0.4944 1.1492,1.1214 -10e-4,0.4083 0.0179,0.8022 0.062,1.2337 v 0 c 0.0704,0.6137 -0.37,1.1682 -0.9837,1.2386 v 0 c -0.6137,0.0704 -1.1682,-0.3701 -1.2385,-0.9837 v 0 c -0.0704,-0.6137 0.37,-1.1682 0.9837,-1.2386 v 0 c 0.6136,-0.0704 1.1682,0.3701 1.2385,0.9837 -0.0946,0.4518 -0.168,0.8992 -0.2106,1.3821 v 0 c 0.0808,0.3683 -0.1523,0.7323 -0.5206,0.8131 v 0 c -0.3683,0.0808 -0.7324,-0.1523 -0.8131,-0.5206 -0.2499,-0.4628 -0.4779,-0.9528 -0.6779,-1.4197 -0.0613,-0.4877 -0.0986,-0.9952 -0.1104,-1.4607 -0.0531,-0.9364 -0.003,-1.8926 0.125,-2.7019 0.1712,-0.8111 0.4671,-1.6338 0.8126,-2.2509 0.9605,-1.2019 2.4642,-1.7737 3.6737,-1.6552 1.7071,0.3478 3.4131,1.7761 4.5083,3.3647 1.0933,1.5747 1.7596,3.6027 1.8676,5.3607 -0.009,1.5057 -0.4159,3.0258 -1.1058,4.0631 -0.8654,1.0313 -2.1791,1.6523 -3.3634,1.7939 -1.1973,0.0873 -2.509,-0.1437 -3.6872,-0.4651 -2.3424,-0.5105 -4.9396,-1.5005 -6.3246,-2.7237 -0.8234,-0.9791 -1.1055,-2.3525 -0.9235,-3.2759 0.3126,-1.0476 1.1422,-2.1965 2.0819,-2.9112 0.5023,-0.4316 1.282,-0.8844 2.001,-1.0164 0.7432,-0.0838 1.7976,0.3042 2.3376,1.0723 v 0 c 0.2999,0.4438 0.1833,1.0467 -0.2605,1.3467 v 0 c -0.4437,0.2999 -1.0466,0.1833 -1.3466,-0.2604"
           style="fill:#000000;fill-opacity:1;fill-rule:nonzero;stroke:none"
           id="path3469"
           inkscape:connector-curvature="0" />
        <path
           d="m 457.9282,603.0906 c 0.1678,-0.013 0.4951,-0.1319 0.606,-0.2104 v 0 c -0.4082,0.3432 -1.0172,0.2905 -1.3604,-0.1177 v 0 c -0.3432,-0.4082 -0.2905,-1.0173 0.1177,-1.3604 v 0 c 0.4081,-0.3432 1.0172,-0.2905 1.3604,0.1176 v 0 c 0.3432,0.4082 0.2905,1.0173 -0.1177,1.3605 0.0848,-0.0867 0.1868,-0.2319 0.2072,-0.2722 v 0 c -0.224,0.4814 -0.7958,0.69 -1.2771,0.466 v 0 c -0.4814,-0.224 -0.69,-0.7958 -0.466,-1.2772 v 0 c 0.224,-0.4813 0.7958,-0.6899 1.2772,-0.4659 v 0 c 0.4813,0.224 0.6899,0.7958 0.4659,1.2771 0.0148,-0.0552 0.0269,-0.1098 0.0179,-0.0552 v 0 c -0.0676,0.5218 -0.5454,0.89 -1.0672,0.8224 v 0 c -0.5218,-0.0676 -0.89,-0.5454 -0.8224,-1.0672 v 0 c 0.0676,-0.5218 0.5454,-0.89 1.0672,-0.8224 v 0 c 0.5218,0.0676 0.89,0.5454 0.8224,1.0672 -0.0245,0.1276 -0.0314,0.3292 -0.0307,0.6016 0.0274,0.4004 0.0635,0.7795 0.1043,1.0534 0.0636,0.0166 0.1302,0.0732 0.1956,0.1044 0.0306,0.008 0.0475,-0.0431 0.0614,-0.0975 -10e-5,-0.0425 -0.0514,-0.1907 -0.1145,-0.3235 -0.1766,-0.2274 -1.3482,-0.5863 -2.0088,-0.2857 -0.5737,0.8551 -0.7821,-0.8095 -0.8101,-2.871 0.018,-1.114 0.0808,-2.311 0.1595,-3.3562 0.1144,-1.4 0.2784,-2.6413 0.5682,-3.4668 0.2541,-0.4872 0.9139,-1.1301 1.4929,-1.3555 0.5945,-0.0993 1.409,0.0622 1.7939,0.268 0.6244,0.3885 1.3157,1.0671 2.0397,1.8764 0.5736,0.625 1.2627,1.4069 2.0647,2.3362 0.8502,1.0138 1.7855,2.1451 2.7829,3.2627 1.3015,1.3853 2.6538,2.7053 3.7129,3.5573 0.6697,0.4815 0.9972,0.6291 1.1795,0.624 0.1328,0.0182 -0.1009,-0.004 -0.2293,-0.006 -0.149,0.0378 -0.534,0.248 -0.6561,0.3383 -0.1247,0.1809 -0.2275,0.3702 -0.2308,0.1176 0.0341,-0.6222 -0.003,-1.5568 -0.06,-2.5534 -0.1089,-1.1178 -0.2612,-2.3934 -0.2146,-3.4098 0.1326,-0.6525 0.3719,-1.2493 0.6266,-1.6417 0.3105,-0.4054 1.0442,-0.9363 1.6006,-1.1132 0.6742,-0.1167 1.8536,0.1574 2.4894,0.5841 1.2847,1.2211 2.5621,3.2249 3.7751,4.9394 0.7015,0.9468 1.4054,1.8392 2.003,2.4987 0.4051,0.3521 0.6452,0.5126 0.8269,0.5589 0.1513,0.0404 -0.1604,-0.0322 -0.3522,-0.058 -0.1992,0.0684 -0.5861,0.3634 -0.6334,0.3402 0.0622,-0.2626 0.0947,-1.2753 0.0875,-2.5172 -0.002,-0.4418 -0.0169,-0.8896 -0.0368,-1.3437 -0.0194,-0.4537 -0.0443,-0.8923 -0.0665,-1.3054 -0.01,-0.2066 -0.0184,-0.4119 -0.0255,-0.6031 0.0144,-0.3841 0.0372,-0.7748 0.0773,-1.0905 0.0188,-0.1645 0.0517,-0.3809 0.089,-0.5451 0.1032,-0.1654 0.275,-0.4703 0.4541,-0.6717 v 0 c 0.4532,-0.7817 1.4543,-1.048 2.236,-0.5948 v 0 c 0.7817,0.4533 1.048,1.4544 0.5947,2.2361 v 0 c -0.4532,0.7817 -1.4543,1.048 -2.236,0.5947 v 0 c -0.7817,-0.4532 -1.048,-1.4544 -0.5947,-2.236 0.2287,-0.222 0.9035,-0.6451 1.3969,-0.6911 v 0 c 0.7906,-0.0675 1.4862,0.5186 1.5537,1.3091 v 0 c 0.0675,0.7906 -0.5186,1.4862 -1.3091,1.5537 v 0 c -0.7905,0.0675 -1.4861,-0.5186 -1.5537,-1.3091 v 0 c -0.0675,-0.7905 0.5186,-1.4861 1.3091,-1.5537 0.4274,0.0402 0.9679,0.2839 1.1457,0.451 v 0 c 0.5767,0.4853 0.6508,1.3462 0.1655,1.9229 v 0 c -0.4853,0.5767 -1.3462,0.6508 -1.9229,0.1655 v 0 c -0.5767,-0.4853 -0.6508,-1.3462 -0.1655,-1.9229 v 0 c 0.4853,-0.5767 1.3462,-0.6508 1.9229,-0.1655 -0.0156,0.29 -0.0399,0.6072 -0.1299,0.8722 v 0 c 0.2179,0.3077 0.145,0.7338 -0.1628,0.9516 v 0 c -0.3077,0.2179 -0.7338,0.145 -0.9517,-0.1628 -0.2346,0.0605 -0.386,0.2312 -0.513,0.4274 0.0664,0.0734 0.5111,0.2762 0.8563,0.3234 0.4112,-0.0389 1.0176,-0.4067 1.1889,-0.5298 0.1224,-0.1037 0.2487,-0.267 0.3158,-0.2515 0.002,0.0146 0.008,0.0162 0.008,0.1036 0.002,0.1876 0.0174,0.4341 0.0378,0.7823 -0.004,0.1749 -0.007,0.3599 -0.008,0.562 -0.007,0.4045 -0.0104,0.8591 -0.0193,1.3358 -0.009,0.4758 -0.0243,0.9951 -0.0532,1.5025 -0.1024,1.3482 -0.2973,2.7991 -0.6968,3.756 -0.3458,0.5709 -1.0069,1.1177 -1.5402,1.2782 -0.5257,0.0663 -1.231,-0.0736 -1.6049,-0.2723 -0.4587,-0.2093 -1.0713,-0.6529 -1.6075,-1.1507 -0.8091,-0.6982 -1.7077,-1.626 -2.559,-2.5642 -1.4589,-1.696 -2.7454,-3.3801 -3.5727,-3.8968 0.003,0.009 0.5364,0.1394 0.8304,0.1507 0.0442,-0.0493 0.4654,-0.3506 0.5227,-0.3994 0.001,-0.0355 0.0467,-0.1483 0.0157,0.004 -0.0873,0.3711 -0.0395,1.4215 -0.0204,2.6545 -0.005,1.0884 -0.0347,2.2122 -0.1494,3.051 -0.0857,0.4994 -0.3359,1.1921 -0.716,1.6621 -0.2474,0.2327 -0.7858,0.5329 -1.12,0.6095 -0.3134,0.0364 -0.7637,0.002 -1.0112,-0.0663 -0.5803,-0.1166 -1.5158,-0.5711 -2.4229,-1.2381 -1.2442,-0.9987 -2.734,-2.4437 -4.1046,-3.8951 -1.0721,-1.1648 -2.0562,-2.3163 -2.8986,-3.2845 -0.7947,-0.8752 -1.4689,-1.5956 -2.044,-2.1778 -0.7136,-0.7225 -1.1026,-1.0638 -1.2948,-1.1112 -0.0218,-0.0108 0.4511,0.0793 0.7596,0.0646 0.2929,-0.1407 0.7223,-0.5424 0.7607,-0.5519 -0.1365,0.2341 -0.2718,1.0777 -0.4214,2.4271 -0.1462,1.0124 -0.2716,2.1096 -0.3553,3.1186 -0.1075,1.872 -0.0462,3.3602 -0.083,3.6647 -1.135,1.495 -2.3114,1.134 -2.4772,0.9221 -0.0845,-0.1636 -0.1417,-0.325 -0.1476,-0.3845 10e-4,-0.0923 0.004,-0.2002 0.0204,-0.2663 0.0361,-0.1179 0.0705,-0.2797 0.1112,-0.4361 0.0225,-0.3873 0.0559,-0.8043 0.0984,-1.1865 -0.0126,-0.2622 -0.0136,-0.5913 0.0116,-0.8485 0.016,-0.1383 0.064,-0.3494 0.1293,-0.5128 0.0448,-0.0927 0.1754,-0.2792 0.2871,-0.3889 0.1488,-0.1104 0.5124,-0.2429 0.7209,-0.2543 v 0 c 0.5352,0.0218 0.9514,0.4733 0.9297,1.0085 v 0 c -0.0217,0.5352 -0.4732,0.9514 -1.0084,0.9297 z"
           style="fill:#000000;fill-opacity:1;fill-rule:nonzero;stroke:none"
           id="path3471"
           inkscape:connector-curvature="0" />
      </g>
    </g>
  </g>
</svg>
