<?xml version="1.0" encoding="UTF-8" standalone="no"?>
<svg
   xmlns:dc="http://purl.org/dc/elements/1.1/"
   xmlns:cc="http://creativecommons.org/ns#"
   xmlns:rdf="http://www.w3.org/1999/02/22-rdf-syntax-ns#"
   xmlns:svg="http://www.w3.org/2000/svg"
   xmlns="http://www.w3.org/2000/svg"
   xmlns:sodipodi="http://sodipodi.sourceforge.net/DTD/sodipodi-0.dtd"
   xmlns:inkscape="http://www.inkscape.org/namespaces/inkscape"
   sodipodi:docname="next.svg"
   inkscape:version="1.0beta1 (32d4812, 2019-09-19)"
   id="svg7900"
   version="1.1"
   viewBox="0 0 10.300447 13.256804"
   height="13.256804mm"
   width="10.300447mm">
  <defs
     id="defs7894" />
  <sodipodi:namedview
     inkscape:window-maximized="0"
     inkscape:window-y="23"
     inkscape:window-x="0"
     inkscape:window-height="770"
     inkscape:window-width="1440"
     showgrid="false"
     inkscape:document-rotation="0"
     inkscape:current-layer="layer1"
     inkscape:document-units="mm"
     inkscape:cy="2.1945112"
     inkscape:cx="-731.95984"
     inkscape:zoom="0.35"
     inkscape:pageshadow="2"
     inkscape:pageopacity="0.0"
     borderopacity="1.0"
     bordercolor="#666666"
     pagecolor="#ffffff"
     id="base" />
  <metadata
     id="metadata7897">
    <rdf:RDF>
      <cc:Work
         rdf:about="">
        <dc:format>image/svg+xml</dc:format>
        <dc:type
           rdf:resource="http://purl.org/dc/dcmitype/StillImage" />
        <dc:title></dc:title>
      </cc:Work>
    </rdf:RDF>
  </metadata>
  <g
     transform="translate(-299.49771,-147.58604)"
     id="layer1"
     inkscape:groupmode="layer"
     inkscape:label="Layer 1">
    <path
       d="m 299.50146,148.01024 c 0.0445,0.1972 0.1126,0.45424 0.17166,0.69896 v 0 c 0.0231,0.15162 0.16485,0.25576 0.31648,0.23262 v 0 c 0.15162,-0.0231 0.25576,-0.16485 0.23262,-0.31648 v 0 c -0.0231,-0.15162 -0.16482,-0.25576 -0.31648,-0.23262 v 0 c -0.15162,0.0231 -0.25576,0.16486 -0.23262,0.31648 0.0187,0.20532 0.0288,0.37786 0.0251,0.57975 v 0 c 0.008,0.17449 0.15614,0.30939 0.33062,0.30128 v 0 c 0.17448,-0.008 0.30935,-0.15611 0.30127,-0.33059 v 0 c -0.008,-0.17449 -0.1561,-0.30939 -0.33062,-0.30127 v 0 c -0.17448,0.008 -0.30935,0.1561 -0.30127,0.33058 -3.2e-4,0.1341 -0.007,0.29422 -0.0145,0.514 v 0 c -0.002,0.18249 0.14383,0.33228 0.32632,0.33454 v 0 c 0.18249,0.002 0.33225,-0.14383 0.33451,-0.32632 v 0 c 0.002,-0.18249 -0.14383,-0.33224 -0.32632,-0.33454 v 0 c -0.18249,-0.002 -0.33225,0.14383 -0.33451,0.32632 -0.007,0.37896 -0.0256,0.89951 -0.0448,1.4109 -0.0407,0.86808 -0.0757,1.65792 -0.0887,2.44112 -0.007,0.40093 -0.0116,0.80796 -0.004,1.13524 0.031,0.61143 0.13324,0.96946 0.16471,1.27063 0.0291,0.57778 -0.003,1.16907 0.008,1.72103 0.004,0.38336 -0.004,0.81308 7.1e-4,1.22558 v 0 c -7.1e-4,0.18419 0.14781,0.33419 0.332,0.33504 v 0 c 0.18418,7.1e-4 0.33418,-0.14782 0.33503,-0.332 v 0 c 7.1e-4,-0.18419 -0.14781,-0.33419 -0.332,-0.33504 v 0 c -0.18418,-7.1e-4 -0.33419,0.14782 -0.33503,0.332 -0.001,0.25541 -0.0197,0.51756 -0.0617,0.72895 v 0 c -0.0369,0.17462 0.0747,0.34611 0.24934,0.38304 v 0 c 0.17459,0.0369 0.34611,-0.0747 0.38301,-0.2493 v 0 c 0.0369,-0.17463 -0.0747,-0.34612 -0.24931,-0.38305 v 0 c -0.17462,-0.0369 -0.34611,0.0747 -0.38304,0.24931 -0.015,0.0758 -0.0288,0.13014 -0.0476,0.18143 v 0 c -0.0623,0.16563 0.0214,0.35045 0.18708,0.41279 v 0 c 0.16567,0.0623 0.35045,-0.0215 0.41279,-0.18708 v 0 c 0.0623,-0.16567 -0.0214,-0.35049 -0.18708,-0.41279 v 0 c -0.16563,-0.0623 -0.35045,0.0214 -0.41279,0.18708 0.0108,0.0474 0.0269,0.0756 0.0359,0.10947 v 0 c -0.0722,0.11169 -0.0402,0.26081 0.0715,0.33302 v 0 c 0.11169,0.0722 0.26081,0.0402 0.33302,-0.0715 0.0543,-0.0363 0.11158,-0.0941 0.15946,-0.14527 0.0308,-0.0802 0.0592,-0.17992 0.08,-0.27341 0.0565,-0.25407 0.087,-0.57227 0.0963,-0.8545 0.008,-0.40738 0.0293,-0.8364 0.0381,-1.241 -0.0169,-0.53544 0.009,-1.13866 -0.0277,-1.76773 -0.0378,-0.37991 -0.12929,-0.69818 -0.15035,-1.24248 -0.01,-0.30755 -0.008,-0.70058 -0.004,-1.1 0.005,-0.77502 0.0323,-1.55462 0.0654,-2.42489 0.016,-0.51495 0.0312,-1.04126 0.0351,-1.42769 -0.002,-0.2207 -0.005,-0.3944 -0.0143,-0.54779 -0.0237,-0.22927 -0.0632,-0.43215 -0.10809,-0.63909 -0.0178,-0.25884 -0.0422,-0.51435 -0.0409,-0.69289 v 0 c -0.0216,-0.18772 -0.19124,-0.32241 -0.37899,-0.30082 v 0 c -0.18771,0.0216 -0.3224,0.19124 -0.30081,0.37899"
       style="opacity:1;fill:#000000;fill-opacity:1;fill-rule:nonzero;stroke:none;stroke-width:0.352777;stop-opacity:1"
       id="path7577"
       inkscape:connector-curvature="0" />
    <path
       d="m 300.46761,160.37916 c 0.0219,-0.0291 0.0907,-0.12637 0.14362,-0.15847 v 0 c -0.13445,0.0978 -0.16412,0.2861 -0.0663,0.42055 v 0 c 0.0979,0.13441 0.28614,0.16407 0.42055,0.0662 v 0 c 0.13444,-0.0978 0.16411,-0.28611 0.0663,-0.42055 v 0 c -0.0979,-0.13444 -0.28614,-0.16408 -0.42054,-0.0662 0.0597,-0.0162 0.14837,-0.0216 0.16467,-0.008 v 0 c -0.14301,-0.0123 -0.26895,0.0937 -0.28127,0.23668 v 0 c -0.0123,0.14302 0.0936,0.26896 0.23665,0.28127 v 0 c 0.14305,0.0123 0.26895,-0.0936 0.2813,-0.23664 v 0 c 0.0123,-0.14306 -0.0937,-0.26896 -0.23668,-0.28131 0.0218,-0.008 0.0242,-0.0243 -0.008,-0.053 v 0 c -0.15402,-0.0638 -0.33062,0.009 -0.3944,0.16344 v 0 c -0.0638,0.15406 0.009,0.33066 0.1634,0.39444 v 0 c 0.15406,0.0638 0.33066,-0.009 0.39445,-0.16344 v 0 c 0.0638,-0.15402 -0.009,-0.33062 -0.16345,-0.39444 -0.0343,-0.0357 -0.0743,-0.0755 -0.11176,-0.11285 -0.27696,-0.0155 -0.38946,0.0227 -0.47445,0.076 -0.0268,0.0231 -0.0811,0.0916 -0.10989,0.14428 -0.0237,0.0666 -0.0282,0.23421 -0.003,0.32153 0.0383,0.0728 0.12799,0.16813 0.1711,0.19879 0.0364,0.0214 0.0958,0.0459 0.12368,0.0554 0.38541,-0.0935 0.4748,-0.14725 0.57775,-0.20938 0.0667,-0.0403 0.16492,-0.0998 0.29368,-0.18863 0.25993,-0.18626 0.59687,-0.45229 0.98016,-0.75268 0.22257,-0.17205 0.45632,-0.35119 0.69765,-0.53115 0.34118,-0.2529 0.69663,-0.50323 1.12985,-0.8122 0.28645,-0.20073 0.61379,-0.4319 0.97663,-0.70128 0.27986,-0.21532 0.57661,-0.44921 0.88618,-0.69475 0.31778,-0.26885 0.63637,-0.54045 0.95179,-0.79491 0.41303,-0.31648 0.82659,-0.60879 1.16925,-0.82917 0.0772,-0.068 0.14538,-0.12876 0.21121,-0.18623 0.11303,-0.0769 0.20514,-0.13582 0.29012,-0.18592 v 0 c 0.23763,-0.0982 0.35063,-0.37048 0.25241,-0.60811 v 0 c -0.0983,-0.23764 -0.37052,-0.35063 -0.60812,-0.25238 v 0 c -0.23763,0.0982 -0.35062,0.37049 -0.25241,0.60812 v 0 c 0.0983,0.23759 0.37049,0.35059 0.60812,0.25237 0.043,-0.0217 0.0742,-0.0373 0.10798,-0.0524 v 0 c 0.23792,-0.0805 0.36552,-0.33859 0.28505,-0.57651 v 0 c -0.0805,-0.23791 -0.33863,-0.36551 -0.57651,-0.28501 v 0 c -0.23791,0.0805 -0.36551,0.3386 -0.28504,0.57651 v 0 c 0.0805,0.23788 0.33859,0.36552 0.5765,0.28501 0.0615,-0.0426 0.0886,-0.0696 0.12073,-0.0948 v 0 c 0.21491,-0.0335 0.36195,-0.23484 0.32847,-0.44976 v 0 c -0.0335,-0.21487 -0.23488,-0.36195 -0.44976,-0.32843 v 0 c -0.21491,0.0335 -0.36195,0.23484 -0.32847,0.44975 v 0 c 0.0335,0.21488 0.23488,0.36195 0.44976,0.32844 0.01,-0.0532 0.0101,-0.10439 0.0197,-0.15572 v 0 c 0.13289,-0.006 0.23601,-0.11807 0.23029,-0.25096 v 0 c -0.006,-0.13289 -0.11804,-0.23601 -0.25093,-0.2303 -0.0304,-0.0496 -0.0764,-0.0963 -0.12033,-0.14121 -0.0749,-0.008 -0.18306,-0.003 -0.2909,0.0115 -0.0508,0.0134 -0.11285,0.0328 -0.17223,0.0534 -0.1198,0.0346 -0.26938,0.09 -0.42869,0.15995 -0.10358,0.0398 -0.20475,0.0807 -0.30674,0.12414 -0.37395,0.22521 -0.83277,0.53312 -1.2863,0.86406 -0.34488,0.27361 -0.67585,0.55132 -0.98549,0.8092 -0.29538,0.24271 -0.58194,0.47713 -0.84786,0.69021 -0.3399,0.27086 -0.64745,0.50624 -0.92841,0.72171 -0.42262,0.33031 -0.77399,0.60689 -1.11407,0.88868 -0.23766,0.20176 -0.46679,0.40203 -0.678,0.58981 -0.36933,0.31951 -0.68305,0.59708 -0.90114,0.78088 -0.0969,0.0744 -0.17381,0.12802 -0.25054,0.18362 -0.10403,0.0826 -0.19297,0.156 -0.23633,0.19872 0.35941,-0.066 0.40905,-0.0452 0.43861,-0.0277 0.0356,0.0264 0.12076,0.11708 0.15667,0.18439 0.0236,0.0829 0.0192,0.24526 -0.002,0.30639 -0.0265,0.0473 -0.0764,0.11 -0.097,0.12743 -0.0602,0.0308 -0.11821,0.0461 -0.12111,0.0394 -0.1616,-0.0248 -0.10354,-0.0209 -0.0458,-0.0189 0.042,0.002 0.11638,0.0156 0.19375,0.0126 0.0441,0.0158 0.15645,0.006 0.23421,-0.0229 0.0709,-0.0452 0.15208,-0.16486 0.1791,-0.2285 v 0 c 0.0276,-0.18693 -0.10163,-0.36082 -0.28857,-0.3884 v 0 c -0.18693,-0.0276 -0.36085,0.10163 -0.3884,0.28857"
       style="opacity:1;fill:#000000;fill-opacity:1;fill-rule:nonzero;stroke:none;stroke-width:0.352777;stop-opacity:1"
       id="path7579"
       inkscape:connector-curvature="0" />
    <path
       d="m 300.47273,147.91436 c -0.001,-0.0141 -0.007,-0.051 -0.015,-0.0819 v 0 c -0.0521,-0.1808 -0.24095,-0.28512 -0.42175,-0.23301 v 0 c -0.1808,0.0521 -0.28511,0.24091 -0.23301,0.42171 v 0 c 0.0521,0.18083 0.24091,0.28515 0.42171,0.23304 v 0 c 0.1808,-0.0521 0.28515,-0.24091 0.23305,-0.42174 -0.0206,-0.0531 -0.30392,-0.24589 -0.53326,-0.17713 v 0 c -0.14937,0.11313 -0.17872,0.32593 -0.0656,0.47526 v 0 c 0.11313,0.14933 0.32593,0.17868 0.47526,0.0655 v 0 c 0.14937,-0.11313 0.17872,-0.32593 0.0656,-0.47526 v 0 c -0.11313,-0.14933 -0.32593,-0.17868 -0.47526,-0.0655 -0.0805,0.0876 -0.11836,0.16929 -0.12421,0.19208 v 0 c -0.0447,0.18112 0.0659,0.36421 0.24698,0.40891 v 0 c 0.18111,0.0447 0.3642,-0.0659 0.4089,-0.24698 v 0 c 0.0447,-0.18115 -0.0659,-0.36421 -0.24698,-0.40894 v 0 c -0.18115,-0.0447 -0.36421,0.0659 -0.4089,0.24701 -0.003,0.0166 -0.007,0.0412 -0.008,0.0529 -7.1e-4,0.0346 0.004,0.10386 0.0165,0.15512 0.25834,0.30878 0.44626,0.35898 0.60537,0.41836 0.11416,0.0266 0.17575,0.0507 0.28515,0.11818 0.0881,0.0508 0.17656,0.11387 0.28998,0.21198 0.1325,0.12287 0.30586,0.31612 0.50648,0.5274 0.1385,0.14704 0.30279,0.3157 0.47978,0.46758 0.20264,0.15338 0.41667,0.28758 0.62625,0.39627 0.56095,0.27492 1.13461,0.42831 1.7229,0.76874 0.36135,0.21318 0.73653,0.49819 1.16163,0.8969 v 0 c 0.15825,0.1524 0.4101,0.14764 0.5625,-0.0106 v 0 c 0.1524,-0.15826 0.1476,-0.41011 -0.0107,-0.56251 v 0 c -0.15829,-0.15236 -0.41013,-0.1476 -0.5625,0.0107 v 0 c -0.1524,0.15829 -0.14764,0.41014 0.0107,0.5625 0.42538,0.42182 0.89947,0.95991 1.42106,1.50266 v 0 c 0.13514,0.14548 0.36265,0.15384 0.50814,0.0187 v 0 c 0.14548,-0.13519 0.15384,-0.36269 0.0187,-0.50818 v 0 c -0.13518,-0.14549 -0.36269,-0.15385 -0.50817,-0.0187 v 0 c -0.14549,0.13519 -0.15385,0.36269 -0.0187,0.50818 0.40749,0.39264 0.80172,0.72806 1.11308,0.91412 v 0 c 0.14997,0.0958 0.34922,0.0519 0.44503,-0.098 v 0 c 0.0958,-0.14996 0.052,-0.34921 -0.098,-0.44506 v 0 c -0.14997,-0.0958 -0.34922,-0.0519 -0.44503,0.098 v 0 c -0.0958,0.14997 -0.052,0.34922 0.098,0.44507 0.66933,0.4881 1.18227,0.66484 1.54358,0.63563 v 0 c 0.13296,-0.004 0.23777,-0.11444 0.23407,-0.24744 v 0 c -0.004,-0.13296 -0.11448,-0.23773 -0.24744,-0.23407 -0.2328,-0.0127 -0.54532,-0.16478 -1.15838,-0.67966 -0.27034,-0.18739 -0.5986,-0.49865 -0.9664,-0.88674 -0.4837,-0.5395 -0.94252,-1.09873 -1.3776,-1.56753 -0.45155,-0.44567 -0.88579,-0.7976 -1.29215,-1.05894 -0.68852,-0.39116 -1.29837,-0.55862 -1.76544,-0.79121 -0.15808,-0.0932 -0.3053,-0.19699 -0.45354,-0.32229 -0.12594,-0.11459 -0.2517,-0.25263 -0.38583,-0.40383 -0.19685,-0.20888 -0.38728,-0.42174 -0.57503,-0.59732 -0.17706,-0.13681 -0.34353,-0.23933 -0.48235,-0.30664 -0.1954,-0.0848 -0.39525,-0.12992 -0.53739,-0.14181 -0.18129,-0.0128 -0.27527,0.0104 -0.18873,0.0744 0.0881,0.168 0.0924,0.20296 0.0937,0.21795 -3.5e-4,0.007 -0.003,0.0275 -0.006,0.0412 -0.005,0.0199 -0.0422,0.0998 -0.12199,0.18679 -0.2286,0.0682 -0.51117,-0.12389 -0.53135,-0.17561 -0.007,-0.0281 -0.0123,-0.0616 -0.0135,-0.0705 v 0 c 0.01,0.1887 0.17082,0.33369 0.35952,0.32385 v 0 c 0.1887,-0.01 0.33369,-0.17078 0.32385,-0.35948"
       style="opacity:1;fill:#000000;fill-opacity:1;fill-rule:nonzero;stroke:none;stroke-width:0.352777;stop-opacity:1"
       id="path7581"
       inkscape:connector-curvature="0" />
  </g>
</svg>
