<?xml version="1.0" encoding="UTF-8" standalone="no"?>
<svg
   xmlns:dc="http://purl.org/dc/elements/1.1/"
   xmlns:cc="http://creativecommons.org/ns#"
   xmlns:rdf="http://www.w3.org/1999/02/22-rdf-syntax-ns#"
   xmlns:svg="http://www.w3.org/2000/svg"
   xmlns="http://www.w3.org/2000/svg"
   xmlns:sodipodi="http://sodipodi.sourceforge.net/DTD/sodipodi-0.dtd"
   xmlns:inkscape="http://www.inkscape.org/namespaces/inkscape"
   sodipodi:docname="slide24-yay.svg"
   inkscape:version="1.0beta1 (32d4812, 2019-09-19)"
   id="svg14667"
   version="1.1"
   viewBox="0 0 71.532768 35.690712"
   height="35.690712mm"
   width="71.532768mm">
  <defs
     id="defs14661" />
  <sodipodi:namedview
     inkscape:window-maximized="0"
     inkscape:window-y="23"
     inkscape:window-x="0"
     inkscape:window-height="770"
     inkscape:window-width="1440"
     showgrid="false"
     inkscape:document-rotation="0"
     inkscape:current-layer="layer1"
     inkscape:document-units="mm"
     inkscape:cy="421.73273"
     inkscape:cx="246.60935"
     inkscape:zoom="0.35"
     inkscape:pageshadow="2"
     inkscape:pageopacity="0.0"
     borderopacity="1.0"
     bordercolor="#666666"
     pagecolor="#ffffff"
     id="base" />
  <metadata
     id="metadata14664">
    <rdf:RDF>
      <cc:Work
         rdf:about="">
        <dc:format>image/svg+xml</dc:format>
        <dc:type
           rdf:resource="http://purl.org/dc/dcmitype/StillImage" />
        <dc:title></dc:title>
      </cc:Work>
    </rdf:RDF>
  </metadata>
  <g
     transform="translate(-40.584609,-36.583215)"
     id="layer1"
     inkscape:groupmode="layer"
     inkscape:label="Layer 1">
    <path
       d="m 41.260481,46.115037 c 0.0021,-0.01468 0.03235,-0.09059 0.07377,-0.153388 v 0 c -0.14732,0.167358 -0.131092,0.422452 0.0363,0.569772 v 0 c 0.167357,0.147319 0.422451,0.131056 0.569771,-0.0363 v 0 c 0.14732,-0.167358 0.131057,-0.422452 -0.0363,-0.569772 v 0 c -0.167357,-0.14732 -0.422486,-0.131057 -0.569771,0.0363 0.07207,-0.06516 0.359057,-0.130986 0.469724,-0.09927 v 0 c -0.203906,-0.09927 -0.449686,-0.01439 -0.548923,0.189513 v 0 c -0.09924,0.203905 -0.01439,0.449686 0.189548,0.548922 v 0 c 0.203905,0.09924 0.449686,0.01439 0.548922,-0.189512 v 0 c 0.09924,-0.203941 0.01439,-0.449686 -0.189547,-0.548923 0.108902,0.07585 0.166687,0.144216 0.169086,0.13709 v 0 c -0.102129,-0.211032 -0.355988,-0.299297 -0.56702,-0.197168 v 0 c -0.210996,0.102165 -0.299261,0.356024 -0.197132,0.56702 v 0 c 0.102129,0.211032 0.355988,0.299296 0.56702,0.197168 v 0 c 0.210996,-0.102165 0.299261,-0.356024 0.197132,-0.56702 -0.0028,-0.02406 -0.01429,-0.0889 -0.03228,-0.179211 0.05041,-0.21075 0.09952,-0.456671 0.181504,-0.57083 v 0 c -0.123261,-0.415643 -0.560141,-0.652603 -0.975748,-0.529343 v 0 c -0.415608,0.123296 -0.652604,0.560141 -0.529308,0.975748 v 0 c 0.123261,0.415608 0.560105,0.652604 0.975748,0.529343 v 0 c 0.415608,-0.123296 0.652604,-0.56014 0.529308,-0.975748 -1.541533,0.409646 -1.528868,0.60191 -1.503221,0.810225 0.06191,0.273191 0.148025,0.596194 0.259397,1.066341 0.199143,0.876688 0.492901,2.312987 0.89856,3.783612 0.334681,1.065142 0.728557,2.129331 1.113261,3.004432 0.44196,1.020092 0.895174,1.808938 1.256242,2.347065 0.161572,0.262679 0.325084,0.495583 0.471734,0.683331 0.126753,0.270439 0.378495,0.653168 0.672042,0.921667 0.41081,0.206163 1.016247,0.229023 1.362569,0.09934 0.297744,-0.160972 0.609917,-0.478401 0.779674,-0.730638 0.301731,-0.470993 0.580531,-1.186815 0.860989,-2.051967 0.17078,-0.56769 0.36389,-1.239661 0.603532,-2.025473 0.370523,-1.253314 0.85023,-2.765425 1.372588,-4.155899 0.168205,-0.42485 0.345264,-0.846278 0.522323,-1.250491 0.231599,-0.621136 0.449122,-1.171434 0.637011,-1.643027 0.223802,-0.641385 0.38354,-1.118835 0.427743,-1.383242 -0.0092,-0.07631 -0.0224,-0.145803 -0.04399,-0.201083 v 0 c 0.161853,-0.333867 0.02236,-0.735681 -0.311469,-0.897535 v 0 c -0.333869,-0.161819 -0.735718,-0.02237 -0.897572,0.311503 v 0 c -0.16182,0.333869 -0.02237,0.735718 0.311503,0.897537 v 0 c 0.333869,0.161854 0.735718,0.02237 0.897537,-0.311503 -0.01129,-0.02656 -0.01587,-0.06943 -0.02314,-0.11056 v 0 c 0.115532,-0.314325 -0.04558,-0.662835 -0.359907,-0.778405 v 0 c -0.314325,-0.115534 -0.662834,0.04558 -0.778369,0.359904 v 0 c -0.11557,0.314325 0.04554,0.662834 0.359869,0.778369 v 0 c 0.314325,0.11557 0.662834,-0.04554 0.778404,-0.359868 0.0035,-0.08795 -0.861272,-0.695572 -0.955887,-0.592279 v 0 c -0.209761,0.21276 -0.207327,0.555272 0.0054,0.765034 v 0 c 0.212725,0.209762 0.555237,0.207327 0.764999,-0.0054 v 0 c 0.209793,-0.212758 0.207394,-0.55527 -0.0054,-0.765032 v 0 c -0.21276,-0.209761 -0.555272,-0.207327 -0.765034,0.0054 -7.14e-4,0.135573 0.01457,0.272662 -0.0083,0.472017 v 0 c -0.08248,0.130387 -0.04364,0.30293 0.08671,0.385375 v 0 c 0.130387,0.08248 0.302931,0.04364 0.385375,-0.08675 0.169121,-0.104211 0.284268,-0.122097 0.315736,-0.02046 -0.09793,0.106927 -0.961672,-0.498934 -0.965588,-0.566068 -0.0072,-0.04159 -0.02004,-0.06639 -0.04265,-0.06992 -0.048,-7.16e-4 -0.103671,0.01185 -0.170558,0.04551 -0.188207,0.180375 -0.508459,0.605507 -0.892634,1.195034 -0.267864,0.450568 -0.578132,1.007392 -0.895597,1.621684 -0.188912,0.419029 -0.387279,0.878064 -0.579155,1.349199 -0.552838,1.475422 -1.05664,3.063839 -1.435417,4.347245 -0.225743,0.815798 -0.401532,1.506149 -0.546876,2.06322 -0.205247,0.834426 -0.343148,1.350469 -0.4717,1.618333 -0.0454,0.117158 0.04823,0.04561 0.111866,0.0068 0.115711,-0.0099 0.474874,0.0082 0.510858,0.02276 0.02078,0.08082 -0.107209,-0.01602 -0.327872,-0.248321 C 45.736139,55.759421 45.620004,55.617076 45.468416,55.397471 45.148411,54.899384 44.77683,54.23267 44.384894,53.290894 44.069761,52.453928 43.751908,51.454791 43.48161,50.428278 43.095741,49.025422 42.814048,47.63329 42.602064,46.694266 42.440245,46.1651 42.312257,45.820366 42.241243,45.6438 c -0.03538,-0.09596 -0.06893,-0.194451 -0.08929,-0.236396 -1.41164,0.312949 -1.243119,0.513397 -1.075232,0.679873 0.03838,0.09359 0.08527,0.202953 0.131728,0.281164 0.02762,0.04501 0.10802,0.147779 0.245392,0.236784 0.110948,0.03196 0.406682,-0.03563 0.494771,-0.119873 0.04075,-0.06177 0.07782,-0.153988 0.08527,-0.192582 v 0 c 0.04907,-0.213571 -0.08428,-0.426473 -0.29785,-0.475579 v 0 c -0.213572,-0.04907 -0.426509,0.08428 -0.47558,0.29785 z"
       style="opacity:1;fill:#000000;fill-opacity:1;fill-rule:nonzero;stroke:none;stroke-width:0.352777;stop-opacity:1"
       id="path14373"
       inkscape:connector-curvature="0" />
    <path
       d="m 46.176651,57.2051 c -0.01979,-0.140018 -0.06519,-0.29337 -0.116452,-0.400121 v 0 c -0.132997,-0.200307 -0.40326,-0.254882 -0.603567,-0.121849 v 0 c -0.200343,0.133032 -0.254883,0.403295 -0.12185,0.603602 v 0 c 0.133032,0.200343 0.40326,0.254882 0.603567,0.12185 v 0 c 0.200343,-0.133033 0.254883,-0.403261 0.12185,-0.603603 -0.03418,-0.06022 -0.114371,-0.150848 -0.177341,-0.202001 v 0 c -0.213396,-0.132432 -0.493748,-0.06682 -0.626146,0.146579 v 0 c -0.132433,0.213396 -0.06682,0.493713 0.14658,0.626146 v 0 c 0.21336,0.132433 0.493712,0.06682 0.626145,-0.146579 v 0 c 0.132432,-0.213396 0.06678,-0.493713 -0.146579,-0.626146 -0.08255,-0.05126 -0.260386,-0.09663 -0.367207,-0.09536 v 0 c -0.258974,0.03852 -0.437656,0.279683 -0.399168,0.538622 v 0 c 0.03852,0.258974 0.279647,0.437656 0.538621,0.399168 v 0 c 0.258939,-0.03852 0.437656,-0.279647 0.399168,-0.538621 v 0 c -0.03852,-0.258939 -0.279647,-0.437656 -0.538621,-0.399169 -0.18676,0.0387 -0.392677,0.187361 -0.479495,0.290972 -0.07489,0.0968 -0.152683,0.243063 -0.208139,0.37726 -0.149684,0.377367 -0.258128,0.903887 -0.359375,1.537194 -0.118145,0.994763 -0.231069,2.32477 -0.332846,3.555965 -0.02346,0.588468 -0.04343,1.145293 -0.0586,1.648919 0.0084,0.673063 0.02494,1.258499 0.05225,1.711571 0.06364,0.397899 0.135502,0.708237 0.217594,0.891082 v 0 c 0.0139,0.275096 0.248143,0.486834 0.523239,0.472969 v 0 c 0.275097,-0.01386 0.486834,-0.248144 0.47297,-0.523205 v 0 c -0.0139,-0.275091 -0.248144,-0.486864 -0.52324,-0.472965 v 0 c -0.275096,0.01386 -0.486833,0.248144 -0.472969,0.523205 0.04163,0.095 0.09387,0.204399 0.172861,0.307303 v 0 c 0.09895,0.190712 0.333798,0.265078 0.524474,0.166124 v 0 c 0.190712,-0.09895 0.265078,-0.333798 0.166123,-0.524475 v 0 c -0.09899,-0.190712 -0.333798,-0.265076 -0.52451,-0.166122 v 0 c -0.190676,0.09899 -0.265041,0.333799 -0.166087,0.524473 0.09546,0.09948 0.567372,0.111549 0.637469,0.0092 v 0 c 0.103752,-0.152611 0.06414,-0.360468 -0.08851,-0.464222 v 0 c -0.152647,-0.103716 -0.360468,-0.0641 -0.46422,0.08855 v 0 c -0.103752,0.152612 -0.0641,0.360469 0.08851,0.46422 v 0 c 0.152647,0.103716 0.360503,0.0641 0.46422,-0.08855 0.0145,-0.0599 0.02025,-0.125306 0.01298,-0.167322 v 0 c 0.0406,-0.148766 -0.04713,-0.30233 -0.195933,-0.34297 v 0 c -0.148801,-0.04061 -0.302401,0.0471 -0.343006,0.195932 -0.02191,0.01156 -0.02939,-0.01828 -0.02381,-0.06555 0.05524,-0.08054 0.516679,-0.06908 0.603991,0.0145 0.05944,0.06523 0.09846,0.07027 0.131657,-0.0013 0.06526,-0.150424 0.139665,-0.422767 0.222038,-0.806307 0.04879,-0.440161 0.108092,-1.007888 0.17586,-1.672133 0.02939,-0.499181 0.06339,-1.048913 0.101212,-1.636571 0.01902,-1.233946 0.04819,-2.549383 0.0829,-3.538502 -0.0182,-0.634859 -0.03806,-1.086097 -0.03401,-1.351421 0.0044,-0.05637 0.0028,-0.08548 0.0067,-0.111372 -0.0091,-0.01669 -0.134514,0.06378 -0.246309,0.0919 -0.06421,-0.005 -0.203412,-0.04166 -0.244017,-0.06752 -0.02981,-0.03052 -0.07355,-0.08385 -0.07288,-0.09162 0.01841,-0.0018 0.03609,0.0097 0.06847,0.09631 v 0 c 0.04914,0.213572 0.262114,0.346851 0.475686,0.297709 v 0 c 0.213571,-0.04916 0.34685,-0.262134 0.297709,-0.475705 z"
       style="opacity:1;fill:#000000;fill-opacity:1;fill-rule:nonzero;stroke:none;stroke-width:0.352777;stop-opacity:1"
       id="path14375"
       inkscape:connector-curvature="0" />
    <path
       d="m 53.962951,59.845147 c 0.154904,-0.188701 0.355458,-0.686964 0.487538,-1.200608 v 0 c 0.05006,-0.276719 -0.133702,-0.541655 -0.410421,-0.591714 v 0 c -0.276754,-0.05009 -0.54169,0.133667 -0.59175,0.410386 v 0 c -0.05006,0.276754 0.133668,0.54169 0.410422,0.591749 v 0 c 0.276719,0.05006 0.541655,-0.133667 0.591749,-0.410421 0.06999,-0.246063 0.131093,-0.55873 0.140935,-0.849348 v 0 c -0.01513,-0.316265 -0.28381,-0.560388 -0.600075,-0.545254 v 0 c -0.316265,0.01513 -0.560387,0.283775 -0.545253,0.600075 v 0 c 0.01513,0.316266 0.283774,0.560388 0.60004,0.545254 v 0 c 0.3163,-0.01513 0.560422,-0.283775 0.545288,-0.600075 0.03814,-0.242605 7.15e-4,-0.712082 -0.227753,-1.069234 v 0 c -0.226272,-0.267124 -0.626216,-0.30025 -0.893304,-0.07398 v 0 c -0.267088,0.226237 -0.300214,0.626181 -0.07398,0.893269 v 0 c 0.226237,0.267123 0.626181,0.300249 0.893304,0.07398 v 0 c 0.267089,-0.226236 0.300214,-0.62618 0.07398,-0.893268 -0.416137,-0.350873 -1.035332,-0.50419 -1.547848,-0.395464 -1.143988,0.582507 -2.31588,2.367174 -2.795517,4.177488 -0.162102,0.798231 -0.213184,1.628176 -0.143651,2.269984 0.126294,0.791987 0.61916,1.510701 1.231936,1.785513 0.687034,0.165807 1.448434,0.01408 2.066536,-0.261866 0.610659,-0.281022 1.272999,-0.737163 1.802201,-1.216448 0.55499,-0.582507 0.997479,-1.205724 1.297093,-1.722226 0.250931,-0.488667 0.395711,-0.858096 0.495265,-1.022879 0.02201,-0.0025 -0.05024,0.09617 -0.148484,0.192899 -0.08654,0.04413 -0.377578,0.09948 -0.530613,0.09444 -0.133386,-0.03457 -0.354366,-0.154693 -0.412327,-0.192229 -0.120403,-0.07419 -0.03119,0.49851 0.12827,1.162544 0.153705,0.533541 0.36262,1.133228 0.612599,1.612052 0.24705,0.329602 0.488209,0.56755 0.682766,0.717693 0.09617,0.07669 0.232551,0.170037 0.335562,0.23255 0.220027,0.08841 0.51248,0.172686 0.725205,0.200837 0.103223,0.0236 0.235973,0.04706 0.335315,0.05906 v 0 c 0.619337,0.08555 1.190731,-0.34717 1.27628,-0.966507 v 0 c 0.08555,-0.619342 -0.347169,-1.190736 -0.96647,-1.276285 v 0 c -0.619337,-0.08555 -1.190766,0.347169 -1.276315,0.96647 v 0 c -0.08555,0.619337 0.347169,1.190765 0.966505,1.276315 0.103999,0.01447 0.229271,0.02548 0.323921,0.02991 v 0 c 0.626357,0.02127 1.151361,-0.469228 1.172633,-1.095586 v 0 c 0.02127,-0.626391 -0.469229,-1.151395 -1.095586,-1.172668 v 0 c -0.626357,-0.02127 -1.151361,0.46923 -1.172669,1.095587 v 0 c -0.02127,0.626393 0.469265,1.151395 1.095622,1.172667 0.380506,-0.120015 0.766092,-0.310478 1.005346,-0.507928 v 0 c 0.40072,-0.111866 0.634859,-0.527439 0.522958,-0.928158 v 0 c -0.111866,-0.400685 -0.527438,-0.634859 -0.928158,-0.522958 v 0 c -0.400685,0.111901 -0.634859,0.527438 -0.522958,0.928159 v 0 c 0.111901,0.400719 0.527438,0.634857 0.928158,0.522957 0.08752,-0.188595 0.166723,-0.383151 0.209409,-0.570019 v 0 c 0.143334,-0.05704 0.213289,-0.219464 0.156245,-0.362796 v 0 c -0.05701,-0.143334 -0.219428,-0.21329 -0.362761,-0.156281 -0.140406,-0.114053 -0.26917,-0.236361 -0.407212,-0.362267 -0.214453,-0.07073 -0.355564,-0.17145 -0.526379,-0.309033 -0.04018,-1.77e-4 -0.05359,-2.12e-4 -0.09338,-0.005 -0.03528,-0.0066 -0.04233,-0.0099 -0.07867,-0.02191 -0.06646,-0.04293 -0.05228,-0.0653 -0.09966,-0.1264 -0.03602,-0.01468 -0.0333,-0.0081 -0.06678,-0.02946 -0.06883,-0.04844 -0.07913,-0.0575 -0.145803,-0.148272 -0.11437,-0.144427 -0.284444,-0.513786 -0.464008,-0.956698 -0.222144,-0.545218 -0.434905,-1.196164 -0.698147,-1.614523 -0.282787,-0.322086 -0.566914,-0.480095 -0.7638,-0.528073 -0.216605,-0.01845 -0.571605,0.04858 -0.719843,0.124389 -0.230575,0.165277 -0.435222,0.418959 -0.522675,0.590198 -0.175048,0.349002 -0.303354,0.720195 -0.479213,1.0916 -0.227471,0.397721 -0.548499,0.859507 -0.996668,1.328808 -0.387632,0.408728 -0.827652,0.759001 -1.288451,1.007815 -0.452755,0.252977 -0.731237,0.354752 -0.949077,0.299049 -0.132645,-0.01532 -0.183974,-0.09835 -0.246169,-0.593442 -0.04925,-0.477096 -0.0028,-1.096327 0.144039,-1.765547 0.373733,-1.557443 1.270459,-2.963051 1.881999,-3.216169 0.07116,-0.05207 0.09091,-0.0562 0.169968,0.0095 -0.03828,-0.115887 -0.03761,-0.07084 -0.03358,0.158256 0.03214,0.251002 0.02667,0.441184 0.0032,0.66989 -0.04674,0.474169 -0.139594,0.881415 -0.157162,0.964812 v 0 c -0.117299,0.185103 -0.06234,0.430248 0.122766,0.547582 v 0 c 0.185103,0.117298 0.430248,0.06234 0.547547,-0.122767 z"
       style="opacity:1;fill:#000000;fill-opacity:1;fill-rule:nonzero;stroke:none;stroke-width:0.352777;stop-opacity:1"
       id="path14377"
       inkscape:connector-curvature="0" />
    <path
       d="m 62.757736,59.844265 c -0.01718,-0.247509 -0.09754,-0.511916 -0.196356,-0.701992 v 0 c -0.07165,-0.172367 -0.269523,-0.254036 -0.441925,-0.182351 v 0 c -0.172367,0.07165 -0.254035,0.269522 -0.182351,0.441925 v 0 c 0.07165,0.172367 0.269522,0.254035 0.441925,0.18235 v 0 c 0.172367,-0.07165 0.254035,-0.269522 0.182351,-0.441924 -0.05465,-0.09236 -0.121638,-0.187713 -0.184962,-0.259821 v 0 c -0.08756,-0.136737 -0.269416,-0.176565 -0.406153,-0.08901 v 0 c -0.136701,0.0876 -0.176565,0.269416 -0.08897,0.406153 v 0 c 0.08759,0.136737 0.269416,0.176565 0.406153,0.08897 v 0 c 0.136701,-0.08756 0.176565,-0.269417 0.08897,-0.406118 -0.05673,-0.198402 -0.18034,-0.408376 -0.308398,-0.548922 v 0 c -0.235938,-0.116805 -0.521899,-0.02018 -0.638669,0.215759 v 0 c -0.116769,0.235973 -0.02018,0.521899 0.215794,0.638668 v 0 c 0.235938,0.11677 0.5219,0.02018 0.638669,-0.215758 v 0 c 0.116769,-0.235973 0.02014,-0.5219 -0.215794,-0.638669 0.02646,-0.01154 -0.08537,-0.08703 -0.180552,-0.130599 -0.118498,-0.03147 -0.392818,0.01552 -0.530613,0.08657 -0.189829,0.153 -0.329459,0.410387 -0.390031,0.576898 -0.05034,0.251389 -0.07126,0.683542 -0.03016,1.178207 0.03489,0.51756 0.143016,1.225338 0.352566,1.87713 0.284021,0.683543 0.701498,1.343308 1.15009,1.812396 0.639657,0.568714 1.493027,0.90357 2.201299,0.947843 1.385499,-0.120967 2.592281,-1.116084 3.389523,-2.042512 0.549699,-0.761506 0.900502,-1.350222 1.233559,-1.64458 0.250508,-0.256998 0.308399,-0.340289 0.469265,-0.29344 0.169614,-0.01722 0.248815,-3.6e-5 0.449403,0.408234 0.388549,0.973208 0.530191,2.770328 0.02117,4.557323 -0.159068,0.584661 -0.373804,1.108181 -0.690211,1.64578 -0.790257,1.266225 -2.014537,2.328474 -3.308913,2.954126 -0.722383,0.351719 -1.377633,0.531 -1.965219,0.553437 v 0 c -0.40125,2.65e-4 -0.726123,0.326215 -0.725594,0.727464 v 0 c 3.44e-4,0.401248 0.326179,0.726088 0.727464,0.725593 v 0 c 0.401249,-7.94e-4 0.726087,-0.326212 0.725593,-0.727464 v 0 c -7.15e-4,-0.401248 -0.326214,-0.726122 -0.727463,-0.725593 -0.439068,0.05937 -0.643749,0.05849 -0.872455,-0.06346 v 0 c -0.295169,-0.186267 -0.685483,-0.098 -0.871749,0.197168 v 0 c -0.186302,0.295169 -0.09804,0.685482 0.197167,0.871783 v 0 c 0.295169,0.186267 0.685483,0.098 0.871749,-0.197167 v 0 c 0.186303,-0.295204 0.098,-0.685483 -0.197167,-0.871784 -0.426544,-0.239361 -0.73152,-0.813824 -0.880569,-1.662361 v 0 c -0.02805,-0.25008 -0.253511,-0.430103 -0.503595,-0.402057 v 0 c -0.250084,0.02805 -0.430106,0.253508 -0.402061,0.503592 v 0 c 0.02805,0.250084 0.253506,0.43007 0.503591,0.402061 v 0 c 0.250084,-0.02805 0.430106,-0.253508 0.40206,-0.503592 -0.159914,-0.870937 -0.09655,-1.864077 0.229659,-2.854711 v 0 c 0.05609,-0.143722 -0.01496,-0.305684 -0.15868,-0.361739 v 0 c -0.143721,-0.05609 -0.305682,0.01495 -0.361738,0.158679 -0.461327,1.027819 -0.662834,2.17551 -0.614892,3.159302 0.05884,1.005591 0.434552,1.998557 1.057522,2.591504 0.480025,0.329459 1.08518,0.48006 1.64271,0.484716 0.734272,0.0218 1.69986,-0.172436 2.599972,-0.535974 1.530069,-0.728803 3.090544,-2.051545 4.073667,-3.536738 0.392782,-0.668655 0.695325,-1.394426 0.889987,-2.085163 0.52959,-2.088658 0.329917,-4.350633 -0.190005,-5.635555 -0.321488,-0.741186 -0.951937,-1.314309 -1.521884,-1.506926 -0.722138,-0.151835 -1.582208,0.119169 -2.135576,0.5086 -0.606708,0.521194 -1.090471,1.229572 -1.604186,1.887255 -0.612987,0.823666 -1.191719,1.451963 -1.799202,1.462934 -0.319123,0.0236 -0.598911,-0.05235 -0.971339,-0.372815 -0.305082,-0.270933 -0.576015,-0.655955 -0.803874,-1.143212 -0.182104,-0.454589 -0.289596,-0.974548 -0.355177,-1.442684 -0.07253,-0.422734 -0.08833,-0.673488 -0.08417,-0.832979 -0.03344,-0.07405 -0.1276,0.05743 -0.255411,0.158044 -0.106715,0.0448 -0.345863,0.08421 -0.425379,0.05973 -0.05627,-0.03658 -0.125448,-0.09052 -0.120756,-0.109644 0.10922,-0.0158 0.184432,-0.0242 0.303883,0.05246 0.0248,0.0654 0.04022,0.125624 0.05581,0.202248 0.04166,0.147884 0.05316,0.273896 0.02724,0.42492 v 0 c -0.0048,0.219111 0.168839,0.400615 0.387949,0.405448 v 0 c 0.219075,0.0048 0.400615,-0.168839 0.405448,-0.38795"
       style="opacity:1;fill:#000000;fill-opacity:1;fill-rule:nonzero;stroke:none;stroke-width:0.352777;stop-opacity:1"
       id="path14379"
       inkscape:connector-curvature="0" />
    <path
       d="m 75.556973,62.933611 c -0.193323,0.09546 -0.302543,0.125907 -0.306002,0.07846 v 0 c -0.268287,0.0853 -0.416594,0.371934 -0.331258,0.640184 v 0 c 0.0853,0.268253 0.371936,0.41656 0.640186,0.331259 v 0 c 0.268253,-0.08534 0.41656,-0.371933 0.331258,-0.640221 v 0 c -0.0853,-0.268253 -0.371932,-0.416559 -0.640186,-0.331222 0.01566,-0.02519 0.13896,-0.05736 0.254143,-0.06276 v 0 c -0.305646,-0.0799 -0.618209,0.103081 -0.698113,0.408728 v 0 c -0.07991,0.305646 0.103081,0.618209 0.408728,0.698113 v 0 c 0.305647,0.0799 0.61821,-0.103081 0.698114,-0.408728 v 0 c 0.0799,-0.305647 -0.103082,-0.618208 -0.408729,-0.698113 0.12527,0.02992 0.379095,0.260032 0.447392,0.380647 v 0 c -0.08319,-0.338807 -0.425272,-0.546029 -0.764082,-0.462844 v 0 c -0.338807,0.08319 -0.546029,0.425308 -0.462844,0.764117 v 0 c 0.08322,0.338807 0.42531,0.546029 0.764117,0.46281 v 0 c 0.338807,-0.08319 0.546029,-0.425276 0.462809,-0.764083 0.03387,0.09835 0.0466,0.233858 0.06093,0.266666 v 0 c 0.09288,-0.370348 -0.132046,-0.745879 -0.502391,-0.838765 v 0 c -0.370348,-0.09289 -0.745879,0.132045 -0.838766,0.50239 v 0 c -0.09289,0.370347 0.132045,0.745879 0.502391,0.838766 v 0 c 0.370348,0.09288 0.745879,-0.132046 0.838766,-0.502391 -0.07973,-0.01204 -0.0822,-0.158009 0.0303,-0.473604 v 0 c 0.139099,-0.223098 0.07105,-0.51675 -0.152048,-0.655885 v 0 c -0.223097,-0.139136 -0.516748,-0.07105 -0.655884,0.152047 v 0 c -0.139099,0.223097 -0.07105,0.516749 0.152048,0.655849 v 0 c 0.223097,0.139136 0.516747,0.07109 0.655884,-0.152011 -0.01167,-0.105058 -0.01789,-0.217418 -0.01725,-0.339161 v 0 c 0.08378,-0.129505 0.04667,-0.302437 -0.08287,-0.386221 v 0 c -0.129505,-0.08375 -0.302437,-0.04667 -0.38622,0.08287 -0.112043,0.05249 -0.219535,0.0992 -0.321241,0.138113 -0.249412,0.264724 -0.439137,0.47244 -0.564266,0.643149 0.0035,0.07616 0.01384,0.246626 0.0538,0.369888 0.07422,0.144637 0.342477,0.389361 0.503801,0.427918 0.12372,-0.0032 0.277178,-0.03926 0.326957,-0.075 0.150211,-0.09631 0.309385,-0.246486 0.470463,-0.411514 v 0 c 0.176602,-0.129752 0.214524,-0.378109 0.08477,-0.554708 v 0 c -0.129786,-0.176571 -0.378143,-0.21453 -0.554707,-0.08474 z"
       style="opacity:1;fill:#000000;fill-opacity:1;fill-rule:nonzero;stroke:none;stroke-width:0.352777;stop-opacity:1"
       id="path14381"
       inkscape:connector-curvature="0" />
    <path
       d="m 77.634904,45.090112 c -0.128413,0.05595 -0.231952,0.09529 -0.332459,0.134302 v 0 c -0.183444,0.03482 -0.303882,0.211737 -0.269063,0.395182 v 0 c 0.03482,0.183409 0.211738,0.303883 0.395147,0.269063 v 0 c 0.183444,-0.03482 0.303917,-0.211737 0.269097,-0.395181 v 0 c -0.03482,-0.183409 -0.211772,-0.303883 -0.395181,-0.269064 -0.102341,0.03468 -0.207574,0.0707 -0.29859,0.11878 v 0 c -0.15226,0.05637 -0.229976,0.225531 -0.173601,0.37779 v 0 c 0.05641,0.152259 0.22553,0.229976 0.377825,0.173602 v 0 c 0.152257,-0.05641 0.229975,-0.225531 0.173566,-0.37779 v 0 c -0.05638,-0.152294 -0.225531,-0.230011 -0.37779,-0.173602 -0.04738,0.02332 -0.108691,0.05955 -0.151977,0.09476 v 0 c -0.126471,0.08834 -0.157409,0.262467 -0.06907,0.388938 v 0 c 0.0883,0.126471 0.262432,0.157409 0.388903,0.06907 v 0 c 0.126466,-0.08834 0.157404,-0.262467 0.06907,-0.388938 v 0 c -0.0883,-0.12647 -0.262432,-0.157374 -0.388903,-0.06907 -0.08594,-0.01739 -0.19939,0.0025 -0.293759,0.01919 -0.184219,0.137513 -0.342757,0.394653 -0.454483,0.658884 -0.07797,0.265959 -0.1421,0.642408 -0.202425,1.137567 -0.05539,0.493959 -0.108055,1.146492 -0.158961,1.951848 -0.07578,1.501952 -0.144108,3.414854 -0.188418,5.08628 -0.02896,0.930169 -0.05024,1.800295 -0.04575,2.530157 0.02572,0.496182 0.06237,0.921738 0.105939,1.270494 0.049,0.352531 0.114723,0.685624 0.183867,0.935849 0.03524,0.129505 0.08502,0.280811 0.129717,0.392465 0.04882,0.117299 0.134514,0.280988 0.206867,0.389679 0.159068,0.16136 0.55485,0.418288 0.87122,0.478578 v 0 c 0.537811,0.09133 1.047822,-0.270581 1.139156,-0.808355 v 0 c 0.09137,-0.53781 -0.270582,-1.047821 -0.808355,-1.139155 v 0 c -0.537774,-0.09137 -1.047822,0.270546 -1.139156,0.808355 v 0 c -0.09133,0.537775 0.270582,1.047821 0.808355,1.139155 0.331364,-0.01415 0.788035,-0.216994 0.938038,-0.382693 v 0 c 0.360855,-0.340043 0.377754,-0.908262 0.03768,-1.269118 v 0 c -0.340043,-0.360892 -0.908262,-0.377755 -1.269119,-0.03771 v 0 c -0.360858,0.340042 -0.377754,0.908261 -0.03768,1.269118 v 0 c 0.340043,0.360891 0.908227,0.377754 1.269119,0.03771 0.133456,-0.320181 0.206655,-0.733037 0.205317,-1.131676 v 0 c 0.08791,-0.280282 -0.06802,-0.578767 -0.348298,-0.666715 v 0 c -0.280284,-0.08791 -0.578768,0.06802 -0.666681,0.348298 v 0 c -0.08795,0.280282 0.06802,0.578767 0.348263,0.666679 v 0 c 0.280281,0.08795 0.578768,-0.06798 0.666716,-0.348262 -0.04442,-0.139771 -0.08911,-0.293441 -0.137478,-0.449086 v 0 c 0.03686,-0.14979 -0.05468,-0.301096 -0.20447,-0.337961 v 0 c -0.149825,-0.03687 -0.301133,0.05472 -0.337963,0.204505 -0.112606,0.105375 -0.223308,0.189442 -0.335031,0.263983 -0.203377,0.245393 -0.343818,0.263137 -0.423757,0.145239 0.04621,-0.06791 0.397685,-0.228212 0.626179,-0.259821 0.213432,0.04279 0.508601,0.222215 0.571077,0.243805 0.0079,0.01538 0.03094,0.05845 0.01945,0.0266 -0.01566,-0.0375 -0.02392,-0.06396 -0.04382,-0.140934 -0.04149,-0.163266 -0.075,-0.359269 -0.109996,-0.657155 -0.04036,-0.301978 -0.07232,-0.648511 -0.09705,-1.080946 -0.03327,-0.659483 -0.04279,-1.487911 -0.04463,-2.42309 -0.03482,-1.67079 -0.04593,-3.565807 -0.04956,-5.057986 -0.0089,-0.798019 -0.01654,-1.431502 -0.02085,-1.925885 -0.02495,-0.498227 -0.05045,-0.812835 -0.06385,-1.028558 -0.05133,-0.214383 -0.128164,-0.236961 -0.181293,-0.274849 -0.05013,-0.0429 -0.114228,-0.07006 -0.14425,-0.126507 0.01259,-0.0038 0.01368,0.0014 0.03736,-0.0018 0.04798,-0.0035 0.11303,0 0.220345,-0.0057 0.107315,-3.44e-4 0.250968,-0.0083 0.416348,-0.03334 v 0 c 0.21128,-0.05824 0.335317,-0.276719 0.277072,-0.487962 v 0 C 78.06463,45.15586 77.846156,45.031823 77.634912,45.090067 Z"
       style="opacity:1;fill:#000000;fill-opacity:1;fill-rule:nonzero;stroke:none;stroke-width:0.352777;stop-opacity:1"
       id="path14383"
       inkscape:connector-curvature="0" />
    <path
       d="m 98.660106,41.863253 c -2.64e-4,0.05002 7.94e-4,0.09271 -0.01016,0.145345 v 0 c -0.09359,0.113347 -0.07758,0.281093 0.03577,0.37472 v 0 c 0.113347,0.09359 0.281128,0.07758 0.374719,-0.03577 v 0 c 0.09359,-0.113383 0.07758,-0.281128 -0.03577,-0.37472 v 0 c -0.113347,-0.09363 -0.281128,-0.07761 -0.374719,0.03577 -0.132223,0.110737 -0.267758,0.177659 -0.510683,0.211384 v 0 c -0.194378,0.05898 -0.304165,0.264372 -0.245178,0.458788 v 0 c 0.05898,0.19438 0.264406,0.304165 0.458787,0.24518 v 0 c 0.194416,-0.05898 0.304199,-0.264407 0.245216,-0.458787 v 0 c -0.05899,-0.194416 -0.264409,-0.304165 -0.458825,-0.245181 -0.173601,0.04812 -0.314536,0.06798 -0.434975,0.03644 v 0 c -0.218334,-0.02808 -0.41811,0.126153 -0.446193,0.344488 v 0 c -0.02808,0.218369 0.126153,0.418147 0.344488,0.446228 v 0 c 0.218334,0.02808 0.418113,-0.126153 0.44623,-0.344487 v 0 c 0.02808,-0.218335 -0.126153,-0.418113 -0.344525,-0.446229 -0.06861,-0.03052 -0.09825,-0.101 -0.157162,-0.325437 -0.072,-0.226872 -0.08139,-0.497523 -0.029,-0.879017 0.01595,-0.340783 0.06555,-0.633165 0.271817,-1.024008 0.408162,-0.688693 1.208333,-1.499129 2.145098,-1.917629 0.563779,-0.254847 1.067679,-0.342089 1.588519,-0.244758 0.41455,0.06685 0.72415,0.218123 1.05499,0.551004 0.39451,0.421076 0.71106,1.088002 0.96834,1.911068 0.15674,0.499674 0.27619,1.02676 0.37144,1.549682 0.19981,0.823842 0.31009,1.479091 0.27654,2.092854 -0.008,0.383364 -0.0507,0.652815 -0.18581,0.956486 -0.1609,0.289772 -0.38251,0.550193 -0.7221,0.83499 -0.50112,0.438856 -1.11354,0.820738 -1.79655,1.067541 -0.4728,0.146579 -0.95515,0.212231 -1.43595,0.183056 -0.677439,-0.02843 -1.162473,-0.284092 -1.592757,-0.821866 -0.331787,-0.446475 -0.57136,-1.049761 -0.740164,-1.707691 v 0 c -0.05853,-0.268852 -0.323919,-0.43935 -0.592772,-0.380824 v 0 c -0.268817,0.05856 -0.439314,0.323956 -0.380789,0.592773 v 0 c 0.05853,0.268852 0.323922,0.439349 0.592773,0.380823 v 0 c 0.268854,-0.05856 0.439351,-0.323955 0.380788,-0.592772 -0.265041,-0.928511 -0.331187,-1.798638 -0.278588,-2.508956 v 0 c 0.02681,-0.202318 -0.115429,-0.388055 -0.317746,-0.414901 v 0 c -0.202319,-0.02681 -0.388056,0.115464 -0.414903,0.317746 v 0 c -0.02681,0.202318 0.115464,0.388056 0.317748,0.414902 v 0 c 0.202317,0.02681 0.388054,-0.115429 0.414901,-0.317747 0.02495,-0.355212 0.07408,-0.638316 0.147143,-0.866845 v 0 c 0.06474,-0.15561 -0.0089,-0.334257 -0.164534,-0.399027 v 0 c -0.155612,-0.06473 -0.334258,0.0089 -0.398991,0.164536 v 0 c -0.06477,0.15561 0.0089,0.334256 0.164499,0.398991 v 0 c 0.15561,0.06477 0.334256,-0.0089 0.399026,-0.1645 0.06978,-0.227365 0.12446,-0.343535 0.195686,-0.397404 v 0 c 0.11656,-0.0641 0.159105,-0.210538 0.095,-0.327096 v 0 c -0.0641,-0.116558 -0.210537,-0.159103 -0.327096,-0.095 -0.20006,0.09529 -0.392748,0.321734 -0.527119,0.585012 -0.131128,0.262078 -0.242888,0.617643 -0.316267,1.004217 -0.144039,0.772618 -0.156385,1.798002 0.03955,2.826314 0.132681,0.727004 0.392713,1.527457 0.777028,2.160728 0.583282,0.766868 1.485795,1.300198 2.439107,1.421342 0.633837,0.02459 1.330957,-0.07701 1.943627,-0.271392 0.8279,-0.345687 1.60034,-0.869315 2.1584,-1.400034 0.38195,-0.377754 0.6984,-0.821266 0.88953,-1.241848 0.19403,-0.43628 0.28504,-0.908614 0.30357,-1.339709 0.0784,-0.707354 -0.006,-1.53102 -0.16599,-2.376522 -0.0721,-0.5219 -0.18559,-1.125855 -0.33722,-1.690265 -0.2807,-0.920291 -0.7082,-1.824884 -1.25278,-2.447854 -0.52116,-0.485387 -1.17793,-0.799677 -1.778,-0.902617 -0.74478,-0.10287 -1.59992,0.05168 -2.317116,0.37786 -1.123807,0.582507 -2.116772,1.644262 -2.594856,2.525183 -0.257103,0.563774 -0.335208,1.096539 -0.332846,1.484137 -0.01397,0.441219 0.06011,0.918174 0.209868,1.261639 0.162983,0.345545 0.493501,0.668408 0.846738,0.770008 0.319193,0.03037 0.614997,-0.03309 0.823912,-0.112819 0.31369,-0.134972 0.567124,-0.365266 0.69776,-0.57344 0.06403,-0.0381 0.129926,-0.08805 0.185137,-0.130104 v 0 c 0.09775,-0.161714 0.0459,-0.37204 -0.115817,-0.469795 v 0 c -0.161713,-0.09775 -0.372041,-0.0459 -0.469794,0.115817 z"
       style="opacity:1;fill:#000000;fill-opacity:1;fill-rule:nonzero;stroke:none;stroke-width:0.352777;stop-opacity:1"
       id="path14385"
       inkscape:connector-curvature="0" />
    <path
       d="m 102.19152,48.999912 c -0.16355,-0.166088 -0.21541,-0.27305 -0.25108,-0.455718 v 0 c -0.0303,-0.175578 -0.19723,-0.2933 -0.37281,-0.262996 v 0 c -0.17554,0.03034 -0.2933,0.197238 -0.26296,0.37278 v 0 c 0.0303,0.175577 0.1972,0.293335 0.37278,0.262996 v 0 c 0.17558,-0.0303 0.2933,-0.197238 0.26299,-0.37278 -0.0105,-0.257775 0.0241,-0.566702 0.0536,-0.669502 v 0 c 0.0152,-0.214207 -0.14605,-0.400191 -0.36025,-0.415431 v 0 c -0.21421,-0.01521 -0.4002,0.146085 -0.4154,0.360292 v 0 c -0.0152,0.214206 0.14605,0.400191 0.36026,0.415396 v 0 c 0.21421,0.01524 0.40019,-0.14605 0.41539,-0.360257 0.0149,-0.05161 0.0289,-0.08611 0.0419,-0.110666 v 0 c 0.002,-0.235762 -0.18654,-0.428978 -0.4223,-0.431483 v 0 c -0.23577,-0.0025 -0.42895,0.186514 -0.43149,0.422275 v 0 c -0.002,0.235761 0.18652,0.428978 0.42228,0.431483 v 0 c 0.23579,0.0025 0.42897,-0.186514 0.43151,-0.422275 0.007,-0.01496 0.0113,-0.05422 0.004,-0.133597 v 0 c -0.062,-0.238372 -0.3056,-0.381247 -0.54394,-0.319194 v 0 c -0.23838,0.06209 -0.38128,0.305612 -0.31919,0.543984 v 0 c 0.062,0.238336 0.3056,0.381247 0.54394,0.319158 v 0 c 0.23838,-0.06205 0.38125,-0.305612 0.31919,-0.543948 -0.0227,-0.07415 -0.78492,-0.171803 -0.84818,-0.07412 -0.0244,0.05655 -0.037,0.09359 -0.042,0.1022 -0.0362,0.209409 -0.0768,0.500909 -0.14474,0.918104 -0.11208,0.596406 -0.28417,1.480396 -0.4463,2.381074 -0.11088,0.721148 -0.21587,1.460676 -0.28014,2.083223 -0.0533,0.946255 -0.008,1.670332 0.23092,2.046323 v 0 c 0.10884,0.192157 0.35282,0.259715 0.54501,0.150882 v 0 c 0.19216,-0.108796 0.25972,-0.352812 0.15089,-0.544971 v 0 c -0.1088,-0.192193 -0.35282,-0.25975 -0.54498,-0.150918 v 0 c -0.19219,0.108832 -0.25975,0.352813 -0.15092,0.545007 0.0803,0.105127 0.25489,0.233186 0.39473,0.264724 v 0 c 0.19311,0.04766 0.38827,-0.07024 0.43589,-0.263349 v 0 c 0.0477,-0.193075 -0.0702,-0.388232 -0.26335,-0.435892 v 0 c -0.19307,-0.04766 -0.38823,0.07027 -0.43589,0.263349 v 0 c -0.0477,0.19311 0.0703,0.388267 0.26335,0.435892 0.13635,0.01034 0.31446,-0.03299 0.42153,-0.09733 v 0 c 0.15893,-0.07768 0.22483,-0.269522 0.14715,-0.428483 v 0 c -0.0777,-0.158962 -0.26956,-0.224861 -0.42852,-0.147144 v 0 c -0.15893,0.07768 -0.22483,0.269522 -0.14715,0.428484 v 0 c 0.0777,0.158962 0.26956,0.224825 0.42852,0.147143 0.18327,-0.124565 0.40058,-0.355776 0.6374,-0.673311 v 0 c 0.0864,-0.101141 0.0744,-0.253154 -0.0267,-0.339549 v 0 c -0.10117,-0.08639 -0.25318,-0.07444 -0.33958,0.0267 -0.25838,0.262255 -0.43296,0.385904 -0.55337,0.410951 -0.0435,0.0092 0.006,-0.0108 0.0315,-0.02713 0.033,0.0052 0.11942,0.05807 0.13028,0.04068 -0.0386,-0.113912 0.029,-0.630379 0.18401,-1.526858 0.073,-0.599122 0.18567,-1.311662 0.30695,-2.025332 0.12612,-0.899654 0.26325,-1.789395 0.34484,-2.422595 0.0344,-0.460234 0.0389,-0.783485 0.0291,-0.941811 -0.0117,0.06459 -0.0234,0.09758 -0.047,0.152365 -0.0625,0.09592 -0.82409,-0.0018 -0.85312,-0.103752 7.9e-4,-0.04565 0.006,-0.07327 0.012,-0.07031 0.0126,0.01115 0.0243,0.03782 0.0355,0.07733 0.0141,0.111972 0.0234,0.48073 0.0847,0.806626 0.0436,0.278448 0.17032,0.572382 0.38195,0.820597 v 0 c 0.12683,0.140052 0.34319,0.150777 0.48327,0.02395 v 0 c 0.14006,-0.126858 0.15078,-0.343217 0.0239,-0.48327 z"
       style="opacity:1;fill:#000000;fill-opacity:1;fill-rule:nonzero;stroke:none;stroke-width:0.352777;stop-opacity:1"
       id="path14387"
       inkscape:connector-curvature="0" />
    <path
       d="m 102.04839,48.972466 c -0.065,-0.04643 -0.0506,-0.212584 -0.0333,-0.441678 v 0 c 0.0294,-0.129716 -0.052,-0.258727 -0.18171,-0.288078 v 0 c -0.12972,-0.02939 -0.2587,0.05196 -0.28808,0.18168 v 0 c -0.0294,0.129752 0.052,0.258728 0.18172,0.288114 v 0 c 0.12971,0.02939 0.25869,-0.052 0.28807,-0.181716 0.0122,-0.229341 0.005,-0.425026 -0.0159,-0.560775 v 0 c -0.0218,-0.132998 -0.14721,-0.223168 -0.28021,-0.201401 v 0 c -0.13296,0.02177 -0.22313,0.147214 -0.2014,0.280176 v 0 c 0.0218,0.132997 0.14722,0.223167 0.28021,0.201401 v 0 c 0.133,-0.02177 0.22317,-0.147215 0.2014,-0.280176 0.0144,-0.05137 0.0226,-0.114265 0.0283,-0.166018 v 0 c -0.0598,-0.161501 -0.23928,-0.24391 -0.40082,-0.184079 v 0 c -0.1615,0.05987 -0.24395,0.239324 -0.18408,0.400826 v 0 c 0.0598,0.161537 0.23929,0.243946 0.40083,0.184115 v 0 c 0.1615,-0.05987 0.24394,-0.239325 0.18407,-0.400862 2.7e-4,-0.06011 -0.0616,-0.187148 -0.15987,-0.280705 -0.48133,0.101071 -0.57588,0.236926 -0.62167,0.333128 -0.0418,0.08897 -0.0865,0.216324 -0.1283,0.360539 -0.0823,0.284092 -0.17195,0.702028 -0.26399,1.242766 -0.14231,1.001536 -0.29439,2.448595 -0.37687,3.933718 -0.0245,0.785495 -0.0325,1.568027 -0.0356,2.27965 0.0437,1.875967 0.14545,3.246473 0.26412,3.986671 v 0 c 0.0198,0.217629 0.2122,0.378072 0.42983,0.358317 v 0 c 0.21766,-0.01972 0.37811,-0.212161 0.35835,-0.429825 v 0 c -0.0197,-0.217628 -0.21216,-0.378072 -0.42982,-0.358316 v 0 c -0.21763,0.01972 -0.37808,0.212161 -0.35836,0.429824 0.06,0.374015 0.13441,0.635353 0.26452,0.791422 v 0 c 0.11779,0.130457 0.31905,0.140723 0.44951,0.0229 v 0 c 0.13045,-0.117793 0.14068,-0.319052 0.0229,-0.44951 v 0 c -0.11783,-0.130457 -0.31909,-0.140723 -0.44951,-0.02289 v 0 c -0.13046,0.117792 -0.14073,0.319052 -0.0229,0.449509 0.26913,0.112113 0.54391,-0.10668 0.55989,-0.21022 v 0 c 0.0389,-0.149437 -0.0508,-0.302084 -0.20017,-0.340925 v 0 c -0.14943,-0.03888 -0.30208,0.05073 -0.34096,0.200167 v 0 c -0.0388,0.149401 0.0508,0.302048 0.20021,0.340924 v 0 c 0.1494,0.03888 0.30204,-0.05073 0.34092,-0.200166 0.009,-0.08647 0.0147,-0.216006 0.0172,-0.377755 v 0 c 0.0126,-0.132432 -0.0846,-0.249943 -0.21706,-0.262502 v 0 c -0.1324,-0.01256 -0.24995,0.08463 -0.26251,0.217029 -0.0269,0.148273 -0.0531,0.237243 -0.0788,0.282716 -0.0181,0.02731 0.22084,-0.147178 0.45519,-0.07419 0.0559,0.07398 0.0559,-0.08248 0.0497,-0.437973 -0.0136,-0.718326 -0.0108,-2.052109 0.0488,-3.915269 -0.009,-0.712541 -0.0139,-1.480538 -0.002,-2.242185 0.0566,-1.448117 0.18116,-2.858029 0.29711,-3.841256 0.0515,-0.530719 0.0969,-0.918668 0.13586,-1.183993 0.0188,-0.13088 0.0313,-0.213889 0.0427,-0.272873 0.007,-0.05186 -0.0381,-0.0011 -0.13159,0.06784 -0.41857,-0.07419 -0.45995,-0.169192 -0.44171,-0.18094 0.0243,-0.0018 0.0481,0.0018 0.0754,0.02942 0.0182,0.101177 0.0259,0.255693 0.0218,0.421393 -0.0759,0.16189 -0.17258,0.438608 -0.14704,0.696912 v 0 c 0.0538,0.181152 0.2443,0.284374 0.42542,0.23054 v 0 c 0.18115,-0.0538 0.28437,-0.244263 0.23054,-0.425414"
       style="opacity:1;fill:#000000;fill-opacity:1;fill-rule:nonzero;stroke:none;stroke-width:0.352777;stop-opacity:1"
       id="path14389"
       inkscape:connector-curvature="0" />
    <path
       d="m 101.2441,60.605136 c -0.0395,-0.02759 -0.1511,-0.100047 -0.25549,-0.117475 v 0 c -0.15892,-0.02568 -0.30857,0.08234 -0.33425,0.241265 v 0 c -0.0257,0.158926 0.0823,0.308575 0.24123,0.334257 v 0 c 0.15892,0.02568 0.30861,-0.08234 0.33429,-0.241265 v 0 c 0.0257,-0.158926 -0.0823,-0.308574 -0.24127,-0.334257 -0.0716,0.0054 -0.176,0.04403 -0.20482,0.07151 v 0 c -0.12022,0.08456 -0.14915,0.250578 -0.0646,0.37084 v 0 c 0.0846,0.120227 0.25058,0.149155 0.37084,0.06459 v 0 c 0.12023,-0.08456 0.14915,-0.250613 0.0646,-0.37084 v 0 c -0.0846,-0.120262 -0.25058,-0.149154 -0.37084,-0.06459 -0.0378,0.0442 -0.0581,0.08386 -0.0609,0.104634 v 0 c -0.0658,0.115606 -0.0255,0.262679 0.0901,0.328472 v 0 c 0.11561,0.06583 0.26265,0.02547 0.32847,-0.0901 v 0 c 0.0658,-0.115605 0.0255,-0.262643 -0.0901,-0.328471 v 0 c -0.1156,-0.06583 -0.26264,-0.02547 -0.32846,0.0901 -0.0699,0.04103 -0.13152,0.102518 -0.18288,0.143404 -0.0299,0.123684 -0.0442,0.336127 -0.0402,0.558201 v 0 c 0.0241,0.238689 0.2372,0.412644 0.47589,0.388514 v 0 c 0.23869,-0.02416 0.41265,-0.237208 0.38852,-0.475933 v 0 c -0.0241,-0.238689 -0.23721,-0.412644 -0.47593,-0.388514 v 0 c -0.2387,0.02416 -0.41265,0.237208 -0.38848,0.475933 0.0312,0.301484 0.1131,0.616549 0.21618,0.912248 v 0 c 0.10251,0.248179 0.38682,0.366218 0.635,0.263701 v 0 c 0.24814,-0.102517 0.36622,-0.386785 0.2637,-0.634965 v 0 c -0.10252,-0.248182 -0.38683,-0.366221 -0.63497,-0.263704 v 0 c -0.24818,0.102517 -0.36625,0.386786 -0.26374,0.634965 0.1754,0.433423 0.41946,0.896479 0.66443,1.334169 v 0 c 0.13652,0.239183 0.44107,0.32244 0.68029,0.185915 v 0 c 0.23919,-0.136525 0.32241,-0.441114 0.18588,-0.680297 v 0 c -0.13649,-0.239183 -0.44108,-0.322439 -0.68026,-0.185914 v 0 c -0.23922,0.136524 -0.32244,0.441113 -0.18591,0.680296 0.695,1.0444 1.4273,1.993688 1.40726,2.372397 v 0 c -0.0217,0.131268 0.0672,0.255199 0.1984,0.276894 v 0 c 0.13124,0.02167 0.2552,-0.06717 0.27686,-0.198403 0.15618,-0.688162 -0.48334,-1.837195 -1.01628,-2.945199 -0.24631,-0.423016 -0.47043,-0.829345 -0.632,-1.211192 -0.12146,-0.247897 -0.20585,-0.452579 -0.25361,-0.65278 -0.0341,-0.16196 -0.0546,-0.302613 -0.0647,-0.366677 -0.0448,-0.02134 -0.0969,-0.0042 -0.15364,0.01312 -10e-4,0.01771 -0.0182,0.05331 -0.0295,0.07631 -0.0487,0.04343 -0.14964,0.08093 -0.21763,0.08689 -0.0972,-0.01626 -0.20097,-0.08174 -0.23212,-0.09592 v 0 c 0.10001,0.160337 0.31104,0.209232 0.47138,0.109255 v 0 c 0.16034,-0.100012 0.20926,-0.311044 0.10925,-0.471382 z"
       style="opacity:1;fill:#000000;fill-opacity:1;fill-rule:nonzero;stroke:none;stroke-width:0.352777;stop-opacity:1"
       id="path14391"
       inkscape:connector-curvature="0" />
    <path
       d="m 100.8033,60.549433 c 0.0326,-0.19932 0.0376,-0.365831 -0.0204,-0.517737 v 0 c -0.0579,-0.135114 -0.21435,-0.197767 -0.34946,-0.139876 v 0 c -0.13515,0.05785 -0.19777,0.214347 -0.13988,0.349461 v 0 c 0.0579,0.135114 0.21431,0.197768 0.34946,0.139877 v 0 c 0.13512,-0.05786 0.19777,-0.214313 0.13988,-0.349462 -0.0243,-0.05443 -0.14884,-0.158468 -0.23185,-0.18161 v 0 c -0.15416,-0.01185 -0.28871,0.103505 -0.30056,0.257669 v 0 c -0.0119,0.154129 0.10347,0.288713 0.25763,0.300567 v 0 c 0.15413,0.01185 0.28871,-0.103505 0.30057,-0.257634 v 0 c 0.0119,-0.154164 -0.10351,-0.288713 -0.25764,-0.300602 -0.0735,-0.0018 -0.17773,0.0321 -0.21625,0.05341 v 0 c -0.12788,0.0998 -0.15063,0.284374 -0.0508,0.41222 v 0 c 0.0998,0.127882 0.28437,0.150637 0.41222,0.05084 v 0 c 0.12788,-0.0998 0.15064,-0.284339 0.0508,-0.412221 v 0 c -0.0998,-0.127847 -0.28434,-0.150601 -0.41222,-0.05083 -0.0419,0.02286 -0.0931,0.06731 -0.12661,0.0986 -0.0616,0.05637 -0.1391,0.153211 -0.223837,0.275414 -0.155152,0.253329 -0.371898,0.663434 -0.628404,1.20724 -0.391761,0.887801 -0.882367,2.102943 -1.364792,3.29706 -0.59743,1.554129 -1.168541,2.993496 -1.552893,3.955699 -0.277707,0.76006 -0.459846,1.330253 -0.444606,1.530667 v 0 c 0.0028,0.187643 0.157094,0.337537 0.344771,0.334785 v 0 c 0.187642,-0.0028 0.337502,-0.157125 0.334751,-0.344768 v 0 c -0.0028,-0.187642 -0.157091,-0.337539 -0.344734,-0.334788 v 0 c -0.187679,0.0028 -0.337539,0.157129 -0.334788,0.344771 0.136314,0.276085 0.604875,0.208457 0.643292,0.13829 v 0 c 0.09634,-0.144886 0.05701,-0.340466 -0.08791,-0.436811 v 0 c -0.144886,-0.09634 -0.340431,-0.05701 -0.436808,0.08788 v 0 c -0.09635,0.144921 -0.05698,0.340466 0.08791,0.436809 v 0 c 0.144886,0.09638 0.340466,0.05701 0.436811,-0.08788 0.02826,-0.05821 0.06996,-0.148167 0.122942,-0.266489 v 0 c 0.07468,-0.141888 0.02019,-0.317465 -0.121709,-0.392149 v 0 c -0.141885,-0.07465 -0.317463,-0.02019 -0.392112,0.121708 v 0 c -0.07468,0.141888 -0.02021,0.317466 0.121674,0.39215 v 0 c 0.141888,0.07465 0.317465,0.02019 0.392147,-0.121709 0.104317,-0.23368 0.273298,-0.613727 0.518514,-1.168788 v 0 c 0.05704,-0.120156 0.0059,-0.263809 -0.1143,-0.320853 v 0 c -0.120158,-0.05704 -0.263808,-0.0058 -0.320852,0.1143 -0.273685,0.538094 -0.467818,0.894575 -0.597183,1.1049 -0.06389,0.103717 -0.106643,0.162314 -0.134371,0.188807 -0.01648,0.01236 0.42573,-0.03722 0.56148,0.199919 0.01294,0.04417 0.240982,-0.459563 0.575805,-1.18491 0.412678,-0.952992 1.014375,-2.388658 1.642461,-3.939646 0.448382,-1.210733 0.900041,-2.430108 1.248971,-3.313217 0.21756,-0.538762 0.39074,-0.935708 0.50867,-1.190307 0.0481,-0.131445 0.073,-0.211138 0.0845,-0.258375 0.004,-0.02184 -0.0178,-0.01178 -0.045,7.15e-4 -0.0197,0.0068 -0.11454,0.03697 -0.1804,0.03598 -0.0755,-0.02254 -0.19417,-0.12192 -0.21495,-0.167958 -0.0339,-0.0956 -0.0706,-0.04942 -0.14577,0.114265 v 0 c -0.0538,0.181151 0.0494,0.371581 0.23057,0.42538 v 0 c 0.18116,0.0538 0.37159,-0.04946 0.42538,-0.230576 z"
       style="opacity:1;fill:#000000;fill-opacity:1;fill-rule:nonzero;stroke:none;stroke-width:0.352777;stop-opacity:1"
       id="path14393"
       inkscape:connector-curvature="0" />
    <path
       d="m 102.09944,64.889199 c -0.12883,-0.475509 -0.24268,-1.37809 -0.41656,-2.056447 v 0 c -0.0276,-0.132398 -0.1573,-0.217382 -0.28973,-0.18976 v 0 c -0.1324,0.02759 -0.21739,0.157304 -0.18976,0.289737 v 0 c 0.0276,0.132398 0.1573,0.217382 0.28973,0.18976 v 0 c 0.1324,-0.02759 0.21738,-0.157305 0.18976,-0.289737 -0.0679,-0.299121 -0.13684,-0.532871 -0.18873,-0.758861 v 0 c -0.0419,-0.148307 -0.19604,-0.234562 -0.34432,-0.192687 v 0 c -0.1483,0.04188 -0.23459,0.196039 -0.19272,0.344311 v 0 c 0.0419,0.148308 0.19604,0.234597 0.34435,0.192723 v 0 c 0.14831,-0.04188 0.23456,-0.196039 0.19269,-0.344347 -0.0371,-0.129963 -0.0646,-0.240277 -0.0852,-0.369393 v 0 c -0.0277,-0.155293 -0.17604,-0.258727 -0.33133,-0.23107 v 0 c -0.15533,0.02769 -0.25876,0.176036 -0.23107,0.331329 v 0 c 0.0277,0.155328 0.176,0.258763 0.33133,0.23107 v 0 c 0.15529,-0.02766 0.25876,-0.176001 0.23107,-0.331329 -0.002,-0.210503 0.009,-0.457871 0.0271,-0.644525 0.008,-0.143228 0.0205,-0.227754 0.0385,-0.227965 0.003,0.01214 -0.0425,0.160972 -0.39197,0.368899 v 0 c 0.22549,0 0.40826,-0.182809 0.40826,-0.408305 v 0 c 0,-0.225495 -0.18277,-0.408305 -0.40826,-0.408305 v 0 c -0.2255,0 -0.40831,0.18281 -0.40831,0.408305 v 0 c 0,0.225496 0.18281,0.408305 0.40831,0.408305 -0.31094,-0.139382 -0.39243,-0.274813 -0.40037,-0.286067 -0.007,0.0018 -0.0118,0.0235 -0.0105,0.08311 0.0178,0.461998 0.10597,1.51945 0.268,2.649643 0.11956,0.745066 0.27789,1.53603 0.47435,2.22885 0.24035,0.670173 0.52673,1.231302 0.80334,1.673931 0.61712,0.852204 1.25102,1.354349 1.56539,1.618403 0.0776,0.06431 0.12273,0.09557 0.15433,0.123085 v 0 c 0.10365,0.180305 0.33384,0.242464 0.51414,0.138818 v 0 c 0.18034,-0.103647 0.24247,-0.333835 0.13886,-0.514138 v 0 c -0.10365,-0.18034 -0.33387,-0.242464 -0.51418,-0.138819 v 0 c -0.1803,0.103611 -0.24246,0.333833 -0.13882,0.514139 0.0319,0.02117 0.0325,-0.049 0.0434,-0.08227 v 0 c -0.0338,0.179845 0.0846,0.35306 0.26441,0.386889 v 0 c 0.17981,0.0338 0.35303,-0.08456 0.38686,-0.264406 v 0 c 0.0338,-0.179845 -0.0846,-0.353025 -0.26441,-0.386855 v 0 c -0.17985,-0.03383 -0.35302,0.08456 -0.38686,0.264372 0.0302,-0.02434 0.0862,-0.07507 0.0656,-0.0478 v 0 c -0.13345,0.0846 -0.17303,0.261374 -0.0884,0.39483 v 0 c 0.0846,0.133419 0.26138,0.173001 0.39483,0.0884 v 0 c 0.13343,-0.0846 0.17304,-0.261374 0.0884,-0.394792 v 0 c -0.0846,-0.133456 -0.26133,-0.173038 -0.39479,-0.08844 -0.0308,0.03909 -0.0845,0.07655 -0.1959,0.124108 v 0 c -0.12781,0.03687 -0.20154,0.170355 -0.16467,0.298167 v 0 c 0.0369,0.127813 0.17036,0.201541 0.29813,0.164677 0.14122,-0.02529 0.27277,-0.06241 0.36883,-0.103717 0.10618,-0.05313 0.23058,-0.190711 0.27919,-0.312597 0.0295,-0.13208 -10e-4,-0.311219 -0.0416,-0.415853 -0.0408,-0.09839 -0.10905,-0.209304 -0.17717,-0.308751 -0.26864,-0.390914 -0.73529,-0.888084 -1.17799,-1.704059 -0.2534,-0.391266 -0.48684,-0.831813 -0.69653,-1.401903 -0.19674,-0.606883 -0.36502,-1.328632 -0.50514,-2.047735 -0.22952,-1.088812 -0.3864,-2.107528 -0.4796,-2.580215 -0.0217,-0.08484 -0.0409,-0.140688 -0.0596,-0.17967 -0.0121,-0.02695 -0.0976,-0.171132 -0.48885,-0.302542 -0.27523,0.200519 -0.32247,0.358105 -0.32088,0.388479 0.0135,0.06664 0.0353,0.176741 0.0595,0.304235 0.0218,0.179494 0.0527,0.453637 0.0999,0.701217 0.0322,0.170285 0.0725,0.312878 0.11479,0.445029 0.0768,0.229799 0.16588,0.451696 0.2479,0.715292 0.101,0.642197 0.14972,1.547141 0.2219,2.077366 v 0 c 0.037,0.185314 0.21727,0.305507 0.40259,0.268465 v 0 c 0.18528,-0.03704 0.30547,-0.217276 0.26842,-0.40259 z"
       style="opacity:1;fill:#000000;fill-opacity:1;fill-rule:nonzero;stroke:none;stroke-width:0.352777;stop-opacity:1"
       id="path14395"
       inkscape:connector-curvature="0" />
    <path
       d="m 102.62145,53.406494 c -0.18518,0.316795 -0.58879,0.874113 -0.93553,1.486817 v 0 c -0.079,0.130175 -0.0376,0.299756 0.0926,0.378813 v 0 c 0.13013,0.07902 0.29975,0.03761 0.37877,-0.09257 v 0 c 0.0791,-0.130175 0.0376,-0.299755 -0.0925,-0.378812 v 0 c -0.13017,-0.07902 -0.29975,-0.03761 -0.37881,0.09257 -0.15709,0.242888 -0.30109,0.488033 -0.42958,0.715187 v 0 c -0.0783,0.160196 -0.0119,0.353554 0.14835,0.43187 v 0 c 0.16023,0.07828 0.35359,0.01185 0.43187,-0.148378 v 0 c 0.0783,-0.160232 0.0119,-0.353589 -0.14834,-0.43187 v 0 c -0.16024,-0.07828 -0.35359,-0.01185 -0.43188,0.148378 -0.14799,0.231246 -0.30138,0.480272 -0.38018,0.646642 v 0 c -0.0694,0.193004 0.0309,0.405729 0.2239,0.47505 v 0 c 0.19304,0.06936 0.40573,-0.03087 0.47509,-0.223908 v 0 c 0.0694,-0.193005 -0.0309,-0.405695 -0.22395,-0.475051 v 0 c -0.193,-0.06936 -0.40569,0.0309 -0.47504,0.223909 -0.0354,0.120932 -0.0383,0.26871 0.002,0.397227 0.0467,0.07712 0.19515,0.193499 0.28659,0.225849 0.0956,0.01358 0.21714,-7.15e-4 0.26984,-0.01545 0.14651,-0.05362 0.31207,-0.176495 0.468,-0.332987 v 0 c 0.16824,-0.196991 0.14495,-0.493042 -0.052,-0.661282 v 0 c -0.19699,-0.16824 -0.49304,-0.144956 -0.66128,0.052 v 0 c -0.16824,0.196991 -0.14496,0.493042 0.052,0.661281 v 0 c 0.19699,0.16824 0.49304,0.144957 0.66128,-0.052 0.24116,-0.306 0.54875,-0.748418 0.97303,-1.340344 v 0 c 0.16016,-0.232868 0.10118,-0.551497 -0.13173,-0.711623 v 0 c -0.2329,-0.160126 -0.55149,-0.101141 -0.71162,0.131727 v 0 c -0.16016,0.232904 -0.10118,0.551533 0.13173,0.711659 v 0 c 0.2329,0.160125 0.5515,0.101141 0.71162,-0.131763 1.0305,-1.393225 2.70701,-3.583834 4.2031,-5.666316 v 0 c 0.17258,-0.241971 0.11631,-0.578062 -0.12566,-0.750641 v 0 c -0.242,-0.172614 -0.5781,-0.116346 -0.75067,0.125659 v 0 c -0.17258,0.242006 -0.11631,0.578062 0.12569,0.750641 v 0 c 0.24197,0.172614 0.57806,0.116346 0.75064,-0.125659 2.79718,-4.100442 4.77873,-7.303417 4.96334,-7.604195 v 0 c 0.0966,-0.0914 0.10086,-0.24384 0.009,-0.340501 v 0 c -0.0914,-0.09663 -0.24384,-0.100859 -0.34047,-0.0095 -0.41352,0.265042 -2.55887,3.356363 -5.50894,7.329558 -1.47165,2.078743 -3.12928,4.273513 -4.16119,5.698807 -0.41451,0.627662 -0.69543,1.08144 -0.87464,1.352374 -0.0759,0.112642 -0.0865,0.14478 -0.0446,0.133103 0.0266,-0.0042 0.1264,-0.01506 0.19159,-0.0068 0.0873,0.03129 0.22278,0.13776 0.25933,0.196462 0.025,0.09917 0.0217,0.190394 0.0164,0.182386 0.007,-0.06071 0.11268,-0.287761 0.23894,-0.54737 0.10537,-0.250437 0.21254,-0.493007 0.33245,-0.734131 0.36266,-0.555237 0.79076,-1.070645 1.02905,-1.386063 v 0 c 0.10517,-0.156987 0.0631,-0.3695 -0.0939,-0.474663 v 0 c -0.15698,-0.105163 -0.36949,-0.06315 -0.47466,0.09387 z"
       style="opacity:1;fill:#000000;fill-opacity:1;fill-rule:nonzero;stroke:none;stroke-width:0.352777;stop-opacity:1"
       id="path14397"
       inkscape:connector-curvature="0" />
    <path
       d="m 102.33707,53.820373 c -0.13497,-0.0375 -0.34554,-0.0046 -0.45191,0.05158 v 0 c -0.16637,0.110314 -0.21177,0.334645 -0.10142,0.501015 v 0 c 0.11031,0.166335 0.33464,0.211773 0.50098,0.101424 v 0 c 0.16637,-0.110314 0.21181,-0.334645 0.10146,-0.501015 v 0 c -0.11032,-0.166335 -0.33465,-0.211773 -0.50102,-0.101424 -0.0955,0.06078 -0.19399,0.163548 -0.25544,0.245922 v 0 c -0.11374,0.176883 -0.0626,0.412468 0.11433,0.526203 v 0 c 0.17689,0.113736 0.41247,0.06255 0.52624,-0.114335 v 0 c 0.11374,-0.176883 0.0626,-0.412468 -0.11433,-0.526204 v 0 c -0.17692,-0.11377 -0.41251,-0.06258 -0.52624,0.114336 -0.11607,0.159702 -0.21943,0.371404 -0.3121,0.5582 v 0 c -0.0899,0.21343 0.0102,0.459387 0.22366,0.549345 v 0 c 0.21346,0.08992 0.45942,-0.01019 0.54934,-0.223661 v 0 c 0.0899,-0.213465 -0.0102,-0.459422 -0.22366,-0.549345 v 0 c -0.21346,-0.08996 -0.45942,0.01019 -0.54934,0.223661 -0.0702,0.123084 -0.15117,0.263737 -0.23749,0.399239 -0.0916,0.179634 -0.12799,0.240241 -0.17812,0.268181 -0.0871,0.08287 -0.13265,0.114653 -0.17653,0.106998 0.27583,0.04516 0.24313,-0.05479 0.12178,-0.270404 -0.18631,-0.222678 -0.27729,-0.349043 -0.43265,-0.612039 -0.13783,-0.263771 -0.3477,-0.691726 -0.656449,-1.249256 -0.211806,-0.422593 -0.505706,-0.9664 -0.878911,-1.528022 -0.407421,-0.578097 -0.899829,-1.183217 -1.447869,-1.760114 -0.809133,-0.770431 -1.721839,-1.497824 -2.558944,-2.145665 -0.628862,-0.468771 -1.210416,-0.888929 -1.695839,-1.273563 -0.439915,-0.349144 -0.771067,-0.645371 -1.024326,-0.938706 v 0 c -0.263277,-0.312984 -0.730425,-0.353272 -1.043374,-0.08999 v 0 c -0.312984,0.263278 -0.353306,0.730426 -0.09003,1.043375 v 0 c 0.263279,0.312984 0.730427,0.353307 1.043411,0.09003 v 0 c 0.312984,-0.263279 0.353272,-0.730427 0.08999,-1.043412 -0.279117,-0.333622 -0.427035,-0.651651 -0.544793,-0.995115 v 0 c -0.08093,-0.339408 -0.42164,-0.548993 -0.761048,-0.468066 v 0 c -0.339407,0.08089 -0.548957,0.42164 -0.468066,0.761048 v 0 c 0.08089,0.339407 0.42164,0.548957 0.761047,0.46803 v 0 c 0.339408,-0.08089 0.548958,-0.42164 0.468067,-0.761012 -0.107138,-0.2425 -0.176001,-0.454519 -0.247367,-0.661459 v 0 c -0.0309,-0.268852 -0.273934,-0.461751 -0.542785,-0.430847 v 0 c -0.268851,0.0309 -0.461751,0.273932 -0.430847,0.542784 v 0 c 0.03094,0.268852 0.273931,0.461751 0.542784,0.430847 v 0 c 0.268851,-0.03094 0.461751,-0.273932 0.430848,-0.542784 C 91.02603,43.319344 90.79796,43.466699 90.96814,42.996834 v 0 c 0.06054,-0.118427 0.01363,-0.263525 -0.10481,-0.324061 v 0 c -0.118427,-0.06057 -0.263525,-0.01365 -0.324099,0.104775 -0.384878,0.615703 -0.205422,0.969927 -0.12714,1.460111 -0.04865,0.103611 -0.06308,0.400262 -0.03387,0.732297 0.06946,0.44203 0.252941,1.033603 0.599934,1.603057 0.351118,0.429859 0.773219,0.830544 1.252924,1.229818 0.535445,0.405871 1.139367,0.825394 1.761032,1.27194 0.842608,0.608542 1.72166,1.264497 2.482533,1.943982 0.508987,0.497981 0.960612,1.012825 1.347928,1.517897 0.338455,0.488456 0.603956,0.959697 0.83245,1.38811 0.334608,0.551074 0.564409,0.961037 0.761577,1.272716 0.24257,0.325791 0.446122,0.527474 0.611611,0.661741 0.0798,0.116769 0.30632,0.38862 0.60551,0.521758 0.5135,-0.03447 0.78041,-0.206622 0.9459,-0.369746 0.14241,-0.174766 0.23534,-0.381035 0.29259,-0.54289 0.0594,-0.114405 0.1384,-0.284938 0.20811,-0.444041 0.0799,-0.220945 0.13444,-0.388585 0.18955,-0.493959 0.0248,-0.05168 0.0155,-0.0538 0.0148,-0.05592 -0.0115,-0.0068 -0.12143,0.0046 -0.14789,2.91e-4 v 0 c 0.18069,0.05528 0.37201,-0.04636 0.42729,-0.227048 v 0 c 0.0553,-0.180692 -0.0464,-0.372004 -0.22705,-0.427284 z"
       style="opacity:1;fill:#000000;fill-opacity:1;fill-rule:nonzero;stroke:none;stroke-width:0.352777;stop-opacity:1"
       id="path14399"
       inkscape:connector-curvature="0" />
  </g>
</svg>
