<?xml version="1.0" encoding="UTF-8" standalone="no"?>
<svg
   xmlns:dc="http://purl.org/dc/elements/1.1/"
   xmlns:cc="http://creativecommons.org/ns#"
   xmlns:rdf="http://www.w3.org/1999/02/22-rdf-syntax-ns#"
   xmlns:svg="http://www.w3.org/2000/svg"
   xmlns="http://www.w3.org/2000/svg"
   xmlns:sodipodi="http://sodipodi.sourceforge.net/DTD/sodipodi-0.dtd"
   xmlns:inkscape="http://www.inkscape.org/namespaces/inkscape"
   sodipodi:docname="slide22-hello-name-top.svg"
   inkscape:version="1.0beta1 (32d4812, 2019-09-19)"
   id="svg18018"
   version="1.1"
   viewBox="0 0 91.303314 17.826445"
   height="17.826445mm"
   width="91.303314mm">
  <defs
     id="defs18012" />
  <sodipodi:namedview
     inkscape:window-maximized="0"
     inkscape:window-y="23"
     inkscape:window-x="0"
     inkscape:window-height="770"
     inkscape:window-width="1440"
     showgrid="false"
     inkscape:document-rotation="0"
     inkscape:current-layer="layer1"
     inkscape:document-units="mm"
     inkscape:cy="-446.31219"
     inkscape:cx="449.68458"
     inkscape:zoom="0.35"
     inkscape:pageshadow="2"
     inkscape:pageopacity="0.0"
     borderopacity="1.0"
     bordercolor="#666666"
     pagecolor="#ffffff"
     id="base" />
  <metadata
     id="metadata18015">
    <rdf:RDF>
      <cc:Work
         rdf:about="">
        <dc:format>image/svg+xml</dc:format>
        <dc:type
           rdf:resource="http://purl.org/dc/dcmitype/StillImage" />
        <dc:title></dc:title>
      </cc:Work>
    </rdf:RDF>
  </metadata>
  <g
     transform="translate(13.145711,-266.25343)"
     id="layer1"
     inkscape:groupmode="layer"
     inkscape:label="Layer 1">
    <path
       d="m -11.790381,274.45467 c -0.04269,-0.20084 -0.160937,-0.36446 -0.24137,-0.46316 v 0 c -0.07807,-0.13466 -0.250508,-0.18048 -0.385128,-0.10241 v 0 c -0.134655,0.0781 -0.180481,0.25054 -0.102411,0.38516 v 0 c 0.0781,0.13462 0.250543,0.18048 0.385163,0.10237 v 0 c 0.13462,-0.0781 0.180481,-0.2505 0.102376,-0.38512 0.0011,-0.0247 0.0035,-0.0475 0.0059,-0.0706 v 0 c -0.08523,-0.1559 -0.280674,-0.21319 -0.436531,-0.12796 v 0 c -0.155892,0.0852 -0.213183,0.28064 -0.127988,0.43653 v 0 c 0.08523,0.15586 0.28067,0.21315 0.436528,0.12795 v 0 c 0.155892,-0.0852 0.213183,-0.28067 0.127987,-0.43652 0.01732,0.001 0.01214,-0.0651 -0.0014,-0.13963 v 0 c -0.064,-0.18518 -0.26603,-0.28343 -0.451204,-0.21943 v 0 c -0.185173,0.064 -0.283421,0.26603 -0.219427,0.4512 v 0 c 0.06403,0.18517 0.266029,0.28342 0.451202,0.21943 v 0 c 0.185174,-0.064 0.283422,-0.26603 0.219428,-0.4512 -0.04385,-0.1064 -0.07983,-0.17756 -0.11183,-0.23128 -0.01817,-0.028 -0.05038,-0.0685 -0.07648,-0.097 -0.01408,-0.0456 -0.07959,-0.11864 -0.132538,-0.16866 -0.06689,-0.0467 -0.294146,-0.0703 -0.433882,-0.0436 -0.318593,0.41321 -0.34798,0.61888 -0.363149,0.80846 -0.0028,0.18521 0.0032,0.55594 0.04964,1.04581 0.0586,0.42058 0.143933,0.92862 0.250895,1.45725 0.138677,0.66513 0.31616,1.39087 0.506025,2.03529 0.176459,0.63489 0.369111,1.1987 0.555801,1.59088 0.115711,0.27386 0.254706,0.49827 0.388867,0.63782 0.157269,0.14669 0.441325,0.23965 0.645125,0.21238 0.09599,0.0108 0.345087,-0.10301 0.486586,-0.24099 0.167922,-0.23907 0.2983797,-0.53544 0.4215343,-0.86476 0.1566333,-0.43748 0.3263196,-0.97786 0.4922663,-1.4617 0.1788935,-0.55541 0.3229679,-0.95423 0.4503912,-1.08299 -0.013864,3.4e-4 -0.1801987,0.048 -0.2263069,0.0566 -0.030339,-0.0342 0.054998,0.10139 0.2137834,0.43176 0.1648528,0.34901 0.3401835,0.80942 0.5150553,1.18548 0.1897947,0.36343 0.4037897,0.65183 0.6077305,0.82853 0.2242254,0.18267 0.6155267,0.30875 0.9125302,0.27348 0.068298,0.003 0.3565877,-0.10827 0.518936,-0.24871 0.2785182,-0.32939 0.5013325,-0.81062 0.6817432,-1.32423 0.100471,-0.28448 0.1936398,-0.57675 0.2812343,-0.84846 0.1379363,-0.38217 0.2681817,-0.73777 0.4086225,-1.08546 0.2283883,-0.58106 0.4799894,-1.14664 0.7257344,-1.59032 0.054998,-0.0936 0.1087966,-0.17735 0.1672521,-0.26311 0.05267,-0.0881 0.098495,-0.15885 0.1489427,-0.23219 0.049601,-0.074 0.091263,-0.13177 0.137301,-0.19266 0.027199,-0.0248 0.051858,-0.0453 0.079622,-0.0694 0.02399,-0.022 0.045402,-0.04 0.070203,-0.0617 0.026493,-0.0171 0.049036,-0.029 0.073519,-0.0428 0.02286,-0.0183 0.041769,-0.0315 0.064805,-0.0493 0.018978,-0.0136 0.035983,-0.0247 0.055104,-0.038 0.027446,-0.0393 0.054222,-0.0774 0.079022,-0.11504 0.0127,-0.0165 0.038841,-0.0502 0.053093,-0.0708 0.01891,-0.0202 0.059902,-0.0745 0.090876,-0.12139 0.030162,-0.0716 0.085478,-0.26603 0.093098,-0.43512 -0.042827,-0.14358 -0.212443,-0.44891 -0.364349,-0.56264 v 0 c -0.3164772,-0.24504 -0.7716663,-0.18712 -1.0166705,0.12936 v 0 c -0.2450394,0.31648 -0.1871133,0.77167 0.129399,1.01667 v 0 c 0.3164768,0.24504 0.7716308,0.18711 1.0166702,-0.12936 v 0 c 0.2450038,-0.31648 0.1870781,-0.77167 -0.1293987,-1.01667 -0.1012825,-0.0357 -0.2822575,-0.0804 -0.3720749,-0.0702 v 0 c -0.3531658,-0.0452 -0.6760633,0.20454 -0.7212189,0.5577 v 0 c -0.045191,0.35317 0.2045054,0.67607 0.5576713,0.72122 v 0 c 0.3531658,0.0452 0.6760633,-0.20454 0.7212187,-0.5577 v 0 c 0.045156,-0.35313 -0.2045052,-0.67607 -0.5576711,-0.72122 -0.083361,0.0467 -0.1712735,0.10534 -0.1974143,0.16312 v 0 c -0.264513,0.0408 -0.4459113,0.28829 -0.40513,0.5528 v 0 c 0.040781,0.26452 0.2882545,0.44588 0.5527675,0.40513 v 0 c 0.2645479,-0.0408 0.445911,-0.28829 0.40513,-0.5528 v 0 c -0.040781,-0.26451 -0.2882548,-0.44587 -0.5527675,-0.40513 -0.083608,0.097 -0.1910998,0.21153 -0.3594807,0.33779 v 0 c -0.1289401,0.0326 -0.2071158,0.16351 -0.1745543,0.29248 v 0 c 0.032526,0.12898 0.163477,0.20712 0.2924527,0.17459 0.2148768,0.0295 0.3468158,0.0764 0.3928181,0.15248 0.00808,0.0525 -0.052211,0.10883 -0.1374071,0.15557 -0.060678,0.0143 -0.2348794,-0.0275 -0.3310819,-0.0593 -0.147955,-0.1107 -0.3152775,-0.41081 -0.3579635,-0.54762 0.0078,-0.16129 0.059513,-0.34519 0.075283,-0.39028 0.030974,-0.0472 0.061207,-0.0863 0.066252,-0.0887 3.52e-5,-0.002 0.00875,-0.015 0.0078,-0.0164 -0.02286,0.0166 -0.049283,0.0356 -0.087806,0.0682 -0.010266,0.0185 -0.027587,0.0447 -0.045367,0.0719 -0.013618,0.0228 -0.033761,0.0529 -0.05528,0.0853 -0.013406,0.0292 -0.034149,0.0674 -0.052705,0.10386 -0.02032,0.0319 -0.045896,0.0705 -0.070414,0.10901 -0.020849,0.0366 -0.04639,0.0796 -0.070732,0.12238 -0.057044,0.0743 -0.123966,0.16573 -0.1871837,0.25819 -0.060965,0.0906 -0.1307442,0.20045 -0.1953025,0.30985 -0.058737,0.11179 -0.1237546,0.2425 -0.182739,0.372 -0.2335741,0.52712 -0.4714168,1.1823 -0.6671381,1.81018 -0.1116542,0.38262 -0.2116667,0.76993 -0.316865,1.177 -0.072178,0.29034 -0.1415344,0.5726 -0.212725,0.83125 -0.1551517,0.45593 -0.2955925,0.77827 -0.415431,0.9076 0.034043,-0.0235 0.1578681,-0.0757 0.1652764,-0.083 -0.1134181,0.0418 -0.03302,0.0706 -0.1223788,7e-5 -0.1073501,-0.0706 -0.2054225,-0.18955 -0.3566228,-0.45759 -0.1416405,-0.31052 -0.3159832,-0.77485 -0.5018972,-1.1761 -0.2102908,-0.40643 -0.4955116,-0.77022 -0.8136818,-0.92907 -0.3109735,-0.0695 -0.6756046,0.0469 -0.8487833,0.20211 -0.2796821,0.35037 -0.4802718,0.89146 -0.6610698,1.46526 -0.151271,0.49978 -0.301731,1.0415 -0.435081,1.46794 -0.09239,0.31944 -0.160796,0.53464 -0.226766,0.65606 0.0127,0.0161 0.101459,-0.0144 0.109185,-0.008 -0.07482,0.0342 0.0011,0.0659 -0.05496,0.018 -0.07927,-0.0551 -0.158997,-0.15875 -0.267723,-0.37614 -0.134055,-0.35948 -0.275943,-0.88416 -0.411797,-1.50904 -0.126612,-0.64047 -0.237984,-1.34581 -0.313338,-2.00088 -0.05764,-0.51689 -0.09193,-0.9948 -0.101176,-1.39118 -0.0199,-0.44418 -0.0018,-0.73191 0.02445,-0.92855 -0.0187,-0.21985 -0.04159,-0.23678 -0.103152,-0.0987 -0.331787,0.21439 -0.538868,0.19135 -0.594007,0.14958 -0.02134,-0.038 -0.06371,-0.0953 -0.05726,-0.12153 0.0014,-0.003 -0.0057,-0.015 0.0014,-0.01 0.01834,0.0127 0.03373,0.026 0.05719,0.058 0.0049,-0.01 0.0302,0.0467 0.06431,0.11582 0.04681,0.069 0.07105,0.0847 0.09402,0.0979 0.05309,0.13144 0.07736,0.18926 0.04575,0.21449 v 0 c 0.0092,0.18873 0.169757,0.33422 0.358493,0.32498 v 0 c 0.188736,-0.009 0.334222,-0.16976 0.324979,-0.35849 z"
       style="opacity:1;fill:#000000;fill-opacity:1;fill-rule:nonzero;stroke:none;stroke-width:0.352777;stop-opacity:1"
       id="path17703"
       inkscape:connector-curvature="0" />
    <path
       d="m -1.969718,273.87244 c -0.03373,-0.19547 -0.05648,-0.3394 -0.06943,-0.48693 v 0 c -0.0087,-0.1789 -0.160831,-0.31687 -0.339725,-0.30812 v 0 c -0.178893,0.009 -0.316865,0.1608 -0.308151,0.33972 v 0 c 0.0087,0.1789 0.160831,0.31683 0.339725,0.30812 v 0 c 0.178929,-0.009 0.316865,-0.16083 0.308151,-0.33972 0.0095,-0.16465 0.02674,-0.33091 0.04639,-0.347 v 0 c 0.024451,-0.20454 -0.121564,-0.39013 -0.326104,-0.41455 v 0 c -0.204541,-0.0244 -0.390137,0.12157 -0.414549,0.32611 v 0 c -0.02441,0.20454 0.121602,0.39014 0.326107,0.41455 v 0 c 0.204541,0.0244 0.390137,-0.1216 0.41455,-0.32611 0.01044,-0.10064 0.01739,-0.13264 0.01838,-0.17787 v 0 c -0.06417,-0.21607 -0.291324,-0.33926 -0.507435,-0.27509 v 0 c -0.216077,0.0641 -0.339267,0.29132 -0.275096,0.5074 v 0 c 0.06414,0.21611 0.291323,0.33926 0.5074,0.27513 v 0 c 0.216111,-0.0642 0.339266,-0.29133 0.275131,-0.50744 -0.01277,-0.0519 -0.596089,-0.25216 -0.787647,-0.0423 v 0 c -0.08703,0.21844 0.01951,0.46606 0.237913,0.55309 v 0 c 0.21844,0.087 0.466055,-0.0195 0.553085,-0.23791 v 0 c 0.08703,-0.21844 -0.01951,-0.46606 -0.237913,-0.55309 v 0 c -0.21844,-0.087 -0.466054,0.0195 -0.553085,0.23791 -0.03161,0.0947 -0.04173,0.13716 -0.04812,0.15068 -0.02388,0.0313 -0.04568,0.0784 -0.06551,0.13518 0.02551,0.23583 0.07052,0.66135 0.108267,1.36839 0.0309,0.46856 0.05775,1.02824 0.07158,1.63043 7.14e-4,0.17826 3.44e-4,0.34809 -0.0014,0.51206 0.03976,0.40693 0.07811,0.81559 0.11617,1.21497 0.04128,0.48898 0.08177,0.8849 0.124989,1.11375 0.01898,0.19279 0.03796,0.36901 0.05644,0.54522 0.0011,0.22345 0.0115,0.41158 0.04643,0.54874 0.05031,0.10817 0.137266,0.21238 0.212902,0.26621 0.0967,0.0477 0.276683,0.0648 0.369146,0.0444 0.148096,-0.056 0.298662,-0.1868 0.391795,-0.30882 0.215759,-0.29122 0.43187103,-0.74835 0.69698303,-1.23931 0.06135,-0.16249 0.135432,-0.34385 0.2165,-0.53005 0.339443,-0.62283 0.719102,-1.2277 1.052266,-1.55621 0.134584,-0.10241 0.194451,-0.12185 0.251283,-0.10706 0.02007,0.005 -0.06149,0.0125 -0.07066,0.0326 -0.0011,0.008 -0.05024,-0.0135 -0.03323,0.0408 0.0672,0.16263 0.14979,0.57862 0.231352,1.013 0.19099397,0.68869 0.32607197,1.29624 0.52457997,1.7054 0.08012,0.12886 0.182457,0.25477 0.270404,0.33358 0.09451,0.0799 0.26917,0.18119 0.402132,0.22081 v 0 c 0.311749,0.0903 0.637681,-0.0892 0.727957,-0.40101 v 0 c 0.09031,-0.31175 -0.08922,-0.63764 -0.400968,-0.72795 v 0 c -0.311749,-0.0903 -0.637681,0.0892 -0.727956,0.401 v 0 c -0.09031,0.31175 0.08922,0.63764 0.400967,0.72796 0.209232,0.0228 0.534599,-0.0554 0.697159,-0.17999 v 0 c 0.238407,-0.16189 0.300461,-0.48638 0.138606,-0.72478 v 0 c -0.16186,-0.23841 -0.486345,-0.30047 -0.724752,-0.13858 v 0 c -0.238407,0.16186 -0.300461,0.48634 -0.138606,0.72475 v 0 c 0.161854,0.23841 0.486339,0.30046 0.724746,0.13861 0.04699,-0.0369 0.113101,-0.0975 0.154834,-0.14482 v 0 c 0.197062,-0.20175 0.193287,-0.525 -0.0085,-0.72207 v 0 c -0.201719,-0.19702 -0.525004,-0.19325 -0.722031,0.009 v 0 c -0.197061,0.20176 -0.193251,0.52501 0.0085,0.72207 v 0 c 0.201718,0.19706 0.525004,0.19325 0.72203,-0.008 0.08548,-0.22225 0.157551,-0.52546 0.185667,-0.86409 v 0 c 0.04533,-0.12506 -0.0193,-0.26318 -0.144321,-0.30854 v 0 c -0.12506,-0.0453 -0.263208,0.0193 -0.30854,0.14432 -0.178717,0.23184 -0.327942,0.31143 -0.462844,0.31425 -0.01394,0.01 -0.0028,-0.004 -0.0078,-0.007 -0.0054,-0.0106 0.157515,-0.0614 0.213818,-0.0832 0.02935,0.01 0.105234,0.0491 0.10661,0.0393 -0.0052,-0.0109 0.0096,-0.003 -0.0054,-0.0453 -0.102935,-0.20319 -0.207922,-0.73539 -0.393553,-1.43837 -0.120298,-0.41734 -0.281658,-0.94763 -0.496112,-1.31001 -0.154904,-0.19166 -0.350484,-0.33912 -0.511351,-0.40044 -0.165876,-0.0486 -0.41722997,-0.0535 -0.57502797,-0.007 -0.21724,0.08 -0.452155,0.25111 -0.623217,0.43674 -0.419982,0.41776 -0.862718,1.10646 -1.22061103,1.75112 -0.11811,0.17554 -0.233045,0.3537 -0.338667,0.52084 -0.222038,0.5575 -0.364913,1.01516 -0.467924,1.24192 -0.03207,0.0592 -0.0061,0.0474 0.03415,0.0263 0.03852,-0.003 0.168733,0.0107 0.217381,0.0316 0.03376,0.0299 0.08057,0.0875 0.07976,0.0881 -0.0086,0.009 -0.02727,-0.0927 -0.04653,-0.29767 0.0053,-0.17498 0.01,-0.3519 0.01443,-0.55139 0.01781,-0.22377 0.03838,-0.61101 0.05793,-1.09852 0.02318,-0.39903 0.046,-0.81082 0.06752,-1.21422 -0.005,-0.16136 -0.01171,-0.33881 -0.01958,-0.51792 -0.01016,-0.61256 -0.03404,-1.1944 -0.0617,-1.6753 -0.05655,-0.73198 -0.123436,-1.20206 -0.163583,-1.41073 -0.02159,7.2e-4 -0.04537,-0.009 -0.06861,10e-4 -0.0062,0.007 -0.01601,0.0461 -0.03069,0.0888 -0.207574,0.25901 -0.790292,0.0594 -0.801934,0.0111 0.0021,-0.0419 0.01065,-0.0617 0.02265,-0.0597 0.0083,-0.002 0.02325,0.19745 0.04671,0.37966 0.0025,0.17283 0.0169,0.34936 0.0399,0.55418 v 0 c 0.02653,0.18712 0.199708,0.31726 0.386786,0.29073 v 0 c 0.187097,-0.0265 0.317237,-0.19968 0.290708,-0.38679 z"
       style="opacity:1;fill:#000000;fill-opacity:1;fill-rule:nonzero;stroke:none;stroke-width:0.352777;stop-opacity:1"
       id="path17705"
       inkscape:connector-curvature="0" />
    <path
       d="m 6.611742,276.42303 c -0.01189,-0.0517 -0.01647,-0.14104 -0.02858,-0.23986 v 0 c 0.00727,-0.16083 -0.117187,-0.29711 -0.278019,-0.30437 v 0 c -0.160831,-0.007 -0.297074,0.11719 -0.304377,0.27802 v 0 c -0.0073,0.16083 0.117229,0.29708 0.278025,0.30438 v 0 c 0.160831,0.007 0.297109,-0.11723 0.304376,-0.27803 -0.0099,-0.0645 -0.02395,-0.14675 -0.046,-0.21808 v 0 c -0.019052,-0.13872 -0.146934,-0.23573 -0.285646,-0.21668 v 0 c -0.138712,0.019 -0.235726,0.1469 -0.216676,0.28561 v 0 c 0.01905,0.13871 0.146896,0.23573 0.285609,0.21668 v 0 c 0.138712,-0.019 0.235726,-0.1469 0.216711,-0.28561 0.01542,-0.0776 0.01199,-0.18754 -0.0037,-0.27937 v 0 C 6.449288,275.52249 6.248734,275.45843 6.085504,275.5426 v 0 c -0.16323,0.0842 -0.227295,0.28473 -0.143122,0.44796 v 0 c 0.08417,0.16323 0.284727,0.22729 0.447957,0.14312 v 0 c 0.16323,-0.0842 0.227295,-0.28473 0.143122,-0.44796 -0.124672,-0.25707 -0.444641,-0.4857 -0.765916,-0.51971 -0.443653,0.1324 -0.863741,0.51876 -1.148186,1.00598 -0.194698,0.38509 -0.362196,0.88406 -0.435539,1.33414 -0.02762,0.29711 -0.02156,0.60236 0.01986,0.84409 0.06805,0.33415 0.269628,0.68269 0.519924,0.85319 0.228741,0.11444 0.54483,0.14746 0.774136,0.0945 0.395781,-0.15261 0.757555,-0.46679 1.018046,-0.78331 0.46168,-0.63641 0.670913,-1.35869 0.859261,-1.72106 0.05024,-0.0788 0.07969,-0.10876 0.116946,-0.13144 0.02469,-0.0171 -0.05789,0.0426 -0.106963,0.0751 -0.09557,0.006 -0.249131,-0.0367 -0.255622,-0.017 0.01503,0.0226 0.0182,0.047 0.06586,0.16683 0.08269,0.21992 0.191841,0.58966 0.301202,0.92378 0.04741,0.0765 0.09645,0.15515 0.143933,0.22461 0.108585,0.21573 0.225602,0.40418 0.337326,0.53513 v 0 c 0.179846,0.24409 0.523487,0.29616 0.767574,0.11631 v 0 c 0.244087,-0.17984 0.296157,-0.52348 0.116311,-0.76757 v 0 C 8.681768,277.6752 8.338092,277.62313 8.094005,277.80298 v 0 c -0.244052,0.17984 -0.296122,0.52352 -0.116276,0.76757 0.08742,0.0846 0.215265,0.18549 0.322792,0.23717 v 0 c 0.227612,0.14888 0.532835,0.085 0.681672,-0.14266 v 0 c 0.148873,-0.22765 0.08498,-0.53283 -0.142663,-0.68171 v 0 c -0.227612,-0.14883 -0.532835,-0.0849 -0.681673,0.14267 v 0 c -0.148872,0.22764 -0.08498,0.53287 0.142664,0.6817 0.05256,0.0291 0.140229,0.0676 0.202565,0.0849 v 0 c 0.253965,0.0795 0.524298,-0.0618 0.60385,-0.3158 v 0 c 0.07955,-0.25393 -0.06184,-0.5243 -0.315772,-0.60385 v 0 c -0.253964,-0.0795 -0.524333,0.0618 -0.603849,0.3158 v 0 c -0.07955,0.25393 0.06184,0.5243 0.315771,0.60385 0.192934,-0.0349 0.41282,-0.14605 0.508317,-0.28564 v 0 c 0.116629,-0.064 0.159315,-0.2104 0.09536,-0.32699 v 0 c -0.06396,-0.11663 -0.210361,-0.15931 -0.326989,-0.0954 -0.08192,-0.0423 -0.02533,-0.12781 0.0114,-0.21167 0.01023,0.001 0.0466,0.0145 0.04837,0.0103 0.0059,-0.0147 0.03426,-0.014 0.02141,-0.065 -0.03704,-0.0709 -0.06957,-0.1633 -0.1264,-0.33136 0.0014,-0.0502 -0.0052,-0.12485 -0.0146,-0.20899 -0.118156,-0.30875 -0.253763,-0.70408 -0.396356,-1.02221 -0.130493,-0.22666 -0.283386,-0.41381 -0.419206,-0.52317 -0.159279,-0.11342 -0.460445,-0.21015 -0.662764,-0.19406 -0.219498,0.059 -0.4312,0.20552 -0.52705,0.32155 -0.08477,0.11275 -0.168698,0.26455 -0.223026,0.39476 -0.223625,0.47346 -0.384386,1.10769 -0.735718,1.58411 -0.18796,0.25404 -0.370946,0.43692 -0.531424,0.49626 -0.02321,0.006 0.0014,0.007 -0.02946,-0.0244 -0.01955,-7.2e-4 -0.01443,-0.018 -0.03157,-0.20384 -0.01101,-0.15081 0.0025,-0.32918 0.04279,-0.5497 0.05838,-0.34276 0.182845,-0.69395 0.342971,-0.99148 0.183374,-0.37433 0.326143,-0.5316 0.41716,-0.54747 -0.05239,-0.064 -0.06904,-0.11614 -0.0018,-0.0911 0.01326,-0.0296 0.03941,-0.0294 0.07031,0.006 -0.0065,0.0419 -0.01912,0.0762 -0.03404,0.12298 -0.01965,0.0684 -0.04646,0.13402 -0.06992,0.1983 v 0 c -0.01877,0.18803 0.118462,0.35567 0.306493,0.3744 v 0 c 0.188031,0.0188 0.355671,-0.11846 0.374403,-0.30649 z"
       style="opacity:1;fill:#000000;fill-opacity:1;fill-rule:nonzero;stroke:none;stroke-width:0.352777;stop-opacity:1"
       id="path17707"
       inkscape:connector-curvature="0" />
    <path
       d="m 8.940146,269.58969 c -0.01408,0.16711 -0.0032,0.36251 0.02413,0.67698 v 0 c 0.01626,0.18828 0.182034,0.32769 0.370311,0.31147 v 0 c 0.188242,-0.0163 0.327695,-0.18204 0.311468,-0.37032 v 0 c -0.016264,-0.18824 -0.182034,-0.32769 -0.370311,-0.31143 v 0 c -0.188278,0.0162 -0.327696,0.18204 -0.311468,0.37028 -0.01503,0.33584 -0.0121,0.82839 -0.0014,1.55137 v 0 c 0.01976,0.2612 0.247509,0.45689 0.50867,0.43713 v 0 c 0.261162,-0.0198 0.456883,-0.24751 0.437127,-0.50867 v 0 C 9.88888,271.48534 9.661162,271.28962 9.400001,271.30937 v 0 c -0.261197,0.0198 -0.456882,0.24751 -0.437127,0.50867 0.01284,0.53129 0.02755,1.14459 0.03926,1.77934 v 0 c 0.01707,0.30149 0.275308,0.53206 0.576792,0.51499 v 0 c 0.301484,-0.017 0.532059,-0.27527 0.514985,-0.57679 v 0 c -0.01707,-0.30149 -0.275304,-0.53203 -0.576788,-0.51495 v 0 c -0.301484,0.017 -0.532059,0.27527 -0.514985,0.57675 0.03803,0.65568 0.07306,1.34024 0.106645,1.96508 0.09179,1.68423 0.171344,2.78303 0.23181,3.43345 0.032,0.23382 0.06195,0.42164 0.08654,0.55121 0.03277,0.0851 0.06385,0.14947 0.09162,0.18465 v 0 c 0.03817,0.23879 0.262678,0.40142 0.501474,0.36325 v 0 c 0.238795,-0.0382 0.401425,-0.26268 0.363255,-0.50147 v 0 c -0.03817,-0.23876 -0.262679,-0.40139 -0.501474,-0.36322 v 0 c -0.238795,0.0382 -0.401426,0.26268 -0.363255,0.50144 0.01429,0.0197 0.03214,0.053 0.06918,0.12671 v 0 c 0.09267,0.20359 0.332845,0.29344 0.536434,0.20077 v 0 c 0.203552,-0.0927 0.29344,-0.33288 0.20073,-0.53643 v 0 c -0.09267,-0.20359 -0.332846,-0.29348 -0.536434,-0.20077 v 0 c -0.203552,0.0927 -0.29344,0.33288 -0.20073,0.53643 0.74743,-0.0541 0.752087,-0.19198 0.739563,-0.21297 v 0 c -0.01609,-0.20493 -0.195227,-0.358 -0.400156,-0.34195 v 0 c -0.204928,0.0161 -0.357999,0.19527 -0.341912,0.40016 v 0 c 0.01609,0.20493 0.195227,0.35803 0.400156,0.34195 v 0 c 0.204893,-0.0161 0.357999,-0.19527 0.341912,-0.40016 -0.04854,-0.0579 -0.113206,-0.23463 -0.201048,-0.5552 v 0 c -0.01792,-0.1318 -0.139312,-0.22408 -0.271145,-0.20616 v 0 c -0.131798,0.018 -0.224085,0.13934 -0.206128,0.27114 7.14e-4,0.32854 -0.02325,0.50257 -0.06378,0.54811 -0.01048,0.005 -0.0059,-0.12238 0.739704,-0.18058 0.03517,0.0697 0.04935,0.0837 0.05831,0.0703 0.01729,-0.0302 0.0315,-0.0864 0.0429,-0.17145 -0.0074,-0.12566 -0.01965,-0.30322 -0.03415,-0.52808 -0.05923,-0.6326 -0.137759,-1.71189 -0.229199,-3.38282 -0.02057,-0.61866 -0.04304,-1.30633 -0.06883,-1.97065 -0.06039,-0.64001 -0.123754,-1.25681 -0.185278,-1.79084 -0.0991,-0.72602 -0.190359,-1.21761 -0.262679,-1.54161 -0.0266,-0.30822 -0.03567,-0.44499 -0.02441,-0.5558 v 0 c 0.017173,-0.18817 -0.121468,-0.35464 -0.30964,-0.37182 v 0 c -0.188172,-0.0171 -0.354647,0.1215 -0.371828,0.30967"
       style="opacity:1;fill:#000000;fill-opacity:1;fill-rule:nonzero;stroke:none;stroke-width:0.352777;stop-opacity:1"
       id="path17709"
       inkscape:connector-curvature="0" />
    <path
       d="m 8.869097,274.85094 c -0.013724,-0.0404 -0.023919,-0.0804 -0.02286,-0.1404 v 0 C 8.84412,274.52159 8.689497,274.37 8.500549,274.37198 v 0 c -0.188982,0.002 -0.340536,0.15677 -0.33856,0.34572 v 0 c 0.0021,0.18895 0.156774,0.34054 0.345722,0.33853 v 0 c 0.188948,-0.002 0.340501,-0.15674 0.338526,-0.34569 -0.03062,-0.0423 -0.0592,-0.0619 -0.07489,-0.10185 v 0 c 0.045397,-0.13243 -0.025159,-0.27661 -0.157591,-0.32201 v 0 c -0.132468,-0.0454 -0.276648,0.0251 -0.322051,0.15758 v 0 c -0.0454,0.13247 0.02515,0.27661 0.157586,0.32205 v 0 c 0.132468,0.0454 0.276648,-0.0251 0.322051,-0.15762 -0.0028,0.0589 0.01683,0.0702 0.04748,0.0717 v 0 c 0.126506,-0.12351 0.12894,-0.32622 0.0054,-0.45272 v 0 c -0.123507,-0.12651 -0.326214,-0.12891 -0.45272,-0.005 v 0 c -0.126506,0.1235 -0.12894,0.32621 -0.0054,0.45272 v 0 c 0.123507,0.1265 0.326213,0.12894 0.45272,0.005 0.02349,-0.004 0.03972,7e-5 0.06833,-0.004 0.05059,-0.0154 0.09278,-0.0174 0.161078,-0.0265 0.06445,-0.0132 0.119239,-0.0171 0.192546,-0.0205 0.140794,-0.0433 0.259045,-0.062 0.389185,-0.0568 v 0 c 0.23629,0.0211 0.444958,-0.15332 0.46609,-0.38957 v 0 c 0.02113,-0.23629 -0.153283,-0.44496 -0.389573,-0.46609 v 0 c -0.236291,-0.0211 -0.444959,0.15331 -0.46609,0.38957 v 0 c -0.02109,0.23629 0.153317,0.44496 0.389573,0.46609 0.09662,-0.005 0.140899,-0.008 0.193745,0.01 v 0 c 0.191558,0.1011 0.428766,0.0278 0.529872,-0.16373 v 0 c 0.101106,-0.19152 0.02776,-0.42876 -0.163759,-0.52987 v 0 c -0.191516,-0.10107 -0.428724,-0.0278 -0.52983,0.16376 v 0 c -0.101106,0.19153 -0.0278,0.42877 0.163724,0.52984 0.01672,0.008 0.01252,0.006 0.02236,0.0151 v 0 c 0.168804,0.13642 0.416278,0.11021 0.552697,-0.0586 v 0 c 0.136454,-0.1688 0.110208,-0.41624 -0.0586,-0.55269 v 0 c -0.168805,-0.13646 -0.416243,-0.11021 -0.552697,0.0586 v 0 c -0.136419,0.16881 -0.110208,0.41625 0.0586,0.5527 0.05405,-0.0243 0.08509,-0.0681 0.138995,-0.0618 v 0 c 0.04861,0.12382 0.188383,0.18478 0.312208,0.13617 v 0 c 0.12379,-0.0486 0.18475,-0.18838 0.136172,-0.31221 0.0054,-0.11719 -0.04346,-0.26469 -0.09225,-0.37264 -0.04307,-0.0338 -0.105163,-0.074 -0.153882,-0.0996 -0.133385,-0.0808 -0.323286,-0.1422 -0.479883,-0.17021 -0.209727,-0.0252 -0.466055,-0.0119 -0.67624,0.0283 -0.101106,0.0378 -0.215406,0.0887 -0.305188,0.14026 -0.08841,0.0573 -0.188101,0.13155 -0.259292,0.2037 -0.03087,0.039 -0.06978,0.0889 -0.09518,0.13229 -0.01831,0.0494 -0.04131,0.11066 -0.04978,0.16189 -0.08714,0.14079 -0.130458,0.25114 -0.159773,0.33362 0.0032,0.12764 0.03104,0.26469 0.05623,0.34435 v 0 c 0.05831,0.17974 0.251283,0.2782 0.431023,0.21988 v 0 c 0.179741,-0.0583 0.278165,-0.25128 0.219851,-0.43102 z"
       style="opacity:1;fill:#000000;fill-opacity:1;fill-rule:nonzero;stroke:none;stroke-width:0.352777;stop-opacity:1"
       id="path17711"
       inkscape:connector-curvature="0" />
    <path
       d="m 11.695164,272.33031 c -0.06791,0.13744 -0.08251,0.3138 -0.07084,0.43716 v 0 c 0.03517,0.20035 0.226096,0.3343 0.426438,0.29912 v 0 c 0.200378,-0.0351 0.334292,-0.22606 0.299156,-0.42643 v 0 c -0.03517,-0.20038 -0.226093,-0.3343 -0.426436,-0.29912 v 0 c -0.200378,0.0351 -0.334292,0.22606 -0.299156,0.42643 -0.0011,0.081 0.0089,0.1814 0.02212,0.27471 v 0 c 0.06861,0.21823 0.301131,0.33952 0.519324,0.27086 v 0 c 0.218228,-0.0686 0.339478,-0.30113 0.270862,-0.51932 v 0 c -0.06861,-0.21823 -0.301131,-0.33948 -0.519324,-0.27086 v 0 c -0.218228,0.0686 -0.339513,0.30113 -0.270862,0.51932 0.01527,0.0924 0.03993,0.19869 0.06657,0.29962 v 0 c 0.09412,0.23219 0.358598,0.34413 0.590797,0.25004 v 0 c 0.232198,-0.0941 0.34417,-0.35859 0.250084,-0.59079 v 0 c -0.09412,-0.2322 -0.3586,-0.34414 -0.590798,-0.25005 v 0 c -0.232198,0.0941 -0.34417,0.3586 -0.250084,0.5908 0.05969,0.14336 0.135184,0.3031 0.213219,0.44894 v 0 c 0.11564,0.21985 0.387597,0.30434 0.607448,0.18867 v 0 c 0.219851,-0.11564 0.304341,-0.3876 0.188665,-0.60745 v 0 c -0.11564,-0.21985 -0.387597,-0.30431 -0.607448,-0.18867 v 0 c -0.219851,0.11564 -0.304341,0.38764 -0.188665,0.60745 0.08315,0.14259 0.180481,0.29323 0.275307,0.41956 v 0 c 0.133491,0.19516 0.399945,0.24511 0.595101,0.11162 v 0 c 0.195157,-0.13349 0.24511,-0.39995 0.111619,-0.5951 v 0 c -0.133491,-0.19516 -0.399944,-0.24511 -0.595101,-0.11162 v 0 c -0.195156,0.13349 -0.24511,0.39994 -0.111619,0.5951 0.05733,0.0884 0.125378,0.18221 0.187819,0.25799 v 0 c 0.158538,0.18122 0.433987,0.19963 0.615209,0.0411 v 0 c 0.181222,-0.15854 0.199602,-0.43396 0.04106,-0.61521 v 0 c -0.158499,-0.18123 -0.433948,-0.19961 -0.61517,-0.0411 v 0 c -0.181222,0.15854 -0.199637,0.43395 -0.0411,0.61518 0.145944,0.0668 0.315948,0.12809 0.458717,0.12985 v 0 c 0.119204,0.059 0.263666,0.0102 0.322686,-0.10904 v 0 c 0.05898,-0.1192 0.01019,-0.26367 -0.109044,-0.32269 -0.0079,-0.0728 7.15e-4,-0.15314 -0.0163,-0.27248 -0.0459,-0.0481 -0.08714,-0.0982 -0.136878,-0.16669 -0.0665,-0.10954 -0.125871,-0.22458 -0.18602,-0.35496 -0.06562,-0.12718 -0.120332,-0.24829 -0.168698,-0.37137 -0.04533,-0.0766 -0.08283,-0.14115 -0.117052,-0.2068 -0.03658,-0.065 -0.06389,-0.10968 -0.08685,-0.15402 -0.02134,-0.0648 -0.03489,-0.0329 -0.05877,0.0264 v 0 c 0.09285,-0.16457 0.03471,-0.37324 -0.12986,-0.46609 v 0 c -0.164607,-0.0928 -0.373275,-0.0347 -0.466126,0.12989 z"
       style="opacity:1;fill:#000000;fill-opacity:1;fill-rule:nonzero;stroke:none;stroke-width:0.352777;stop-opacity:1"
       id="path17713"
       inkscape:connector-curvature="0" />
    <path
       d="m 16.471352,275.98382 c 0.05337,-0.14344 0.08957,-0.31687 0.08823,-0.45307 v 0 c 0.02254,-0.14898 -0.08001,-0.28801 -0.228989,-0.31052 v 0 c -0.148979,-0.0225 -0.288007,0.08 -0.310515,0.22899 v 0 c -0.02254,0.14898 0.08001,0.28801 0.228989,0.31051 v 0 c 0.148976,0.0225 0.288007,-0.08 0.310515,-0.22898 0.07144,-0.16867 0.06692,-0.44122 -0.04343,-0.64784 v 0 c -0.168274,-0.1589 -0.433455,-0.15131 -0.592382,0.0169 v 0 c -0.15889,0.16827 -0.151307,0.43346 0.01696,0.59238 v 0 c 0.16824,0.15889 0.433459,0.15131 0.592349,-0.017 v 0 c 0.158893,-0.16824 0.151307,-0.43346 -0.01693,-0.59235 -0.175471,-0.13067 -0.400896,-0.18221 -0.536291,-0.17953 v 0 c -0.250648,0.0369 -0.423897,0.27012 -0.386961,0.5208 v 0 c 0.03697,0.25069 0.270155,0.42394 0.52084,0.38697 v 0 c 0.250685,-0.037 0.423934,-0.27016 0.386961,-0.52081 v 0 c -0.03697,-0.25068 -0.270156,-0.42393 -0.52084,-0.38696 -0.127389,0.008 -0.290479,0.0518 -0.417971,0.101 -0.248285,0.10026 -0.551497,0.29721 -0.807614,0.52151 -0.232164,0.25502 -0.50479,0.63422 -0.638458,1.04323 -0.06593,0.25524 -0.0919,0.57898 -0.04473,0.84452 0.04106,0.24846 0.206269,0.59954 0.460375,0.80603 0.349038,0.18845 0.726757,0.26352 1.076891,0.29552 0.282292,0.0164 0.561197,0.0165 0.814105,0.024 0.2268,0.01 0.414231,0.0233 0.590867,0.0614 0.26684,0.0832 0.47498,0.21244 0.633378,0.38089 0.124884,0.11988 0.128622,0.13621 0.11698,0.20881 0.0021,0.0965 -0.0078,0.0341 -0.23936,0.18669 -0.210855,0.15797 -0.577072,0.3652 -0.992399,0.56557 -0.212794,0.1136 -0.408623,0.21008 -0.605473,0.29729 -0.08668,0.0707 -0.164571,0.13533 -0.245745,0.19858 -0.229833,0.12012 -0.377931,0.19131 -0.513397,0.22652 v 0 c -0.281797,0.0172 -0.496287,0.25961 -0.479071,0.54137 v 0 c 0.01722,0.2818 0.259609,0.49629 0.541406,0.47907 v 0 c 0.2818,-0.0172 0.49629,-0.25961 0.479074,-0.54141 v 0 c -0.01722,-0.2818 -0.25961,-0.49625 -0.541409,-0.47903 -0.130281,0.0422 -0.127035,0.0782 -0.175012,0.0627 v 0 c -0.181186,-0.14581 -0.446264,-0.11713 -0.592068,0.064 v 0 c -0.145802,0.18118 -0.117121,0.44626 0.06407,0.59206 v 0 c 0.181149,0.14577 0.446228,0.11713 0.592032,-0.0641 v 0 c 0.145801,-0.18115 0.11712,-0.44623 -0.06403,-0.59203 -0.07475,-0.009 -0.113347,-0.0232 -0.167182,-0.18729 v 0 c -0.02939,-0.18037 -0.199461,-0.30279 -0.37987,-0.2734 v 0 c -0.180412,0.0294 -0.302826,0.19949 -0.273405,0.37991 v 0 c 0.02939,0.18037 0.199462,0.30278 0.379873,0.2734 v 0 c 0.180409,-0.0294 0.302824,-0.1995 0.273402,-0.37991 -0.06149,-0.1802 -0.08544,-0.4198 -0.06632,-0.76404 v 0 c 0.01881,-0.1317 -0.07271,-0.25369 -0.204399,-0.27245 v 0 c -0.131691,-0.0188 -0.253682,0.0727 -0.272449,0.20439 -0.08188,0.36375 -0.119168,0.68648 -0.110104,0.93868 0.01672,0.26878 0.132609,0.55714 0.292455,0.73681 0.186584,0.17328 0.504576,0.28328 0.765349,0.30162 0.255625,0.0113 0.574959,-0.0405 0.881592,-0.12407 0.121111,-0.015 0.249169,-0.0361 0.372533,-0.058 0.223203,-0.0981 0.463905,-0.21548 0.688094,-0.3339 0.437867,-0.23651 0.902793,-0.52984 1.227066,-0.80483 0.376698,-0.42954 0.529133,-0.99307 0.434624,-1.371 -0.06692,-0.26815 -0.277707,-0.58159 -0.500698,-0.76973 -0.267864,-0.22687 -0.687493,-0.44545 -1.108075,-0.55192 -0.280175,-0.0472 -0.541372,-0.057 -0.785884,-0.0577 -0.270367,3.5e-4 -0.536186,0.009 -0.776356,0.002 -0.293688,-0.0178 -0.515234,-0.0494 -0.65631,-0.12442 -0.0092,-0.0171 0.004,-0.0477 0.008,-0.1875 -0.0088,-0.15152 0.02315,-0.25256 0.08996,-0.39547 0.08957,-0.22013 0.248848,-0.37818 0.470498,-0.56839 0.169968,-0.21555 0.307694,-0.3531 0.44115,-0.44831 0.06258,-0.0478 0.07518,-0.0672 0.09793,-0.0811 0.01474,-0.0195 -0.08601,-0.053 -0.132609,-0.0853 -0.0249,-0.12139 0.0068,-0.16785 0.03895,-0.0767 -0.03277,0.0718 -0.07634,0.12739 -0.143756,0.19668 v 0 c -0.09331,0.16428 -0.03577,0.37316 0.12855,0.46647 v 0 c 0.16429,0.0933 0.373134,0.0358 0.466479,-0.12851 z"
       style="opacity:1;fill:#000000;fill-opacity:1;fill-rule:nonzero;stroke:none;stroke-width:0.352777;stop-opacity:1"
       id="path17715"
       inkscape:connector-curvature="0" />
    <path
       d="m 24.231721,276.44684 c 0.164748,-0.18524 0.244369,-0.47526 0.280001,-0.69405 v 0 c 0.02653,-0.1965 -0.111231,-0.37734 -0.307729,-0.40386 v 0 c -0.196496,-0.0266 -0.377296,0.11119 -0.40386,0.30769 v 0 c -0.02653,0.1965 0.11123,0.37733 0.307729,0.40386 v 0 c 0.196498,0.0266 0.377295,-0.1112 0.40386,-0.30769 0.02117,-0.0668 0.04103,-0.14898 0.05704,-0.22765 v 0 c 0.01556,-0.21463 -0.1458,-0.40118 -0.36043,-0.41674 v 0 c -0.214593,-0.0156 -0.401177,0.1458 -0.4167,0.36043 v 0 c -0.01556,0.2146 0.145803,0.40118 0.360396,0.41671 v 0 c 0.21463,0.0156 0.40118,-0.14581 0.416738,-0.3604 0.02437,-0.10308 0.04554,-0.23178 0.05648,-0.33814 v 0 c -0.01206,-0.24074 -0.216995,-0.42616 -0.457766,-0.41409 v 0 c -0.240771,0.012 -0.426154,0.21696 -0.414126,0.45773 v 0 c 0.01206,0.24077 0.216996,0.42615 0.457766,0.41412 v 0 c 0.240734,-0.0121 0.426154,-0.21699 0.414126,-0.45776 0.007,-0.0674 0.0097,-0.14065 0.0099,-0.1984 -0.0032,-0.0662 -0.05405,-0.21474 -0.164431,-0.3568 -0.567936,-0.0612 -0.719667,0.0493 -0.771242,0.10717 -0.03874,0.0493 -0.08319,0.12439 -0.107458,0.17279 -0.04255,0.0882 -0.08752,0.22306 -0.118602,0.355 -0.03831,0.26914 -0.05775,0.65067 -0.04445,1.10229 0.0058,0.5823 0.06808,1.37735 0.274143,2.15068 0.09828,0.26606 0.219744,0.51763 0.34544,0.67373 0.282046,0.43198 0.750181,0.71586 1.138132,0.74853 0.186443,0.0392 0.492053,0.004 0.715327,-0.10224 0.434692,-0.29841 0.755896,-0.81746 1.020763,-1.34828 0.307551,-0.62717 0.617079,-1.36564 0.874783,-1.88937 0.146508,-0.28466 0.24973,-0.459 0.330023,-0.53047 0.07052,-0.0933 0.02946,-0.0481 -0.02678,2.9e-4 -0.04625,0.0197 -0.204893,0.0463 -0.281551,0.0428 -0.06759,-0.0186 -0.184081,-0.0794 -0.209798,-0.0955 0.0046,0.0103 0.04089,0.0972 0.09984,0.30575 0.06621,0.25901 0.126506,0.66919 0.177589,1.169 0.100047,0.64897 0.179633,1.39235 0.245708,2.02449 0.04671,0.34749 0.0853,0.62138 0.108373,0.87806 0.03415,0.29436 0.05257,0.50292 0.0326,0.71925 -0.05246,0.1947 -0.134655,0.38036 -0.267759,0.59478 -0.179599,0.31874 -0.399626,0.58307 -0.69116,0.81636 -0.346112,0.27672 -0.722207,0.44447 -1.098233,0.48454 v 0 c -0.293793,0.0382 -0.500946,0.30738 -0.462703,0.60117 v 0 c 0.03824,0.2938 0.307409,0.50095 0.601202,0.46271 v 0 c 0.293759,-0.0382 0.500946,-0.30741 0.462704,-0.60117 v 0 c -0.03824,-0.2938 -0.307409,-0.50095 -0.601203,-0.46271 -0.215407,0.0566 -0.347098,0.0727 -0.505814,0.0285 v 0 c -0.235903,-0.0963 -0.505177,0.0169 -0.601451,0.25284 v 0 c -0.09627,0.2359 0.01693,0.50518 0.252836,0.60145 v 0 c 0.235902,0.0962 0.505179,-0.017 0.601451,-0.25287 v 0 c 0.09624,-0.2359 -0.01693,-0.50518 -0.252836,-0.60142 -0.207502,-0.0593 -0.377719,-0.23696 -0.522428,-0.58571 v 0 c -0.05881,-0.18475 -0.256257,-0.28688 -0.441042,-0.22811 v 0 c -0.18475,0.0588 -0.286879,0.25626 -0.228108,0.44101 v 0 c 0.05881,0.18478 0.25626,0.28691 0.441008,0.2281 v 0 c 0.184785,-0.0588 0.286914,-0.25622 0.228142,-0.441 -0.157022,-0.36262 -0.21904,-0.79926 -0.164007,-1.31692 v 0 c 0.02294,-0.13102 -0.0647,-0.25584 -0.19572,-0.27877 v 0 c -0.131022,-0.0229 -0.255834,0.0647 -0.278765,0.19572 -0.134655,0.56618 -0.137795,1.14572 -0.03062,1.61294 0.119449,0.48151 0.418746,0.94714 0.799005,1.20632 0.329285,0.15769 0.710637,0.21693 1.037979,0.20169 0.540525,-0.0793 1.164519,-0.36132 1.636607,-0.73329 0.366995,-0.33997 0.68005,-0.76556 0.878734,-1.16843 0.137088,-0.28064 0.244123,-0.60833 0.29351,-0.90936 0.05119,-0.32163 0.05147,-0.63052 0.03644,-0.92526 0.0052,-0.26134 -0.0076,-0.56607 -0.02511,-0.90093 -0.0086,-0.62297 -0.03379,-1.39696 -0.08033,-2.07913 -0.06551,-0.52719 -0.151198,-1.0202 -0.255693,-1.38165 -0.118427,-0.31768 -0.28067,-0.59503 -0.436314,-0.7565 -0.09786,-0.085 -0.25954,-0.17078 -0.371935,-0.19816 -0.121603,-0.0122 -0.324766,0.022 -0.415994,0.0638 -0.146299,0.0927 -0.279154,0.24158 -0.343678,0.34547 -0.106008,0.14566 -0.245708,0.43053 -0.380823,0.74405 -0.252166,0.56088 -0.541938,1.30478 -0.821549,1.91942 -0.215689,0.52205 -0.395357,0.898 -0.59563,1.04821 -0.03948,0.0264 -0.06265,0.03 -0.164428,0.006 -0.217419,-0.0305 -0.319125,-0.11081 -0.478192,-0.44404 -0.03905,-0.0914 -0.06904,-0.23435 -0.110136,-0.46313 -0.173815,-0.67045 -0.213042,-1.33332 -0.208669,-1.88767 -0.0089,-0.42553 0.01,-0.7147 0.04262,-0.90802 0.0063,-0.0757 0.008,-0.10629 0.0122,-0.13102 -7.94e-4,-0.008 -0.02188,0.0231 -0.0381,0.0423 -0.02889,0.0275 -0.158856,0.12104 -0.268076,0.15885 -0.527227,-0.22768 -0.560104,-0.32907 -0.549063,-0.32914 0.01426,0.007 0.02727,0.0179 0.04145,0.0525 0.01871,0.051 0.03044,0.12969 0.03806,0.22412 0.0053,0.0688 0.0096,0.11945 0.0096,0.18317 -0.02074,0.19731 -0.03627,0.32215 -0.04907,0.31111 v 0 c -0.134866,0.13236 -0.136948,0.34897 -0.0046,0.48384 v 0 c 0.132326,0.1349 0.348932,0.13694 0.483833,0.005 z"
       style="opacity:1;fill:#000000;fill-opacity:1;fill-rule:nonzero;stroke:none;stroke-width:0.352777;stop-opacity:1"
       id="path17717"
       inkscape:connector-curvature="0" />
    <path
       d="m 32.349738,275.93838 c -0.111794,-0.0209 -0.227541,-0.0208 -0.299685,-0.0475 v 0 c -0.208526,-0.0302 -0.402024,0.11444 -0.432187,0.32297 v 0 c -0.03016,0.20849 0.114441,0.40199 0.322967,0.43215 v 0 c 0.208491,0.0302 0.401992,-0.11444 0.432154,-0.32293 v 0 c 0.03016,-0.20853 -0.114443,-0.40203 -0.322934,-0.43219 0.01056,-0.0128 0.04854,-0.009 0.05429,-0.0303 v 0 c -0.175999,-0.15734 -0.446226,-0.14221 -0.603565,0.0338 v 0 c -0.157338,0.176 -0.142203,0.44622 0.0338,0.60356 v 0 c 0.176001,0.15734 0.446228,0.14221 0.603568,-0.0338 v 0 c 0.157337,-0.176 0.142203,-0.44623 -0.0338,-0.60356 0.01259,-0.01 0.0093,-0.10362 0.0093,-0.25873 v 0 c -0.04504,-0.27139 -0.301541,-0.4549 -0.572932,-0.40986 v 0 c -0.271394,0.045 -0.454872,0.30156 -0.409824,0.57295 v 0 c 0.04502,0.27136 0.301519,0.45487 0.572913,0.40982 v 0 c 0.271391,-0.045 0.454906,-0.30152 0.409855,-0.57291 -0.04392,-0.23336 -0.04819,-0.25643 0.01177,-0.3054 0.01998,-0.101 0.05732,-0.14834 0.334608,-0.23759 0.13561,-0.0476 0.267936,-0.0767 0.448136,-0.0923 0.232161,-0.0383 0.382799,-0.0502 0.548357,-0.0168 0.202916,0.058 0.376449,0.19519 0.526343,0.51728 0.137303,0.3285 0.187397,0.81399 0.166158,1.29864 0.0061,0.30036 -0.0078,0.49368 -0.06657,0.68453 -0.0599,0.14838 -0.141745,0.26271 -0.292063,0.401 -0.276156,0.25129 -0.597924,0.3985 -0.987179,0.44937 -0.245816,0.0589 -0.43875,0.0731 -0.641104,0.0362 v 0 c -0.293616,-0.0603 -0.580458,0.12894 -0.640677,0.42256 v 0 c -0.06026,0.29358 0.128939,0.58042 0.422555,0.64068 v 0 c 0.293619,0.0602 0.580461,-0.12894 0.640681,-0.42256 v 0 c 0.06022,-0.29362 -0.12894,-0.58046 -0.422559,-0.64068 -0.144848,-0.0305 -0.247612,-0.0836 -0.36523,-0.20958 v 0 c -0.1905,-0.21206 -0.516853,-0.22952 -0.728909,-0.039 v 0 c -0.21209,0.1905 -0.229552,0.51685 -0.03905,0.72891 v 0 c 0.190534,0.21209 0.516855,0.22955 0.728945,0.039 v 0 c 0.212053,-0.19054 0.229516,-0.51686 0.03902,-0.72895 -0.241512,-0.19318 -0.325861,-0.56956 -0.277001,-1.10977 v 0 c 0.03471,-0.20616 -0.104245,-0.40142 -0.310374,-0.43614 v 0 c -0.206127,-0.0347 -0.401389,0.10421 -0.43614,0.31034 v 0 c -0.03471,0.20613 0.104246,0.40139 0.310375,0.43614 v 0 c 0.206129,0.0347 0.401392,-0.10421 0.436139,-0.31034 0.04477,-0.55823 0.244547,-1.13411 0.576758,-1.62584 v 0 c 0.0823,-0.1045 0.06431,-0.25591 -0.04018,-0.33821 v 0 c -0.104491,-0.0823 -0.255905,-0.0644 -0.338243,0.0401 -0.447641,0.49827 -0.789906,1.17172 -0.944808,1.79808 -0.150884,0.64502 -0.09257,1.38857 0.237947,1.90486 0.231847,0.26412 0.570971,0.48489 0.888365,0.59252 0.373063,0.083 0.779534,0.0827 1.121482,0.026 0.538268,-0.12957 1.108215,-0.44672 1.482407,-0.82709 0.215651,-0.21487 0.415888,-0.51188 0.531284,-0.79936 0.105478,-0.32893 0.145838,-0.67811 0.147388,-0.99733 0.03965,-0.5314 -0.01691,-1.22298 -0.20599,-1.76263 -0.292171,-0.55841 -0.791316,-0.9701 -1.261499,-1.12913 -0.362267,-0.0654 -0.694018,-0.0488 -0.946996,-0.008 -0.206198,0.0197 -0.463127,0.0768 -0.661176,0.14478 -0.45653,0.16401 -0.843351,0.51467 -0.993491,0.83573 -0.100225,0.31853 -0.05341,0.69812 0.02811,0.9403 0.0532,0.18044 0.183269,0.46916 0.356624,0.64809 0.145415,0.10798 0.302929,0.16704 0.409012,0.17861 0.20348,0.0147 0.355774,-0.012 0.377401,-0.02 v 0 c 0.1881,0.0181 0.355211,-0.11977 0.373309,-0.30787 v 0 c 0.01808,-0.18807 -0.119765,-0.35522 -0.307865,-0.37328"
       style="opacity:1;fill:#000000;fill-opacity:1;fill-rule:nonzero;stroke:none;stroke-width:0.352777;stop-opacity:1"
       id="path17719"
       inkscape:connector-curvature="0" />
    <path
       d="m 37.36451,275.68421 c -0.07779,-0.0823 -0.110103,-0.10609 -0.142912,-0.18638 v 0 c -0.0055,-0.13839 -0.122131,-0.24617 -0.260524,-0.2407 v 0 c -0.13843,0.005 -0.246206,0.1221 -0.240737,0.26053 v 0 c 0.0055,0.13839 0.122098,0.24617 0.260528,0.2407 v 0 c 0.13843,-0.005 0.246202,-0.1221 0.240733,-0.26053 0.01633,-0.14421 0.05613,-0.35281 0.04301,-0.50934 v 0 c -0.04333,-0.16217 -0.209909,-0.25851 -0.37208,-0.21519 v 0 c -0.162171,0.0433 -0.258516,0.2099 -0.215193,0.37211 v 0 c 0.04332,0.16217 0.209902,0.25851 0.372073,0.21516 v 0 c 0.162173,-0.0433 0.258516,-0.20991 0.215196,-0.37208 -0.176848,-0.22253 -0.363927,-0.26606 -0.461293,-0.2552 v 0 c -0.178787,0.0592 -0.275731,0.2522 -0.216464,0.43103 v 0 c 0.05923,0.17878 0.252201,0.27569 0.430988,0.21646 v 0 c 0.178824,-0.0592 0.27573,-0.2522 0.2165,-0.43102 v 0 c -0.05927,-0.17879 -0.252237,-0.2757 -0.431024,-0.21647 -0.08252,0.0195 -0.190183,0.082 -0.249061,0.12732 -0.120086,0.17621 -0.194098,0.33719 -0.251108,0.4869 -0.0967,0.20275 -0.178223,0.5104 -0.185208,0.79016 0.01302,0.25026 0.09973,0.53523 0.216218,0.75148 0.1881,0.27436 0.462843,0.54208 0.705307,0.7215 0.152083,0.0957 0.341384,0.18934 0.497594,0.24374 0.175895,0.0712 0.539504,0.11268 0.812623,0.0324 0.189865,-0.0778 0.406966,-0.24419 0.541269,-0.39786 0.342053,-0.43223 0.718714,-1.15666 1.034695,-1.74114 0.135221,-0.30018 0.254106,-0.57263 0.344559,-0.77265 0.08964,-0.16232 0.09705,-0.19343 0.0726,-0.17279 -0.0113,-0.002 -0.238689,0.0229 -0.349391,-0.004 -0.174273,-0.13988 -0.171169,-0.01 -0.144605,0.15155 0.05302,0.13772 0.09758,0.23188 0.141147,0.30547 0.02678,0.0406 0.106117,0.12679 0.177554,0.18464 0.03598,0.0247 0.161782,0.0828 0.268568,0.10951 0.09878,0.01 0.307129,-0.0224 0.406366,-0.0629 0.339619,-0.462 0.352708,-0.71663 0.320992,-0.88815 -0.05997,-0.0843 -0.148979,-0.19632 -0.241334,-0.25908 -0.05158,-0.0274 -0.185245,-0.10083 -0.279154,-0.11483 v 0 c -0.225671,-0.0636 -0.460198,0.0678 -0.523804,0.2934 v 0 c -0.06364,0.22568 0.06773,0.4602 0.293405,0.52381 v 0 c 0.225637,0.0636 0.460163,-0.0677 0.523769,-0.29341 v 0 c 0.06364,-0.22563 -0.06773,-0.46016 -0.29337,-0.5238 -0.07881,0.006 -0.215477,0.0367 -0.267335,0.0764 v 0 c -0.184116,0.0765 -0.271357,0.2878 -0.194839,0.47191 v 0 c 0.07652,0.18412 0.287832,0.27136 0.471945,0.19484 v 0 c 0.184116,-0.0765 0.271357,-0.2878 0.194839,-0.47195 v 0 c -0.07652,-0.18411 -0.287829,-0.27132 -0.471945,-0.1948 -0.105974,0.0882 -0.174731,0.20715 -0.190254,0.28783 v 0 c -0.06795,0.15166 -6.9e-5,0.32971 0.15159,0.39765 v 0 c 0.15166,0.068 0.329706,1.1e-4 0.397685,-0.15155 v 0 c 0.06794,-0.15169 7.2e-5,-0.32974 -0.151588,-0.39769 v 0 c -0.151693,-0.0679 -0.329742,-1e-4 -0.397687,0.15159 -0.0089,0.0697 -0.02114,0.16761 -0.03101,0.28226 v 0 c -0.03418,0.12855 0.0423,0.26049 0.170852,0.29467 v 0 c 0.12855,0.0342 0.260456,-0.0423 0.29464,-0.17085 0.04452,-0.0899 0.08107,-0.13476 0.114758,-0.15995 0.02706,-0.0143 -0.0053,0.058 -0.07087,0.12799 -0.05306,0.0404 -0.180621,0.0704 -0.251423,0.0788 -0.08541,-0.0116 -0.211598,-0.0792 -0.261446,-0.10418 -0.07412,-0.0395 -0.153035,-0.12414 -0.2008,-0.14012 -0.0062,0.0241 -0.008,-0.0679 0.03034,-0.20997 0.353377,-0.28706 0.554461,-0.31786 0.64516,-0.30953 0.0992,0.0255 0.216641,0.0797 0.244298,0.0988 0.05331,0.0459 0.113101,0.11169 0.120861,0.12682 -1.4e-4,0.0157 -0.0028,0.0248 -0.02653,-0.008 -0.03856,-0.046 -0.144145,-0.29778 -0.315736,-0.49297 -0.366183,-0.20846 -0.713457,-0.16644 -0.865187,-0.076 -0.158679,0.10389 -0.314571,0.28783 -0.442561,0.47816 -0.152857,0.19956 -0.328964,0.46379 -0.514736,0.74415 -0.320712,0.60462 -0.652182,1.26005 -0.894046,1.55991 -0.04858,0.0669 -0.01003,0.0427 -0.0083,0.036 0.02808,0.01 0.132715,0.012 0.05436,-0.0251 -0.107561,-0.0408 -0.166442,-0.0742 -0.26148,-0.14097 -0.182668,-0.0991 -0.333481,-0.21192 -0.453707,-0.35423 -0.08121,-0.071 -0.118216,-0.10124 -0.151025,-0.19868 -0.043,-0.12189 -0.04346,-0.25534 -0.01246,-0.43004 0.02889,-0.14644 0.05133,-0.24535 0.07024,-0.3043 -0.05719,0.0579 -0.114864,0.0837 -0.155432,0.0898 -0.04787,-0.005 -0.193501,-0.0426 -0.240102,-0.0835 -0.06872,-0.15576 -0.07225,0.0249 -0.05383,0.21096 -0.02455,0.1331 -0.01842,0.30801 0.03323,0.48267 v 0 c 0.08502,0.16877 0.290724,0.23664 0.459494,0.15162 v 0 c 0.16877,-0.085 0.236643,-0.29072 0.151625,-0.45949"
       style="opacity:1;fill:#000000;fill-opacity:1;fill-rule:nonzero;stroke:none;stroke-width:0.352777;stop-opacity:1"
       id="path17721"
       inkscape:connector-curvature="0" />
    <path
       d="m 40.372222,274.49379 c -0.03584,0.0302 -0.06943,0.0607 -0.09733,0.0915 v 0 c -0.139875,0.006 -0.248391,0.12432 -0.242321,0.26419 v 0 c 0.006,0.13988 0.124317,0.24839 0.264194,0.24233 v 0 c 0.139877,-0.006 0.248391,-0.12432 0.242324,-0.2642 v 0 c -0.006,-0.13988 -0.12432,-0.24839 -0.264197,-0.24232 -0.06936,-0.0353 -0.17734,-0.0562 -0.281233,-0.0532 v 0 c -0.18214,0.0938 -0.253717,0.31743 -0.159949,0.49954 v 0 c 0.0938,0.1821 0.317463,0.25371 0.499568,0.15995 v 0 c 0.182104,-0.0938 0.253717,-0.31747 0.159914,-0.49957 v 0 c -0.09377,-0.18211 -0.317431,-0.25372 -0.499535,-0.15992 -0.10541,0.0482 -0.240594,0.20176 -0.287267,0.29588 v 0 c -0.06198,0.22038 0.06643,0.44926 0.286809,0.51124 v 0 c 0.220379,0.062 0.449297,-0.0664 0.511281,-0.2868 v 0 c 0.06198,-0.22038 -0.06643,-0.44927 -0.286809,-0.51125 v 0 c -0.220382,-0.062 -0.449299,0.0664 -0.511281,0.28681 -0.03574,0.0842 -0.05934,0.19117 -0.07472,0.27975 -0.05327,0.19851 -0.08968,0.60766 -0.07408,1.12011 0.04075,0.34632 0.101245,0.7337 0.173389,1.0971 0.104704,0.46563 0.24451,0.9422 0.404461,1.28362 v 0 c 0.09991,0.24285 0.377788,0.35874 0.620641,0.25883 v 0 c 0.242887,-0.0999 0.358775,-0.37779 0.258868,-0.62064 v 0 c -0.09994,-0.24289 -0.37779,-0.35874 -0.620678,-0.25884 v 0 c -0.24285,0.0999 -0.358738,0.37779 -0.258831,0.62065 0.143721,0.25661 0.346921,0.48171 0.546735,0.5866 v 0 c 0.200377,0.11489 0.455964,0.0456 0.570865,-0.1548 v 0 c 0.114898,-0.20038 0.04558,-0.45597 -0.1548,-0.57083 v 0 c -0.200377,-0.1149 -0.455964,-0.0456 -0.570831,0.15476 v 0 c -0.114898,0.20038 -0.04561,0.45597 0.154766,0.57087 0.15381,0.0466 0.387736,0.0488 0.530436,-0.0154 v 0 c 0.1748,-0.0507 0.275448,-0.23344 0.22479,-0.40824 v 0 c -0.05062,-0.1748 -0.233399,-0.27545 -0.408199,-0.22482 v 0 c -0.174802,0.0507 -0.275484,0.23343 -0.224827,0.40823 v 0 c 0.05066,0.1748 0.233434,0.27545 0.408236,0.22483 0.121248,-0.0714 0.250331,-0.19774 0.327272,-0.32915 v 0 c 0.08714,-0.1005 0.07634,-0.25258 -0.02413,-0.33976 v 0 c -0.100508,-0.0872 -0.25259,-0.0764 -0.33976,0.0241 -0.08128,0.0509 -0.111196,0.0371 -0.147886,0.012 -0.0131,-0.0191 0.06604,-0.0385 0.06978,-0.0777 -0.02442,-0.0237 -0.0345,-0.0713 -0.09253,-0.24433 -0.08551,-0.25682 -0.162383,-0.65024 -0.222425,-1.09418 -0.06128,-0.34632 -0.108056,-0.69373 -0.137583,-1.00929 -0.07024,-0.45082 -0.09317,-0.76303 -0.100224,-0.95984 -0.01143,-0.11162 -0.02706,-0.11419 -0.04047,-0.10993 -0.02474,0.0162 -0.123647,0.12136 -0.171344,0.13981 -0.04621,-0.0266 -0.07511,-0.0587 -0.03379,-0.0999 0.02331,0.0285 0.05083,0.0573 0.08424,0.0863 v 0 c 0.188913,-0.003 0.339514,-0.15892 0.336339,-0.34787 v 0 c -0.0032,-0.18891 -0.158931,-0.33951 -0.347878,-0.33634"
       style="opacity:1;fill:#000000;fill-opacity:1;fill-rule:nonzero;stroke:none;stroke-width:0.352777;stop-opacity:1"
       id="path17723"
       inkscape:connector-curvature="0" />
    <path
       d="m 43.689992,274.94387 c 0.01294,-0.22236 -0.08315,-0.49707 -0.209762,-0.64093 v 0 c -0.09881,-0.12488 -0.280212,-0.14602 -0.405096,-0.0472 v 0 c -0.124917,0.0988 -0.14605,0.28024 -0.0472,0.40513 v 0 c 0.09885,0.12492 0.280212,0.14605 0.40513,0.0472 v 0 c 0.124883,-0.0989 0.146015,-0.28021 0.04717,-0.40513 -0.02368,-0.0443 -0.07867,-0.10933 -0.127953,-0.15233 v 0 c -0.149017,-0.0899 -0.342726,-0.042 -0.43265,0.107 v 0 c -0.08996,0.14901 -0.04205,0.34272 0.106963,0.43264 v 0 c 0.149013,0.09 0.342723,0.0421 0.432681,-0.10696 v 0 c 0.08992,-0.14901 0.04205,-0.34272 -0.106998,-0.43268 -0.0551,-0.0407 -0.198543,-0.0825 -0.302048,-0.0789 v 0 c -0.184433,0.0405 -0.301061,0.22292 -0.260527,0.40732 v 0 c 0.04053,0.18443 0.222922,0.30109 0.407352,0.26052 v 0 c 0.184433,-0.0405 0.301062,-0.22292 0.260528,-0.40732 v 0 c -0.04057,-0.18443 -0.22292,-0.30109 -0.407353,-0.26052 -0.113699,0.0263 -0.250436,0.12276 -0.309245,0.18902 -0.04706,0.0581 -0.09596,0.15455 -0.126577,0.23184 -0.03979,0.19989 -0.05994,0.42214 -0.07479,0.67345 -0.02061,0.34728 -0.0338,0.7995 -0.03059,1.22824 0.01892,0.32674 0.04727,0.64639 0.08206,0.91083 0.0563,0.33317 0.140192,0.62347 0.245178,0.8012 0.03479,0.0596 0.10033,0.14245 0.155152,0.19145 0.06982,0.0513 0.241231,0.11455 0.351367,0.11857 0.101883,-0.0138 0.250227,-0.079 0.312491,-0.12764 0.05278,-0.0488 0.112149,-0.12248 0.144357,-0.17399 0.160232,-0.33253 0.280281,-0.81544 0.512728,-1.36451 0.169122,-0.3574 0.384527,-0.74912 0.643572,-1.12102 0.19304,-0.26913 0.400297,-0.51491 0.610905,-0.72235 0.247933,-0.25117 0.431517,-0.38184 0.570442,-0.42051 -0.02674,-0.005 -0.118322,-0.0203 -0.123931,-0.0223 v 0 c 0.257492,0.12055 0.563948,0.01 0.684493,-0.24797 v 0 c 0.120509,-0.25749 0.0095,-0.56395 -0.248002,-0.68449 v 0 c -0.257493,-0.12055 -0.563949,-0.009 -0.684493,0.248 v 0 c -0.12051,0.25749 -0.0095,0.56395 0.248002,0.68446 -0.0019,-0.004 -0.03175,-0.0256 -0.02582,-0.0201 v 0 c 0.207926,0.1911 0.531424,0.17744 0.722525,-0.0305 v 0 c 0.191097,-0.20792 0.177445,-0.53142 -0.03052,-0.72252 v 0 c -0.207924,-0.19107 -0.531422,-0.17741 -0.722523,0.0305 v 0 c -0.191098,0.20793 -0.177445,0.53143 0.03052,0.72253 0.06001,1e-4 0.113382,0.0378 0.203095,0.17469 v 0 c 0.08526,0.2116 0.325929,0.31401 0.537527,0.22874 v 0 c 0.211595,-0.0853 0.314008,-0.32593 0.22874,-0.53752 v 0 c -0.08527,-0.2116 -0.325935,-0.31401 -0.53753,-0.22874 v 0 c -0.211595,0.0853 -0.314008,0.32593 -0.22874,0.53752 0.09532,0.0822 0.188557,0.18077 0.286279,0.30011 v 0 c 0.0399,0.1269 0.175082,0.19742 0.301977,0.15752 v 0 c 0.126894,-0.0399 0.197413,-0.17512 0.157514,-0.30202 0.01029,-0.15861 0.01738,-0.3182 0.0204,-0.46464 -0.04847,-0.20613 -0.147037,-0.44457 -0.277847,-0.61927 -0.05687,-0.0522 -0.154342,-0.12033 -0.227578,-0.15804 -0.152752,-0.0709 -0.410634,-0.10488 -0.587267,-0.0791 -0.359023,0.11405 -0.743445,0.36855 -1.07234,0.68351 -0.245674,0.26306 -0.497628,0.58367 -0.712893,0.90607 -0.271145,0.44609 -0.499391,0.92492 -0.662869,1.342 -0.227931,0.64076 -0.321239,1.15775 -0.380717,1.33636 0.02487,-0.0499 0.04618,-0.0763 0.05877,-0.0906 0.02801,-0.0197 0.139877,-0.0686 0.206163,-0.0806 0.07454,0.006 0.211315,0.0557 0.24751,0.0789 0.02117,0.021 0.05412,0.0619 0.05422,0.0591 -0.01492,-0.046 -0.03506,-0.20436 -0.05532,-0.49692 -0.02405,-0.24144 -0.04166,-0.52892 -0.05133,-0.83471 -0.02307,-0.40248 -0.03048,-0.82723 -0.03052,-1.17648 -0.01431,-0.25544 -0.02516,-0.43349 -0.02551,-0.54881 -0.01241,0.003 -0.03115,0.0164 -0.04516,0.0195 -0.02402,0.008 -0.123119,0.0732 -0.183266,0.0857 -0.0749,-0.002 -0.173533,-0.0326 -0.186833,-0.0475 -0.0024,-0.0146 -0.01326,-0.0366 0.0019,-0.0308 0.02741,0.0508 0.03097,0.11582 -0.0072,0.15452 v 0 c -0.0363,0.18546 0.0846,0.3652 0.270052,0.4015 v 0 c 0.18542,0.0363 0.365196,-0.0846 0.401497,-0.27005"
       style="opacity:1;fill:#000000;fill-opacity:1;fill-rule:nonzero;stroke:none;stroke-width:0.352777;stop-opacity:1"
       id="path17725"
       inkscape:connector-curvature="0" />
    <path
       d="m 52.567254,274.53609 c 0.159774,-0.14153 0.233786,-0.36449 0.236115,-0.49869 v 0 c 0.01788,-0.16464 -0.101071,-0.31263 -0.265711,-0.33055 v 0 c -0.164642,-0.0179 -0.312631,0.10104 -0.330554,0.26571 v 0 c -0.01791,0.16464 0.101036,0.31263 0.265713,0.33056 v 0 c 0.164642,0.0179 0.312631,-0.10108 0.330552,-0.26572 0.05309,-0.13183 0.07243,-0.3169 0.05369,-0.46658 v 0 c -0.107665,-0.20652 -0.362369,-0.28667 -0.568887,-0.179 v 0 c -0.20655,0.10767 -0.286665,0.36237 -0.178999,0.56892 v 0 c 0.107667,0.20652 0.362374,0.28667 0.568889,0.179 v 0 c 0.206552,-0.10766 0.286668,-0.3624 0.179001,-0.56892 -0.05987,-0.10672 -0.205671,-0.22663 -0.323075,-0.2728 v 0 c -0.24966,-0.0395 -0.484081,0.13084 -0.523557,0.3805 v 0 c -0.03951,0.24966 0.130844,0.48405 0.380505,0.52356 v 0 c 0.249661,0.0395 0.484047,-0.13085 0.523558,-0.38051 v 0 c 0.03951,-0.24966 -0.130879,-0.48408 -0.380506,-0.52355 -0.141745,-0.0145 -0.375885,0.069 -0.457623,0.12827 -0.09821,0.0877 -0.187888,0.23562 -0.234455,0.33256 -0.02762,0.26899 -0.02999,0.62946 -0.02829,1.14254 -0.0054,0.34967 -0.01016,0.77121 -0.0094,1.17937 0.02392,0.27192 0.05038,0.54268 0.08068,0.78419 0.02787,0.31729 0.07052,0.59803 0.132998,0.8098 0.06703,0.21869 0.202989,0.45692 0.371158,0.58526 0.194767,0.12866 0.512373,0.16567 0.729543,0.0956 0.194876,-0.0771 0.413634,-0.23841 0.601345,-0.43388 0.455719,-0.48807 0.970915,-1.31597 1.428221,-2.10354 0.238585,-0.4536 0.462105,-0.89232 0.666822,-1.26256 0.257598,-0.4421 0.45085,-0.72662 0.591256,-0.82275 0.01585,-0.009 -0.02671,0.0172 -0.04248,0.0306 -0.0285,0.005 -0.165981,-0.004 -0.207434,-0.01 -0.05708,-0.0396 -0.08953,-0.057 -0.04392,0.0957 0.03976,0.17371 0.07814,0.42841 0.114617,0.74069 0.02949,0.32315 0.05436,0.7026 0.07941,1.05297 0.0376,0.22307 0.07366,0.41088 0.109606,0.57242 0.03186,0.16376 0.06989,0.32692 0.107281,0.45942 0.04928,0.13237 0.116276,0.28117 0.180023,0.38873 0.03203,0.0575 0.08414,0.13748 0.124494,0.18965 0.0447,0.0589 0.128905,0.14619 0.188489,0.19615 0.157729,0.0834 0.476957,0.15116 0.660331,0.11927 v 0 c 0.35387,-0.0551 0.596054,-0.38664 0.540949,-0.74051 v 0 c -0.0551,-0.35388 -0.386644,-0.59606 -0.740516,-0.54095 v 0 c -0.353872,0.0551 -0.596053,0.38664 -0.540949,0.74051 v 0 c 0.0551,0.35387 0.386644,0.59606 0.740516,0.54095 0.07024,-0.0559 0.176565,-0.13688 0.21911,-0.2056 v 0 c 0.254635,-0.13451 0.352001,-0.45 0.217487,-0.70464 v 0 c -0.134559,-0.25463 -0.450048,-0.352 -0.704683,-0.21748 v 0 c -0.254635,0.13451 -0.352002,0.45 -0.217488,0.70464 v 0 c 0.134515,0.25463 0.450004,0.352 0.704639,0.21748 0.126754,-0.12463 0.252695,-0.31048 0.329493,-0.49007 v 0 c 0.126085,-0.17417 0.08707,-0.41752 -0.08706,-0.5436 v 0 c -0.174167,-0.12605 -0.417549,-0.0871 -0.543597,0.0871 v 0 c -0.126047,0.17413 -0.08706,0.41751 0.08707,0.5436 v 0 c 0.174167,0.12604 0.417547,0.0871 0.543594,-0.0871 -0.005,-0.0774 -0.0078,-0.162 -0.01389,-0.2449 v 0 c 0.07112,-0.1124 0.03764,-0.2612 -0.07479,-0.33228 v 0 c -0.11243,-0.0711 -0.261197,-0.0376 -0.33228,0.0748 -0.07355,0.0237 -0.14157,0.0364 -0.209232,0.0453 -0.11303,0.0827 -0.157658,0.0681 -0.185068,0.0244 -0.01066,-0.0406 0.04547,-0.10414 0.07461,-0.15417 0.07856,-0.0156 0.306599,0.0271 0.375743,0.044 0.01892,0.0192 0.06131,0.0645 0.06516,0.0708 -2.46e-4,-1.4e-4 0.01225,0.0181 0.0062,0.004 -0.0141,-0.0374 -0.02056,-0.0722 -0.04195,-0.16302 -0.03325,-0.0907 -0.0631,-0.19032 -0.09742,-0.32868 -0.03041,-0.14058 -0.05899,-0.29481 -0.08936,-0.47882 -0.06064,-0.31179 -0.127987,-0.70207 -0.204611,-1.06268 -0.08784,-0.35295 -0.189547,-0.68382 -0.29972,-0.93253 -0.120861,-0.26578 -0.329107,-0.53199 -0.552696,-0.66185 -0.165417,-0.0647 -0.404108,-0.0813 -0.538586,-0.0504 -0.121708,0.0396 -0.274955,0.12669 -0.364421,0.20169 -0.267546,0.24959 -0.532376,0.66784 -0.789834,1.14695 -0.21477,0.38728 -0.443158,0.83368 -0.677296,1.27737 -0.396769,0.79802 -0.820632,1.58884 -1.163426,2.02681 -0.130281,0.14937 -0.20447,0.2135 -0.275344,0.24067 -0.05108,0.0302 0.02854,0.041 0.02088,0.0212 0.01124,0.005 0.03013,-0.006 0.01683,-0.1548 -0.01791,-0.1554 -0.01894,-0.36064 -0.01185,-0.65285 0.01701,-0.23051 0.03782,-0.48824 0.06096,-0.7553 -2.65e-4,-0.40065 0.0046,-0.81294 0.01029,-1.169 0.0019,-0.51703 0.0067,-0.83597 0.02368,-0.97776 -0.02963,0.0328 -0.08791,0.10725 -0.160901,0.16867 -0.06025,0.0361 -0.278942,0.1132 -0.405942,0.101 -0.102693,-0.0439 -0.23449,-0.15328 -0.257387,-0.20042 0,-0.10784 0.04191,-0.0942 0.07355,-0.0292 -0.01916,0.0634 -0.01072,0.0362 0.0159,-0.0278 v 0 c -0.163301,0.095 -0.218652,0.30448 -0.123579,0.46782 v 0 c 0.09504,0.1633 0.304483,0.21862 0.467818,0.12358 z"
       style="opacity:1;fill:#000000;fill-opacity:1;fill-rule:nonzero;stroke:none;stroke-width:0.352777;stop-opacity:1"
       id="path17727"
       inkscape:connector-curvature="0" />
    <path
       d="m 61.216484,274.32054 c -0.004,-0.004 0.06029,-0.0316 0.103364,-0.0441 v 0 c -0.200376,0 -0.362831,0.16246 -0.362831,0.36283 v 0 c 0,0.20038 0.162455,0.36283 0.362831,0.36283 v 0 c 0.200377,0 0.362831,-0.16245 0.362831,-0.36283 v 0 c 0,-0.20037 -0.162454,-0.36283 -0.362831,-0.36283 0.06354,0.002 0.201261,0.0616 0.2413,0.0883 v 0 c -0.139065,-0.15977 -0.381317,-0.17653 -0.541054,-0.0374 v 0 c -0.15974,0.13907 -0.176496,0.38132 -0.03743,0.54106 v 0 c 0.139065,0.15973 0.381318,0.17649 0.541055,0.0374 v 0 c 0.159774,-0.1391 0.176495,-0.38132 0.03743,-0.54106 0.0435,0.0509 0.07017,0.0703 0.06999,0.009 v 0 c -0.05383,-0.22839 -0.28261,-0.36989 -0.510998,-0.31605 v 0 c -0.228388,0.0538 -0.369888,0.28261 -0.31609,0.511 v 0 c 0.05383,0.22839 0.282612,0.36988 0.511001,0.31605 v 0 c 0.228388,-0.0538 0.369921,-0.28261 0.316087,-0.511 -0.0021,-0.0777 -0.01662,-0.2135 -0.05955,-0.35105 -0.229167,-0.30931 -0.631931,-0.51152 -0.98732,-0.49576 -0.142557,0.0162 -0.372604,0.0958 -0.539538,0.20366 -0.218757,0.16623 -0.452932,0.42083 -0.632391,0.70115 -0.225214,0.38798 -0.416878,0.88018 -0.499496,1.30623 -0.04555,0.26532 -0.05228,0.55213 -0.01215,0.77562 0.103751,0.33813 0.378002,0.65031 0.656095,0.76976 0.399982,0.0938 0.862719,-0.004 1.205162,-0.18309 0.575344,-0.32833 1.057063,-0.95695 1.336955,-1.56553 0.18796,-0.52091 0.286703,-1.03674 0.380754,-1.32111 0.03429,-0.11667 0.03136,-0.13 0.0057,-0.093 -0.06488,0.0551 -0.19304,0.1125 -0.265502,0.12873 -0.07962,-7.2e-4 -0.224756,-0.0422 -0.272063,-0.0639 -0.05147,-0.0394 -0.09973,-0.0898 -0.08964,-0.0425 -0.0114,0.0338 -0.02643,0.063 -0.03538,0.11415 0.01627,0.21664 0.04237,0.56378 0.06572,0.95836 0.03856,0.37948 0.07807,0.83728 0.134374,1.20696 0.03736,0.14841 0.06678,0.24274 0.09299,0.31644 0.02447,0.0754 0.06008,0.16701 0.08992,0.23509 0.08781,0.12795 0.229164,0.29242 0.34798,0.38336 0.06043,0.0534 0.168135,0.12944 0.24003,0.16803 v 0 c 0.360257,0.18825 0.804863,0.0488 0.993106,-0.31146 v 0 c 0.188206,-0.36023 0.04875,-0.80483 -0.311468,-0.99307 v 0 c -0.360259,-0.18821 -0.804865,-0.0488 -0.993108,0.31146 v 0 c -0.188206,0.36022 -0.04875,0.80487 0.311467,0.99307 0.0792,0.0409 0.225743,0.0902 0.315667,0.1076 v 0 c 0.405976,0.0558 0.780343,-0.22807 0.836152,-0.63405 v 0 c 0.05577,-0.40601 -0.228105,-0.78034 -0.634082,-0.83615 v 0 c -0.406011,-0.0558 -0.780344,0.2281 -0.836155,0.63408 v 0 c -0.05577,0.40598 0.228108,0.78035 0.634085,0.83612 0.301836,-0.0736 0.623604,-0.30476 0.716949,-0.50969 v 0 c 0.189653,-0.19414 0.186021,-0.50529 -0.0081,-0.69494 v 0 c -0.194133,-0.18965 -0.505283,-0.18602 -0.694936,0.008 v 0 c -0.189653,0.19417 -0.186021,0.50528 0.0081,0.69497 v 0 c 0.194169,0.18966 0.505285,0.18602 0.694973,-0.008 0.0587,-0.18422 0.102904,-0.41476 0.103894,-0.62995 v 0 c 0.05171,-0.12256 -0.0057,-0.26385 -0.128236,-0.31556 v 0 c -0.122555,-0.0517 -0.263843,0.006 -0.315561,0.12827 -0.135958,0.10936 -0.251706,0.14044 -0.363183,0.13042 -0.07687,-0.0307 0.06442,-0.17498 0.190569,-0.27337 0.03666,0.0101 0.132541,0.0431 0.161539,0.0577 0.0217,0.0124 0.07973,0.0528 0.09137,0.0603 0.02088,-0.001 0.06759,0.0304 0.06675,-0.0196 -0.01516,-0.022 -0.02275,-0.0312 -0.03976,-0.0682 -0.01532,-0.0388 -0.02574,-0.0692 -0.04117,-0.12312 -0.05379,-0.23739 -0.112001,-0.66005 -0.180086,-1.08211 -0.118322,-0.42905 -0.244229,-0.82194 -0.367842,-1.09619 -0.05316,-0.0838 -0.104741,-0.15007 -0.152154,-0.1966 -0.06301,-0.1148 -0.18355,-0.26889 -0.305964,-0.35842 -0.08287,-0.0468 -0.263208,-0.0994 -0.36911,-0.0992 -0.115713,0.0183 -0.278236,0.0902 -0.344699,0.14426 -0.157057,0.16104 -0.253577,0.34995 -0.311928,0.50807 -0.12333,0.35916 -0.222073,0.8479 -0.381035,1.2622 -0.192333,0.49329 -0.467182,0.90713 -0.840316,1.1237 -0.21731,0.12774 -0.35955,0.17057 -0.462209,0.12863 -0.02805,0.002 -0.01259,0.019 -0.03641,-0.10584 -0.01908,-0.0798 -0.0163,-0.20376 0.0163,-0.39373 0.06615,-0.32308 0.211947,-0.67578 0.39525,-0.97155 0.130916,-0.19029 0.256154,-0.31211 0.385763,-0.39388 0.05175,-0.0351 0.04195,-0.0277 0.08234,-0.0245 0.09469,-0.0384 0.04907,-0.0553 0.08058,-0.002 -0.01669,-0.0604 0.0067,-0.0179 0.04473,0.0627 0.02769,0.0575 0.08262,0.18355 0.177977,0.29347 0.06424,0.0545 0.232905,0.12975 0.336021,0.1324 0.08262,-0.0125 0.195085,-0.0561 0.250791,-0.096 v 0 c 0.161676,-0.0978 0.213465,-0.30811 0.115675,-0.46983 v 0 c -0.09779,-0.16168 -0.308155,-0.21346 -0.469834,-0.11567 z"
       style="opacity:1;fill:#000000;fill-opacity:1;fill-rule:nonzero;stroke:none;stroke-width:0.352777;stop-opacity:1"
       id="path17729"
       inkscape:connector-curvature="0" />
    <path
       d="m 65.732709,274.29962 c -0.0429,-0.12417 -0.136101,-0.34575 -0.236325,-0.49318 v 0 c -0.105127,-0.15307 -0.314466,-0.19191 -0.467501,-0.0867 v 0 c -0.153069,0.10516 -0.19191,0.31447 -0.08675,0.4675 v 0 c 0.105165,0.15307 0.314469,0.19191 0.467504,0.0867 v 0 c 0.15307,-0.10513 0.191911,-0.31447 0.08675,-0.4675 -0.01336,-0.0479 -0.06459,-0.13183 -0.119169,-0.19466 v 0 c -0.170672,-0.12316 -0.408868,-0.0847 -0.532024,0.086 v 0 c -0.12319,0.17064 -0.0847,0.40883 0.08597,0.53202 v 0 c 0.170638,0.12316 0.408834,0.0847 0.531987,-0.086 v 0 c 0.12319,-0.17064 0.0847,-0.40883 -0.08594,-0.53202 -0.07324,-0.0636 -0.310372,-0.12062 -0.465031,-0.0896 v 0 c -0.21406,0.0975 -0.308463,0.35013 -0.210922,0.56416 v 0 c 0.09758,0.21407 0.350168,0.30847 0.564197,0.21093 v 0 c 0.214032,-0.0976 0.30847,-0.35017 0.210892,-0.5642 v 0 c -0.09754,-0.21403 -0.350131,-0.30847 -0.564163,-0.21089 -0.284904,0.26081 -0.387313,0.50754 -0.470498,0.7916 -0.07842,0.22553 -0.16623,0.5383 -0.235974,0.83799 -0.04886,0.32568 -0.0786,0.64784 -0.08343,0.90254 0.01299,0.26653 0.09405,0.5557 0.217873,0.74391 0.184891,0.19882 0.618985,0.32533 0.854359,0.27933 0.321627,-0.12852 0.629001,-0.41279 0.876265,-0.72193 0.301202,-0.38692 0.641668,-0.89228 0.946891,-1.33276 0.282432,-0.44559 0.50754,-0.80158 0.687668,-0.98661 0.06325,-0.0443 0.0556,-0.0391 0.06149,-0.0246 -0.07525,-0.004 -0.197342,-0.0572 -0.20842,-0.0425 0.0062,0.0146 -0.0049,0.0179 0.006,0.1088 -0.0053,0.11221 -0.01693,0.30042 -0.02963,0.49131 -0.01013,0.16023 -0.01918,0.35211 -0.0032,0.52539 0.01627,0.0755 0.07242,0.23386 0.141287,0.34918 0.101317,0.12647 0.426297,0.312 0.629531,0.33235 0.359339,-0.10191 0.595067,-0.27206 0.740693,-0.43183 0.127635,-0.15695 0.205068,-0.28124 0.264652,-0.38933 0.03256,-0.12312 0.06354,-0.25333 0.0877,-0.37278 0.123719,-0.29605 0.225353,-0.57026 0.316018,-0.74182 0.06907,-0.0734 0.07613,-0.0745 0.06565,-0.0496 -0.05313,0.004 -0.20856,-0.0456 -0.225636,-0.0393 -0.01707,-0.003 0.01193,0.20175 0.05278,0.45064 0.01482,0.26187 0.03658,0.53664 0.0719,0.77265 0.02043,0.0956 0.03447,0.16528 0.04484,0.2219 0.01685,0.0534 0.04307,0.11807 0.06406,0.16887 0.02209,0.0501 0.05623,0.11212 0.0823,0.15868 0.02988,0.0451 0.07623,0.1033 0.110667,0.14425 0.03422,0.0398 0.08999,0.0932 0.131127,0.13 0.04205,0.0332 0.108866,0.0769 0.155364,0.10432 v 0 c 0.34177,0.16912 0.75593,0.0291 0.925018,-0.31263 v 0 c 0.169121,-0.34177 0.02914,-0.75593 -0.312632,-0.92506 v 0 c -0.34178,-0.16908 -0.755906,-0.0291 -0.925028,0.31267 v 0 c -0.169085,0.34177 -0.0291,0.75593 0.312669,0.92502 0.175011,0.003 0.409046,-0.02 0.544618,-0.0926 v 0 c 0.265711,-0.0144 0.46944,-0.24141 0.455046,-0.50709 v 0 c -0.01437,-0.26567 -0.241405,-0.4694 -0.507081,-0.45504 v 0 c -0.265677,0.0144 -0.469406,0.2414 -0.455049,0.50708 v 0 c 0.01439,0.26568 0.241405,0.4694 0.507084,0.45505 0.04346,-0.0226 0.10047,-0.0502 0.138041,-0.0784 v 0 c 0.227859,-0.0523 0.370171,-0.2794 0.317852,-0.50726 v 0 c -0.05232,-0.22785 -0.279434,-0.37016 -0.507259,-0.31785 v 0 c -0.227859,0.0523 -0.370168,0.27944 -0.317852,0.5073 v 0 c 0.05232,0.22782 0.2794,0.37013 0.507259,0.31781 0.02455,-0.0684 0.05411,-0.14171 0.06378,-0.2111 v 0 c 0.123153,-0.0502 0.182314,-0.19075 0.13208,-0.31394 v 0 c -0.0502,-0.12315 -0.190783,-0.18231 -0.313938,-0.13208 -0.03464,-0.0513 -0.0502,-0.1101 -0.07129,-0.16799 -0.0082,-0.0177 0.0024,-0.0389 -0.0047,-0.0584 -2.65e-4,-0.0653 0.09006,-0.11655 0.123825,-0.18316 -7.94e-4,0.004 0.01929,0.0199 0.01484,0.0203 -0.0052,0.004 0.0047,0.0198 -0.0063,0.0171 -0.01093,-0.002 -0.0092,0.009 -0.02296,10e-4 -0.01775,-0.007 -0.02646,-0.003 -0.04611,-0.0163 -0.02077,-0.0127 -0.03528,-0.0174 -0.05771,-0.0385 -0.02907,-0.018 -0.05313,-0.0288 -0.08255,-0.0549 -0.08611,-0.12362 -0.17766,-0.3313 -0.270121,-0.55263 -0.04368,-0.22645 -0.09469,-0.49893 -0.178401,-0.69674 -0.194873,-0.23763 -0.495969,-0.33147 -0.677473,-0.2934 -0.173744,0.0799 -0.31482,0.21752 -0.398288,0.33486 -0.202845,0.18425 -0.40527,0.46418 -0.602298,0.72121 -0.09225,0.0943 -0.173635,0.16803 -0.255444,0.23368 -0.05479,0.0807 -0.09381,0.13067 -0.137583,0.17456 -0.03524,0.004 -0.04096,-0.0122 -0.01683,-0.0507 0.294534,0.002 0.574498,0.16054 0.640466,0.23445 0.03369,0.063 0.06431,0.14383 0.06368,0.13092 -0.03013,-0.0454 -0.04823,-0.14715 -0.07214,-0.31895 -0.03318,-0.20137 -0.07184,-0.44725 -0.129558,-0.66061 -0.06494,-0.21407 -0.169085,-0.41646 -0.280739,-0.54455 -0.128977,-0.12809 -0.393912,-0.26067 -0.589034,-0.27358 -0.250367,0.0229 -0.500168,0.13416 -0.668443,0.26328 -0.334151,0.26218 -0.662975,0.66721 -0.990249,1.08821 -0.318804,0.43868 -0.653131,0.91458 -0.931227,1.25169 -0.207857,0.24525 -0.30254,0.33451 -0.321628,0.31069 0.05257,0.005 0.325544,0.0906 0.393171,0.13907 0.0066,0.0378 0.01421,0.0683 0.0058,-0.0684 -0.0092,-0.17879 0.0019,-0.42997 0.02977,-0.70513 0.02455,-0.25845 0.06629,-0.53714 0.107844,-0.77213 0.03824,-0.28211 0.04202,-0.37976 0.0083,-0.34526 -0.251282,0.11398 -0.444746,0.0675 -0.47445,0.0352 -0.01093,-0.0313 -0.01865,-0.0616 0.0054,-0.0511 0.05757,0.0825 0.116557,0.23622 0.145592,0.33289 v 0 c 0.05853,0.17967 0.2516,0.27788 0.431271,0.21935 v 0 c 0.179668,-0.0585 0.277881,-0.2516 0.219392,-0.43127 z"
       style="opacity:1;fill:#000000;fill-opacity:1;fill-rule:nonzero;stroke:none;stroke-width:0.352777;stop-opacity:1"
       id="path17731"
       inkscape:connector-curvature="0" />
    <path
       d="m 72.089271,274.61529 c -0.0058,0.0511 0.0066,0.15346 0.02854,0.21872 v 0 c 0.08569,0.17625 0.298026,0.24966 0.474273,0.16401 v 0 c 0.176284,-0.0857 0.249698,-0.29803 0.164008,-0.47428 v 0 c -0.08569,-0.17628 -0.298026,-0.24969 -0.474273,-0.164 v 0 c -0.17625,0.0856 -0.249698,0.29802 -0.164007,0.47427 0.03874,0.0731 0.153,0.17808 0.217911,0.21153 v 0 c 0.190923,0.069 0.401603,-0.0299 0.470535,-0.22084 v 0 c 0.06897,-0.19096 -0.02992,-0.4016 -0.220875,-0.47057 v 0 c -0.190923,-0.0689 -0.401603,0.0299 -0.470535,0.22087 v 0 c -0.06893,0.19092 0.02995,0.4016 0.220875,0.47054 0.137371,0.0372 0.295063,0.0213 0.370911,-3.5e-4 v 0 c 0.199035,-0.0865 0.290264,-0.31799 0.203764,-0.51703 v 0 c -0.08654,-0.19904 -0.31803,-0.29026 -0.517068,-0.20376 v 0 c -0.199035,0.0865 -0.290263,0.31799 -0.203763,0.51706 v 0 c 0.08654,0.19904 0.318029,0.29027 0.517067,0.20373 0.130704,-0.0423 0.294111,-0.14009 0.426191,-0.24042 0.336161,-0.29135 0.653978,-0.79124 0.868151,-1.31702 0.101917,-0.2655 0.195897,-0.56808 0.25908,-0.84236 0.03178,-0.22222 0.05171,-0.51379 0.01098,-0.74825 -0.06773,-0.20503 -0.228246,-0.44136 -0.403506,-0.55566 -0.188949,-0.0825 -0.507754,-0.0894 -0.696843,-0.008 -0.409046,0.24423 -0.88138,0.78342 -1.217047,1.47603 -0.242146,0.48972 -0.445595,1.06821 -0.569806,1.61138 -0.152048,0.54557 -0.235374,1.14148 -0.19163,1.60602 0.150847,0.55114 0.554532,0.97755 0.929111,1.17228 0.320392,0.10463 0.717902,0.13229 1.025067,0.10283 0.100259,-0.0131 0.219567,-0.0367 0.313619,-0.0606 0.0938,-0.0242 0.206129,-0.0606 0.295486,-0.0942 0.09349,-0.0336 0.198615,-0.0777 0.285467,-0.11818 0.243277,-0.15748 0.499076,-0.36914 0.698537,-0.57672 v 0 c 0.273156,-0.23632 0.303035,-0.64932 0.06674,-0.92248 v 0 c -0.236322,-0.27318 -0.649318,-0.30306 -0.922508,-0.0667 v 0 c -0.273156,0.23629 -0.303038,0.64932 -0.06671,0.92248 v 0 c 0.236291,0.27315 0.649324,0.30303 0.92248,0.0668 0.0726,-0.0628 0.149823,-0.13413 0.217064,-0.19975 v 0 c 0.257916,-0.25336 0.261655,-0.66787 0.0083,-0.92583 v 0 c -0.253365,-0.25795 -0.66788,-0.26165 -0.92583,-0.008 v 0 c -0.25795,0.25337 -0.261655,0.66788 -0.0083,0.92583 v 0 c 0.253365,0.25796 0.667878,0.26166 0.92583,0.008 0.210926,-0.32222 0.401461,-0.69073 0.528249,-1.03632 v 0 c 0.123296,-0.19247 0.0672,-0.44841 -0.125272,-0.57171 v 0 c -0.192476,-0.12326 -0.448418,-0.0672 -0.571677,0.12531 v 0 c -0.123261,0.19247 -0.06717,0.44841 0.12527,0.57167 v 0 c 0.192476,0.12326 0.448416,0.0672 0.571677,-0.12527 -0.0011,-0.10523 -0.0032,-0.21322 -0.01111,-0.31588 v 0 c 0.06583,-0.11557 0.02548,-0.26264 -0.09014,-0.32843 v 0 c -0.115605,-0.0658 -0.262641,-0.0255 -0.32847,0.0901 -0.08848,0.0389 -0.176106,0.0726 -0.267123,0.1076 -0.233468,0.21689 -0.475792,0.39377 -0.749795,0.54963 -0.05292,0.0524 -0.09994,0.0964 -0.154868,0.14414 -0.18133,0.12185 -0.332529,0.19512 -0.513647,0.25534 -0.05366,0.0315 -0.09165,0.0526 -0.145132,0.077 -0.05284,0.022 -0.08661,0.0346 -0.137548,0.0487 -0.05581,0.0164 -0.08495,0.0236 -0.134689,0.0311 -0.182034,0.0369 -0.277813,0.0459 -0.399981,0.01 -0.177023,0.008 -0.234562,0.0453 -0.33609,-0.13512 -0.08043,-0.22281 -0.08188,-0.65242 -0.01333,-1.16095 0.08714,-0.50395 0.237067,-1.00577 0.427567,-1.44597 0.321945,-0.5655 0.678037,-0.90152 0.909036,-0.97585 -0.01333,0.0156 -0.160408,0.0228 -0.219109,0.0238 -0.0477,-0.0318 -0.122097,-0.11606 -0.136596,-0.0854 -0.0048,0.0176 -0.03454,0.13158 -0.08572,0.32095 -0.02819,0.24469 -0.07496,0.47763 -0.138782,0.71664 -0.114618,0.46083 -0.265819,0.80878 -0.442595,1.02288 -0.06413,0.0847 -0.10386,0.13553 -0.123333,0.15843 7.94e-4,0.0109 0.09666,0.007 0.183446,0.0268 0.05256,0.0289 0.150813,0.12047 0.17921,0.17236 0.01183,0.0445 0.01982,0.11889 0.01627,0.13448 v 0 c 0.01177,-0.1886 -0.131557,-0.35105 -0.320152,-0.36283 v 0 c -0.188595,-0.0118 -0.351049,0.13155 -0.362833,0.32014"
       style="opacity:1;fill:#000000;fill-opacity:1;fill-rule:nonzero;stroke:none;stroke-width:0.352777;stop-opacity:1"
       id="path17733"
       inkscape:connector-curvature="0" />
    <path
       d="m 76.30493,275.6871 c -0.08438,0.0955 -0.128833,0.13194 -0.152294,0.13772 v 0 c -0.15381,0.13628 -0.167992,0.37141 -0.03171,0.52522 v 0 c 0.136276,0.15377 0.371438,0.16796 0.525214,0.0317 v 0 c 0.153776,-0.13628 0.167957,-0.37141 0.03168,-0.52522 v 0 c -0.136279,-0.15377 -0.371406,-0.16796 -0.525182,-0.0317 2.65e-4,-0.006 0.06562,-0.0485 0.138679,-0.0759 v 0 c -0.210822,0.0351 -0.353311,0.23443 -0.318243,0.44528 v 0 c 0.0351,0.21082 0.234455,0.35331 0.445275,0.31824 v 0 c 0.210855,-0.0351 0.353343,-0.23445 0.318241,-0.44527 v 0 c -0.03507,-0.21086 -0.234421,-0.35335 -0.445275,-0.31825 0.07024,-0.007 0.231068,0.0317 0.297638,0.0711 v 0 c -0.169934,-0.13631 -0.418219,-0.10907 -0.554567,0.0609 v 0 c -0.136313,0.16997 -0.10908,0.41825 0.06085,0.55457 v 0 c 0.169968,0.13634 0.418253,0.10907 0.554567,-0.0609 v 0 c 0.136347,-0.16994 0.10908,-0.41822 -0.06085,-0.55457 0.05994,0.0572 0.123579,0.16591 0.137406,0.2026 0.04463,0.0367 0.08484,0.0972 0.123121,0.10844 0.0063,0.005 0.01188,0.0166 0.02209,0.006 0.0083,-0.0293 0.02127,-0.0667 0.04191,-0.12541 0.02098,-0.06 0.04555,-0.12725 0.07253,-0.20108 v 0 c 0.0979,-0.28808 -0.0563,-0.60092 -0.344381,-0.69882 v 0 c -0.288039,-0.0979 -0.600917,0.0563 -0.698778,0.34438 v 0 c -0.09786,0.28808 0.0563,0.60092 0.344381,0.69882 v 0 c 0.288044,0.0979 0.600922,-0.0563 0.698783,-0.34439 0.01704,-0.0373 0.03397,-0.0741 0.05108,-0.11154 v 0 c 0.0997,-0.29482 -0.05852,-0.61465 -0.353377,-0.71431 v 0 c -0.294814,-0.0997 -0.614643,0.0585 -0.714303,0.35338 v 0 c -0.09969,0.29481 0.05853,0.61464 0.353343,0.7143 v 0 c 0.294852,0.0997 0.61468,-0.0585 0.714338,-0.35337 -0.007,-0.13498 -0.01204,-0.2794 -0.02734,-0.4093 v 0 c 0.06124,-0.2207 -0.06802,-0.44926 -0.288713,-0.5105 v 0 c -0.220697,-0.0612 -0.449262,0.0681 -0.510505,0.28875 v 0 c -0.06124,0.22069 0.06805,0.44926 0.28875,0.51047 v 0 c 0.220697,0.0612 0.449262,-0.068 0.510468,-0.28872 -0.03468,-0.0916 -0.07172,-0.18686 -0.118004,-0.26285 v 0 c 0.02098,-0.13134 -0.06851,-0.25485 -0.199847,-0.27584 v 0 c -0.13134,-0.021 -0.254847,0.0685 -0.275839,0.19985 -0.06378,0.0336 -0.131726,0.0683 -0.205423,0.1167 -0.07408,0.082 -0.15621,0.173 -0.241652,0.27174 -0.0085,0.0383 -0.01765,0.0783 -0.02656,0.11808 -0.02363,0.0752 -0.04794,0.15303 -0.06837,0.22302 -0.02077,0.0713 -0.04173,0.14979 -0.05493,0.21386 -2.64e-4,0.0344 -0.0021,0.0859 2.65e-4,0.12527 0.03464,0.0448 0.075,0.13208 0.125378,0.19216 0.01556,0.0442 0.08385,0.1616 0.150318,0.22405 0.07313,0.0447 0.242358,0.0854 0.323109,0.077 0.09409,-0.0309 0.188489,-0.0911 0.225391,-0.12859 0.05652,-0.0651 0.127775,-0.16263 0.207399,-0.28455 v 0 c 0.113839,-0.15082 0.08382,-0.36538 -0.06699,-0.47918 v 0 c -0.150849,-0.11384 -0.365408,-0.0838 -0.479213,0.067 z"
       style="opacity:1;fill:#000000;fill-opacity:1;fill-rule:nonzero;stroke:none;stroke-width:0.352777;stop-opacity:1"
       id="path17735"
       inkscape:connector-curvature="0" />
    <path
       d="m 76.24143,273.31086 c -0.05221,0.0386 -0.04773,0.0293 -0.0067,-1.8e-4 v 0 c -0.185668,0.0712 -0.278484,0.27947 -0.207258,0.46517 v 0 c 0.07119,0.18571 0.279471,0.27849 0.465137,0.2073 v 0 c 0.185703,-0.0712 0.278519,-0.27951 0.207293,-0.46518 v 0 c -0.07123,-0.1857 -0.279471,-0.27848 -0.465172,-0.20729 0.01979,-0.008 0.105656,-0.024 0.149048,-0.0246 v 0 c -0.200601,-0.0177 -0.377589,0.13049 -0.3953,0.33108 v 0 c -0.01775,0.20055 0.130493,0.37754 0.331047,0.39529 v 0 c 0.200591,0.0177 0.377544,-0.1305 0.395287,-0.33109 v 0 c 0.01775,-0.20059 -0.130492,-0.37754 -0.331081,-0.39528 0.05161,0.007 0.178152,0.0644 0.230645,0.10865 v 0 c -0.138498,-0.14958 -0.372004,-0.15857 -0.521581,-0.0201 v 0 c -0.149577,0.1385 -0.158572,0.37201 -0.02011,0.52159 v 0 c 0.138501,0.14957 0.372004,0.15857 0.521581,0.0201 v 0 c 0.14958,-0.1385 0.158575,-0.372 0.02011,-0.52158 0.05525,0.0753 0.09031,0.1645 0.09529,0.17389 -0.04032,-0.098 -0.0544,-0.16867 -0.08619,-0.27877 -0.138814,-0.2491 -0.124315,-0.26511 -0.07828,-0.25922 0.06921,0.21484 0.08118,0.25185 0.106749,0.23364 0.0302,-0.12745 0.216853,-0.38823 0.403826,-0.74157 0.1651,-0.39913 0.244615,-0.78818 0.316653,-1.15672 0.05387,-0.19925 0.133244,-0.42143 0.228635,-0.67384 0.117863,-0.4178 0.26924,-0.88706 0.389572,-1.38134 0.116099,-0.4505 0.183833,-0.9362 0.163338,-1.33671 0.0098,-0.2842 -0.04491,-0.60103 -0.177943,-0.84928 -0.245322,-0.418 -0.742527,-0.7542 -1.219835,-0.86818 v 0 c -0.281411,-0.0314 -0.53495,0.17131 -0.566349,0.45272 v 0 c -0.03136,0.28141 0.17131,0.53495 0.452721,0.56635 v 0 c 0.281411,0.0314 0.534988,-0.17131 0.566349,-0.45272 v 0 c 0.0314,-0.28141 -0.17131,-0.53499 -0.452721,-0.56635 -0.330798,-0.007 -0.714198,0.0835 -1.009049,0.24158 v 0 c -0.233397,0.11709 -0.327695,0.40121 -0.210643,0.63461 v 0 c 0.117052,0.2334 0.401177,0.32773 0.634577,0.21068 v 0 c 0.233431,-0.11709 0.327728,-0.40121 0.210677,-0.63461 v 0 c -0.117041,-0.2334 -0.401167,-0.32773 -0.634601,-0.21068 -0.308644,0.23075 -0.550016,0.50267 -0.682096,0.67889 v 0 c -0.147777,0.14714 -0.148306,0.38622 -0.0011,0.53403 v 0 c 0.147143,0.14778 0.38622,0.14831 0.534001,10e-4 v 0 c 0.147777,-0.14714 0.148307,-0.38622 0.0011,-0.534 v 0 c -0.14715,-0.14782 -0.386265,-0.14831 -0.534043,-10e-4 -0.06099,0.12524 -0.08107,0.21311 -0.02967,0.22793 v 0 c -0.115396,0.0661 -0.155329,0.21332 -0.08918,0.32872 v 0 c 0.06618,0.11539 0.213325,0.15533 0.328752,0.0892 0.09716,-0.0114 0.202743,-0.0552 0.323109,-0.11081 0.169757,-0.12425 0.384564,-0.28878 0.611577,-0.39028 0.151096,-0.0632 0.282223,-0.0761 0.450181,-0.0445 0.284125,-0.0288 0.529412,0.0499 0.714549,0.24709 0.08894,0.10555 0.125378,0.23216 0.139772,0.45688 -0.01048,0.33348 -0.09557,0.71657 -0.232199,1.11418 -0.169968,0.44298 -0.373557,0.87108 -0.555307,1.2796 -0.09183,0.2638 -0.178046,0.5305 -0.237033,0.77653 -0.09994,0.37081 -0.179244,0.66234 -0.319121,0.93296 -0.146685,0.26469 -0.364596,0.56388 -0.47611,0.85672 -0.0098,0.0865 -0.01675,0.21964 2.49e-4,0.31817 0.156667,0.31221 0.269134,0.37539 0.321484,0.38583 -0.08488,-0.0911 -0.06509,0.0346 -0.01302,0.1567 -0.03401,-0.0959 0.0057,0.0102 0.07757,0.10256 0.04883,0.0405 0.180695,0.10005 0.238972,0.10791 0.04988,-1e-4 0.143653,-0.0173 0.186232,-0.0347 0.06569,-0.0386 0.133808,-0.0974 0.19036,-0.15558 v 0 c 0.141182,-0.12558 0.15381,-0.34184 0.02822,-0.48302 v 0 c -0.125578,-0.14122 -0.341833,-0.15385 -0.483015,-0.0283 z"
       style="opacity:1;fill:#000000;fill-opacity:1;fill-rule:nonzero;stroke:none;stroke-width:0.352777;stop-opacity:1"
       id="path17737"
       inkscape:connector-curvature="0" />
  </g>
</svg>
