<?xml version="1.0" encoding="UTF-8" standalone="no"?>
<svg
   xmlns:dc="http://purl.org/dc/elements/1.1/"
   xmlns:cc="http://creativecommons.org/ns#"
   xmlns:rdf="http://www.w3.org/1999/02/22-rdf-syntax-ns#"
   xmlns:svg="http://www.w3.org/2000/svg"
   xmlns="http://www.w3.org/2000/svg"
   xmlns:sodipodi="http://sodipodi.sourceforge.net/DTD/sodipodi-0.dtd"
   xmlns:inkscape="http://www.inkscape.org/namespaces/inkscape"
   sodipodi:docname="slide22-hello-name-box.svg"
   inkscape:version="1.0beta1 (32d4812, 2019-09-19)"
   id="svg19244"
   version="1.1"
   viewBox="0 0 82.898872 14.193758"
   height="14.193758mm"
   width="82.898872mm">
  <defs
     id="defs19238" />
  <sodipodi:namedview
     inkscape:window-maximized="0"
     inkscape:window-y="23"
     inkscape:window-x="0"
     inkscape:window-height="773"
     inkscape:window-width="1440"
     showgrid="false"
     inkscape:document-rotation="0"
     inkscape:current-layer="layer1"
     inkscape:document-units="mm"
     inkscape:cy="-184.60722"
     inkscape:cx="539.51641"
     inkscape:zoom="0.35"
     inkscape:pageshadow="2"
     inkscape:pageopacity="0.0"
     borderopacity="1.0"
     bordercolor="#666666"
     pagecolor="#ffffff"
     id="base" />
  <metadata
     id="metadata19241">
    <rdf:RDF>
      <cc:Work
         rdf:about="">
        <dc:format>image/svg+xml</dc:format>
        <dc:type
           rdf:resource="http://purl.org/dc/dcmitype/StillImage" />
        <dc:title></dc:title>
      </cc:Work>
    </rdf:RDF>
  </metadata>
  <g
     transform="translate(36.913716,-197.01066)"
     id="layer1"
     inkscape:groupmode="layer"
     inkscape:label="Layer 1">
    <path
       d="m -35.894994,198.48504 c 0.145874,-0.026 0.409751,-0.0251 0.758331,-0.0572 v 0 c 0.157198,-0.006 0.279753,-0.13836 0.27372,-0.29555 v 0 c -0.006,-0.15724 -0.138359,-0.27979 -0.295592,-0.27376 v 0 c -0.157198,0.006 -0.279753,0.13836 -0.27372,0.29559 v 0 c 0.006,0.1572 0.138359,0.27979 0.295592,0.27372 0.175331,-0.0169 0.35433,-0.0397 0.51054,-0.0574 v 0 c 0.150072,-0.0132 0.261056,-0.14559 0.247862,-0.2957 v 0 c -0.01319,-0.1501 -0.145592,-0.26109 -0.295663,-0.24786 v 0 c -0.150107,0.0132 -0.261091,0.14556 -0.247897,0.29566 v 0 c 0.01319,0.15011 0.145591,0.26109 0.295698,0.2479 0.139242,-0.0135 0.251425,-0.022 0.354189,-0.0179 v 0 c 0.146015,0.009 0.271674,-0.10205 0.280705,-0.24807 v 0 c 0.009,-0.14605 -0.102094,-0.27171 -0.248108,-0.2807 v 0 c -0.146015,-0.009 -0.27171,0.10205 -0.280706,0.24807 v 0 c -0.009,0.14601 0.102059,0.27171 0.248109,0.2807 0.08393,0.0295 0.210785,0.10679 0.467148,0.16299 0.186832,0.0199 0.397793,0.0226 0.678039,0.0226 0.537528,-0.002 1.336428,-0.0233 2.222112,-0.046 0.736706,-0.0193 1.527775,-0.0334 2.396772,-0.0402 0.414443,-7.1e-4 0.847267,-1.4e-4 1.320941,2.4e-4 0.840282,0.005 1.798532,0.0101 2.803243,0.001 0.602968,-0.004 1.224915,-0.0132 1.848027,-0.0305 0.609529,-0.0215 1.221211,-0.0508 1.850213,-0.0864 1.036356,-0.0536 2.120301,-0.12343 3.388854,-0.19092 1.049302,-0.0514 2.19957,-0.1 3.419334,-0.1251 0.879722,-0.0224 1.798602,-0.0326 2.778301,-0.0288 0.352531,3.5e-4 0.717726,0.002 1.1011967,0.004 1.030005,-0.001 2.101038,-0.002 3.21391,-0.0112 0.334822,-7e-4 0.675994,-0.002 1.027853,-0.005 0.398145,-0.004 0.816258,-0.01 1.259451,-0.018 1.579282,-0.0474 3.209362,-0.10347 4.78447896,-0.14556 0.34671,-0.007 0.692997,-0.013 1.04380004,-0.0189 0.807789,-0.012 1.615615,-0.0232 2.402485,-0.0344 1.100704,-0.0224 2.164186,-0.0424 3.208126,-0.0581 0.314608,-0.003 0.628227,-0.005 0.947915,-0.006 0.363961,-4e-5 0.739809,2.5e-4 1.134957,7.1e-4 1.3644743,0.003 2.7110263,0.008 4.1019593,0.0128 0.328364,0.002 0.657966,0.004 0.992151,0.006 1.8034,0.0186 3.712633,0.0373 5.645997,0.0558 0.351967,0.003 0.706262,0.006 1.067929,0.009 0.406435,0.005 0.827688,0.009 1.268167,0.014 1.538462,0.004 3.041084,0.0128 4.40436,0.0376 1.683491,0.0269 3.182617,0.0704 4.559369,0.11338 1.380172,0.0313 2.625513,0.0616 3.822734,0.10905 0.720974,0.035 1.416333,0.0757 2.096312,0.12608 0.261409,0.0168 0.518761,0.0345 0.771737,0.0535 v 0 c 0.197697,0.0152 0.370276,-0.13275 0.385479,-0.33044 v 0 c 0.01521,-0.1977 -0.132749,-0.37028 -0.330446,-0.38548 v 0 c -0.197731,-0.0152 -0.370311,0.13275 -0.385479,0.33044 v 0 c -0.01521,0.19773 0.132749,0.37031 0.330446,0.38548 1.101336,0.0922 2.08675,0.21065 2.943471,0.35691 v 0 c 0.193535,0.0333 0.377367,-0.0966 0.41067,-0.29013 v 0 c 0.03327,-0.19353 -0.09663,-0.3774 -0.29016,-0.41067 v 0 c -0.193535,-0.0333 -0.377368,0.0966 -0.410668,0.29016 v 0 c -0.03327,0.1935 0.09663,0.37737 0.290158,0.41064 0.85725,0.14294 1.562349,0.30974 2.110565,0.49329 v 0 c 0.174554,0.0606 0.365231,-0.0317 0.425874,-0.20624 v 0 c 0.06064,-0.17455 -0.03172,-0.36523 -0.206269,-0.42587 v 0 c -0.174557,-0.0606 -0.365197,0.0317 -0.425874,0.20627 v 0 c -0.06064,0.17455 0.03171,0.36519 0.206269,0.42584 0.619583,0.18524 0.99,0.37655 1.335792,0.65556 v 0 c 0.09765,0.0903 0.250049,0.0844 0.34036,-0.0133 v 0 c 0.09031,-0.0976 0.08435,-0.25001 -0.01331,-0.34032 -0.344841,-0.35962 -0.791844,-0.66883 -1.441274,-0.93335 -0.57912,-0.20813 -1.332971,-0.40146 -2.210504,-0.56246 -0.876054,-0.1517 -1.89103,-0.27619 -3.007291,-0.37204 -0.257879,-0.0203 -0.519041,-0.0393 -0.780204,-0.057 -0.683963,-0.0468 -1.388533,-0.0842 -2.112962,-0.11564 -1.202055,-0.0638 -2.453286,-0.11045 -3.831167,-0.15787 -1.374703,-0.0548 -2.879971,-0.11042 -4.569034,-0.14933 -1.369121,-0.0224 -2.877846,-0.0292 -4.418462,-0.03 -0.440971,0.005 -0.862224,0.009 -1.268659,0.014 -0.361667,0.003 -0.715962,0.006 -1.067929,0.009 -1.933364,0.0186 -3.842597,0.0372 -5.645997,0.0558 -0.334185,0.002 -0.663787,0.004 -0.992116,0.006 -1.390722,0.004 -2.737591,0.007 -4.1020293,0.0127 -0.394901,0 -0.771173,2.8e-4 -1.134639,7.1e-4 -0.319442,-0.003 -0.634153,-0.005 -0.949925,-0.006 -1.045917,-0.008 -2.111447,-0.0107 -3.212537,-0.0115 -0.786447,0.002 -1.59466,0.004 -2.402803,0.008 -0.35108604,3.6e-4 -0.69836004,0.001 -1.04761004,0.002 -1.58054896,0.0116 -3.21253596,0.037 -4.79142696,0.0538 -0.442314,0.0117 -0.857215,0.021 -1.253667,0.0286 -0.349779,0.007 -0.688091,0.0116 -1.02235,0.0157 -1.110297,0.009 -2.178542,0.009 -3.207525,0.01 -0.3830107,3.5e-4 -0.7500767,0.002 -1.1018307,0.004 -0.983544,-3.5e-4 -1.913819,0.0134 -2.800703,0.0393 -1.228478,0.0519 -2.388517,0.12739 -3.438913,0.20535 -1.271023,0.0875 -2.354156,0.17727 -3.383879,0.25026 -0.624982,0.0359 -1.229854,0.0654 -1.833457,0.0872 -0.617079,0.0194 -1.232535,0.0307 -1.833104,0.0371 -1.000513,0.01 -1.954353,0.005 -2.796046,10e-4 -0.474769,-2.1e-4 -0.908403,-7e-4 -1.324928,2.5e-4 -0.872913,0.002 -1.669697,0.0123 -2.409507,0.0274 -0.886108,0.0204 -1.67954,0.0387 -2.211282,0.039 -0.280317,0.006 -0.462985,0.009 -0.599369,-7e-4 -0.176036,-0.0103 -0.287902,-0.0518 -0.479002,-0.073 -0.163512,-0.014 -0.312244,-0.01 -0.461927,-7.1e-4 -0.164536,0.0104 -0.340642,0.0249 -0.497417,0.0325 -0.309386,-0.007 -0.561093,-0.0458 -0.754521,-0.0577 v 0 c -0.188807,0.008 -0.335562,0.16715 -0.327766,0.35596 v 0 c 0.0078,0.1888 0.167146,0.33552 0.355953,0.32776"
       style="opacity:1;fill:#000000;fill-opacity:1;fill-rule:nonzero;stroke:none;stroke-width:0.352777;stop-opacity:1"
       id="path18979"
       inkscape:connector-curvature="0" />
    <path
       d="m -36.84005,198.37618 c -0.0057,-0.0495 -0.03627,0.0692 -0.05436,0.30448 v 0 c -0.0074,0.20405 0.151976,0.37546 0.355988,0.3829 v 0 c 0.204046,0.007 0.375461,-0.15197 0.382905,-0.35598 v 0 c 0.0074,-0.20405 -0.151977,-0.37547 -0.355988,-0.38291 v 0 c -0.204047,-0.007 -0.375462,0.15194 -0.382905,0.35599 -0.01552,0.11691 -0.02815,0.30713 -0.01129,0.50743 v 0 c 0.0236,0.21026 0.213148,0.3616 0.423404,0.33804 v 0 c 0.21029,-0.0236 0.361632,-0.21312 0.338067,-0.42341 v 0 c -0.0236,-0.21025 -0.213149,-0.3616 -0.423404,-0.33803 v 0 c -0.210291,0.0236 -0.361633,0.21315 -0.338067,0.4234 0.07151,0.30265 0.175366,0.57249 0.288889,0.88682 v 0 c 0.08019,0.20821 0.313973,0.31203 0.522217,0.23184 v 0 c 0.20821,-0.0802 0.311997,-0.31397 0.231846,-0.52221 v 0 c -0.08019,-0.20821 -0.314008,-0.312 -0.522217,-0.23185 v 0 c -0.208209,0.0802 -0.312032,0.31401 -0.231846,0.52222 0.108727,0.24765 0.210574,0.48789 0.295769,0.78489 0.171733,0.83944 0.209938,2.07109 0.156669,3.35069 -0.0339,0.62547 -0.08636,1.25447 -0.129223,1.86633 -0.0393,0.61189 -0.069,1.2137 -0.05983,1.76925 v 0 c 0.0038,0.23114 0.194205,0.4155 0.425345,0.41173 v 0 c 0.231175,-0.004 0.415501,-0.19421 0.411762,-0.42535 v 0 c -0.0038,-0.23117 -0.194204,-0.4155 -0.42538,-0.41176 v 0 c -0.23114,0.004 -0.415501,0.19421 -0.411727,0.42538 0.01108,0.41734 0.04607,0.83009 0.115006,1.19761 v 0 c 0.03926,0.22088 0.250155,0.36809 0.470993,0.32883 v 0 c 0.220875,-0.0393 0.368089,-0.25012 0.32886,-0.471 v 0 c -0.03926,-0.22087 -0.250155,-0.36809 -0.471029,-0.32882 v 0 c -0.220839,0.0393 -0.368088,0.25012 -0.328824,0.47099 0.07959,0.36661 0.205175,0.73092 0.372815,1.02814 v 0 c 0.09299,0.1791 0.313549,0.24895 0.49269,0.15596 v 0 c 0.179105,-0.093 0.24892,-0.31355 0.155963,-0.49265 v 0 c -0.09299,-0.17914 -0.313549,-0.24896 -0.49269,-0.156 v 0 c -0.179105,0.093 -0.248919,0.31358 -0.155963,0.49269 0.193922,0.2795 0.457095,0.53534 0.752511,0.70132 v 0 c 0.107632,0.0781 0.258233,0.0542 0.336373,-0.0534 v 0 c 0.07814,-0.10763 0.05422,-0.25823 -0.05341,-0.33637 -0.191099,-0.18715 -0.299719,-0.387 -0.386891,-0.64837 -0.113277,-0.24398 -0.17787,-0.50603 -0.221544,-0.83337 -0.05433,-0.32593 -0.07564,-0.67476 -0.07775,-1.06913 -0.0084,-0.52655 0.02081,-1.09537 0.06054,-1.7013 0.03616,-0.60657 0.0828,-1.24259 0.111266,-1.88387 0.05193,-1.31286 0.0072,-2.63285 -0.187007,-3.58362 -0.108867,-0.3712 -0.233645,-0.66411 -0.339266,-0.89846 -0.121885,-0.29855 -0.226872,-0.5316 -0.284551,-0.72047 -0.01044,-0.0843 -0.008,-0.19594 -0.0014,-0.31733 -7.06e-4,-0.22454 0.01326,-0.42506 -0.05309,-0.61792 v 0 c -0.07362,-0.17403 -0.274426,-0.25538 -0.448416,-0.18176 v 0 c -0.174025,0.0737 -0.255411,0.27443 -0.181751,0.44846 z"
       style="opacity:1;fill:#000000;fill-opacity:1;fill-rule:nonzero;stroke:none;stroke-width:0.352777;stop-opacity:1"
       id="path18981"
       inkscape:connector-curvature="0" />
    <path
       d="m -35.236675,210.49734 c 0.03701,0.0268 0.139947,0.12548 0.155363,0.16813 v 0 c -0.06671,-0.1597 -0.250225,-0.23509 -0.409928,-0.16838 v 0 c -0.159702,0.0667 -0.235091,0.25023 -0.168381,0.40993 v 0 c 0.06668,0.1597 0.250226,0.23509 0.409928,0.16838 v 0 c 0.159667,-0.0667 0.235091,-0.25023 0.168381,-0.40993 -7.06e-4,0.0379 -0.005,0.0797 -0.01316,0.0665 v 0 c 0.01235,-0.15667 -0.104634,-0.29372 -0.261303,-0.30607 v 0 c -0.156703,-0.0124 -0.293722,0.1046 -0.306104,0.26131 v 0 c -0.01235,0.15667 0.104634,0.29372 0.261302,0.30607 v 0 c 0.156704,0.0124 0.293723,-0.1046 0.306105,-0.2613 -0.0098,0.0798 0.02198,0.0437 0.05567,-7.2e-4 v 0 c 0.08456,-0.14556 0.03514,-0.33207 -0.110419,-0.41663 v 0 c -0.145521,-0.0846 -0.33207,-0.0351 -0.41663,0.11042 v 0 c -0.08456,0.14552 -0.03514,0.33207 0.110419,0.41663 v 0 c 0.145556,0.0846 0.33207,0.0351 0.41663,-0.11042 -0.246732,-0.47808 -0.313442,-0.50334 -0.323073,-0.51879 v 0 c -0.177341,-0.0576 -0.367806,0.0395 -0.42538,0.21681 v 0 c -0.05761,0.17734 0.03948,0.36781 0.216818,0.42542 v 0 c 0.177341,0.0576 0.367806,-0.0395 0.425414,-0.21685 v 0 c 0.05757,-0.17735 -0.03951,-0.36781 -0.216852,-0.42538 0.117828,0.57414 0.04177,0.62141 0.07624,0.61926 0.04438,-0.006 0.11624,-0.0125 0.246239,-0.0223 0.185984,-0.0353 0.38234,-0.0668 0.603885,-0.0954 0.280776,-0.0366 0.58808,-0.0671 0.908156,-0.0863 0.515232,-0.0207 1.051101,-0.005 1.793169,0.0291 0.530789,0.0278 1.170975,0.0655 1.966913,0.0921 0.505742,0.0104 1.066694,0.0178 1.661159,0.022 0.168734,0.001 0.338314,0.002 0.513504,0.003 0.830474,0.007 1.763254,0.008 2.721257,-0.017 0.440655,-0.0197 0.881557,-0.0448 1.336816,-0.0742 1.208335,-0.0786 2.487683,-0.18401 3.829438,-0.24102 0.244758,-0.009 0.491879,-0.0156 0.742915,-0.0216 0.296369,-0.003 0.609847,-0.006 0.947314,-0.009 0.869139,-0.016 1.7792,-0.0252 2.730218,-0.0281 0.340184,0.005 0.691268,0.0105 1.053818,0.018 0.289172,0.003 0.57972,0.007 0.881133,0.0103 0.715609,0.005 1.459688,0.01 2.218161,0.0145 1.080559,-0.004 2.1932537,-0.007 3.3388307,-0.005 0.348615,-0.004 0.698111,-0.007 1.058862,-0.009 0.404953,0.001 0.830755,0.005 1.281676,0.0119 1.570742,0.0165 3.15662,0.0434 4.70982996,0.0656 0.35941,0.002 0.714727,0.003 1.074949,0.004 0.398603,0.004 0.81266004,0.008 1.24446004,0.0123 1.507876,0.0211 2.971657,0.0375 4.379417,0.0544 0.320816,0.006 0.63807,0.0112 0.958427,0.0175 0.361598,0.006 0.730851,0.0128 1.113544,0.0199 1.363909,0.0429 2.7103923,0.092 4.1041803,0.14686 0.315137,0.0153 0.632354,0.0315 0.960826,0.0483 0.379624,0.014 0.777028,0.0291 1.199761,0.0457 1.470803,0.0369 2.976176,0.0722 4.471601,0.10058 0.342757,0.005 0.683012,0.01 1.028629,0.0142 0.389467,0.002 0.79516,0.006 1.218848,0.01 1.483818,0.0111 2.925196,0.0177 4.261554,0.0208 0.296651,-3.4e-4 0.589634,-10e-4 0.881697,-0.002 0.354156,-7.1e-4 0.714269,-0.003 1.086663,-0.006 0.608859,0.002 1.187061,0.005 1.722297,0.0112 0.849064,0.0136 1.652161,0.0294 2.446372,0.0493 1.103452,0.0323 2.197592,0.0707 3.257618,0.10633 0.233998,0.007 0.468596,0.0152 0.706369,0.0225 v 0 c 0.257175,0.008 0.472334,-0.19364 0.480518,-0.45082 v 0 c 0.0082,-0.25717 -0.193604,-0.47229 -0.450779,-0.48051 v 0 c -0.257175,-0.008 -0.472334,0.19364 -0.48052,0.45081 v 0 c -0.0082,0.25718 0.193606,0.4723 0.450781,0.48052 0.518652,0.008 1.04715,0.0155 1.60228,0.0225 v 0 c 0.245181,0.006 0.449051,-0.18733 0.455366,-0.43247 v 0 c 0.0063,-0.24518 -0.187325,-0.44909 -0.432506,-0.45537 v 0 c -0.245179,-0.006 -0.449051,0.18733 -0.455364,0.43247 v 0 c -0.0063,0.24518 0.187325,0.44909 0.432504,0.45537 3.500686,0.0465 6.492912,0.017 7.990628,-0.36248 v 0 c 0.178401,-0.0411 0.289666,-0.21908 0.248534,-0.39744 v 0 c -0.04113,-0.1784 -0.219112,-0.28963 -0.397476,-0.2485 v 0 c -0.178363,0.0411 -0.289631,0.21908 -0.248496,0.39744 v 0 c 0.04113,0.1784 0.219075,0.28963 0.397438,0.2485 0.42926,-0.13081 0.778018,-0.31426 0.953736,-0.53686 v 0 c 0.09006,-0.0979 0.08379,-0.25022 -0.01408,-0.34032 v 0 c -0.09786,-0.0901 -0.250224,-0.0838 -0.340326,0.0141 -0.115041,0.0932 -0.348721,0.15688 -0.748276,0.21717 -1.403067,0.28945 -4.32929,0.2419 -7.819601,0.12054 -0.552908,-0.0215 -1.07936,-0.0436 -1.595827,-0.066 -0.235831,-0.008 -0.469688,-0.0159 -0.704956,-0.024 -1.060661,-0.0297 -2.156917,-0.0623 -3.264815,-0.0889 -0.798372,-0.0168 -1.605635,-0.0296 -2.454135,-0.0399 -0.53594,-0.0142 -1.118304,-0.0255 -1.734325,-0.0353 -0.376838,-7.1e-4 -0.73392,-0.003 -1.082887,-0.006 -0.287901,-0.007 -0.579966,-0.015 -0.878276,-0.023 -1.337416,-0.019 -2.776432,-0.0415 -4.256157,-0.0684 -0.421322,-0.0113 -0.827653,-0.022 -1.220681,-0.0322 -0.348792,-0.002 -0.688517,-0.005 -1.028171,-0.007 -1.490557,-0.0206 -2.992967,-0.0481 -4.460311,-0.0772 -0.420971,-0.007 -0.820455,-0.0131 -1.20068,-0.0177 -0.328789,-1.4e-4 -0.648052,2.9e-4 -0.963435,0.002 -1.394955,-0.015 -2.7459173,-0.0242 -4.1143773,-0.0273 -0.385093,-0.002 -0.755086,-0.004 -1.116083,-0.005 -0.32057,-0.002 -0.638599,-0.003 -0.958604,-0.004 -1.407584,-0.0174 -2.870587,-0.0343 -4.376595,-0.0557 -0.430355,-0.01 -0.84409204,-0.02 -1.24576404,-0.0296 -0.362903,-0.006 -0.717799,-0.0115 -1.073293,-0.0176 -1.54834196,-0.0377 -3.13552396,-0.0801 -4.70626596,-0.11208 -0.450355,-0.0127 -0.880356,-0.0228 -1.291026,-0.0306 -0.366112,-0.004 -0.718185,-0.007 -1.064929,-0.009 -1.145011,-0.005 -2.2601767,-0.006 -3.3401357,-0.005 -0.757343,0.005 -1.501599,0.009 -2.216961,0.0145 -0.301237,0.003 -0.592632,0.007 -0.880075,0.0103 -0.362161,0.005 -0.716703,0.0105 -1.060132,0.018 -0.955393,0.0123 -1.871698,0.031 -2.744223,0.0564 -0.337362,0.0129 -0.651193,0.0253 -0.946926,0.0376 -0.25199,0.006 -0.503273,0.0126 -0.752617,0.0209 -1.359182,0.0509 -2.648126,0.15 -3.849193,0.22119 -0.451803,0.0253 -0.885049,0.0462 -1.314521,0.0617 -0.940682,0.0206 -1.85928,0.0152 -2.691589,0.004 -0.179775,10e-4 -0.347945,0.002 -0.513538,0.003 -0.589527,-0.005 -1.145046,-0.0134 -1.645462,-0.0246 -0.785565,-0.0159 -1.418696,-0.0429 -1.955094,-0.0605 -0.75117,-0.0226 -1.321823,-0.026 -1.864995,0.008 -0.33655,0.0188 -0.669078,0.05 -0.965447,0.087 -0.235761,0.0342 -0.455154,0.0732 -0.622229,0.10968 -0.10855,0.0158 -0.22031,0.0386 -0.296157,0.0616 -0.08573,0.027 -0.218581,0.1034 -0.30473,0.21421 0.24631,0.50087 0.313232,0.50359 0.36382,0.50821 -0.18729,-0.4065 -0.216676,-0.34815 -0.240524,-0.28624 -0.04142,0.14813 -0.04385,0.24345 -0.02593,0.32533 0.03281,0.0844 0.169863,0.21452 0.266771,0.25531 v 0 c 0.184044,0.0429 0.368017,-0.0714 0.410986,-0.25542 v 0 c 0.04294,-0.184 -0.0714,-0.36798 -0.255407,-0.41094 z"
       style="opacity:1;fill:#000000;fill-opacity:1;fill-rule:nonzero;stroke:none;stroke-width:0.352777;stop-opacity:1"
       id="path18983"
       inkscape:connector-curvature="0" />
    <path
       d="m 44.640044,200.15291 c -0.03062,-0.0225 -0.04322,-0.0703 -0.03785,-0.17375 v 0 c 0.04096,-0.1446 -0.043,-0.29499 -0.187571,-0.33598 v 0 c -0.144605,-0.041 -0.294994,0.043 -0.335986,0.1876 v 0 c -0.04096,0.14457 0.043,0.295 0.187608,0.33595 v 0 c 0.144568,0.041 0.294992,-0.043 0.335949,-0.18757 0.06128,-0.14241 0.154906,-0.31919 0.234175,-0.49854 v 0 c 0.05623,-0.17547 -0.04043,-0.36333 -0.2159,-0.41956 v 0 c -0.175471,-0.0562 -0.363326,0.0404 -0.41956,0.2159 v 0 c -0.05627,0.17547 0.04039,0.36332 0.2159,0.41956 v 0 c 0.175471,0.0562 0.363326,-0.0404 0.41956,-0.2159 0.0478,-0.13286 0.08329,-0.25316 0.113099,-0.36248 v 0 c 0.03291,-0.20109 -0.103472,-0.39077 -0.304555,-0.42365 v 0 c -0.201084,-0.0329 -0.390774,0.10347 -0.423651,0.30455 v 0 c -0.03288,0.20108 0.103468,0.39077 0.304551,0.42365 v 0 c 0.201121,0.0329 0.390774,-0.10347 0.423651,-0.30455 0.02437,-0.0945 0.04851,-0.19865 0.06745,-0.27721 0.02156,-0.0752 0.03923,-0.12891 0.05443,-0.16147 0.0077,-0.0185 0.015,-0.0505 0.01897,-0.0961 v 0 c -0.02529,-0.24722 -0.246197,-0.42714 -0.493458,-0.40188 v 0 c -0.247226,0.0253 -0.427143,0.2462 -0.401849,0.49346 v 0 c 0.02527,0.24723 0.246203,0.42715 0.49343,0.40185 v 0 c 0.247226,-0.0253 0.427143,-0.2462 0.401883,-0.49343 -0.01595,-0.0933 -0.854498,-0.16393 -0.888365,-0.0889 -0.01408,0.0414 -0.02183,0.0651 -0.02688,0.0762 -0.02032,0.11172 -0.06625,0.46912 -0.13208,1.09223 -0.05898,0.53806 -0.12894,1.28136 -0.187008,2.12895 -0.04269,0.72495 -0.07842,1.52294 -0.09811,2.24536 0.0063,1.13675 0.05676,2.02318 0.08333,2.79153 0.02572,0.33676 0.04946,0.64216 0.06103,0.93786 -0.04388,0.55065 -0.132821,1.10931 -0.159914,1.5308 -0.01333,0.21368 -0.0085,0.42535 0.03309,0.58212 v 0 c 0.04569,0.17075 0.221158,0.27214 0.391901,0.22645 v 0 c 0.170744,-0.0457 0.272132,-0.22116 0.226412,-0.3919 v 0 c -0.04568,-0.17074 -0.22112,-0.27213 -0.391864,-0.22645 v 0 c -0.170746,0.0457 -0.272134,0.22116 -0.226449,0.3919 0.02653,0.0852 0.09927,0.21051 0.180094,0.28223 v 0 c 0.13589,0.10826 0.333833,0.0859 0.442101,-0.05 v 0 c 0.108267,-0.13593 0.08586,-0.33387 -0.05003,-0.44214 v 0 c -0.13589,-0.10827 -0.333833,-0.0859 -0.4421,0.05 v 0 c -0.108302,0.13592 -0.0859,0.33387 0.05002,0.44214 0.09232,0.0611 0.266417,0.0984 0.369676,0.0833 v 0 c 0.168238,-0.0293 0.280916,-0.18934 0.251672,-0.35758 v 0 c -0.02925,-0.16824 -0.189336,-0.28092 -0.357577,-0.25171 v 0 c -0.16824,0.0292 -0.280916,0.18934 -0.251671,0.35758 v 0 c 0.02924,0.16824 0.189336,0.28095 0.357576,0.25171 0.120261,-0.0491 0.260702,-0.14732 0.384879,-0.26981 v 0 c 0.105833,-0.0806 0.126259,-0.2317 0.04565,-0.33754 v 0 c -0.08058,-0.1058 -0.231706,-0.12622 -0.337539,-0.0456 -0.122095,0.0652 -0.172861,0.0672 -0.199319,0.0438 0.0032,0.002 0.09783,0.0221 0.130141,0.0348 0.01797,0.0216 0.04716,0.0659 0.0447,0.0431 -0.01619,-0.0592 -0.01082,-0.17321 0.0083,-0.36339 0.03775,-0.38492 0.141216,-0.9433 0.2038,-1.54122 0.03062,-0.33179 0.04741,-0.65451 0.0623,-0.98654 0.0291,-0.77364 0.03443,-1.64927 0.0835,-2.76183 0.02119,-0.70859 0.05814,-1.49147 0.1022,-2.20676 0.05052,-0.83425 0.112289,-1.55932 0.164325,-2.09452 0.05242,-0.62339 0.08389,-0.97102 0.0884,-1.06429 -0.0052,0.0133 -0.01177,0.0306 -0.01908,0.0476 -0.03884,0.0931 -0.876795,0.0225 -0.891929,-0.0634 0.0042,-0.0437 0.01101,-0.0582 0.01712,-0.0492 0.01209,0.0215 0.02231,0.0599 0.03009,0.11243 -0.0019,0.0582 -0.01016,0.15388 -0.02035,0.25026 -0.0059,0.10887 -0.01132,0.19953 -0.02611,0.29997 -0.02773,0.15314 -0.08548,0.35164 -0.11751,0.5377 -0.05697,0.11635 -0.10601,0.26726 -0.118358,0.4015 v 0 c 0.02188,0.18771 0.191735,0.32212 0.379449,0.30024 v 0 c 0.187647,-0.0219 0.32209,-0.19174 0.300219,-0.37945 z"
       style="opacity:1;fill:#000000;fill-opacity:1;fill-rule:nonzero;stroke:none;stroke-width:0.352777;stop-opacity:1"
       id="path18985"
       inkscape:connector-curvature="0" />
  </g>
</svg>
