<?xml version="1.0" encoding="UTF-8" standalone="no"?>
<svg
   xmlns:dc="http://purl.org/dc/elements/1.1/"
   xmlns:cc="http://creativecommons.org/ns#"
   xmlns:rdf="http://www.w3.org/1999/02/22-rdf-syntax-ns#"
   xmlns:svg="http://www.w3.org/2000/svg"
   xmlns="http://www.w3.org/2000/svg"
   xmlns:sodipodi="http://sodipodi.sourceforge.net/DTD/sodipodi-0.dtd"
   xmlns:inkscape="http://www.inkscape.org/namespaces/inkscape"
   sodipodi:docname="todo-static.svg"
   inkscape:version="1.0beta1 (32d4812, 2019-09-19)"
   id="svg511"
   version="1.1"
   viewBox="0 0 161.12183 111.96535"
   height="111.96535mm"
   width="161.12183mm">
  <defs
     id="defs505" />
  <sodipodi:namedview
     inkscape:window-maximized="0"
     inkscape:window-y="23"
     inkscape:window-x="0"
     inkscape:window-height="770"
     inkscape:window-width="1440"
     showgrid="false"
     inkscape:document-rotation="0"
     inkscape:current-layer="layer1"
     inkscape:document-units="mm"
     inkscape:cy="184.48068"
     inkscape:cx="292.05797"
     inkscape:zoom="1.3280523"
     inkscape:pageshadow="2"
     inkscape:pageopacity="0.0"
     borderopacity="1.0"
     bordercolor="#666666"
     pagecolor="#ffffff"
     id="base" />
  <metadata
     id="metadata508">
    <rdf:RDF>
      <cc:Work
         rdf:about="">
        <dc:format>image/svg+xml</dc:format>
        <dc:type
           rdf:resource="http://purl.org/dc/dcmitype/StillImage" />
        <dc:title></dc:title>
      </cc:Work>
    </rdf:RDF>
  </metadata>
  <g
     transform="translate(-176.46285,-86.892319)"
     id="layer1"
     inkscape:groupmode="layer"
     inkscape:label="Layer 1">
    <path
       d="m 280.27837,87.18245 c 0.23707,0.0052 0.47456,0.01009 0.71251,0.01538 1.48855,0.172226 2.79492,0.267335 3.74477,0.256117 0.45473,-0.01002 0.86402,-0.04332 1.15866,-0.102553 1.22541,-0.0267 2.45382,-0.08103 3.58663,0.0835 2.05965,0.230893 4.19689,0.248038 6.17593,0.294075 2.2726,-0.04184 4.72031,0.232798 6.47859,0.09007 0.66365,-0.158151 1.26333,-0.268711 2.17914,-0.273156 0.28519,-0.02755 0.56632,-0.07532 0.90446,-0.101812 0.63164,-0.0028 1.37364,0.05352 2.07504,0.04216 1.0107,-0.04815 2.09683,-0.02522 2.56134,-0.07412 0.11119,-0.0164 0.27714,-0.04586 0.5207,-0.0641 0.22309,-0.0018 0.47918,0.01027 0.71579,0.02191 0.67761,0.0018 1.41241,0.0032 2.09772,0.0049 1.04447,-0.0058 2.44968,-0.01157 3.40321,-0.01697 0.19449,0.0035 0.11945,0.0163 0.18778,-0.0163 0.74179,-0.196215 1.44632,-0.216005 2.22959,-0.19685 0.22031,-0.0032 0.46034,-0.01743 0.69526,-0.03112 0.26423,-0.02039 0.51675,-0.03083 0.80514,-0.03228 0.74147,-0.02036 1.53099,-0.05376 2.08661,-0.154728 0.6216,-0.07715 1.41157,-0.01446 2.05278,0.09345 0.76341,0.140758 1.55755,0.07902 2.55573,0.0296 0.53277,-0.01489 1.31068,-0.140723 2.05857,-0.01651 0.29704,0.110172 0.55485,0.316971 0.58113,0.349285 0.44115,0.348509 0.65486,0.660506 0.91108,0.7874 0.29366,0.167464 0.88456,0.31429 1.35996,0.500098 0.36259,0.146967 0.69183,0.38675 0.88992,0.577427 0.41173,0.466901 0.39053,0.681707 0.41226,0.626462 0.0762,0.05115 0.26779,0.132327 0.6242,0.33394 0.27369,0.196497 0.62428,0.47632 0.93155,0.812341 0.34575,0.467219 0.82902,1.109028 1.00643,1.979648 0.19223,1.293459 0.0609,2.469903 0.14355,3.625497 0.006,0.262784 0.0146,0.518408 0.0237,0.661071 0.005,0.09109 0.0154,0.15046 0.0334,0.325049 0.0128,0.217453 0.007,0.440232 0.004,0.710389 -0.0158,0.427108 -0.05,0.905439 -0.0168,1.213132 0.0397,0.205846 0.15187,0.387174 0.27221,0.676588 0.0921,0.34865 0.066,0.63599 0.0609,0.76856 0.0158,0.20631 0.0406,0.45752 0.058,0.69991 0.0341,0.41903 0.0753,0.80501 0.12132,1.12431 0.1578,0.81872 0.1269,1.75291 0.12905,2.58145 0.13582,1.52509 0.36096,3.05551 0.49593,4.7372 0.0538,2.21859 0.4699,4.21305 0.16588,6.42673 -0.26645,1.76312 -0.20373,3.75105 -0.20786,5.78076 -0.0526,1.28288 -0.12742,2.76158 -0.11303,4.19654 0.10425,3.00461 -0.1512,5.99038 -0.0821,8.9729 -0.0201,4.35734 0.1996,8.63988 0.42062,12.74844 0.005,1.57388 -0.0159,3.16649 -0.0546,4.74824 -0.0406,1.86355 0.0798,3.78732 0.14192,5.79925 0.0279,3.86239 -0.0226,7.78616 -0.10513,11.59538 -0.22666,4.0609 -0.3726,7.64219 -0.57083,11.64322 -0.003,0.0556 -0.0103,0.10982 -0.0224,0.16224 -0.26772,1.42787 -0.18274,2.86106 -0.519,4.71935 -0.47767,1.93315 -0.81157,3.67796 -1.48252,5.08282 -0.0686,0.28208 -0.13342,0.6737 -0.32191,1.15232 -0.13814,0.28098 -0.33044,0.57714 -0.48891,0.79636 -0.12273,0.16034 -0.24091,0.29689 -0.30723,0.36696 -0.16941,0.20711 -0.36711,0.49321 -0.70344,0.8618 -0.21922,0.2298 -0.47393,0.45511 -0.61747,0.58162 -0.0715,0.0602 -0.13935,0.12048 -0.28106,0.23986 -0.18122,0.13966 -0.38114,0.2735 -0.61733,0.42248 -0.38315,0.22334 -0.90688,0.45575 -1.35321,0.59969 -0.8647,0.29623 -2.09244,0.60163 -3.25463,0.95553 -1.5307,0.62061 -3.36959,0.73198 -4.80871,0.10443 -0.15981,-0.0694 -0.20631,-0.0972 -0.19646,-0.11007 -0.14665,0.0463 -0.38626,0.15286 -0.77534,0.25336 -0.55933,0.0714 -1.10938,0.0175 -1.49084,-0.003 -0.70919,-0.0134 -1.33187,-0.0528 -1.97368,-0.0396 -1.18837,0.003 -2.44366,0.31881 -3.90998,-0.0282 -1.06945,-0.27968 -2.10661,-0.22243 -3.26436,-0.17346 -1.57462,0.005 -3.18082,0.0134 -4.65779,0.13229 -2.27736,0.19015 -4.58287,-0.2279 -6.46695,-0.14252 -1.20953,0.0209 -2.8684,0.3593 -4.21312,-0.0259 -0.4717,-0.16306 -0.97575,-0.25457 -1.5942,-0.24698 -0.80278,-0.0112 -1.46364,-0.18412 -1.97676,-0.25594 -1.0964,-0.0658 -2.43614,-0.10235 -3.53963,-0.17329 -1.67206,0.10467 -2.75636,-0.22165 -3.84266,-0.1542 -0.89091,0.12206 -2.01528,0.43519 -3.05502,0.35366 -0.95219,-0.13765 -1.76001,-0.51188 -2.48698,-0.47932 -0.96563,0.0292 -2.19583,0.0792 -3.25353,0.0101 -1.38416,-0.0393 -2.9411,-0.29965 -4.3005,-0.17907 -1.15161,0.1077 -2.14002,0.0883 -3.82559,0.32018 -1.38402,0.22973 -2.9633,0.43374 -3.97955,0.37204 -1.0451,-0.0184 -1.9208,-0.16754 -2.7536,-0.22761 -1.25836,-0.0396 -2.39625,0.2879 -3.80513,0.32053 -1.46192,-0.11204 -2.85821,-0.23305 -4.11794,-0.20105 -1.87759,0.16295 -3.39535,-0.0926 -4.91127,0.13445 -1.05022,0.23114 -2.24575,0.56448 -3.49754,0.38414 -1.33153,-0.14235 -2.53115,-0.32812 -3.70375,-0.16362 -0.9773,0.23163 -2.01478,0.49124 -2.9217,0.45197 -1.11961,0.0606 -2.25972,-0.15419 -3.20185,-0.01 -1.07573,0.2505 -2.36792,0.64851 -3.7265,0.65898 -0.70552,-0.007 -1.17796,-0.20771 -1.62232,-0.31718 -0.50225,-0.11959 -1.23059,-0.16954 -1.76858,-0.18919 -1.03014,-0.002 -2.29489,0.0187 -3.5548,-0.0597 -1.76964,-0.056 -3.5996,-0.31066 -5.18216,-0.14556 -0.74796,0.15078 -1.5893,0.15374 -2.3742,0.0224 -1.03462,-0.13864 -1.93406,-0.11067 -3.01752,-0.0236 -1.44794,0.081 -3.12988,0.43448 -4.93116,0.0423 -0.32674,-0.11744 -0.53428,-0.22786 -0.50825,-0.24215 -0.0332,0.005 -0.0666,0.0233 -0.23223,0.0832 -0.25375,0.0646 -0.57912,0.14454 -0.9701,0.1784 -0.56671,0.008 -1.18816,-0.0619 -1.65996,-0.15614 -1.05689,-0.12347 -2.08817,-0.24818 -3.0855,-0.28825 -1.74227,-0.0134 -3.68177,0.0701 -5.5359,-0.27944 -1.10074,-0.13476 -1.9564,-0.41761 -3.02715,-0.33443 -1.00492,0.13314 -2.17823,0.2643 -3.37164,-0.22917 -0.008,-0.007 -0.0161,-0.0135 -0.0235,-0.0199 -0.0521,0.008 -0.11606,0.0183 -0.19508,0.0295 -0.21837,-0.005 -0.50818,-0.0197 -0.96224,-0.15166 -0.11105,-0.0689 -0.20384,-0.14616 -0.22613,-0.17476 -0.11649,-0.046 -0.23573,-0.0844 -0.35676,-0.11882 -0.19918,-0.0501 -0.45329,-0.12009 -0.72556,-0.23548 -0.22162,-0.11381 -0.35285,-0.19307 -0.381,-0.2146 -0.19805,-0.008 -0.45689,-0.0169 -0.87267,-0.0953 -0.21248,-0.0951 -0.32208,-0.17592 -0.30346,-0.1791 -0.4639,-0.10417 -1.11149,-0.17011 -1.71362,-0.44732 -0.48346,-0.27421 -0.98616,-0.61666 -1.32387,-0.86297 -0.11396,-0.0339 -0.31517,-0.10777 -0.62719,-0.33323 -0.15092,-0.16799 -0.29106,-0.36809 -0.34661,-0.45473 -0.13303,-0.15049 -0.25499,-0.28257 -0.30686,-0.33648 -0.0803,-0.0678 -0.18813,-0.13981 -0.36584,-0.30565 -0.33531,-0.37546 -0.51703,-0.74887 -0.75658,-1.05314 -0.35486,-0.44062 -0.9497,-1.1406 -1.26933,-1.8571 -0.16058,-0.38594 -0.28202,-0.66879 -0.42507,-1.01332 -0.37592,-0.77554 -0.56474,-1.6626 -0.72473,-2.51501 -0.22069,-1.33583 -0.41571,-2.69194 -0.4931,-3.851 -0.0949,-1.70811 -0.0107,-3.78107 0.16755,-5.54154 0.0266,-1.77789 0.003,-3.61173 0.0282,-5.39986 0.0409,-3.63971 -0.0837,-7.37203 0.037,-10.97435 0.0796,-4.90714 0.36248,-9.6931 0.25154,-14.54549 0.005,-1.34539 -0.009,-2.51167 -0.0555,-4.08389 -0.007,-1.08038 -0.0535,-2.14715 -0.0608,-3.23222 0.008,-2.07797 0.0155,-4.09579 0.0234,-6.16705 0.076,-3.95651 -0.0645,-8.10938 -0.31522,-11.87962 -0.008,-0.16767 -0.009,-0.34978 -0.005,-0.55778 0.003,-0.24327 0.0101,-0.52461 0.0133,-0.79406 0.009,-0.16066 0.0159,-0.29111 0.0175,-0.37232 -0.0319,-0.23919 -0.1024,-0.49848 -0.1483,-0.85341 -0.0413,-0.9283 0.1562,-1.74064 0.18227,-2.48253 -0.0421,-0.98598 -0.0328,-1.98268 0.0525,-2.89588 0.0589,-0.11455 0.10795,-0.22931 0.14847,-0.3398 0.28095,-0.63839 0.52353,-1.41555 0.55194,-2.11338 0.0221,-0.15304 0.0311,-0.42348 -0.009,-0.66407 -0.0757,-0.1771 -0.16356,-0.33849 -0.25472,-0.48483 -0.0144,-0.38244 -0.0711,-0.72361 -0.16223,-0.97511 -0.0157,-0.55746 -0.0272,-1.12183 -0.0214,-1.69771 0.0157,-2.44041 -0.0414,-4.78529 -0.01,-7.351423 0.013,-0.283528 0.0257,-0.576016 0.0384,-0.874219 0.17314,-0.389714 0.33435,-0.766339 0.47505,-1.120246 0.004,-0.0098 0.007,-0.01961 0.0108,-0.02946 0.17705,-0.486374 0.31111,-0.931439 0.40618,-1.330466 0.004,1.124268 0.008,2.289034 0.009,3.334315 8.4e-4,0.01326 10e-4,0.02667 8.1e-4,0.04022 -0.0136,2.553369 0.0615,4.887059 0.0642,7.334389 0.005,1.71436 0.1735,3.4176 0.005,5.07742 -0.2419,1.1738 -0.27679,2.57482 -0.19928,4.07356 -0.004,0.89391 -0.16634,1.65901 -0.0975,2.38676 0.0264,0.2456 0.0915,0.50041 0.1351,0.86021 0.0125,0.16902 0.0137,0.34565 0.0136,0.49146 0.006,0.25812 0.008,0.54052 0.013,0.77367 0.007,0.19343 0.016,0.32681 0.0333,0.46839 0.27254,3.79984 0.43458,8.00576 0.37845,11.98696 0.008,2.06022 0.0155,4.07804 0.0233,6.15163 0.006,1.05576 0.0515,2.12256 0.0584,3.2137 0.037,1.5699 0.0414,2.76176 0.0267,4.09554 0.12193,4.88629 -0.1507,9.69906 -0.21886,14.58902 -0.10809,3.56697 0.0286,7.28416 -10e-5,10.95756 -0.0188,1.77077 0.0112,3.60514 -0.0127,5.46583 -0.18258,1.77843 -0.2679,3.74936 -0.18051,5.3703 0.0845,1.08687 0.284,2.37705 0.51323,3.68343 0.15611,0.82722 0.29552,1.52649 0.60993,2.14862 0.16915,0.34921 0.31153,0.62628 0.50189,1.02644 0.20083,0.50144 0.68274,1.05315 1.06786,1.53624 0.32707,0.44496 0.47424,0.78013 0.62152,0.93934 0.0417,0.0429 0.11947,0.0923 0.31276,0.25729 0.12767,0.13391 0.27646,0.30338 0.46446,0.53234 0.10338,0.1525 0.18779,0.28035 0.13502,0.25269 0.0214,0.0253 0.0281,0.0246 0.28349,0.13459 0.5194,0.31552 0.99668,0.62201 1.39754,0.8311 0.29086,0.15537 0.78616,0.18751 1.44293,0.33352 0.19053,0.0654 0.31849,0.13032 0.30759,0.13755 0.14605,0.0194 0.33284,0.0249 0.67789,0.0549 0.35141,0.091 0.64986,0.23847 0.8302,0.32628 0.13903,0.0708 0.27746,0.11451 0.50006,0.18334 0.20436,0.0745 0.42563,0.1664 0.81188,0.40368 0.0619,0.003 0.12097,0.004 0.1566,0.008 0.12651,-0.021 0.32067,-0.0602 0.90879,0.0306 0.19082,0.11709 0.33076,0.2497 0.20807,0.19191 0.59535,0.28476 1.41587,0.16852 2.45674,0.0451 1.34867,-0.10082 2.37187,0.19071 3.39866,0.29753 1.73528,0.3338 3.5384,0.24543 5.34201,0.25753 1.07897,0.0302 2.16906,0.14676 3.28002,0.26455 0.46666,0.0803 0.93095,0.12358 1.34592,0.10538 0.2189,-0.0162 0.4106,-0.0687 0.58463,-0.10901 0.12633,-0.0441 0.33175,-0.107 0.72093,-0.13251 0.41279,0.0662 0.76472,0.24137 0.93172,0.30696 1.36734,0.33492 2.83362,0.004 4.39103,-0.0798 1.10441,-0.083 2.17466,-0.10506 3.34828,0.0539 0.68651,0.11751 1.23928,0.11525 1.90818,-0.0253 1.84725,-0.19695 3.77832,0.0511 5.48979,0.0919 1.22519,0.0766 2.44108,0.0547 3.50936,0.057 0.59277,0.0142 1.44907,0.0686 2.10693,0.20947 0.58977,0.14429 0.83005,0.27923 1.24643,0.25623 1.12314,0.006 2.23305,-0.35472 3.44188,-0.6368 1.27966,-0.1663 2.49742,0.0591 3.48954,0.003 0.7337,0.039 1.56044,-0.19086 2.62847,-0.44937 1.47363,-0.20285 2.87652,-0.0125 4.21598,0.12347 0.93098,0.15508 1.80887,-0.14125 2.98206,-0.41395 1.83254,-0.24384 3.39401,0.0251 5.1234,-0.12273 1.4031,-0.0399 2.88145,0.0803 4.25912,0.18429 1.12218,-0.009 2.31362,-0.33535 3.83614,-0.29563 0.94414,0.0598 1.7683,0.19467 2.73103,0.1996 0.85562,0.0431 2.27869,-0.1646 3.65516,-0.4137 1.80637,-0.2594 2.86061,-0.25686 3.92861,-0.37119 1.5979,-0.14016 3.25673,0.11398 4.54215,0.13342 0.99144,0.0594 2.13906,0.003 3.13245,-0.0347 1.14385,0.005 2.09892,0.4154 2.74906,0.49075 0.62325,0.0946 1.57829,-0.17621 2.67666,-0.31249 1.4441,-0.0575 2.48546,0.27245 3.99638,0.17237 1.1842,0.0678 2.52426,0.10311 3.71108,0.17473 0.68636,0.0826 1.22389,0.22327 1.8023,0.20884 0.77273,-0.006 1.56888,0.12972 2.16673,0.32512 0.78041,0.28505 2.20465,-0.049 3.58754,-0.0952 2.09063,-0.0857 4.34735,0.32467 6.37363,0.1342 1.5554,-0.12587 3.23081,-0.13836 4.78459,-0.1446 1.13376,-0.0169 2.44069,-0.0305 3.74163,0.32522 1.01931,0.28043 2.03486,-0.0284 3.4333,-0.0569 0.70634,-0.0146 1.36373,0.0242 2.05814,0.0358 0.45988,0.0159 0.83937,0.0567 1.06892,0.0161 0.15423,-0.0363 0.36329,-0.13825 0.78765,-0.25738 0.41539,-0.0444 0.90336,0.0542 1.28404,0.20338 1.0203,0.49071 2.10604,0.3926 3.44942,-0.18214 1.32786,-0.35532 2.56184,-0.61059 3.3745,-0.83993 0.36844,-0.0961 0.74044,-0.24215 0.99515,-0.37137 0.17272,-0.11377 0.30826,-0.20669 0.38086,-0.26194 0.0424,-0.0498 0.088,-0.10834 0.19974,-0.22722 0.18281,-0.16062 0.38707,-0.33736 0.52426,-0.48013 0.21777,-0.26536 0.3428,-0.49266 0.56353,-0.81012 0.0887,-0.11377 0.159,-0.20546 0.24328,-0.33006 0.13285,-0.18172 0.24391,-0.34738 0.29443,-0.44838 0.0804,-0.20966 0.10149,-0.46218 0.23787,-1.01766 0.65642,-1.38098 0.95056,-2.95804 1.43242,-4.88138 0.30304,-1.5977 0.22434,-3.0165 0.52031,-4.64548 0.19124,-3.96748 0.33207,-7.53812 0.55203,-11.5587 0.0767,-3.7696 0.12248,-7.66699 0.0905,-11.49304 -0.0436,-1.96642 -0.14809,-3.93781 -0.09,-5.87371 0.0271,-1.56697 0.0363,-3.13454 0.0213,-4.65226 -0.19833,-4.07102 -0.39828,-8.40754 -0.35669,-12.78745 -0.0714,-3.05178 0.18094,-6.02753 0.0738,-8.95163 0.002,-1.5167 0.0951,-3.04067 0.16292,-4.28837 0.0646,-1.97538 0.0675,-4.07631 0.40922,-5.95806 0.26278,-1.9243 -0.16782,-3.78795 -0.25439,-6.10712 -0.11049,-1.59631 -0.31686,-3.12102 -0.44182,-4.75301 -0.007,-0.92198 0.0255,-1.72042 -0.11211,-2.36569 -0.0694,-0.3786 -0.13032,-0.81499 -0.18143,-1.27324 -0.0175,-0.2407 -0.0422,-0.48684 -0.0619,-0.79721 0.007,-0.19163 0.0213,-0.27238 0.0328,-0.28656 -0.0639,-0.14355 -0.22275,-0.46052 -0.33183,-0.915598 -0.0696,-0.543736 -0.0445,-1.137814 -0.0396,-1.529362 0.005,-0.274356 0.0122,-0.441608 0.01,-0.521088 -0.01,-0.05126 -0.0336,-0.151166 -0.0577,-0.355106 -0.007,-0.213043 -0.0105,-0.497488 -0.009,-0.726017 -0.0711,-1.259629 0.0727,-2.365658 -0.0844,-3.420322 -0.0738,-0.464785 -0.36449,-0.755474 -0.70679,-1.188826 -0.1608,-0.192863 -0.38502,-0.377825 -0.52342,-0.496782 -0.19466,-0.104549 -0.40332,-0.191191 -0.6151,-0.314628 -0.5292,-0.403119 -0.60692,-0.741115 -0.73603,-0.805109 -0.12041,-0.118393 -0.14351,-0.147285 -0.32131,-0.208386 -0.36075,-0.143228 -1.02934,-0.313408 -1.56242,-0.586281 -0.55834,-0.330836 -0.8715,-0.729333 -1.20907,-0.978924 -0.32855,-0.01397 -0.87983,0.08615 -1.44805,0.120791 -0.99096,0.02822 -1.97849,0.06742 -2.93554,-0.118215 -0.55199,-0.101283 -1.11612,-0.15741 -1.52633,-0.102165 -0.66738,0.06844 -1.55483,0.06195 -2.29862,0.0387 -0.249,0.0062 -0.44027,0.01887 -0.67243,0.04209 -0.22758,0.0303 -0.49753,0.06456 -0.80952,0.08798 -0.81478,-0.01281 -1.26545,-0.0074 -1.78111,0.141288 -0.24313,0.07116 -0.51206,0.081 -0.68968,0.07246 -0.92826,-0.0058 -2.33348,-0.01161 -3.37795,-0.01739 -0.68531,0.0018 -1.42011,0.0032 -2.11109,0.0048 -0.25199,0.0032 -0.46338,0.0065 -0.60167,0.02032 -0.13634,0.01129 -0.21995,0.03108 -0.41871,0.06269 -0.64819,0.04558 -1.74731,0.0059 -2.69854,0.03584 -0.77321,0.05143 -1.52802,0.03373 -2.06085,0.07352 -0.2473,0.0065 -0.51728,0.03979 -0.92305,0.06163 -0.87538,-0.0097 -1.24103,0.05606 -1.98779,0.212054 -2.04587,0.183974 -4.53475,-0.07394 -6.73517,-0.01284 -2.00903,-0.06713 -4.21738,-0.10862 -6.39067,-0.372674 -1.5428,-0.26102 -3.48721,-0.0079 -5.51237,-0.156739 -1.38447,-0.114053 -2.76175,-0.111725 -4.1517,-0.147179 -1.73281,0.03669 -3.50117,0.186302 -5.15637,-0.01898 -1.55995,-0.02448 -3.15531,-0.04367 -4.72271,-0.08057 -0.78955,0.0035 -1.5888,-0.0093 -2.40125,-0.0593 -0.43981,-0.03986 -0.90681,-0.124037 -1.33914,-0.210573 -0.19209,-0.03898 -0.34393,-0.0665 -0.48398,-0.08047 -0.21043,-0.03101 -0.41388,-0.03934 -0.70262,-0.04329 -0.23485,-0.0028 -0.47964,-3.52e-4 -0.70898,0.0021 -2.4752,0.04734 -4.86079,0.169651 -7.23868,-0.0075 0.34229,-0.0436 0.72174,-0.09814 1.13806,-0.163795 0.16496,-0.02808 0.33566,-0.05778 0.51177,-0.08883 0.19766,-0.0059 0.39783,-0.01203 0.60022,-0.01831 1.30633,-0.05069 2.70249,-0.110666 4.1172,-0.154975 1.71644,-0.03306 3.47062,-0.04456 5.31576,-0.07998 3.71866,-0.107844 7.8371,-0.325543 11.75106,-0.547793"
       style="opacity:1;fill:#000000;fill-opacity:1;fill-rule:evenodd;stroke:none;stroke-width:2.64583333;stop-opacity:1;stroke-miterlimit:4;stroke-dasharray:none"
       id="path32"
       inkscape:connector-curvature="0" />
    <path
       d="m 262.46187,89.803942 c -0.93398,-0.08057 -2.22794,-0.215512 -3.66865,-0.341454 -0.32575,0.06862 -0.81241,0.134585 -1.42984,0.181328 -0.76542,0.03715 -1.7593,0.04981 -2.94654,0.05443 -1.19398,0.0083 -2.60184,0.01108 -4.19375,0.02357 -0.59613,0.0076 -1.21419,0.01644 -1.85388,0.0267 0.007,0.05916 0.007,0.11938 -0.004,0.166441 -0.0484,0.09031 -0.14993,0.185172 -0.30558,0.245886 -0.23696,0.03351 -0.74641,0.02942 -1.4279,0.02113 -0.98199,0.0075 -2.38803,0.0025 -4.09949,0.0018 -1.11058,0.0032 -2.35233,0.0086 -3.72548,0.01425 -2.53841,-0.0079 -5.48181,-0.03383 -8.20226,-0.101706 -0.16344,0.0025 -0.3158,0.0046 -0.4578,0.0065 -0.343,7.14e-4 -0.62932,7.14e-4 -0.83308,-2.91e-4 2.6e-4,0.05528 -0.005,0.115287 -0.0171,0.152082 -0.0528,0.09451 -0.15494,0.183621 -0.21216,0.21269 -0.0498,0.02261 -0.12047,0.04551 -0.22751,0.06703 -0.4143,0.03785 -1.16685,0.05369 -2.05341,0.06318 -3.08243,0.07394 -7.86867,0.1772 -11.77244,0.114124 -0.22553,-0.0066 -0.44785,-0.01408 -0.66626,-0.02244 -0.24596,0.01394 -0.49964,0.02709 -0.75805,0.03962 -0.26786,0.01644 -0.54119,0.03351 -0.81893,0.05115 0.0251,0.04798 0.0381,0.103046 0.0351,0.161043 -0.008,0.164712 -0.14253,0.293229 -0.3047,0.297427 -0.0662,0.0042 -0.18637,0.0052 -0.36668,0.0062 -0.25181,0.0025 -0.64417,0.0051 -1.14218,0.0076 -0.16669,-1.06e-4 -0.34435,-2.47e-4 -0.53122,-3.44e-4 -1.93886,0.06534 -4.9107,0.226483 -7.79088,0.398004 -0.0589,0.03069 -0.1004,0.04159 -0.14178,0.04427 -0.0122,0.0018 -0.0254,0.0032 -0.0376,0.0047 -0.33426,0.04477 -1.04765,0.120156 -1.9019,0.19819 -0.61539,0.05151 -1.31858,0.105305 -2.03983,0.159879 -1.11633,0.08728 -2.2878,0.176177 -3.52824,0.285927 -0.76881,0.07126 -1.56488,0.150142 -2.35765,0.230822 -0.0355,0.02953 -0.0779,0.05673 -0.0979,0.06629 -0.0363,0.01517 -0.0839,0.03041 -0.13246,0.04261 -0.27743,0.0786 -0.80416,0.186373 -1.3915,0.285221 -0.99081,0.138289 -2.16553,0.23174 -3.00179,0.280564 0.0132,0.03715 0.0227,0.07553 0.0277,0.114864 0.0151,0.132151 -0.0797,0.251531 -0.21184,0.2667 -0.13215,0.01513 -0.25157,-0.07973 -0.2667,-0.211878 -7.2e-4,-0.02635 -0.0188,-0.03341 -0.0655,-0.04586 -0.0357,-0.0025 -0.0716,-0.01164 -0.1058,-0.02808 -0.0973,-0.03373 -0.19473,-0.0496 -0.29608,-0.0605 -0.0345,0.0035 -0.07,0.0018 -0.10549,-0.0058 -0.0127,-0.0021 -0.0225,-0.0041 -0.0317,-0.0058 -0.0118,7.14e-4 -0.0236,0.0011 -0.0356,3.44e-4 -0.0989,-0.0011 -0.19385,-0.04293 -0.2613,-0.115499 -0.26088,0.02011 -0.49339,0.03743 -0.69084,0.05196 -0.32498,0.03316 -0.55986,0.05997 -0.67744,0.07313 -0.0196,0.0021 -0.0366,0.0041 -0.0507,0.0056 -0.17551,0.03665 -0.35345,-0.06537 -0.40792,-0.24003 -0.058,-0.185738 0.0456,-0.383293 0.23139,-0.441219 0.0538,-0.01556 0.10132,-0.02342 0.17067,-0.03411 0.37613,-0.06519 1.10508,-0.179988 1.91502,-0.288925 0.23986,-0.03143 0.48811,-0.06287 0.73914,-0.09327 0.002,-0.14411 0.035,-0.28882 0.0736,-0.3181 0.10439,-0.04717 0.22486,-0.07232 0.38164,-0.09723 0.32385,-0.0683 0.82056,-0.157515 1.40998,-0.240206 0.75586,-0.0853 1.67675,-0.160585 2.6229,-0.215795 0.0231,-0.0011 0.0463,-0.0025 0.0695,-0.0035 0.0799,-0.0811 0.18609,-0.15113 0.30579,-0.203552 0.407,-0.119274 1.12533,-0.253471 1.91862,-0.363467 1.22378,-0.139771 2.63116,-0.205211 3.96416,-0.262432 0.93511,-0.04565 1.8796,-0.09708 2.69907,-0.137371 0.0264,-0.06459 0.057,-0.1149 0.0802,-0.133668 0.12195,-0.06322 0.26543,-0.09356 0.44916,-0.1143 0.48101,-0.03334 1.36944,-0.06195 2.38671,-0.09081 0.9301,-0.02593 1.99157,-0.05288 3.17673,-0.09966 0.43173,-0.01905 0.88223,-0.04082 1.34271,-0.06385 0.0458,-0.104034 0.11582,-0.192052 0.14965,-0.214453 0.0629,-0.03016 0.13137,-0.04953 0.18909,-0.05902 0.22528,-0.02491 0.78955,-0.05983 1.55148,-0.103011 0.0296,-0.08745 0.10354,-0.190571 0.14982,-0.230929 0.14739,-0.103187 0.39434,-0.176071 0.72172,-0.220204 0.82161,-0.07161 2.28988,-0.0787 3.9577,-0.05895 0.5467,0.0086 1.11827,0.02092 1.70265,0.03644 0.0449,-0.06749 0.11934,-0.143651 0.23823,-0.219745 0.33161,-0.103928 1.13478,-0.158574 2.05797,-0.179529 0.11839,-7.06e-4 0.24006,-7.06e-4 0.36494,-2.11e-4 0.036,-0.03637 0.0783,-0.06442 0.12401,-0.0834 0.16174,-0.08223 0.39892,-0.146932 0.67719,-0.184044 0.41687,-0.03355 1.1061,-0.02191 1.9359,0.0011 0.99692,0.02282 2.22769,0.06562 3.6346,0.107879 0.55914,0.01362 1.14724,0.02628 1.75431,0.03821 2.82204,0.05551 6.05397,0.09564 8.69165,0.145482 0.18835,0.0038 0.37363,0.0076 0.5557,0.01147 0.0309,-0.058 0.0737,-0.11691 0.0978,-0.140405 0.0525,-0.04233 0.12368,-0.08213 0.1657,-0.09977 0.074,-0.02939 0.17995,-0.05923 0.27231,-0.07945 0.34565,-0.09324 0.97557,-0.19364 1.87628,-0.249979 0.65271,-0.0224 1.44695,-0.02431 2.32657,-0.02064 0.43222,-0.0096 1.04782,-0.01912 1.74145,-0.02868 0.80864,0.0047 1.71341,0.0092 2.62266,0.02741 0.92971,-0.01838 1.99668,-0.03045 3.1721,-0.06795 0.14718,-0.0057 0.29641,-0.01178 0.44771,-0.0181 0.0235,0.140124 0.0995,0.271639 0.22296,0.36255 0.11423,0.0841 0.24952,0.119027 0.38065,0.108656 0.0282,0 0.0472,-0.0021 0.0596,-0.0039 0.0225,-0.0032 0.054,-0.0078 0.0884,-0.01333 0.0678,-0.0108 0.16436,-0.02706 0.27658,-0.0465 0.0259,-0.0045 0.0511,-0.01069 0.0755,-0.01845 0.15529,-0.03097 0.36812,-0.07292 0.62766,-0.119627 0.0322,-0.0056 0.0649,-0.01125 0.0983,-0.01693 0.57933,-0.04314 1.41975,-0.0781 2.49752,-0.111267 0.0472,0.04272 0.0966,0.08107 0.13067,0.101565 0.0813,0.04191 0.18902,0.07923 0.28604,0.103399 0.0264,0.0087 0.0538,0.01549 0.0821,0.02032 0.0236,0.004 0.0472,0.0065 0.0705,0.0076 0.20489,0.02614 0.48189,0.03422 0.79558,0.02145 0.56575,-0.03426 1.33223,-0.126929 2.2968,-0.278976 0.16495,-0.02808 0.33566,-0.05779 0.51177,-0.08883 0.19766,-0.0059 0.39783,-0.01203 0.60022,-0.01831 1.30633,-0.05069 2.70249,-0.110667 4.11719,-0.154976 0.38725,-0.0074 0.77644,-0.01383 1.16812,-0.01961 10e-4,0.01887 10e-4,0.03732 2.7e-4,0.05517 0.003,0.02928 10e-4,0.05955 -0.005,0.08989 -0.007,0.03143 -0.0188,0.0605 -0.0346,0.08657 -0.029,0.07116 -0.0716,0.14665 -0.12968,0.222038 -0.0217,0.05673 -0.0621,0.106716 -0.11861,0.1397 -0.0113,0.0066 -0.023,0.01238 -0.0348,0.01722 -0.16915,0.105022 -0.39543,0.155082 -0.5485,0.164607 -0.10047,-0.0089 -0.18693,-0.06043 -0.24317,-0.13515 -0.38833,0.143828 -1.02721,0.27238 -1.82707,0.364314 -0.0299,0.0032 -0.0601,0.0061 -0.0906,0.0091 0.44055,0.02307 0.8418,0.05091 1.19522,0.08442 0.47709,0.04985 0.87587,0.113065 1.13626,0.175436 0.16736,0.04156 0.33041,0.108127 0.45381,0.232834 0.0187,0.03365 0.0321,0.09779 0.0365,0.166158 -0.0542,-0.0061 -0.10615,-0.01196 -0.15593,-0.01757 -0.37172,-0.04145 -0.65733,-0.07207 -0.84345,-0.08717 -0.0751,-0.0079 -0.12803,-0.01189 -0.15819,-0.01 -0.0166,-7.06e-4 -0.0311,-7.06e-4 -0.0433,-7.06e-4 -0.25679,0.02512 -0.45879,0.215477 -0.50687,0.456318 m 1.28143,-1.853107 c 0.0121,-0.0063 0.0202,-0.0157 0.0272,-0.02505 -0.026,0.01344 -0.0265,0.01916 -0.0272,0.02505"
       style="opacity:1;fill:#000000;fill-opacity:1;fill-rule:evenodd;stroke:none;stroke-width:2.64583333;stop-opacity:1;stroke-miterlimit:4;stroke-dasharray:none"
       id="path36"
       inkscape:connector-curvature="0"
       sodipodi:nodetypes="ccccccccccccccccccccccccccccccccccccccccccccccccccccccccccccccccccccccccccccccccccccscccccccccccccccccccccccccccccccccccccccccccccccccccc" />
    <path
       d="m 187.79451,93.321418 c -0.0242,-0.09913 -0.0611,-0.207821 -0.10428,-0.289771 v 0 c -0.0415,-0.149719 -0.1965,-0.237455 -0.34622,-0.195968 v 0 c -0.14971,0.04149 -0.23745,0.196497 -0.19596,0.346216 v 0 c 0.0415,0.149719 0.19649,0.237455 0.34621,0.195968 v 0 c 0.14972,-0.04149 0.23746,-0.196497 0.19597,-0.346216 -0.0943,-0.409681 -0.43886,-0.736777 -0.81037,-0.904381 v 0 c -0.19984,-0.06855 -0.4174,0.03792 -0.48595,0.237737 v 0 c -0.0685,0.199848 0.0379,0.417442 0.23778,0.485951 v 0 c 0.19984,0.06855 0.4174,-0.03789 0.48595,-0.237737 v 0 c 0.0685,-0.199849 -0.0379,-0.417407 -0.23778,-0.485951 -0.37493,-0.160338 -0.85693,-0.237526 -1.31191,-0.271957 v 0 c -0.26719,-1.76e-4 -0.4839,0.216253 -0.48408,0.483447 v 0 c -1.7e-4,0.267159 0.21626,0.483905 0.48341,0.484082 v 0 c 0.2672,1.76e-4 0.48394,-0.216288 0.48412,-0.483447 v 0 c 1.8e-4,-0.267194 -0.21629,-0.483905 -0.48345,-0.484082 -0.42269,-0.01415 -0.92988,-0.02999 -1.44243,0.0992 -0.41409,0.123226 -0.79753,0.294993 -1.08274,0.407141 -0.16474,0.04191 -0.38513,0.107421 -0.61837,0.223591 -0.20063,0.131621 -0.37798,0.263913 -0.52217,0.37599 -0.60305,0.426473 -0.74888,0.730215 -1.08163,1.060168 -0.17535,0.148731 -0.48723,0.28441 -0.80341,0.445347 -0.19502,0.09779 -0.38294,0.21971 -0.5297,0.328471 -0.16942,0.134761 -0.38235,0.311856 -0.57223,0.485317 -0.1131,0.08361 -0.25573,0.211596 -0.37062,0.350308 -0.20937,0.284444 -0.38177,0.620677 -0.52566,0.900077 -0.20014,0.416772 -0.3606,0.726758 -0.53358,1.149456 -0.28895,0.740692 -0.63105,1.742087 -0.77748,2.713145 -0.12739,0.98111 0.0449,1.72921 -0.0195,2.44468 -0.0412,0.39352 -0.16696,0.87647 -0.22419,1.51419 -0.005,0.40471 0.005,0.82917 0.006,1.192 0.0153,0.36252 0.0257,0.635 0.0171,0.72718 v 0 c -0.0699,0.21604 0.0486,0.44778 0.26462,0.51767 v 0 c 0.21603,0.0699 0.4478,-0.0486 0.51767,-0.26462 v 0 c 0.0699,-0.21604 -0.0486,-0.44782 -0.26463,-0.51767 v 0 c -0.21602,-0.0699 -0.44779,0.0486 -0.51766,0.26462 0.0231,0.0251 0.0863,-0.0223 0.15142,-0.0485 v 0 c -0.1478,0.1028 -0.1843,0.30593 -0.0815,0.45375 v 0 c 0.10278,0.14781 0.30592,0.18429 0.45373,0.0815 v 0 c 0.14781,-0.1028 0.18431,-0.30593 0.0815,-0.45375 v 0 c -0.10278,-0.14782 -0.30592,-0.18429 -0.45374,-0.0815 0.0465,-0.009 0.14958,-0.0197 0.19243,-0.005 v 0 c -0.15494,-0.0223 -0.29857,0.0853 -0.3208,0.24024 v 0 c -0.0222,0.15494 0.0853,0.29859 0.24027,0.32082 v 0 c 0.15493,0.0222 0.29856,-0.0853 0.3208,-0.24028 v 0 c 0.0222,-0.15494 -0.0853,-0.29855 -0.24027,-0.32078 0.033,0.0232 0.076,0.0599 0.0744,0.0752 v 0 c -0.1023,-0.085 -0.25415,-0.071 -0.33916,0.0313 v 0 c -0.085,0.10231 -0.071,0.25414 0.0313,0.33916 0.0265,0.0386 0.0956,0.0881 0.14638,0.11437 0.0737,0.0195 0.19943,0.003 0.26174,-0.0166 0.11211,-0.0587 0.21072,-0.16972 0.26378,-0.23724 0.0913,-0.21664 0.1416,-0.57581 0.179,-0.95098 0.0228,-0.37547 0.0366,-0.79534 0.0622,-1.15334 0.05,-0.53005 0.17609,-0.98757 0.23571,-1.47207 0.0854,-0.88819 -0.0682,-1.59625 0.0642,-2.38989 0.13318,-0.8617 0.44769,-1.745338 0.73243,-2.451705 0.15363,-0.374219 0.29891,-0.64928 0.51175,-1.0893 0.12175,-0.300708 0.23062,-0.575733 0.34698,-0.768562 0.0364,-0.05817 0.0765,-0.100965 0.17544,-0.18736 0.1951,-0.168698 0.38537,-0.318523 0.56147,-0.450215 0.11861,-0.109573 0.21897,-0.192758 0.34873,-0.273544 0.28116,-0.155187 0.67552,-0.349885 0.98434,-0.616232 0.44635,-0.450074 0.49666,-0.641667 0.99275,-0.975219 0.15562,-0.109749 0.31196,-0.216923 0.45893,-0.305717 0.11902,-0.06837 0.23491,-0.10601 0.43325,-0.169616 0.34889,-0.136595 0.69141,-0.292911 1.02623,-0.391407 0.35962,-0.09719 0.72379,-0.07401 1.16769,-0.05697 0.43455,-0.03355 0.79185,-0.03905 1.08127,0.02843 0.29287,0.06022 0.43772,0.117158 0.51639,0.331012 -0.005,0.05666 -0.0189,0.09832 -0.0375,0.162913 v 0 c 0.006,0.188841 0.16485,0.336691 0.3537,0.3302 v 0 c 0.18884,-0.0065 0.33669,-0.164818 0.3302,-0.35366 z"
       style="opacity:1;fill:#000000;fill-opacity:1;fill-rule:nonzero;stroke:none;stroke-width:2.64583333;stop-opacity:1;stroke-miterlimit:4;stroke-dasharray:none"
       id="path38"
       inkscape:connector-curvature="0" />
    <path
       d="m 192.6832,97.790866 c -0.0554,-0.0011 -0.16044,0.01831 -0.27365,0.06615 v 0 c -0.24342,0.160408 -0.31066,0.487786 -0.15025,0.731202 v 0 c 0.16045,0.243417 0.48782,0.310656 0.7312,0.150248 v 0 c 0.24342,-0.160443 0.3107,-0.487785 0.15029,-0.731202 v 0 c -0.16045,-0.243417 -0.48782,-0.310692 -0.73124,-0.150248 -0.0851,0.061 -0.25164,0.486375 -0.17762,0.73092 v 0 c 0.15592,0.256434 0.49022,0.337926 0.74665,0.181998 v 0 c 0.25643,-0.155963 0.33789,-0.490255 0.18196,-0.746689 v 0 c -0.15592,-0.256434 -0.49022,-0.337891 -0.74665,-0.181963 v 0 c -0.25643,0.155928 -0.33789,0.49022 -0.18196,0.746654 0.10424,0.132821 0.24899,0.230576 0.30007,0.255411 v 0 c 0.2928,0.09786 0.60949,-0.06018 0.70735,-0.352989 v 0 c 0.0979,-0.292806 -0.0602,-0.609494 -0.35299,-0.707355 v 0 c -0.2928,-0.09786 -0.60949,0.06018 -0.70735,0.352989 v 0 c -0.0979,0.292806 0.0602,0.609495 0.35299,0.707355 0.10079,0.05002 0.22934,0.08643 0.34209,0.112854 0.69924,0.06181 2.29274,-0.193322 3.7671,-0.2661 v 0 c 0.44439,-0.0411 0.77131,-0.434658 0.73021,-0.879052 v 0 c -0.0411,-0.444394 -0.43469,-0.771313 -0.87905,-0.730215 v 0 c -0.44439,0.0411 -0.77135,0.434693 -0.73021,0.879052 v 0 c 0.0411,0.444394 0.43466,0.771348 0.87905,0.730215 0.39148,-0.01499 0.77798,-0.01288 1.16653,-0.0014 v 0 c 0.46443,7.15e-4 0.84148,-0.375285 0.84215,-0.839717 v 0 c 7.2e-4,-0.464431 -0.37525,-0.84148 -0.83972,-0.842151 v 0 c -0.46443,-7.14e-4 -0.84148,0.37525 -0.84215,0.839682 v 0 c -7.1e-4,0.464467 0.37529,0.841516 0.83972,0.842186 0.90819,-0.08393 1.75712,-0.112712 2.53591,-0.198225 v 0 c 0.32455,-7.15e-4 0.58716,-0.264231 0.58653,-0.588787 v 0 c -7.2e-4,-0.324555 -0.26423,-0.587163 -0.58879,-0.586528 v 0 c -0.32456,7.15e-4 -0.58716,0.264231 -0.58653,0.588786 v 0 c 7.2e-4,0.324556 0.26423,0.587164 0.58879,0.586529 0.22087,-0.07966 0.44072,-0.164289 0.64435,-0.256152 v 0 c 0.19275,-0.01175 0.33947,-0.177553 0.32769,-0.370311 v 0 c -0.0118,-0.192723 -0.17755,-0.339443 -0.37031,-0.32766 -0.19706,-0.06738 -0.39345,-0.142099 -0.60364,-0.221192 -0.73145,-0.08258 -1.57776,-0.222638 -2.53199,-0.308328 -0.40901,0.01041 -0.85111,0.03179 -1.29663,0.07221 -1.56394,0.208033 -3.13486,0.585682 -3.60299,0.635141 -0.0587,0.01778 -0.0687,0.03845 -0.0139,0.07207 0.0273,0.01679 0.16326,0.10929 0.2643,0.236855 0.0708,0.239324 -0.0933,0.659482 -0.18094,0.722206 -0.0855,0.02974 -0.14976,0.03814 -0.13702,0.02593 v 0 c 0.27076,-0.04399 0.45459,-0.29919 0.41056,-0.569947 v 0 c -0.044,-0.270757 -0.29915,-0.45459 -0.56995,-0.410563 z"
       style="opacity:1;fill:#000000;fill-opacity:1;fill-rule:nonzero;stroke:none;stroke-width:2.64583333;stop-opacity:1;stroke-miterlimit:4;stroke-dasharray:none"
       id="path50"
       inkscape:connector-curvature="0" />
    <path
       d="m 197.06188,99.391207 c -0.0571,-0.09913 -0.0519,-0.176742 0.0374,-0.298379 v 0 c 0.15448,-0.117899 0.18415,-0.338702 0.0662,-0.493184 v 0 c -0.11794,-0.154481 -0.33874,-0.184114 -0.49319,-0.06622 v 0 c -0.15448,0.117898 -0.18415,0.338702 -0.0662,0.493183 v 0 c 0.1179,0.154482 0.33871,0.184115 0.49319,0.06622 0.13243,-0.06174 0.16834,-0.04343 0.1682,0.0235 v 0 c 0.24275,0.08283 0.50673,-0.04678 0.58956,-0.28956 v 0 c 0.0828,-0.242747 -0.0468,-0.506695 -0.28956,-0.589527 v 0 c -0.24274,-0.08287 -0.50669,0.04678 -0.58952,0.289524 v 0 c -0.0829,0.242782 0.0468,0.50673 0.28952,0.589563 -0.17064,-0.131657 -0.18002,-0.08805 -0.19036,0.177694 v 0 c 0.003,0.274849 0.22825,0.495265 0.5031,0.492266 v 0 c 0.27485,-0.0032 0.49526,-0.228212 0.49227,-0.503096 v 0 c -0.003,-0.27485 -0.22822,-0.495265 -0.5031,-0.492267 v 0 c -0.27485,0.0032 -0.49527,0.228248 -0.49227,0.503097 -0.007,0.276542 -0.0578,0.641738 -0.15515,1.119789 -0.27562,1.37498 -0.80162,3.40522 -1.02581,4.78313 -0.0483,0.52646 -0.055,1.00136 0.0189,1.31329 v 0 c 0.0356,0.24638 0.26409,0.4173 0.51047,0.38174 v 0 c 0.24638,-0.0355 0.4173,-0.26405 0.38174,-0.51043 v 0 c -0.0355,-0.24638 -0.26408,-0.4173 -0.51046,-0.38178 v 0 c -0.24638,0.0356 -0.41727,0.26409 -0.38175,0.51047 0.044,0.16838 0.17477,0.40326 0.35684,0.52155 v 0 c 0.19135,0.11066 0.43614,0.0453 0.54677,-0.14609 v 0 c 0.11063,-0.19131 0.0452,-0.4361 -0.14609,-0.54677 v 0 c -0.19131,-0.11063 -0.43613,-0.0452 -0.54677,0.14612 v 0 c -0.11063,0.19131 -0.0452,0.43611 0.14609,0.54674 0.10502,0.0418 0.28875,0.057 0.3883,0.0303 v 0 c 0.20165,-0.047 0.32699,-0.24861 0.27997,-0.45025 v 0 c -0.047,-0.20165 -0.24861,-0.32699 -0.45025,-0.27997 v 0 c -0.20165,0.047 -0.32699,0.24861 -0.27997,0.45025 v 0 c 0.047,0.20165 0.2486,0.32699 0.45025,0.27997 0.081,-0.0301 0.18704,-0.0908 0.25622,-0.14947 v 0 c 0.15706,-0.11233 0.19333,-0.3307 0.081,-0.48779 v 0 c -0.11232,-0.15706 -0.33069,-0.19332 -0.48778,-0.081 -0.0351,0.0159 -0.0207,3e-5 -0.0172,-0.0125 0.0171,-0.007 0.13257,-0.001 0.18013,0.008 0.0672,0.0519 0.12633,0.12128 0.13469,0.0426 0.003,-0.18218 0.0686,-0.52829 0.1791,-1.01343 0.19908,-1.31878 0.70817,-3.3371 0.97928,-4.75858 0.0823,-0.52239 0.12047,-0.981074 0.10678,-1.326303 -0.0171,-0.356587 -0.12908,-0.731908 -0.34649,-0.953593 -0.47622,-0.133844 -0.84865,0.008 -1.05365,0.203835 -0.24821,0.13589 -0.50955,0.449897 -0.60071,0.779039 v 0 c -0.0217,0.273438 0.18232,0.512727 0.45576,0.534494 v 0 c 0.27344,0.02173 0.51276,-0.182316 0.53449,-0.455754 z"
       style="opacity:1;fill:#000000;fill-opacity:1;fill-rule:nonzero;stroke:none;stroke-width:2.64583333;stop-opacity:1;stroke-miterlimit:4;stroke-dasharray:none"
       id="path52"
       inkscape:connector-curvature="0" />
    <path
       d="m 202.9738,104.49481 c -0.28956,-0.004 -0.9875,0.0349 -1.52009,0.0236 v 0 c -0.27414,-0.006 -0.50094,0.21202 -0.50659,0.48616 v 0 c -0.006,0.27414 0.21206,0.50094 0.4862,0.50659 v 0 c 0.27415,0.006 0.50095,-0.21206 0.50656,-0.4862 v 0 c 0.006,-0.27414 -0.21202,-0.50094 -0.48617,-0.50655 -0.23096,-0.0244 -0.31732,-0.0486 -0.32441,-0.0898 v 0 c -0.26374,-0.15268 -0.60131,-0.0626 -0.75396,0.20112 v 0 c -0.15264,0.26373 -0.0626,0.60131 0.20112,0.75395 v 0 c 0.26374,0.15269 0.60131,0.0626 0.75396,-0.20112 v 0 c 0.15268,-0.26373 0.0626,-0.60131 -0.20112,-0.75395 0.1227,0.1046 0.18115,0.222 0.19307,0.23721 v 0 c -0.0264,-0.3089 -0.29813,-0.53792 -0.60702,-0.51153 v 0 c -0.30889,0.0263 -0.53792,0.29813 -0.51153,0.60702 v 0 c 0.0263,0.30889 0.29813,0.53792 0.60703,0.51153 v 0 c 0.30889,-0.0263 0.53791,-0.29813 0.51152,-0.60702 -0.002,0.009 -0.006,0.055 0.0165,0.0134 0.0424,-0.10418 0.13808,-0.22014 0.32939,-0.40214 0.38788,-0.37786 0.97289,-0.76595 1.66459,-1.05332 0.65733,-0.25658 1.31508,-0.3835 1.91907,-0.36989 0.40527,-0.0435 0.61024,-0.0532 0.76772,0.007 0.0738,0.0509 0.16326,0.29306 0.16143,0.74242 -0.001,0.5381 -0.41102,1.19147 -1.00591,1.66187 -0.41194,0.34226 -0.73611,0.49156 -1.05918,0.42086 v 0 c -0.3579,-0.0504 -0.68891,0.19893 -0.73928,0.55683 v 0 c -0.0504,0.35793 0.19893,0.68894 0.55686,0.73931 v 0 c 0.35789,0.0504 0.6889,-0.19893 0.73928,-0.55686 v 0 c 0.0504,-0.35792 -0.19893,-0.6889 -0.55686,-0.73928 -0.16634,0.006 -0.23993,-0.001 -0.39402,-0.1301 v 0 c -0.2341,-0.22581 -0.60695,-0.21911 -0.83277,0.015 v 0 c -0.22581,0.2341 -0.21911,0.60695 0.015,0.83277 v 0 c 0.23411,0.22581 0.60696,0.21911 0.83277,-0.015 v 0 c 0.22581,-0.23411 0.21911,-0.60696 -0.015,-0.83277 -0.17653,-0.13279 -0.31066,-0.30854 -0.45092,-0.66322 v 0 c -0.0927,-0.27379 -0.38986,-0.42062 -0.66368,-0.32788 v 0 c -0.27383,0.0927 -0.42062,0.38986 -0.32788,0.66369 v 0 c 0.0927,0.27379 0.38986,0.42058 0.66365,0.32787 v 0 c 0.27383,-0.0927 0.42062,-0.38986 0.32791,-0.66368 -0.10591,-0.13113 -0.20334,-0.27171 -0.29806,-0.45057 v 0 c -0.038,-0.18934 -0.22218,-0.31207 -0.41152,-0.27415 v 0 c -0.18934,0.038 -0.31207,0.22218 -0.27414,0.41152 -0.0137,0.22557 -0.0137,0.45032 -0.008,0.64911 0.1391,0.47029 0.37408,0.89532 0.62438,1.17479 0.27326,0.28331 0.68474,0.50087 1.0293,0.57869 0.6998,0.0733 1.50304,-0.24239 2.06968,-0.687 0.77452,-0.62953 1.44215,-1.70677 1.52872,-2.67712 -0.0408,-0.75988 -0.40259,-1.54041 -0.9556,-1.93753 -0.55365,-0.18545 -1.01618,-0.17893 -1.40205,-0.13141 -0.66654,0.007 -1.55095,0.19833 -2.32801,0.51707 -0.80423,0.37031 -1.55029,0.89824 -2.01546,1.38042 -0.2352,0.24804 -0.44662,0.54755 -0.5503,0.80553 -0.0502,0.13882 -0.0868,0.35176 -0.0764,0.50959 0.0246,0.16379 0.14122,0.41169 0.26385,0.53989 0.35641,0.18863 0.67761,0.21978 0.96192,0.2099 0.57834,0.0115 1.29017,-0.0274 1.5289,-0.023 v 0 c 0.27428,0.004 0.50006,-0.21466 0.50429,-0.48895 v 0 c 0.004,-0.27428 -0.21469,-0.50006 -0.48898,-0.50433 z"
       style="opacity:1;fill:#000000;fill-opacity:1;fill-rule:nonzero;stroke:none;stroke-width:2.64583333;stop-opacity:1;stroke-miterlimit:4;stroke-dasharray:none"
       id="path54"
       inkscape:connector-curvature="0" />
    <path
       d="m 215.52397,97.606222 c -0.0792,-0.526909 0.0905,-1.94631 0.39487,-3.207914 v 0 c 0.0663,-0.288502 -0.11384,-0.576122 -0.40235,-0.642408 v 0 c -0.2885,-0.06629 -0.57615,0.113841 -0.64244,0.402342 v 0 c -0.0663,0.288502 0.11384,0.576122 0.40234,0.642444 v 0 c 0.28854,0.06629 0.57616,-0.113841 0.64245,-0.402378 0.17078,-0.561234 0.3666,-1.082287 0.52507,-1.43249 v 0 c 0.1191,-0.312137 -0.0374,-0.66174 -0.34957,-0.780838 v 0 c -0.31213,-0.119133 -0.66174,0.03739 -0.78083,0.349532 v 0 c -0.1191,0.312138 0.0374,0.661741 0.34953,0.780839 v 0 c 0.31217,0.119097 0.66177,-0.03739 0.78087,-0.349533 0.0988,-0.214347 0.14337,-0.266594 0.0952,-0.148237 v 0 c 0.25852,-0.268958 0.25002,-0.696524 -0.0189,-0.955005 v 0 c -0.26895,-0.258515 -0.69656,-0.250013 -0.95504,0.01894 v 0 c -0.25848,0.268958 -0.24998,0.69656 0.019,0.95504 v 0 c 0.26896,0.258481 0.69653,0.249979 0.95501,-0.01898 -0.0596,0.06001 -0.4299,0.204047 -0.7287,0.160585 -0.22475,-0.146509 -0.38107,-0.380577 -0.40584,-0.437339 -0.0201,-0.05761 -0.034,-0.084 -0.049,-0.01573 -0.0407,0.413174 -0.18203,1.362005 -0.34152,2.588684 -0.0775,0.726157 -0.16041,1.529291 -0.25887,2.408872 -0.13303,1.267636 -0.29432,2.671802 -0.47551,3.947402 -0.12555,0.94735 -0.2583,1.81265 -0.39804,2.52999 -0.23742,1.02771 -0.45053,1.54901 -0.66629,1.83275 -0.11585,0.16199 -0.12305,0.1634 -0.17155,0.17141 -0.0269,0.0192 0.0514,0.004 -0.0157,-0.0212 -0.2545,-0.002 -0.23651,0.007 -0.37116,-0.0849 -0.50056,-0.31954 -1.20287,-1.0958 -1.63033,-1.82855 v 0 c -0.14922,-0.27997 -0.49717,-0.38598 -0.77713,-0.23679 v 0 c -0.28,0.14923 -0.38601,0.49717 -0.23679,0.77714 v 0 c 0.14923,0.28 0.49717,0.38601 0.77714,0.23678 v 0 c 0.28,-0.14922 0.38597,-0.49713 0.23678,-0.77713 -0.245,-0.42577 -0.34039,-0.71 -0.29742,-1.01099 v 0 c 0.0376,-0.30325 -0.17777,-0.57955 -0.48102,-0.61715 v 0 c -0.30325,-0.0376 -0.57954,0.17776 -0.61715,0.48101 v 0 c -0.0376,0.30325 0.17773,0.57954 0.48098,0.61715 v 0 c 0.30328,0.0376 0.57958,-0.17773 0.61719,-0.48101 0.0175,-0.30427 0.1234,-0.49573 0.51685,-0.77675 v 0 c 0.23872,-0.17138 0.2933,-0.50387 0.12188,-0.7426 v 0 c -0.17142,-0.23872 -0.50387,-0.2933 -0.7426,-0.12188 v 0 c -0.23872,0.17138 -0.2933,0.50387 -0.12188,0.74259 v 0 c 0.17138,0.23873 0.50387,0.2933 0.74259,0.12189 0.3338,-0.31852 0.83895,-0.60375 1.62134,-0.86946 v 0 c 0.18686,-0.0487 0.29887,-0.23964 0.25019,-0.42651 v 0 c -0.0487,-0.18686 -0.23964,-0.29887 -0.42648,-0.25019 -0.8661,0.16373 -1.56562,0.40178 -2.06565,0.68161 -0.54483,0.39264 -0.90791,0.97038 -0.99441,1.50519 -0.061,0.53749 0.1047,1.16166 0.38499,1.69355 0.43405,0.88395 1.229,1.88432 1.87339,2.4154 0.35062,0.21099 0.75406,0.31132 1.03815,0.30219 0.0658,0.0273 0.43466,-0.008 0.68502,-0.11924 0.23079,-0.12362 0.48963,-0.3646 0.65705,-0.60802 0.32413,-0.41387 0.66284,-1.17623 0.94739,-2.29877 0.18217,-0.75857 0.35507,-1.66176 0.51569,-2.62046 0.20087,-1.29519 0.38195,-2.722919 0.53248,-3.996482 0.0973,-0.886531 0.17893,-1.694569 0.25241,-2.402311 0.14888,-1.199798 0.28463,-2.162175 0.32625,-2.666189 -0.005,-0.152576 -0.0239,-0.302507 -0.0603,-0.425591 -0.0335,-0.09148 -0.20104,-0.34477 -0.41754,-0.487997 -0.335,-0.05902 -0.72203,0.0926 -0.80441,0.176635 -0.12199,0.195122 -0.19621,0.426085 -0.25491,0.66802 -0.11981,0.378143 -0.28964,0.968305 -0.42881,1.589299 -0.2952,1.346588 -0.45226,2.905337 -0.3351,3.619007 v 0 c 0.0429,0.270968 0.29725,0.455859 0.56822,0.412961 v 0 c 0.27093,-0.04286 0.45582,-0.297286 0.41293,-0.568219 z"
       style="opacity:1;fill:#000000;fill-opacity:1;fill-rule:nonzero;stroke:none;stroke-width:2.64583333;stop-opacity:1;stroke-miterlimit:4;stroke-dasharray:none"
       id="path56"
       inkscape:connector-curvature="0" />
    <path
       d="m 218.35561,103.85102 c -0.24436,0.10965 -0.49131,0.1221 -0.7288,0.0489 v 0 c -0.24564,-0.0785 -0.50842,0.057 -0.58692,0.30265 v 0 c -0.0785,0.24564 0.057,0.50843 0.30265,0.58692 v 0 c 0.24564,0.0785 0.50839,-0.057 0.58692,-0.30265 v 0 c 0.0785,-0.24564 -0.057,-0.50842 -0.30265,-0.58692 -0.0963,-0.081 -0.0983,-0.13684 -0.0992,-0.21882 v 0 c -0.23957,-0.24328 -0.63098,-0.24631 -0.87425,-0.007 v 0 c -0.24328,0.23957 -0.24631,0.63097 -0.007,0.87425 v 0 c 0.23957,0.24327 0.63097,0.24631 0.87425,0.007 v 0 c 0.24328,-0.23957 0.24631,-0.63098 0.007,-0.87425 0.0681,0.0411 0.087,-0.0538 0.15533,-0.20899 v 0 c 0.0821,-0.37398 -0.15455,-0.74366 -0.52853,-0.82571 v 0 c -0.37398,-0.0821 -0.74366,0.15459 -0.82571,0.52853 v 0 c -0.0821,0.37398 0.15455,0.74366 0.52853,0.82575 v 0 c 0.37398,0.0821 0.74365,-0.15459 0.82571,-0.52857 -0.035,0.0235 0.0345,-0.0188 0.29492,-0.12478 0.26578,-0.11927 0.54476,-0.17339 0.86716,-0.16319 0.32777,-0.0354 0.42365,-0.0427 0.53859,0.019 0.11592,0.1101 0.28988,0.49851 0.36124,0.93189 0.0745,0.33624 0.0781,0.50977 0.005,0.58315 v 0 c -0.19808,0.30695 -0.10985,0.71638 0.1971,0.9145 v 0 c 0.30695,0.19809 0.71635,0.10986 0.91447,-0.19709 v 0 c 0.19808,-0.30696 0.10986,-0.71639 -0.1971,-0.91448 v 0 c -0.30695,-0.19812 -0.71638,-0.10985 -0.91447,0.19707 0.13378,-0.12937 0.18839,-0.15325 0.0662,-0.16965 v 0 c -0.36949,-0.0216 -0.68661,0.26038 -0.70823,0.62992 v 0 c -0.0216,0.3695 0.26038,0.68661 0.62992,0.70823 v 0 c 0.3695,0.0216 0.68661,-0.26038 0.70823,-0.62992 v 0 c 0.0216,-0.3695 -0.26038,-0.68661 -0.62992,-0.70823 -0.13525,-0.006 -0.26059,-0.0456 -0.46517,-0.1457 v 0 c -0.34025,-0.15759 -0.74383,-0.01 -0.90142,0.33073 v 0 c -0.15758,0.34025 -0.01,0.74383 0.33073,0.90145 v 0 c 0.34026,0.15759 0.74387,0.01 0.90146,-0.33076 v 0 c 0.15758,-0.34026 0.01,-0.74384 -0.33077,-0.90142 -0.85146,-0.2588 -1.80206,-1.05022 -1.96956,-2.14701 v 0 c -0.0156,-0.19247 -0.18422,-0.33588 -0.37669,-0.32032 v 0 c -0.19248,0.0156 -0.33588,0.18426 -0.32032,0.3767 0.0378,1.44148 1.12663,2.7384 2.09592,3.32281 0.3012,0.13416 0.66474,0.2328 0.95751,0.25167 0.30582,0.009 0.7276,-0.10319 0.9913,-0.30155 0.37755,-0.5691 0.43731,-1.19677 0.355,-1.70332 -0.13088,-0.61937 -0.5057,-1.36839 -1.00256,-1.7998 -0.50997,-0.24465 -0.9567,-0.277 -1.29346,-0.24366 -0.37299,-0.0166 -0.92279,0.0808 -1.33829,0.24648 -0.4209,0.17893 -0.88509,0.55499 -1.08924,0.9852 -0.0804,0.48232 -0.008,0.98298 0.17293,1.31999 0.31401,0.2817 0.58896,0.37973 0.80941,0.39959 0.39487,0.12884 0.93843,0.12969 1.3583,-0.007 v 0 c 0.25718,-0.0954 0.38831,-0.38128 0.29288,-0.63845 v 0 c -0.0954,-0.25718 -0.38128,-0.38831 -0.63846,-0.29288 z"
       style="opacity:1;fill:#000000;fill-opacity:1;fill-rule:nonzero;stroke:none;stroke-width:2.64583333;stop-opacity:1;stroke-miterlimit:4;stroke-dasharray:none"
       id="path58"
       inkscape:connector-curvature="0" />
    <path
       d="m 223.25527,106.73361 c -0.0468,-0.003 -0.16506,-0.21919 -0.2027,-0.34989 v 0 c -0.0751,0.33436 0.13518,0.66626 0.46954,0.74129 v 0 c 0.33437,0.075 0.66626,-0.13518 0.74133,-0.46954 v 0 c 0.075,-0.33437 -0.13518,-0.6663 -0.46958,-0.74133 v 0 c -0.33436,-0.075 -0.66626,0.13518 -0.74129,0.46958 0.0144,-0.13607 0.11811,-0.32632 0.12146,-0.38421 v 0 c -0.35271,0.2111 -0.4675,0.6682 -0.2564,1.0209 v 0 c 0.2111,0.35271 0.6682,0.46751 1.0209,0.2564 v 0 c 0.35271,-0.2111 0.4675,-0.66819 0.2564,-1.0209 v 0 c -0.2111,-0.35271 -0.66819,-0.4675 -1.0209,-0.2564 0.032,0.007 0.0661,0.009 -0.0135,-0.003 v 0 c -0.39702,-0.049 -0.75858,0.23305 -0.80758,0.63003 v 0 c -0.049,0.39698 0.23304,0.75854 0.63002,0.80757 v 0 c 0.39699,0.049 0.75855,-0.23304 0.80758,-0.63002 v 0 c 0.049,-0.39702 -0.23304,-0.75858 -0.63002,-0.80758 -0.0932,0.0122 -0.066,0.0577 -0.0997,0.012 v 0 c -0.23763,-0.28698 -0.66294,-0.32699 -0.94993,-0.0894 v 0 c -0.28698,0.23767 -0.32698,0.66294 -0.0893,0.94993 v 0 c 0.23764,0.28698 0.66291,0.32698 0.9499,0.0893 v 0 c 0.28698,-0.23764 0.32698,-0.66291 0.0894,-0.94989 -0.15837,-0.002 -0.28583,-0.0267 -0.35398,-0.33126 v 0 c 0.0213,-0.19191 -0.11705,-0.36474 -0.309,-0.38601 v 0 c -0.19191,-0.0213 -0.36474,0.11705 -0.38601,0.30896 -0.15085,0.44136 -0.1132,0.93073 0.009,1.26845 0.248,0.29446 0.67271,0.50539 0.96068,0.56529 0.30367,0.0355 0.70464,-0.0329 0.95663,-0.15752 0.11335,-0.12375 0.29041,-0.39557 0.32491,-0.62141 -0.0175,-0.22038 -0.16888,-0.53478 -0.31828,-0.63652 v 0 c -0.19734,-0.19054 -0.51181,-0.18496 -0.70231,0.0124 v 0 c -0.1905,0.19738 -0.18496,0.51181 0.0124,0.70231 z"
       style="opacity:1;fill:#000000;fill-opacity:1;fill-rule:nonzero;stroke:none;stroke-width:2.64583333;stop-opacity:1;stroke-miterlimit:4;stroke-dasharray:none"
       id="path68"
       inkscape:connector-curvature="0" />
    <path
       d="m 224.82009,100.56126 c 0.0183,0.0386 0.079,-0.003 0.14545,-0.0705 v 0 c 0.13116,-0.30296 -0.008,-0.654892 -0.31111,-0.78609 v 0 c -0.30297,-0.131163 -0.65494,0.0081 -0.7861,0.31111 v 0 c -0.13116,0.30297 0.008,0.65494 0.31112,0.7861 v 0 c 0.30296,0.13116 0.65493,-0.008 0.78609,-0.31112 0.0419,-0.0725 0.0996,-0.20143 0.14259,-0.33203 v 0 c 0.0822,-0.33662 -0.12414,-0.676098 -0.46076,-0.75826 v 0 c -0.33662,-0.08213 -0.6761,0.124178 -0.75826,0.460798 v 0 c -0.0822,0.336622 0.12414,0.676102 0.46076,0.758262 v 0 c 0.33666,0.0821 0.67614,-0.12414 0.75826,-0.4608 0.0234,-0.13127 0.0432,-0.323885 0.0366,-0.49858 v 0 c -0.001,-0.333834 -0.27291,-0.603427 -0.60674,-0.602192 v 0 c -0.33384,0.0014 -0.60343,0.272909 -0.60216,0.606742 v 0 c 10e-4,0.333834 0.27291,0.60343 0.60675,0.60219 v 0 c 0.33383,-0.001 0.60342,-0.272907 0.60215,-0.60674 -0.0867,-0.16443 -0.20006,-0.367524 -0.33923,-0.527932 v 0 c -0.0592,-0.183798 -0.25619,-0.284833 -0.43998,-0.225637 v 0 c -0.1838,0.0592 -0.28484,0.256152 -0.22564,0.439984 -0.0424,0.14023 -0.11832,0.222109 -0.20405,0.318171 -0.006,0.08512 -0.0212,0.127352 -0.0468,0.19692 -0.006,0.0689 -0.0101,0.105446 -0.0207,0.154124 0.014,0.0536 0.0319,0.089 0.0401,0.15092 v 0 c -0.10897,0.25174 0.007,0.54416 0.25852,0.65314 v 0 c 0.25174,0.10893 0.54416,-0.007 0.65313,-0.25856 z"
       style="opacity:1;fill:#000000;fill-opacity:1;fill-rule:nonzero;stroke:none;stroke-width:2.64583333;stop-opacity:1;stroke-miterlimit:4;stroke-dasharray:none"
       id="path70"
       inkscape:connector-curvature="0" />
    <path
       d="m 185.04884,115.88755 c 0.50451,0.1293 1.54058,0.14934 2.73167,0.14313 v 0 c 0.17522,2.6e-4 0.3175,-0.14154 0.31781,-0.31676 v 0 c 2.9e-4,-0.17523 -0.1415,-0.3175 -0.31676,-0.31782 v 0 c -0.17522,-2.7e-4 -0.3175,0.1415 -0.31781,0.31672 v 0 c -2.9e-4,0.17523 0.1415,0.31754 0.31676,0.31786 0.83887,0.009 1.59815,0.0736 2.42626,0.23251 v 0 c 0.17671,0.0332 0.34689,-0.0831 0.38008,-0.25979 v 0 c 0.0332,-0.1767 -0.0831,-0.34688 -0.25978,-0.38008 v 0 c -0.17671,-0.0332 -0.34685,0.0831 -0.38009,0.25979 v 0 c -0.0332,0.1767 0.0831,0.34685 0.25979,0.38008 0.78592,0.15505 1.80809,0.30297 2.95984,0.34706 v 0 c 0.18542,0.007 0.34096,-0.1386 0.34745,-0.32402 v 0 c 0.006,-0.18542 -0.1386,-0.34096 -0.32402,-0.34745 v 0 c -0.18542,-0.006 -0.34096,0.1386 -0.34746,0.32402 v 0 c -0.006,0.18542 0.13861,0.34096 0.32403,0.34745 0.60392,0.0119 1.21941,0.008 1.76149,0.005 0.88399,0.0116 1.47338,0.0496 2.07476,0.0867 0.91143,0.0639 2.21135,0.075 3.69259,-0.0162 1.31452,-0.0842 2.49813,-0.17459 4.09455,-0.17162 1.21367,0.0122 2.73061,0.0653 4.47033,0.14513 0.81023,0.0319 1.66148,0.0646 2.48042,0.10537 1.14617,0.0777 2.21985,0.176 3.35044,0.26762 1.35911,0.11282 2.82564,0.20906 4.42196,0.27742 2.34456,0.074 4.96221,0.094 7.50958,0.0793 2.24592,-0.0112 4.30205,-0.071 6.42676,-0.18728 2.85747,-0.16309 6.14656,-0.38623 9.27876,-0.54074 4.62376,-0.22222 8.27211,-0.2171 11.62781,-0.19699 3.43274,0.0137 5.95803,0.0393 8.29169,0.0713 2.13966,0.0362 4.50447,0.01 6.87496,0.0197 1.90941,0.0199 4.02625,0.12993 6.50216,0.16584 2.10315,0.0177 4.24151,-0.0288 6.25411,-0.0126 3.1092,0.0425 6.6506,0.14474 9.85971,0.18852 2.57433,0.0684 5.00899,0.17773 7.37687,0.24458 2.3507,0.0546 4.24578,0.18055 5.99038,0.26699 1.67322,0.0779 3.51045,0.0636 4.94467,-0.004 1.26894,-0.0541 1.89163,-0.12185 2.56501,-0.15629 0.78825,-0.0417 2.01408,-0.0773 3.07947,-0.18104 v 0 c 0.16894,-0.0163 0.29266,-0.16644 0.27637,-0.33535 v 0 c -0.0163,-0.16895 -0.16645,-0.29266 -0.33536,-0.27637 v 0 c -0.16891,0.0163 -0.29263,0.16644 -0.27636,0.33535 v 0 c 0.0163,0.16891 0.16644,0.29263 0.33535,0.27637 1.09756,-0.1106 1.84774,-0.21333 2.73265,-0.21763 v 0 c 0.17858,-0.002 0.32166,-0.14852 0.31958,-0.32709 v 0 c -0.002,-0.17858 -0.14852,-0.32167 -0.32709,-0.31962 v 0 c -0.17858,0.002 -0.32166,0.14852 -0.31959,0.32709 v 0 c 0.002,0.17858 0.14853,0.32167 0.3271,0.31962 1.25071,-0.0184 3.39362,0.10651 4.71745,0.007 v 0 c 0.18249,-0.0143 0.31888,-0.17381 0.30459,-0.35631 v 0 c -0.0143,-0.18252 -0.17378,-0.31891 -0.3563,-0.30462 v 0 c -0.18253,0.0143 -0.31888,0.17381 -0.30463,0.35634 v 0 c 0.0143,0.18249 0.17382,0.31888 0.35634,0.30459 0.34834,-0.0578 0.65716,-0.13497 0.86745,-0.23495 v 0 c 0.12629,-0.0418 0.19477,-0.17805 0.15296,-0.30434 v 0 c -0.0418,-0.12626 -0.17804,-0.19477 -0.3043,-0.15297 -0.17699,0.0282 -0.43406,0.0356 -0.76793,0.0313 -1.26806,0.10309 -3.39556,-0.0161 -4.67476,0.007 -0.92139,0.0166 -1.70114,0.133 -2.78529,0.25287 -1.04042,0.0993 -2.25245,0.13187 -3.05181,0.17163 -0.69194,0.0455 -1.3038,0.12227 -2.55835,0.18535 -1.42123,0.0645 -3.23267,0.0759 -4.8878,-0.004 -1.73825,-0.0895 -3.64279,-0.21936 -6.00516,-0.27778 -2.36337,-0.0462 -4.7993,-0.135 -7.3804,-0.18309 -3.2054,-0.071 -6.74599,-0.20069 -9.86193,-0.27065 -2.02484,-0.0247 -4.16296,0.0134 -6.25432,-0.0126 -2.46247,-0.0427 -4.57864,-0.15988 -6.50512,-0.18722 -2.37839,-0.0113 -4.73943,0.0144 -6.87,-0.0228 -2.33588,-0.0344 -4.86484,-0.0624 -8.2981,-0.0785 -3.35608,-0.034 -7.02593,-0.0529 -11.66781,0.15607 -3.14004,0.16834 -6.43121,0.40499 -9.28264,0.58109 -2.11462,0.11967 -4.15308,0.18281 -6.39036,0.19784 -2.54194,0.003 -5.14689,-0.0279 -7.4809,-0.11306 -1.58831,-0.0511 -3.04225,-0.12961 -4.39494,-0.22493 -1.12512,-0.0942 -2.2031,-0.19576 -3.36151,-0.27736 -0.82734,-0.0493 -1.68166,-0.09 -2.48991,-0.12982 -1.7417,-0.0862 -3.27007,-0.14609 -4.49742,-0.16478 -1.62426,3e-5 -2.83493,0.0944 -4.14444,0.18094 -1.45739,0.0935 -2.71335,0.0859 -3.6038,0.0265 -0.60445,-0.0325 -1.21366,-0.0667 -2.1179,-0.0738 -0.54867,0.006 -1.15556,0.0133 -1.74459,0.005 -1.11301,-0.035 -2.08481,-0.16972 -2.85549,-0.31503 -0.86268,-0.15896 -1.68155,-0.22296 -2.54497,-0.22751 -1.18576,-0.0103 -2.16035,-0.0433 -2.54826,-0.1669 v 0 c -0.18179,-0.0515 -0.37095,0.0541 -0.42245,0.2359 v 0 c -0.0515,0.18179 0.0541,0.37095 0.2359,0.42246 z"
       style="opacity:1;fill:#000000;fill-opacity:1;fill-rule:nonzero;stroke:none;stroke-width:2.64583333;stop-opacity:1;stroke-miterlimit:4;stroke-dasharray:none"
       id="path74"
       inkscape:connector-curvature="0" />
    <path
       inkscape:connector-curvature="0"
       id="path547"
       d="m 262.96884,89.347267 c 1.53997,-0.689071 4.37363,-0.373216 5.53669,-0.462682 0.46746,-0.03596 1.33286,-0.306417 1.79304,-0.398453 0.3256,-0.06512 0.66861,0.05459 0.99613,0 0.14648,-0.02441 0.25758,-0.152269 0.39846,-0.199227 0.126,-0.042 0.30453,0.09392 0.39845,0 0.0664,-0.06641 -0.28996,-0.223478 -0.19923,-0.199227 0.84501,0.225862 1.69855,0.418503 2.54783,0.627754"
       style="fill:none;stroke:#000000;stroke-width:2.64583333;stroke-linecap:butt;stroke-linejoin:miter;stroke-opacity:1;opacity:0;stroke-miterlimit:4;stroke-dasharray:none" />
    <path
       inkscape:connector-curvature="0"
       id="path1372"
       d="m 280.27692,87.182146 -18.929,1.621719"
       style="fill:none;stroke:#000000;stroke-width:0.264583px;stroke-linecap:butt;stroke-linejoin:miter;stroke-opacity:1" />
    <path
       inkscape:connector-curvature="0"
       id="path1374"
       d="m 251.82317,88.208041 22.61704,0.507391"
       style="fill:none;stroke:#000000;stroke-width:0.264583px;stroke-linecap:butt;stroke-linejoin:miter;stroke-opacity:1" />
    <path
       inkscape:connector-curvature="0"
       id="path1376"
       d="m 261.34792,88.803865 13.09229,-0.08843"
       style="fill:none;stroke:#000000;stroke-width:0.264583px;stroke-linecap:butt;stroke-linejoin:miter;stroke-opacity:1" />
    <path
       inkscape:connector-curvature="0"
       id="path1378"
       d="m 280.27837,87.18245 -18.93045,1.621415 2.82179,0.658848"
       style="fill:none;stroke:#000000;stroke-width:0.264583px;stroke-linecap:butt;stroke-linejoin:miter;stroke-opacity:1" />
  </g>
</svg>
