<?xml version="1.0" encoding="UTF-8" standalone="no"?>
<svg
   xmlns:dc="http://purl.org/dc/elements/1.1/"
   xmlns:cc="http://creativecommons.org/ns#"
   xmlns:rdf="http://www.w3.org/1999/02/22-rdf-syntax-ns#"
   xmlns:svg="http://www.w3.org/2000/svg"
   xmlns="http://www.w3.org/2000/svg"
   xmlns:sodipodi="http://sodipodi.sourceforge.net/DTD/sodipodi-0.dtd"
   xmlns:inkscape="http://www.inkscape.org/namespaces/inkscape"
   inkscape:version="1.0beta1 (32d4812, 2019-09-19)"
   sodipodi:docname="todo-circle.svg"
   id="svg359"
   version="1.1"
   viewBox="0 0 12.005556 12.267429"
   height="12.267429mm"
   width="12.005556mm">
  <defs
     id="defs353" />
  <sodipodi:namedview
     inkscape:window-maximized="0"
     inkscape:window-y="23"
     inkscape:window-x="0"
     inkscape:window-height="770"
     inkscape:window-width="1440"
     showgrid="false"
     inkscape:document-rotation="0"
     inkscape:current-layer="layer1"
     inkscape:document-units="mm"
     inkscape:cy="23.18254"
     inkscape:cx="22.68768"
     inkscape:zoom="12.121189"
     inkscape:pageshadow="2"
     inkscape:pageopacity="0.0"
     borderopacity="1.0"
     bordercolor="#666666"
     pagecolor="#ffffff"
     id="base" />
  <metadata
     id="metadata356">
    <rdf:RDF>
      <cc:Work
         rdf:about="">
        <dc:format>image/svg+xml</dc:format>
        <dc:type
           rdf:resource="http://purl.org/dc/dcmitype/StillImage" />
        <dc:title></dc:title>
      </cc:Work>
    </rdf:RDF>
  </metadata>
  <g
     transform="translate(169.28857,-223.6759)"
     id="layer1"
     inkscape:groupmode="layer"
     inkscape:label="Layer 1">
    <path
       d="m -167.8653,228.13604 c -0.0395,0.0122 0.037,0.0212 0.0712,0.0296 v 0 c -0.15812,-0.10598 -0.37222,-0.0637 -0.47819,0.0943 v 0 c -0.10601,0.15812 -0.0638,0.37222 0.0943,0.47819 v 0 c 0.15811,0.10601 0.37221,0.0638 0.47819,-0.0943 v 0 c 0.10601,-0.15808 0.0638,-0.37218 -0.0943,-0.47819 0.028,0.034 0.0724,0.11081 0.0743,0.0919 v 0 c -0.0245,-0.19014 -0.19854,-0.32445 -0.38869,-0.29993 v 0 c -0.19015,0.0245 -0.32445,0.19851 -0.29993,0.38869 v 0 c 0.0245,0.19015 0.19854,0.32442 0.38869,0.2999 v 0 c 0.19014,-0.0245 0.32445,-0.19851 0.29993,-0.38866 -0.0142,-0.0604 0.0197,-0.18362 0.0903,-0.36389 v 0 c 0.0688,-0.18193 -0.0228,-0.38516 -0.20475,-0.45399 v 0 c -0.18189,-0.0688 -0.38516,0.0229 -0.45399,0.20475 v 0 c -0.0688,0.18193 0.0229,0.38517 0.20476,0.45399 v 0 c 0.18192,0.0688 0.38519,-0.0229 0.45398,-0.20475 0.0735,-0.17663 0.20793,-0.37151 0.36464,-0.60346 0.25107,-0.46062 0.45416,-0.83562 0.91126,-1.25705 0.44249,-0.41586 1.02104,-0.81898 1.79003,-1.06292 1.08112,-0.36506 2.40513,-0.42143 3.61629,0.12365 0.47483,0.19826 0.88476,0.4585 1.26784,0.82779 0.60343,0.64445 1.03061,1.51896 1.24866,2.4674 0.1349,0.56264 0.18048,1.09019 0.12495,1.62045 -0.13641,0.83019 -0.54214,1.55197 -1.22364,2.23273 -0.42129,0.38703 -0.91789,0.73032 -1.50163,1.05801 -0.83341,0.46828 -1.7544,0.86554 -2.66005,1.14932 -0.6634,0.21547 -1.25766,0.34808 -1.81603,0.37818 v 0 c -0.3072,0.0292 -0.53259,0.30194 -0.50338,0.60914 v 0 c 0.0292,0.30723 0.30194,0.53259 0.60914,0.50338 v 0 c 0.3072,-0.0292 0.53259,-0.30191 0.50338,-0.60915 v 0 c -0.0292,-0.30719 -0.30195,-0.53258 -0.60914,-0.50337 -0.88061,0.0711 -1.51762,-0.11131 -2.03782,-0.64379 v 0 c -0.1905,-0.19762 -0.50518,-0.20341 -0.70281,-0.0129 v 0 c -0.19762,0.1905 -0.20341,0.50514 -0.0129,0.70281 v 0 c 0.1905,0.19762 0.50514,0.20341 0.7028,0.0129 v 0 c 0.19763,-0.1905 0.20342,-0.50518 0.0129,-0.70281 -0.58664,-0.63235 -0.92262,-1.66606 -1.00595,-2.82539 v 0 c -0.008,-0.20363 -0.17893,-0.36248 -0.38255,-0.35483 v 0 c -0.20359,0.008 -0.36245,0.17893 -0.35479,0.38255 v 0 c 0.008,0.20363 0.17893,0.36248 0.38255,0.35483 v 0 c 0.20359,-0.008 0.36244,-0.17893 0.35479,-0.38255 -0.089,-1.17035 0.0979,-2.35141 0.56653,-3.25703 v 0 c 0.0655,-0.11578 0.0248,-0.26271 -0.0909,-0.32826 v 0 c -0.11575,-0.0655 -0.26271,-0.0248 -0.32823,0.091 -0.58402,0.95374 -0.88674,2.27129 -0.88469,3.52206 0.008,1.26178 0.34364,2.57112 1.00115,3.45786 0.71434,0.75057 1.76706,1.12293 2.86018,1.09795 0.66851,-0.0859 1.37717,-0.28956 2.06191,-0.55637 0.93105,-0.33873 1.91827,-0.81318 2.76987,-1.34027 0.60523,-0.36093 1.16957,-0.77456 1.63054,-1.21994 0.76923,-0.76052 1.30849,-1.7 1.49772,-2.68954 0.0883,-0.63281 0.0577,-1.308 -0.0659,-1.94049 -0.214,-1.06239 -0.71515,-2.16733 -1.40748,-2.97861 -0.47195,-0.47078 -1.03032,-0.84688 -1.58267,-1.09851 -1.44857,-0.60392 -3.13425,-0.53676 -4.37885,-0.11635 -0.88618,0.35334 -1.60729,0.91803 -2.06707,1.42318 -0.49674,0.53565 -0.74118,1.06323 -0.93059,1.50622 -0.12633,0.19589 -0.28674,0.45201 -0.38626,0.7065 -0.0844,0.22945 -0.1433,0.49837 -0.12276,0.70817 0.0193,0.11585 0.11281,0.2975 0.22913,0.39127 0.12495,0.0693 0.33129,0.0946 0.47042,0.0649 v 0 c 0.18394,-0.0432 0.29803,-0.2274 0.25482,-0.41134 v 0 c -0.0432,-0.18394 -0.22737,-0.29802 -0.41131,-0.25481 z"
       style="opacity:1;fill:#000000;fill-opacity:1;fill-rule:nonzero;stroke:none;stroke-width:0.352777;stop-opacity:1"
       id="path120"
       inkscape:connector-curvature="0" />
  </g>
</svg>
