<?xml version="1.0" encoding="UTF-8" standalone="no"?>
<svg
   xmlns:dc="http://purl.org/dc/elements/1.1/"
   xmlns:cc="http://creativecommons.org/ns#"
   xmlns:rdf="http://www.w3.org/1999/02/22-rdf-syntax-ns#"
   xmlns:svg="http://www.w3.org/2000/svg"
   xmlns="http://www.w3.org/2000/svg"
   xmlns:sodipodi="http://sodipodi.sourceforge.net/DTD/sodipodi-0.dtd"
   xmlns:inkscape="http://www.inkscape.org/namespaces/inkscape"
   inkscape:version="1.0beta1 (32d4812, 2019-09-19)"
   sodipodi:docname="todo-tick.svg"
   id="svg359"
   version="1.1"
   viewBox="0 0 12.005556 12.267429"
   height="12.267429mm"
   width="12.005556mm">
  <defs
     id="defs353" />
  <sodipodi:namedview
     inkscape:window-maximized="0"
     inkscape:window-y="23"
     inkscape:window-x="0"
     inkscape:window-height="770"
     inkscape:window-width="1440"
     showgrid="false"
     inkscape:document-rotation="0"
     inkscape:current-layer="layer1"
     inkscape:document-units="mm"
     inkscape:cy="23.18254"
     inkscape:cx="22.68768"
     inkscape:zoom="12.121189"
     inkscape:pageshadow="2"
     inkscape:pageopacity="0.0"
     borderopacity="1.0"
     bordercolor="#666666"
     pagecolor="#ffffff"
     id="base" />
  <metadata
     id="metadata356">
    <rdf:RDF>
      <cc:Work
         rdf:about="">
        <dc:format>image/svg+xml</dc:format>
        <dc:type
           rdf:resource="http://purl.org/dc/dcmitype/StillImage" />
      </cc:Work>
    </rdf:RDF>
  </metadata>
  <g
     transform="translate(169.28857,-223.6759)"
     id="layer1"
     inkscape:groupmode="layer"
     inkscape:label="Layer 1">
    <path
       d="m -166.69845,231.65348 c 0.007,0.007 -0.0504,0.0172 -0.0329,0.0471 v 0 c 0.19413,0.0921 0.42616,0.009 0.51823,-0.18482 v 0 c 0.092,-0.19417 0.009,-0.42619 -0.18485,-0.51823 v 0 c -0.19414,-0.0921 -0.42616,-0.009 -0.51823,0.18482 v 0 c -0.092,0.19417 -0.009,0.42616 0.18485,0.51823 0.0224,0.0246 0.0283,0.0506 0.073,0.12326 v 0 c 0.16376,0.17653 0.43959,0.18687 0.61612,0.0231 v 0 c 0.1765,-0.16372 0.18687,-0.43956 0.0231,-0.61609 v 0 c -0.16376,-0.17653 -0.4396,-0.18687 -0.61613,-0.0231 v 0 c -0.17649,0.16376 -0.18683,0.4396 -0.0231,0.61609 0.0967,0.14634 0.19254,0.36234 0.31256,0.6682 v 0 c 0.13261,0.26081 0.45155,0.36474 0.71236,0.23213 v 0 c 0.26081,-0.13261 0.36474,-0.45152 0.23213,-0.71233 v 0 c -0.13265,-0.26081 -0.45156,-0.36474 -0.71237,-0.23213 v 0 c -0.2608,0.13261 -0.36473,0.45152 -0.23212,0.71233 0.14143,0.29669 0.29834,0.70312 0.47141,1.04327 0.18292,0.29598 0.41378,0.56409 0.64301,0.70379 0.33228,0.0847 0.56956,0.0415 0.69787,-0.0192 0.12174,-0.0691 0.2625,-0.20055 0.33626,-0.30032 0.11092,-0.19804 0.15406,-0.45935 0.14394,-0.62551 -0.1772,-0.42587 -0.24215,-0.44513 -0.18235,-0.55269 -0.009,-0.0185 0.0205,-0.0794 0.20655,-0.34498 0.29714,-0.43907 0.80373,-1.04765 1.51271,-1.84785 0.38753,-0.44193 0.81827,-0.92238 1.2748,-1.42237 0.44929,-0.50645 0.92082,-1.0288 1.39488,-1.54506 v 0 c 0.21195,-0.22415 0.20204,-0.57771 -0.0221,-0.78966 v 0 c -0.22419,-0.21195 -0.57774,-0.20203 -0.78966,0.0222 v 0 c -0.21195,0.22415 -0.20203,0.57771 0.0221,0.78965 v 0 c 0.22419,0.21195 0.57771,0.20204 0.78966,-0.0222 0.47823,-0.51248 0.95539,-1.01533 1.41235,-1.48689 v 0 c 0.21089,-0.21463 0.20789,-0.55957 -0.007,-0.7705 v 0 c -0.21463,-0.21089 -0.55958,-0.20786 -0.77051,0.007 v 0 c -0.21089,0.2146 -0.20789,0.55958 0.007,0.77047 v 0 c 0.21463,0.21092 0.55962,0.20789 0.77051,-0.007 0.21787,-0.24638 0.42908,-0.48317 0.63327,-0.71007 v 0 c 0.19332,-0.19191 0.19448,-0.50423 0.002,-0.69755 v 0 c -0.19195,-0.19332 -0.50427,-0.19445 -0.69759,-0.002 v 0 c -0.19332,0.19191 -0.19445,0.50419 -0.002,0.69751 v 0 c 0.19191,0.19332 0.50419,0.19448 0.69751,0.002 0.15713,-0.27453 0.30537,-0.53714 0.44412,-0.78701 v 0 c 0.096,-0.0922 0.099,-0.24462 0.007,-0.34054 v 0 c -0.0921,-0.096 -0.24457,-0.099 -0.34052,-0.007 -0.25742,0.1306 -0.52758,0.27707 -0.80543,0.43434 -0.23075,0.20482 -0.47103,0.42199 -0.71564,0.64654 -0.46768,0.46937 -0.95871,0.97342 -1.44678,1.483 -0.49227,0.50582 -0.9851,1.02122 -1.45278,1.51748 -0.46065,0.50352 -0.89965,0.99211 -1.2907,1.437 -0.71699,0.8116 -1.26482,1.47327 -1.59604,1.96183 -0.22394,0.32121 -0.37363,0.64552 -0.41367,0.90703 0.0153,0.53481 0.28462,0.892 0.3507,0.98471 -0.0494,-0.15159 -0.0281,-0.22585 -0.0174,-0.25661 0.0101,-0.005 0.0485,-0.036 0.0518,-0.0399 0.01,0.005 0.11258,-0.01 0.13554,-0.0113 0.1222,0.0403 0.0514,-0.0651 -0.0646,-0.27982 -0.12777,-0.25806 -0.27569,-0.65402 -0.43818,-1.00679 -0.20158,-0.32717 -0.41713,-0.61348 -0.62509,-0.79608 -0.10795,-0.092 -0.25284,-0.18708 -0.378,-0.23308 -0.13229,-0.0411 -0.33623,-0.0517 -0.47322,-0.007 v 0 c -0.18295,0.0474 -0.2928,0.2341 -0.24542,0.41702 v 0 c 0.0474,0.18291 0.2341,0.2928 0.41701,0.24539 z"
       style="opacity:1;fill:#000000;fill-opacity:1;fill-rule:nonzero;stroke:none;stroke-width:0.352777;stop-opacity:1"
       id="path172"
       inkscape:connector-curvature="0" />
  </g>
</svg>
